<?xml version="1.0" encoding="utf-8"?>
<!-- Generator: Adobe Illustrator 16.0.4, SVG Export Plug-In . SVG Version: 6.00 Build 0)  -->
<!DOCTYPE svg PUBLIC "-//W3C//DTD SVG 1.1//EN" "http://www.w3.org/Graphics/SVG/1.1/DTD/svg11.dtd">
<svg version="1.1" id="Calque_1" xmlns="http://www.w3.org/2000/svg" xmlns:xlink="http://www.w3.org/1999/xlink" x="0px" y="0px"
	 width="101.27px" height="58.737px" viewBox="89.365 20.612 101.27 58.737" enable-background="new 89.365 20.612 101.27 58.737"
	 xml:space="preserve">
<g>
	<g>
		<rect id="XMLID_24_" x="110.254" y="30.54" fill="#37474F" width="7.029" height="7.784"/>
		<path id="XMLID_23_" fill="#37474F" d="M123.28,72.121h-5.997V44.996c0-0.993-0.794-1.827-1.827-1.827h-7.268v7.268h1.906v21.644
			h-5.798v7.228h25.219C126.815,77.562,124.67,75.06,123.28,72.121"/>
		<path id="XMLID_22_" fill="#37474F" d="M190.635,50.477v-7.268h-12.629V30.54h-7.228v12.629h-12.231
			c2.7,1.787,4.885,4.29,6.234,7.268h5.997v14.456c0,7.943,6.513,14.456,14.456,14.456h5.4v-7.228h-5.4
			c-3.972,0-7.229-3.257-7.229-7.229V50.437C178.006,50.477,190.635,50.477,190.635,50.477z"/>
		<path id="XMLID_19_" fill="#37474F" d="M147.665,43.169h-7.228c-7.943,0-14.456,6.513-14.456,14.496v7.228
			c0,7.943,6.513,14.456,14.456,14.456h5.124h2.104c7.942,0,14.456-6.513,14.456-14.456v-7.228
			C162.081,49.682,155.607,43.169,147.665,43.169 M154.893,64.893c0,3.972-3.256,7.229-7.228,7.229h-7.228
			c-3.972,0-7.228-3.257-7.228-7.229v-7.228c0-3.972,3.256-7.228,7.228-7.228h7.228c3.972,0,7.228,3.256,7.228,7.228V64.893
			L154.893,64.893z"/>
	</g>
	<path id="XMLID_16_" fill="#F69322" d="M92.264,75.139c0-2.462,1.271-3.693,3.773-3.693c0.318,0,0.675,0.04,0.993,0.08v5.361
		c1.152,0,1.708-0.834,1.708-2.502c0-0.834-0.08-1.629-0.238-2.463h1.628c0.159,0.715,0.238,1.589,0.238,2.621
		c0,2.939-1.39,4.408-4.13,4.408C93.614,78.951,92.264,77.681,92.264,75.139z M95.639,76.887v-3.455H95.56
		c-1.112,0-1.668,0.556-1.668,1.707C93.892,76.211,94.488,76.807,95.639,76.887z"/>
	<path id="XMLID_14_" fill="#F69322" d="M100.167,63.939c0.159,0.676,0.238,1.351,0.238,2.065c0,2.859-1.39,4.329-4.21,4.329
		c-2.582,0-3.892-1.43-3.892-4.329c0-0.715,0.08-1.43,0.238-2.065h1.628c-0.159,0.676-0.238,1.311-0.238,1.946
		c0,1.628,0.754,2.423,2.264,2.423c1.708,0,2.582-0.795,2.582-2.423c0-0.636-0.08-1.271-0.238-1.946H100.167z"/>
	<path id="XMLID_12_" fill="#F69322" d="M89.365,60.564h11.041v2.025H89.365V60.564z"/>
	<path id="XMLID_9_" fill="#F69322" d="M89.365,56.553h1.628v2.025h-1.628V56.553z M92.264,56.553h8.102v2.025h-8.102V56.553z"/>
	<path id="XMLID_6_" fill="#F69322" d="M92.621,54.646c-0.238-1.072-0.318-2.225-0.318-3.416c0-2.74,1.271-4.129,3.853-4.129
		c2.82,0,4.25,1.271,4.25,3.852c0,0.557-0.119,1.111-0.397,1.668h3.296v2.025H92.621L92.621,54.646z M98.261,52.582
		c0.278-0.518,0.437-1.072,0.437-1.629c0-1.231-0.874-1.827-2.581-1.827c-1.47,0-2.185,0.675-2.185,2.026
		c0,0.596,0.04,1.072,0.119,1.43H98.261z"/>
	<path id="XMLID_4_" fill="#F69322" d="M100.008,45.552H98.3c0.357-0.914,0.556-1.946,0.556-3.098c0-0.874-0.278-1.311-0.834-1.311
		c-0.556,0-0.794,0.278-0.794,0.874v1.469c0,1.628-0.794,2.462-2.423,2.462c-1.708,0-2.542-1.191-2.542-3.614
		c0-1.032,0.159-1.985,0.477-2.859h1.708c-0.357,0.914-0.556,1.867-0.556,2.939c0,1.112,0.278,1.668,0.834,1.668
		c0.556,0,0.794-0.318,0.794-0.953v-1.311c0-1.787,0.794-2.701,2.423-2.701c1.708,0,2.542,1.152,2.542,3.455
		C100.445,43.646,100.326,44.678,100.008,45.552z"/>
	<path id="XMLID_1_" fill="#F69322" d="M92.264,34.233c0-2.462,1.271-3.693,3.773-3.693c0.318,0,0.675,0.04,0.993,0.08v5.361
		c1.152,0,1.708-0.834,1.708-2.502c0-0.834-0.08-1.628-0.238-2.462h1.628c0.159,0.715,0.238,1.589,0.238,2.621
		c0,2.939-1.39,4.408-4.13,4.408C93.614,38.046,92.264,36.775,92.264,34.233z M95.639,36.021v-3.455H95.56
		c-1.112,0-1.668,0.556-1.668,1.708C93.892,35.306,94.488,35.901,95.639,36.021z"/>
	<circle fill="#F69322" cx="157.633" cy="27.522" r="6.871"/>
	<circle fill="#F69322" cx="140.834" cy="34.472" r="3.058"/>
	<circle fill="#F69322" cx="132.415" cy="24.543" r="3.932"/>
	
		<rect x="136.498" y="22.826" transform="matrix(-0.7657 0.6432 -0.6432 -0.7657 261.4841 -34.9827)" fill="#F69322" width="1.231" height="14.615"/>
	
		<rect x="141.078" y="30.38" transform="matrix(-0.9158 0.4017 -0.4017 -0.9158 299.3119 -0.7667)" fill="#F69322" width="17.316" height="1.231"/>
</g>
</svg>
