<?xml version="1.0" encoding="utf-8"?>
<!-- Generator: Adobe Illustrator 16.0.4, SVG Export Plug-In . SVG Version: 6.00 Build 0)  -->
<!DOCTYPE svg PUBLIC "-//W3C//DTD SVG 1.1//EN" "http://www.w3.org/Graphics/SVG/1.1/DTD/svg11.dtd">
<svg version="1.1" id="Calque_1" xmlns="http://www.w3.org/2000/svg" xmlns:xlink="http://www.w3.org/1999/xlink" x="0px" y="0px"
	 width="103.5px" height="61.75px" viewBox="88.25 19.25 103.5 61.75" enable-background="new 88.25 19.25 103.5 61.75"
	 xml:space="preserve">
<g>
	<g>
		<rect id="XMLID_24_" x="110.269" y="30.56" fill="#FFFFFF" width="7.03" height="7.785"/>
		<path id="XMLID_23_" fill="#FFFFFF" d="M123.3,72.137h-6.005V45.001c0-0.977-0.779-1.823-1.823-1.823h-7.3v7.289h1.898v21.666
			h-5.763v7.221h25.202C126.823,77.587,124.659,75.084,123.3,72.137"/>
		<path id="XMLID_22_" fill="#FFFFFF" d="M190.651,50.471v-7.289h-12.626V30.56h-7.222v12.623H158.57
			c2.701,1.788,4.877,4.31,6.24,7.289h5.993v14.445c0,7.939,6.507,14.446,14.446,14.446h5.401v-7.222h-5.401
			c-3.969,0-7.225-3.256-7.225-7.225V50.471H190.651z"/>
		<path id="XMLID_19_" fill="#FFFFFF" d="M147.66,43.182h-7.221c-7.94,0-14.446,6.506-14.446,14.509v7.221
			c0,7.939,6.506,14.446,14.446,14.446h5.112h2.109c7.939,0,14.445-6.507,14.445-14.446v-7.221
			C162.105,49.688,155.596,43.182,147.66,43.182 M154.881,64.912c0,3.969-3.254,7.225-7.225,7.225h-7.217
			c-3.972,0-7.221-3.256-7.221-7.225v-7.221c0-3.968,3.253-7.221,7.221-7.221h7.221c3.972,0,7.225,3.253,7.225,7.221v7.221H154.881z
			"/>
	</g>
	<path id="XMLID_16_" fill="#FFFFFF" d="M92.28,75.148c0-2.459,1.255-3.687,3.766-3.687c0.333,0,0.667,0.024,1,0.067v5.378
		c1.144,0,1.712-0.838,1.712-2.515c0-0.817-0.075-1.636-0.23-2.454h1.62c0.155,0.716,0.23,1.585,0.23,2.606
		c0,2.935-1.382,4.404-4.143,4.404C93.599,78.953,92.28,77.686,92.28,75.148z M95.628,76.908v-3.456h-0.063
		c-1.12,0-1.68,0.563-1.68,1.696C93.884,76.229,94.468,76.816,95.628,76.908z"/>
	<path id="XMLID_14_" fill="#FFFFFF" d="M100.148,63.947c0.155,0.668,0.23,1.362,0.23,2.081c0,2.88-1.402,4.321-4.206,4.321
		c-2.598,0-3.896-1.438-3.896-4.321c0-0.719,0.076-1.413,0.23-2.081h1.621c-0.155,0.668-0.23,1.311-0.23,1.93
		c0,1.621,0.759,2.432,2.276,2.432c1.724,0,2.585-0.811,2.585-2.432c0-0.615-0.075-1.258-0.23-1.93H100.148z"/>
	<path id="XMLID_12_" fill="#FFFFFF" d="M89.349,60.555h11.03v2.046h-11.03V60.555z"/>
	<path id="XMLID_9_" fill="#FFFFFF" d="M89.349,56.58h1.621v2.045h-1.621V56.58z M92.28,56.58h8.099v2.045H92.28V56.58z"/>
	<path id="XMLID_6_" fill="#FFFFFF" d="M92.613,54.652c-0.222-1.076-0.33-2.211-0.33-3.407c0-2.752,1.283-4.127,3.849-4.127
		c2.832,0,4.25,1.279,4.25,3.841c0,0.545-0.127,1.097-0.385,1.652h3.317v2.046H92.613V54.652z M98.266,52.607
		c0.278-0.508,0.417-1.057,0.417-1.645c0-1.219-0.858-1.827-2.57-1.827c-1.454,0-2.181,0.675-2.181,2.022
		c0,0.58,0.036,1.064,0.107,1.449H98.266z"/>
	<path id="XMLID_4_" fill="#FFFFFF" d="M99.993,45.573h-1.696c0.361-0.897,0.54-1.938,0.54-3.118c0-0.882-0.282-1.319-0.85-1.319
		c-0.54,0-0.81,0.294-0.81,0.886v1.466c0,1.644-0.811,2.47-2.431,2.47c-1.696,0-2.546-1.199-2.546-3.603
		c0-1.017,0.155-1.978,0.465-2.879h1.696c-0.362,0.901-0.541,1.878-0.541,2.931c0,1.104,0.282,1.66,0.85,1.66
		c0.54,0,0.81-0.322,0.81-0.965v-1.311c0-1.799,0.811-2.701,2.431-2.701c1.696,0,2.546,1.148,2.546,3.439
		C100.458,43.659,100.303,44.672,99.993,45.573z"/>
	<path id="XMLID_1_" fill="#FFFFFF" d="M92.28,34.246c0-2.458,1.255-3.686,3.766-3.686c0.333,0,0.667,0.024,1,0.067v5.378
		c1.144,0,1.712-0.838,1.712-2.514c0-0.818-0.075-1.636-0.23-2.455h1.62c0.155,0.715,0.23,1.585,0.23,2.605
		c0,2.936-1.382,4.405-4.143,4.405C93.599,38.051,92.28,36.784,92.28,34.246z M95.628,36.005V32.55h-0.063
		c-1.12,0-1.68,0.564-1.68,1.696C93.884,35.326,94.468,35.914,95.628,36.005z"/>
	<path fill="#FFFFFF" d="M157.652,20.642c-3.797,0-6.875,3.079-6.875,6.875c0,0.765,0.13,1.498,0.36,2.185l-7.63,3.347
		c-0.511-0.961-1.512-1.624-2.676-1.624c-0.552,0-1.062,0.158-1.508,0.415l-3.982-4.741c0.594-0.686,0.966-1.57,0.966-2.549
		c0-2.161-1.751-3.913-3.912-3.913s-3.913,1.752-3.913,3.913s1.752,3.912,3.913,3.912c0.738,0,1.419-0.216,2.008-0.571l3.999,4.762
		c-0.38,0.508-0.613,1.131-0.613,1.814c0,1.681,1.362,3.042,3.042,3.042c1.68,0,3.043-1.362,3.043-3.042
		c0-0.079-0.018-0.152-0.023-0.229l7.775-3.411c1.17,2.125,3.429,3.565,6.025,3.565c3.798,0,6.876-3.078,6.876-6.875
		C164.528,23.72,161.45,20.642,157.652,20.642z"/>
</g>
</svg>
