<?xml version="1.0" encoding="utf-8"?>
<!-- Generator: Adobe Illustrator 24.0.3, SVG Export Plug-In . SVG Version: 6.00 Build 0)  -->
<svg version="1.1" id="Layer_1" xmlns="http://www.w3.org/2000/svg" xmlns:xlink="http://www.w3.org/1999/xlink" x="0px" y="0px"
	 viewBox="0 0 304 97" style="enable-background:new 0 0 304 97;" xml:space="preserve">
<style type="text/css">
	.st0{fill:#1F759C;}
	.st1{fill:#FFFFFF;}
</style>
<path class="st0" d="M59.3,47.5c0,10,0,20.1,0,30.1c0,1-0.1,1.1-1.1,1.1c-13.2,0-26.4,0-39.6,0c-0.8,0-1.3-0.4-1.3-1.3
	c0-20,0-39.9,0-59.9c0-0.9,0.3-1.2,1.2-1.2c13.3,0,26.6,0,39.9,0c0.8,0,0.9,0.1,0.9,0.9C59.3,27.4,59.3,37.4,59.3,47.5z M46.2,48.4
	c0.3-0.9,0.5-1.6,0.8-2.4c0.4-1.1,0.8-2.2,1.1-3.3c0.4-1.2,0.7-2.4,1.1-3.6c0.4-1.1,0.1-1.6-1-1.6c-0.1,0-0.2,0-0.3,0
	c-6.3,0-12.6,0-18.9,0c-0.2,0-0.4,0-0.6,0c-0.3,0.1-0.7,0.2-0.9,0.5c-0.3,0.5-0.4,1.1-0.6,1.6c-0.3,0.8-0.5,1.7-0.8,2.5
	c-0.4,1.2-0.8,2.4-1.2,3.6c-0.3,1-0.6,1.9-0.9,2.9c-0.3,0.9,0,1.5,1,1.6c1.6,0,3.2,0,4.8,0c0.7,0,0.8,0.1,0.5,0.7
	c-0.1,0.4-0.3,0.8-0.4,1.2c-0.5,1.6-1.1,3.2-1.6,4.8c-0.3,0.8,0,1.3,0.9,1.3c1.7,0,3.4,0,5.2,0c0.5,0,0.6,0.1,0.4,0.6
	c0,0.1-0.1,0.2-0.1,0.3c-0.5,1.7-1,3.4-1.5,5.1c-0.4,1.3-0.9,2.5-1.3,3.8c-0.3,0.8-0.5,1.7-0.8,2.5c-0.2,0.5-0.3,0.9,0.1,1.3
	c0.5,0.4,0.9,0,1.2-0.3c0.8-0.7,1.5-1.5,2.2-2.3c2-2.1,3.9-4.3,5.9-6.4c1.8-2,3.7-3.9,5.6-5.9c0.8-0.8,1.5-1.6,2.3-2.4
	c1.4-1.5,2.9-3.1,4.3-4.6c0.4-0.5,0.2-1.1-0.4-1.3c-0.2-0.1-0.4,0-0.6,0C49.9,48.4,48.1,48.4,46.2,48.4z M38.4,34.2
	c-3.3,0-6.6,0-9.8,0c-0.2,0-0.4,0-0.6,0c-0.4,0.1-0.5,0.4-0.5,0.7c0,0.4,0.1,0.6,0.5,0.6c0.5,0,1,0.2,1.5,0.2c5.9,0,11.8,0,17.7,0
	c0.5,0,1.1-0.1,1.6-0.2c0.2,0,0.5-0.2,0.5-0.4c0.1-0.2,0-0.6-0.2-0.7c-0.2-0.2-0.5-0.3-0.8-0.3C45.1,34.2,41.7,34.2,38.4,34.2z
	 M38.5,30.9c-2.2,0-4.4,0-6.7,0c-1.2,0-2.4,0-3.6,0c-0.6,0-0.8,0.3-0.7,0.9c0.1,0.5,0.5,0.5,0.8,0.5c6.7,0,13.5,0,20.2,0
	c0.1,0,0.2,0,0.2,0c0.2-0.1,0.5-0.2,0.6-0.4c0.1-0.2,0-0.6-0.2-0.7C48.9,31,48.6,31,48.4,31C45.1,30.9,41.8,30.9,38.5,30.9z
	 M37.3,23.2L37.3,23.2c-1.1,0-2.3,0-3.4,0c-0.6,0-0.9,0.3-0.9,0.9c0,1.6,0,3.2,0,4.8c0,0.5,0.3,0.7,0.8,0.7s0.6-0.3,0.6-0.7
	c0-1.1,0-2.2,0-3.3c0-0.8,0-0.8,0.8-0.8c1.9,0,3.8,0,5.8,0c0.5,0,0.9-0.4,1-0.7c0-0.4-0.5-0.8-0.9-0.9c-0.1,0-0.3,0-0.4,0
	C39.4,23.2,38.4,23.2,37.3,23.2z M39.5,25.9c-0.5,0-1,0-1.4,0c-0.6,0-0.9,0.3-1,0.8c-0.1,0.7-0.1,1.5,0,2.3c0,0.5,0.4,0.6,0.8,0.6
	c0.5,0,0.6-0.3,0.7-0.7c0-0.2,0-0.3,0-0.5c0-0.8,0-0.8,0.8-0.8s0.8,0,0.8,0.8c0,0.1,0,0.3,0,0.4c0,0.6,0.3,0.8,0.8,0.8
	s0.8-0.2,0.8-0.8c0-0.6,0-1.3,0-1.9s-0.4-0.9-1-0.9C40.4,25.9,40,25.9,39.5,25.9z"/>
<g>
	<path d="M79.9,51.5c0.2-0.1,0.2-0.1,0.2-0.1C84,51,84,51,84,54.8c0,2.8,0,5.5,0,8.4c3.6,0,7.1,0,10.7,0c0-3.3-0.1-6.5,0-9.7
		c0.1-1.5-0.4-2.7-1.4-3.8c-4.2-5-8.4-10-12.5-15.1c-0.6-0.8-1-2-1-3.1c-0.1-3.5,0-6.9-0.1-10.4c0-2.5,1.4-3.3,3.4-3.4
		c4.1-0.2,8.2-0.2,12.3,0c2.1,0.1,3.6,1,3.5,3.7c-0.1,3.3-0.1,6.6,0,9.9c0,1.1-0.4,1.5-1.4,1.4c-3.2,0-2.8,0.1-2.8-2.8
		c0-2.4,0-4.8,0-7.3c0-0.9-0.3-1.2-1.2-1.2c-2.8,0-5.6,0-8.4,0c-0.9,0-1.1,0.4-1.1,1.2c0,2.8-0.1,5.6,0.1,8.4
		c0.1,0.9,0.7,1.9,1.3,2.7c3.3,4,6.7,8,10,12c1.1,1.3,2.1,2.8,3.1,4.2c0.3,0.4,0.4,1,0.4,1.5c0,4.2,0,8.4,0,12.5
		c0,1.4-0.8,2.5-2.3,2.8C95.8,66.9,95,67,94.3,67c-3.4,0-6.8,0-10.2,0c-0.8,0-1.7,0-2.3-0.3C81,66.3,80,65.5,80,64.8
		C79.8,60.4,79.9,56,79.9,51.5z"/>
	<path d="M272.4,75c0-2.3,0-4.5,0-6.7c0-1-0.4-1.2-1.2-1.2c-2.1,0-4.2,0-6.3-0.1c-3.7-0.2-5.8-3-5.9-6.4c-0.1-6.1-0.1-12.1,0-18.2
		c0.1-2.4,1-4.5,3.4-5.5c0.4-0.2,0.8-0.3,1.2-0.3c1.9,0.1,3.8,0.4,5.7,0.4c1.7,0,3.4-0.3,5.2-0.4c0.6-0.1,1.3,0,2,0
		c0,0.6,0.1,1,0.1,1.4c0,12.3,0,24.6,0,36.9c0,2.5-1.5,3.9-3.8,3.8c-3.2-0.1-6.5-0.1-9.8,0c-2.1,0.1-3.5-1.5-3.6-3.6
		c0-0.5,0-1,0-1.4c0-2.6,0.7-3.2,3.3-2.6c0.3,0.1,0.7,0.6,0.7,1c0.1,0.9,0,1.9,0,2.9C266.5,75,269.4,75,272.4,75z M272.3,63.3
		c0-7.5,0-14.9,0-22.3c0-0.3-0.6-0.8-0.9-0.9c-1.8-0.1-3.7,0-5.5-0.1c-1.7-0.1-2.9,1.5-3,2.9c-0.1,5.9,0,11.8,0,17.7
		c0,1.3,1.1,2.7,2.1,2.7C267.4,63.3,269.8,63.3,272.3,63.3z"/>
	<path d="M106.6,57.6c0-6.6,0-13.1,0-19.7c0-1.2,0.3-1.6,1.5-1.5c1.8,0.2,3.7,0.5,5.5,0.5c2,0,4.1-0.4,6.1-0.6c0.6-0.1,1.3,0,2,0.1
		c1.4,0.2,2.3,1,2.3,2.5c0.1,2.5,0.1,4.9,0.1,7.4c0,4.6,0,9.2,0,13.8c0,2.8-0.9,5.1-3.7,6.3c-1.1,0.5-2.4,0.6-3.6,0.7
		c-1.4,0.1-2.8,0-4.2,0c-1.8,0-1.8,0-1.8,1.8c0,2.8,0,5.6,0,8.4c0,1-0.3,1.3-1.3,1.4c-2.9,0.1-2.9,0.1-2.9-2.8
		C106.6,69.8,106.6,63.7,106.6,57.6z M110.8,63.3c2.1,0,4.1-0.1,6.1,0c1.8,0.1,3-1.3,3-3c-0.1-6.4,0-12.7,0-19.1
		c0-0.8-0.2-1.2-1.1-1.2c-2.2,0.1-4.4,0.2-6.6,0.2c-1.2,0-1.4,0.5-1.4,1.6c0,6.7,0,13.4,0,20.2C110.7,62.4,110.8,62.8,110.8,63.3z"
		/>
	<path d="M198.6,36.2c1.7,0.3,3,0.7,4.4,0.8c1,0.1,2,0,3-0.1c2.6-0.1,5.2-0.4,7.8-0.4c1.2,0,2,0.9,2,2.1c0.1,1.6,0.1,3.2,0.1,4.7
		c0,6,0,12-0.1,18.1c0,2.7-2.1,5.1-4.8,5.4c-2.2,0.3-4.4,0.2-6.6,0.3c-1.7,0-1.8,0.1-1.8,1.8c0,2.8,0,5.5,0,8.3
		c0,1.1-0.4,1.6-1.5,1.5c-3-0.1-2.5,0.3-2.5-2.5c0-12.6,0-25.2,0-37.8C198.6,37.8,198.6,37.3,198.6,36.2z M202.8,63.3
		c2.1,0,4.2,0,6.3,0c1.8,0,2.8-1,2.8-2.9c0-6.4,0-12.8,0-19.3c0-0.8-0.3-1.2-1.2-1.1c-2.1,0.1-4.1,0.1-6.2,0.2
		c-1.9,0.1-1.9,0.1-1.9,2c0,6.5,0,12.9,0,19.4C202.7,62.2,202.8,62.7,202.8,63.3z"/>
	<path d="M181.3,48.5c2.2-3.6,4.5-7.1,6.7-10.7c0.6-0.9,1.2-1.4,2.3-1.3c0.9,0.1,1.7,0,3,0c-1,1.5-1.7,2.7-2.5,4c-2,3-3.9,6-5.9,9
		c-0.2,0.3-0.3,1-0.1,1.4c2.8,5,5.7,9.9,8.5,14.9c0.5,0.8,0.2,1.3-0.7,1.4c-0.7,0-1.4,0.1-2,0c-0.6-0.2-1.4-0.5-1.7-1
		c-2.5-4.5-4.9-9-7.3-13.5c-0.1-0.1-0.1-0.3-0.5-0.5c-0.1,0.5-0.2,1-0.2,1.5c0,4,0,8,0,12c0,1.2-0.4,1.5-1.5,1.5
		c-3.1,0-2.6,0.1-2.6-2.5c0-15,0-30.1,0-45.1c0-1.9,0-1.9,2-1.9c0.3,0,0.5,0,0.8,0c1.1-0.1,1.4,0.4,1.4,1.4c0,0.4,0,0.8,0,1.2
		c0,8.8,0,17.7,0,26.5c0,0.6,0.1,1.1,0.1,1.7C181.1,48.4,181.2,48.4,181.3,48.5z"/>
	<path d="M144,49.1c0-3.1,0-6,0-9.1c-2.8,0-5.5,0-8.2,0c-0.2,0-0.7,0.5-0.7,0.8c-0.1,1.1-0.1,2.2,0,3.3c0,0.8-0.3,1.1-1.1,1.1
		c-3,0.2-3,0.2-3-2.8c0-1.5,0.2-3,0.5-4.4c0.3-1.1,1.3-1.6,2.5-1.6c3.7,0,7.5,0,11.2,0c1.6,0,3,1.6,3,3.1c-0.1,8.7,0,17.5,0,26.2
		c0,0.9-0.3,1.4-1.2,1.3c-1.1-0.2-2.4,0.6-3.2-0.8c-0.1-0.2-0.7,0-1.1,0c-2.7,0.3-5.5,0.8-8.2,1c-2.5,0.2-3.7-1-3.7-3.5
		c-0.1-3.7,0-7.4,0-11.1c0-2.6,0.9-3.5,3.9-3.7C137.7,48.9,140.8,49.1,144,49.1z M144,63.3c0-3.7,0-7.2,0-10.8c-2.9,0-5.6,0-8.4,0
		c-0.8,0-1,0.4-1,1.2c0,2.3,0,4.6,0,6.9c0,0.9-0.2,2.2,0.3,2.6c0.5,0.5,1.7,0.2,2.7,0.3c1.1,0,2.1,0,3.2,0
		C141.8,63.3,142.9,63.3,144,63.3z"/>
	<path d="M234.4,36.6c1.4,0,2.7,0,4,0c0,8.9,0,17.7,0,26.6c3.2,0,6.2,0,9.5,0c0-8.9,0-17.7,0-26.7c1.2,0,2.3,0,3.4,0
		c0.3,0,0.6,0.4,0.7,0.7c0.1,0.3,0,0.6,0,0.9c0,9,0,18,0,27c0,0.6-0.4,1.7-0.7,1.7c-1.1,0.1-2.4,0.3-3.2-0.2
		c-0.7-0.4-1.1-0.4-1.7-0.3c-2.9,0.3-5.8,0.7-8.8,0.9c-1.9,0.1-3.3-1.4-3.3-3.3c0-8.9,0-17.8,0-26.6C234.4,37.2,234.4,37,234.4,36.6
		z"/>
	<path d="M227.2,42.5c0,7.6,0,15.3,0,22.9c0,1.4-0.4,1.8-1.7,1.7c-0.2,0-0.4,0-0.7,0c-1.6,0-1.7-0.2-1.7-1.8c0-11.9,0-23.8,0-35.7
		c0-3.4,0-6.9,0-10.3c0-1.6,0.1-1.7,1.8-1.7c2.5,0,2.3-0.4,2.3,2.3C227.2,27.5,227.2,35,227.2,42.5z"/>
	<path d="M155.3,36.2c1.6,0.3,3,0.6,4.3,0.8c0.8,0.1,1.7,0,2.5-0.1c2.1-0.2,4.2-0.4,6.4-0.5c1.8-0.1,2.5,1,2.7,2.7
		c0.2,2.2,0.1,4.4,0,6.6c0,0.3-0.4,0.8-0.7,0.8c-1,0.1-2.1,0-3.3,0c0-1.8,0-3.5,0-5.2c0-1-0.4-1.3-1.3-1.3c-1.9,0.2-3.8,0.2-5.6,0.4
		c-0.3,0-0.8,0.6-0.9,1c-0.1,1.2,0,2.4,0,3.6c0,6.8,0,13.6,0,20.4c0,1.6-0.2,1.7-1.8,1.7c-0.2,0-0.4,0-0.7,0
		c-1.2,0.2-1.7-0.3-1.7-1.6c0.1-3.3,0-6.6,0-9.9c0-5.8,0-11.6,0-17.4C155.3,37.8,155.3,37.3,155.3,36.2z"/>
</g>
<path class="st1" d="M46.2,48.4c1.9,0,3.7,0,5.5,0c0.2,0,0.4,0,0.6,0c0.6,0.2,0.9,0.8,0.4,1.3c-1.4,1.5-2.9,3.1-4.3,4.6
	c-0.8,0.8-1.5,1.6-2.3,2.4c-1.9,2-3.7,3.9-5.6,5.9c-2,2.1-3.9,4.3-5.9,6.4c-0.7,0.8-1.5,1.5-2.2,2.3c-0.3,0.3-0.7,0.7-1.2,0.3
	c-0.5-0.4-0.4-0.8-0.1-1.3c0.3-0.8,0.5-1.7,0.8-2.5c0.4-1.3,0.9-2.5,1.3-3.8c0.5-1.7,1-3.4,1.5-5.1c0-0.1,0.1-0.2,0.1-0.3
	c0.2-0.5,0.1-0.6-0.4-0.6c-1.7,0-3.4,0-5.2,0c-0.9,0-1.2-0.5-0.9-1.3c0.6-1.6,1.1-3.2,1.6-4.8c0.1-0.4,0.3-0.8,0.4-1.2
	c0.2-0.6,0.2-0.7-0.5-0.7c-1.6,0-3.2,0-4.8,0c-1,0-1.4-0.6-1-1.6c0.3-0.9,0.6-1.9,0.9-2.9c0.4-1.2,0.8-2.4,1.2-3.6
	c0.3-0.8,0.5-1.7,0.8-2.5c0.2-0.5,0.3-1.1,0.6-1.6c0.1-0.2,0.6-0.3,0.9-0.5c0.2-0.1,0.4,0,0.6,0c6.3,0,12.6,0,18.9,0
	c0.1,0,0.2,0,0.3,0c1.1,0,1.4,0.5,1,1.6c-0.4,1.2-0.7,2.4-1.1,3.6c-0.4,1.1-0.7,2.2-1.1,3.3C46.7,46.8,46.5,47.6,46.2,48.4z
	 M50.2,50.2C50.2,50.2,50.2,50.1,50.2,50.2c-0.9-0.1-1.7-0.1-2.5-0.1c-0.8,0-1.6,0-2.3,0s-1.2-0.5-1-1c0.4-1.3,0.8-2.6,1.2-3.9
	c0.6-1.7,1.2-3.5,1.7-5.2c0.3-0.8,0.2-0.8-0.6-0.8c-5.7,0-11.4,0-17.2,0c-0.2,0-0.3,0-0.5,0c-0.1,0-0.3,0.1-0.3,0.2
	c-0.3,0.8-0.5,1.5-0.8,2.3c-0.4,1.2-0.8,2.5-1.2,3.7c-0.3,1-0.7,2-1,3.1c0.3,0,0.5,0,0.7,0c1.6,0,3.3,0,4.9,0c0.7,0,1.1,0.3,1,1.1
	c0,0.2-0.1,0.4-0.2,0.6c-0.3,0.9-0.6,1.8-0.9,2.7c-0.4,1.1-0.7,2.2-1.1,3.3c-0.2,0.6-0.2,0.7,0.4,0.7c1.8,0,3.5,0,5.3,0
	c0.8,0,1.1,0.4,0.8,1.2c-0.5,1.4-0.9,2.8-1.4,4.2c-0.4,1.2-0.8,2.4-1.2,3.7c-0.2,0.6-0.3,1.2-0.5,1.8c0,0,0.1,0,0.1,0.1
	C39.2,61.9,44.7,56.1,50.2,50.2z"/>
<path class="st1" d="M38.4,34.2c3.3,0,6.6,0,9.9,0c0.3,0,0.6,0.1,0.8,0.3s0.2,0.5,0.2,0.7s-0.3,0.4-0.5,0.4
	c-0.5,0.1-1.1,0.2-1.6,0.2c-5.9,0-11.8,0-17.7,0c-0.5,0-1-0.1-1.5-0.2c-0.4,0-0.5-0.3-0.5-0.6c0-0.4,0.1-0.7,0.5-0.7
	c0.2,0,0.4,0,0.6,0C31.9,34.2,35.2,34.2,38.4,34.2z"/>
<path class="st1" d="M38.5,30.9c3.3,0,6.6,0,9.9,0c0.3,0,0.6,0.1,0.7,0.2c0.2,0.2,0.2,0.5,0.2,0.7c-0.1,0.2-0.4,0.3-0.6,0.4
	c-0.1,0-0.1,0-0.2,0c-6.7,0-13.5,0-20.2,0c-0.4,0-0.8,0-0.8-0.5c-0.1-0.6,0.2-0.9,0.7-0.9c1.2,0,2.4,0,3.6,0
	C34.1,30.9,36.3,30.9,38.5,30.9z"/>
<path class="st1" d="M37.3,23.2c1.1,0,2.1,0,3.2,0c0.1,0,0.3,0,0.4,0c0.5,0,1,0.5,0.9,0.9c0,0.4-0.5,0.7-1,0.7c-1.9,0-3.8,0-5.8,0
	c-0.8,0-0.8,0-0.8,0.8c0,1.1,0,2.2,0,3.3c0,0.4-0.1,0.7-0.6,0.7s-0.8-0.2-0.8-0.7c0-1.6,0-3.2,0-4.8c0-0.6,0.3-0.9,0.9-0.9
	C35,23.2,36.2,23.2,37.3,23.2L37.3,23.2z"/>
<path class="st1" d="M39.5,25.9c0.5,0,1,0,1.4,0c0.6,0,0.9,0.3,1,0.9c0,0.6,0,1.3,0,1.9s-0.2,0.8-0.8,0.8s-0.8-0.2-0.8-0.8
	c0-0.1,0-0.3,0-0.4c0-0.8,0-0.8-0.8-0.8s-0.8,0-0.8,0.8c0,0.2,0,0.3,0,0.5c-0.1,0.4-0.3,0.7-0.7,0.7c-0.5,0-0.8-0.1-0.8-0.6
	c-0.1-0.8-0.1-1.5,0-2.3c0.1-0.5,0.4-0.8,1-0.8C38.5,26,39,25.9,39.5,25.9z"/>
<path class="st0" d="M50.2,50.2C44.7,56,39.3,61.8,33.8,67.6c0,0-0.1,0-0.1-0.1c0.2-0.6,0.3-1.2,0.5-1.8c0.4-1.2,0.8-2.4,1.2-3.7
	c0.5-1.4,0.9-2.8,1.4-4.2c0.3-0.8,0-1.2-0.8-1.2c-1.8,0-3.5,0-5.3,0c-0.6,0-0.6-0.1-0.4-0.7c0.4-1.1,0.7-2.2,1.1-3.3
	c0.3-0.9,0.6-1.8,0.9-2.7c0.1-0.2,0.1-0.4,0.2-0.6c0.2-0.8-0.3-1.1-1-1.1c-1.6,0-3.3,0-4.9,0c-0.2,0-0.4,0-0.7,0
	c0.4-1.1,0.7-2.1,1-3.1c0.4-1.2,0.8-2.5,1.2-3.7c0.2-0.8,0.5-1.5,0.8-2.3c0-0.1,0.2-0.2,0.3-0.2c0.2,0,0.3,0,0.5,0
	c5.7,0,11.4,0,17.2,0c0.9,0,0.9,0,0.6,0.8c-0.6,1.7-1.2,3.5-1.7,5.2c-0.4,1.3-0.8,2.6-1.2,3.9c-0.1,0.5,0.4,1,1,1c0.8,0,1.6,0,2.3,0
	c0.8,0,1.6,0,2.4,0C50.1,50.2,50.1,50.2,50.2,50.2z"/>
<g>
	<path d="M283.6,41.7c-0.7-0.4-1.3-1-1.7-1.7s-0.6-1.5-0.6-2.3s0.2-1.6,0.6-2.3c0.4-0.7,1-1.3,1.7-1.7c0.7-0.4,1.5-0.6,2.3-0.6
		c0.8,0,1.6,0.2,2.3,0.6c0.7,0.4,1.3,1,1.7,1.7c0.4,0.7,0.6,1.5,0.6,2.3s-0.2,1.6-0.6,2.3s-1,1.2-1.7,1.7c-0.7,0.4-1.5,0.6-2.3,0.6
		C285,42.3,284.3,42.1,283.6,41.7z M288.5,40.4c0.7-0.7,1-1.6,1-2.7c0-0.7-0.2-1.4-0.5-2s-0.7-1-1.3-1.3s-1.2-0.5-1.9-0.5
		c-1.1,0-2,0.3-2.7,1c-0.7,0.7-1,1.6-1,2.7s0.3,2,1,2.7s1.6,1,2.7,1C287,41.4,287.9,41.1,288.5,40.4z M287.6,40
		C287.6,40,287.5,40,287.6,40l-0.7,0c0,0-0.1,0-0.1-0.1l-0.7-2c0,0,0,0,0-0.1s0,0-0.1,0H285c0,0-0.1,0-0.1,0.1v1.9
		c0,0.1,0,0.1-0.1,0.1h-0.6c-0.1,0-0.1,0-0.1-0.1v-4.4c0-0.1,0-0.1,0.1-0.1h2c0.5,0,0.9,0.1,1.1,0.3s0.4,0.5,0.4,0.9
		c0,0.6-0.3,1-0.9,1.2c0,0,0,0,0,0.1l0.8,2C287.6,39.9,287.6,39.9,287.6,40z M286.9,36.7c0-0.4-0.3-0.6-0.9-0.6h-1c0,0,0,0,0,0
		c0,0,0,0,0,0s0,0,0,0.1v1c0,0.1,0,0.1,0.1,0.1h1.1C286.6,37.3,286.9,37.1,286.9,36.7z"/>
</g>
</svg>
