<?xml version="1.0" encoding="utf-8"?>
<!-- Generator: Adobe Illustrator 16.0.4, SVG Export Plug-In . SVG Version: 6.00 Build 0)  -->
<!DOCTYPE svg PUBLIC "-//W3C//DTD SVG 1.1//EN" "http://www.w3.org/Graphics/SVG/1.1/DTD/svg11.dtd">
<svg version="1.1" id="Layer_1" xmlns="http://www.w3.org/2000/svg" xmlns:xlink="http://www.w3.org/1999/xlink" x="0px" y="0px"
	 width="151px" height="100px" viewBox="64.5 0 151 100" enable-background="new 64.5 0 151 100" xml:space="preserve">
<title>THF-3 logo</title>
<circle fill="#27384C" cx="86.797" cy="79.316" r="9.121"/>
<circle fill="#27384C" cx="126.374" cy="20.684" r="9.121"/>
<path fill="#27384C" d="M123.225,46.471c-1.411-6.569-6.569-11.672-13.138-13.029c-4.072-0.814-8.306-0.108-11.889,1.955l0,0
	c-0.271,0.163-0.543,0.326-0.869,0.434l-0.326,0.163c-1.683,0.706-3.529,0.869-5.32,0.38c-3.095-0.977-5.049-4.18-5.429-7.492l0,0
	c-0.706-4.995-5.375-8.469-10.369-7.709c-4.995,0.76-8.415,5.375-7.709,10.369c0.76,4.994,5.375,8.415,10.369,7.709
	c0.543-0.055,1.086-0.217,1.575-0.38l0,0c5.429-1.954,10.206,2.769,9.826,7.601c0,0.054,0,0.108,0,0.217
	c0,0.271-0.054,0.543-0.109,0.814v-0.055C89.674,48.263,89.62,49.131,89.62,50c0,2.715,0.651,5.375,1.9,7.764l0,0l0.163,0.271
	l0.054,0.054l12.215,23.29c0.76,1.466,2.606,2.062,4.072,1.248c0.543-0.271,0.977-0.705,1.249-1.248l12.215-23.29l0.055-0.054
	l0.163-0.326l0,0C123.55,54.289,124.039,50.271,123.225,46.471z M106.612,59.121c-5.049,0-9.121-4.072-9.121-9.121
	s4.072-9.121,9.121-9.121s9.121,4.072,9.121,9.121S111.661,59.121,106.612,59.121z"/>
<path fill="#27384C" d="M153.029,77.904c0,0.271-0.108,0.543-0.271,0.76c-0.217,0.163-0.488,0.271-0.76,0.271h-2.932
	c-0.488,0.055-0.923-0.271-1.031-0.76c0-0.055,0-0.162,0-0.271V52.28c0-0.271,0.108-0.543,0.271-0.761
	c0.217-0.217,0.488-0.325,0.76-0.271h2.932c0.271,0,0.488,0.109,0.705,0.271c0.218,0.164,0.381,0.489,0.326,0.761V77.904z"/>
<path fill="#27384C" d="M173.931,78.285c0.054-0.109,0.054-0.164,0.108-0.271c0.055-0.109,0.108-0.218,0.163-0.326l5.646-8.252
	l-5.32-7.329c-0.108-0.108-0.162-0.271-0.217-0.38c-0.055-0.109-0.108-0.271-0.108-0.381c0-0.107,0.054-0.271,0.163-0.325
	c0.162-0.108,0.325-0.163,0.543-0.108h4.506c0.162,0,0.325,0.055,0.434,0.217c0.163,0.163,0.271,0.381,0.381,0.543v-0.055
	l2.768,4.127c0.164-0.271,0.381-0.543,0.598-0.924c0.217-0.379,0.488-0.705,0.706-1.086c0.217-0.379,0.488-0.76,0.706-1.139
	l0.597-0.979c0.108-0.217,0.271-0.379,0.435-0.543c0.162-0.107,0.326-0.162,0.488-0.162h4.561c0.162,0,0.326,0.055,0.434,0.162
	c0.109,0.109,0.218,0.218,0.218,0.381c0,0.162-0.054,0.326-0.163,0.434l-5.537,7.602l5.266,7.654
	c0.217,0.326,0.435,0.598,0.598,0.869c0.108,0.162,0.217,0.379,0.217,0.597c0,0.271-0.217,0.38-0.705,0.38h-4.941
	c-0.217,0-0.434-0.055-0.543-0.217c-0.162-0.163-0.325-0.326-0.379-0.543l-2.498-5.104l-2.551,5.158
	c-0.055,0.217-0.218,0.379-0.381,0.488c-0.162,0.108-0.326,0.162-0.488,0.162h-4.94c-0.271,0-0.488-0.162-0.597-0.434
	L173.931,78.285z"/>
<path fill="#27384C" d="M201.943,87.676c-0.162,0.218-0.326,0.381-0.488,0.543c-0.163,0.164-0.435,0.271-0.706,0.271h-2.985
	c-0.271,0-0.488-0.054-0.706-0.162c-0.218-0.109-0.325-0.381-0.271-0.598c0-0.162,0-0.326,0.054-0.488l3.149-8.469l-6.731-16.449
	l0,0c-0.055-0.109-0.109-0.218-0.109-0.381c0-0.108,0-0.162,0-0.271c0-0.543,0.326-0.814,0.978-0.814h3.203
	c0.543-0.054,1.031,0.326,1.14,0.869l0,0l1.412,3.637c0.434,1.249,0.868,2.498,1.303,3.638c0.434,1.14,0.869,2.335,1.303,3.475
	l3.963-10.804c0.163-0.543,0.652-0.868,1.195-0.814h3.202c0.271-0.054,0.597,0.055,0.814,0.271c0.163,0.163,0.218,0.435,0.218,0.652
	c0,0.107,0,0.162-0.055,0.271c-0.055,0.162-0.055,0.271-0.109,0.434L201.943,87.676z"/>
<path fill="#27384C" d="M144.072,60.804h-2.389c-0.598,0-1.086,0.488-1.141,1.085c-4.343-2.551-9.935-1.085-12.486,3.258
	c-2.552,4.344-1.086,9.936,3.257,12.486c2.877,1.684,6.406,1.684,9.229,0v0.109c0,0.65,0.488,1.14,1.141,1.14h2.389
	c0.65,0,1.14-0.489,1.14-1.14V61.943C145.212,61.346,144.723,60.804,144.072,60.804L144.072,60.804z M139.62,72.258
	c-1.357,2.01-4.126,2.553-6.189,1.195c-2.009-1.357-2.552-4.127-1.194-6.189c1.357-2.008,4.126-2.551,6.189-1.194
	C140.434,67.427,140.977,70.195,139.62,72.258L139.62,72.258L139.62,72.258z"/>
<path fill="#27384C" d="M169.913,62.215c-4.181-2.822-9.88-1.683-12.704,2.498c-2.822,4.18-1.683,9.88,2.498,12.703
	c4.18,2.822,9.826,1.737,12.648-2.443C175.18,70.738,174.094,65.038,169.913,62.215L169.913,62.215z M168.447,72.258
	c-1.357,2.01-4.126,2.553-6.189,1.195c-2.008-1.357-2.551-4.127-1.193-6.189c1.357-2.008,4.125-2.551,6.188-1.194
	C169.316,67.48,169.859,70.25,168.447,72.258L168.447,72.258L168.447,72.258z"/>
</svg>
