<?xml version="1.0" encoding="utf-8"?>
<!-- Generator: Adobe Illustrator 22.1.0, SVG Export Plug-In . SVG Version: 6.00 Build 0)  -->
<svg version="1.1" id="Ebene_1" xmlns="http://www.w3.org/2000/svg" xmlns:xlink="http://www.w3.org/1999/xlink" x="0px" y="0px"
	 viewBox="0 0 1000 188.6" style="enable-background:new 0 0 1000 188.6;" xml:space="preserve">
<style type="text/css">
	.st0{fill:#FFFFFF;}
	.st1{fill:#FFFFFF;}
</style>
<path class="st0" d="M961.2,69.9c-11.6-13.8-24.7-27.2-37.8-38.7c-8.5-7.5-13.6-11.2-19.7-12.2c-6.2-1.1-24.4,1.7-45.7,9.1
	c-20.2,6.9-26,9.6-34.5,16.1c-11,8.4-13.7,26-15.7,38.9c-0.1,0.8-0.2,1.6-0.4,2.3c-2.7,17.6-4.7,36.5-6,55.3
	c-0.8,10.9-1.8,24.4,12.1,29.2c11.4,4,28.8,5.4,45.7,5.4c7.6,0,15.1-0.3,21.9-0.8c15-1,30.4-5.3,46-12.6c9.4-4.4,20.2-9.7,30-16.3
	c10.3-7,23.6-18,27.2-25.9C990.2,106.6,970.1,80.5,961.2,69.9z M846.3,68.6c1.6,0,2.9,1.3,2.9,2.9c0,1.6-1.3,2.9-2.9,2.9
	c-1.6,0-2.9-1.3-2.9-2.9C843.4,69.9,844.7,68.6,846.3,68.6z M838.5,100.6c-1.6,0-2.9-1.3-2.9-2.9c0-1.6,1.3-2.9,2.9-2.9
	c1.6,0,2.9,1.3,2.9,2.9C841.4,99.3,840.1,100.6,838.5,100.6z M846,126.9c-1.6,0-2.9-1.3-2.9-2.9c0-1.6,1.3-2.9,2.9-2.9
	s2.9,1.3,2.9,2.9C848.9,125.6,847.6,126.9,846,126.9z M850.8,112.8c-2.3,0-4.2-1.9-4.2-4.2c0-2.3,1.9-4.2,4.2-4.2s4.2,1.9,4.2,4.2
	C855,110.9,853.1,112.8,850.8,112.8z M850.8,91.5c-2.3,0-4.2-1.9-4.2-4.2c0-2.3,1.9-4.2,4.2-4.2s4.2,1.9,4.2,4.2
	C855,89.6,853.1,91.5,850.8,91.5z M918.9,58.5c1.6,0,2.9,1.3,2.9,2.9c0,1.6-1.3,2.9-2.9,2.9c-1.6,0-2.9-1.3-2.9-2.9
	C916.1,59.8,917.3,58.5,918.9,58.5z M918.8,73.3c2.3,0,4.2,1.9,4.2,4.2c0,2.3-1.9,4.2-4.2,4.2c-2.3,0-4.2-1.9-4.2-4.2
	C914.6,75.2,916.4,73.3,918.8,73.3z M894.1,47c1.6,0,2.9,1.3,2.9,2.9c0,1.6-1.3,2.9-2.9,2.9s-2.9-1.3-2.9-2.9
	C891.3,48.3,892.6,47,894.1,47z M881.6,56.3c2.3,0,4.2,1.9,4.2,4.2c0,2.3-1.9,4.2-4.2,4.2c-2.3,0-4.2-1.9-4.2-4.2
	C877.4,58.2,879.3,56.3,881.6,56.3z M866.9,50.8c1.6,0,2.9,1.3,2.9,2.9c0,1.6-1.3,2.9-2.9,2.9s-2.9-1.3-2.9-2.9
	C864,52.1,865.3,50.8,866.9,50.8z M862.2,65.4c2.3,0,4.2,1.9,4.2,4.2c0,2.3-1.9,4.2-4.2,4.2c-2.3,0-4.2-1.9-4.2-4.2
	C858,67.3,859.9,65.4,862.2,65.4z M858.1,126.5c0-2.3,1.9-4.2,4.2-4.2s4.2,1.9,4.2,4.2c0,2.3-1.9,4.2-4.2,4.2
	S858.1,128.8,858.1,126.5z M866.6,144.8c-1.6,0-2.9-1.3-2.9-2.9s1.3-2.9,2.9-2.9s2.9,1.3,2.9,2.9S868.2,144.8,866.6,144.8z
	 M881.6,139.5c-2.3,0-4.2-1.9-4.2-4.2c0-2.3,1.9-4.2,4.2-4.2c2.3,0,4.2,1.9,4.2,4.2C885.8,137.6,883.9,139.5,881.6,139.5z
	 M867.3,97.6c0-10.5,8.5-19.1,19.1-19.1c10.5,0,19.1,8.5,19.1,19.1s-8.5,19.1-19.1,19.1C875.8,116.6,867.3,108.1,867.3,97.6z
	 M893.7,148.8c-1.6,0-2.9-1.3-2.9-2.9c0-1.6,1.3-2.9,2.9-2.9s2.9,1.3,2.9,2.9C896.6,147.5,895.3,148.8,893.7,148.8z M902.6,136.5
	c-2.3,0-4.2-1.9-4.2-4.2c0-2.3,1.9-4.2,4.2-4.2s4.2,1.9,4.2,4.2C906.8,134.6,904.9,136.5,902.6,136.5z M902.6,67.7
	c-2.3,0-4.2-1.9-4.2-4.2c0-2.3,1.9-4.2,4.2-4.2s4.2,1.9,4.2,4.2C906.8,65.8,904.9,67.7,902.6,67.7z M918.6,137.6
	c-1.6,0-2.9-1.3-2.9-2.9c0-1.6,1.3-2.9,2.9-2.9s2.9,1.3,2.9,2.9C921.5,136.3,920.2,137.6,918.6,137.6z M918.8,122.5
	c-2.3,0-4.2-1.9-4.2-4.2s1.9-4.2,4.2-4.2c2.3,0,4.2,1.9,4.2,4.2S921.1,122.5,918.8,122.5z M924.7,102.5c-2.3,0-4.2-1.9-4.2-4.2
	c0-2.3,1.9-4.2,4.2-4.2s4.2,1.9,4.2,4.2C928.9,100.6,927,102.5,924.7,102.5z M933.4,114.7c-1.6,0-2.9-1.3-2.9-2.9
	c0-1.6,1.3-2.9,2.9-2.9s2.9,1.3,2.9,2.9C936.3,113.4,935,114.7,933.4,114.7z M933.4,87.2c-1.6,0-2.9-1.3-2.9-2.9
	c0-1.6,1.3-2.9,2.9-2.9s2.9,1.3,2.9,2.9C936.3,85.9,935,87.2,933.4,87.2z"/>
<g>
	<path class="st1" d="M93.2,44.7c0-1-0.8-1.8-2.8-1.8H73.8c-1.7,0-2.7,0.1-3.4,1.1L34.7,92V45.7c0-1.6-1.3-2.8-3-2.8H17.3
		c-1.6,0-3,1.1-3,2.8v102.5c0,1.6,1.3,3,3,3h14.4c1.7,0,3-1.3,3-3V99.8L68,149.7c0.7,1.1,1.7,1.6,3.4,1.6h19.5
		c1.4,0,2.1-0.4,2.1-1.3c0-0.4-0.3-1-0.7-1.7L54.8,95.3L92.2,47C92.7,46.3,93.2,45.4,93.2,44.7z"/>
	<path class="st1" d="M140.2,42.8h-14.5c-1.6,0-3,1.1-3,2.8v102.6c0,1.6,1.3,3,3,3H140c1.6,0,3-1.3,3-3V45.7
		C143,44,141.7,42.8,140.2,42.8z"/>
	<path class="st1" d="M288.3,42.4h-15.5c-1.1,0-2.4,1-2.5,2.7l-10.3,87c-0.1,1.3-0.1,2.3-0.7,2.3c-0.6,0-0.6-0.8-0.8-2.3l-12.6-51.3
		c-0.8-3.5-3-6.5-9.2-6.5h-10c-6.2,0-8.3,3.1-9.2,6.5l-12.6,51.3c-0.3,1.3-0.3,2.3-0.8,2.3c-0.6,0-0.6-0.8-0.7-2.3L192.7,45
		c-0.1-1.6-1.3-2.7-2.4-2.7h-15.5c-1.3,0-2.5,0.7-2.5,2v0.4l13.7,95.3c1.3,9.2,5.5,11.9,13.1,11.9h7.9c6.5,0,10-3.2,12.1-11.7
		L230.7,92c0.3-1.3,0.4-1.6,1-1.6c0.6,0,0.6,0.3,0.8,1.6l11.6,48.1c2,8.5,5.5,11.7,12.1,11.7h7.9c7.6,0,11.9-2.7,13.1-11.9L291,44.7
		v-0.4C290.8,43.1,289.7,42.4,288.3,42.4z"/>
	<path class="st1" d="M337.3,42.8h-14.4c-1.6,0-3,1.1-3,2.8v102.6c0,1.6,1.3,3,3,3h14.4c1.6,0,3-1.3,3-3V45.7
		C340.1,44,338.8,42.8,337.3,42.8z"/>
	<path class="st1" d="M441.6,44.4c-4.8-0.8-17.4-2.7-31.3-2.7c-17.4,0-39.5,10.3-39.5,44.9v21c0,34.5,23.3,44.8,39.1,44.8
		c15,0,24.6-1,31.8-2.4c1.8-0.4,2.8-1.6,2.8-3.5v-49c0-1.7-1.3-3-2.8-3h-14.4c-1.6,0-2.8,1.3-2.8,3v37.3c-4.5,0.3-9,0.4-14.4,0.4
		c-8.6,0-18.6-6.8-18.6-27.4v-21c0-20.8,9.3-27.5,19.1-27.5c14,0,24.1,0.6,30.8,1.1h0.4c2.3,0,2.8-1,2.8-3.1v-9.7
		C444.5,45.7,443.6,44.8,441.6,44.4z"/>
	<path class="st1" d="M536.5,106.4c12-4.7,19.6-14.3,19.6-29.8v-1.3c0-25-19.5-33-42.1-33c-10.6,0-21,0.7-28.5,1.8
		c-3,0.4-4.7,1.4-4.7,4.4v100.4c0,1.6,1.3,3,3,3h14.5c1.7,0,2.8-1.3,2.8-3v-39.5c3.4,0.1,9.2,0.6,13,0.6h2.1l21,39
		c0.7,1.4,1.3,3,3,3h17.8c1.1,0,1.7-0.7,1.7-1.7c0-0.3,0-0.7-0.3-1.1L536.5,106.4z M536.1,76.7c0,12.8-6.8,16.9-21.9,16.9
		c-2.4,0-10.6-0.3-13-0.4V60.3c2.7-0.3,9.9-0.6,13-0.6c14.7,0,21.9,4.7,21.9,15.7V76.7z"/>
	<path class="st1" d="M608.1,42.8h-14.4c-1.6,0-3,1.1-3,2.8v102.6c0,1.6,1.3,3,3,3h14.4c1.6,0,3-1.3,3-3V45.7
		C611.1,44,609.8,42.8,608.1,42.8z"/>
	<path class="st1" d="M680.1,41.8c-10.3,0-24.3,1-28.7,1.7c-2.5,0.4-3.8,1.7-3.8,4.5v98.1c0,3,1.3,4.1,3.8,4.5
		c4.4,0.7,18.4,1.7,28.7,1.7c29.2,0,45.9-15.8,45.9-44.6V86.4C725.9,57.4,709.2,41.8,680.1,41.8z M705.8,107.9
		c0,21.9-11.2,27.5-25.7,27.5c-5.4,0-9.2-0.3-12.3-0.4V59.3c3.1-0.1,6.9-0.4,12.3-0.4c14.5,0,25.7,5.6,25.7,27.5V107.9z"/>
	<path class="st1" d="M93.2,44.7c0-1-0.8-1.8-2.8-1.8H73.8c-1.7,0-2.7,0.1-3.4,1.1L34.7,92V45.7c0-1.6-1.3-2.8-3-2.8H17.3
		c-1.6,0-3,1.1-3,2.8v102.5c0,1.6,1.3,3,3,3h14.4c1.7,0,3-1.3,3-3V99.8L68,149.7c0.7,1.1,1.7,1.6,3.4,1.6h19.5
		c1.4,0,2.1-0.4,2.1-1.3c0-0.4-0.3-1-0.7-1.7L54.8,95.3L92.2,47C92.7,46.3,93.2,45.4,93.2,44.7z"/>
	<path class="st1" d="M140.2,42.8h-14.5c-1.6,0-3,1.1-3,2.8v102.6c0,1.6,1.3,3,3,3H140c1.6,0,3-1.3,3-3V45.7
		C143,44,141.7,42.8,140.2,42.8z"/>
	<path class="st1" d="M288.3,42.4h-15.5c-1.1,0-2.4,1-2.5,2.7l-10.3,87c-0.1,1.3-0.1,2.3-0.7,2.3c-0.6,0-0.6-0.8-0.8-2.3l-12.6-51.3
		c-0.8-3.5-3-6.5-9.2-6.5h-10c-6.2,0-8.3,3.1-9.2,6.5l-12.6,51.3c-0.3,1.3-0.3,2.3-0.8,2.3c-0.6,0-0.6-0.8-0.7-2.3L192.7,45
		c-0.1-1.6-1.3-2.7-2.4-2.7h-15.5c-1.3,0-2.5,0.7-2.5,2v0.4l13.7,95.3c1.3,9.2,5.5,11.9,13.1,11.9h7.9c6.5,0,10-3.2,12.1-11.7
		L230.7,92c0.3-1.3,0.4-1.6,1-1.6c0.6,0,0.6,0.3,0.8,1.6l11.6,48.1c2,8.5,5.5,11.7,12.1,11.7h7.9c7.6,0,11.9-2.7,13.1-11.9L291,44.7
		v-0.4C290.8,43.1,289.7,42.4,288.3,42.4z"/>
	<path class="st1" d="M337.3,42.8h-14.4c-1.6,0-3,1.1-3,2.8v102.6c0,1.6,1.3,3,3,3h14.4c1.6,0,3-1.3,3-3V45.7
		C340.1,44,338.8,42.8,337.3,42.8z"/>
	<path class="st1" d="M441.6,44.4c-4.8-0.8-17.4-2.7-31.3-2.7c-17.4,0-39.5,10.3-39.5,44.9v21c0,34.5,23.3,44.8,39.1,44.8
		c15,0,24.6-1,31.8-2.4c1.8-0.4,2.8-1.6,2.8-3.5v-49c0-1.7-1.3-3-2.8-3h-14.4c-1.6,0-2.8,1.3-2.8,3v37.3c-4.5,0.3-9,0.4-14.4,0.4
		c-8.6,0-18.6-6.8-18.6-27.4v-21c0-20.8,9.3-27.5,19.1-27.5c14,0,24.1,0.6,30.8,1.1h0.4c2.3,0,2.8-1,2.8-3.1v-9.7
		C444.5,45.7,443.6,44.8,441.6,44.4z"/>
	<path class="st1" d="M536.5,106.4c12-4.7,19.6-14.3,19.6-29.8v-1.3c0-25-19.5-33-42.1-33c-10.6,0-21,0.7-28.5,1.8
		c-3,0.4-4.7,1.4-4.7,4.4v100.4c0,1.6,1.3,3,3,3h14.5c1.7,0,2.8-1.3,2.8-3v-39.5c3.4,0.1,9.2,0.6,13,0.6h2.1l21,39
		c0.7,1.4,1.3,3,3,3h17.8c1.1,0,1.7-0.7,1.7-1.7c0-0.3,0-0.7-0.3-1.1L536.5,106.4z M536.1,76.7c0,12.8-6.8,16.9-21.9,16.9
		c-2.4,0-10.6-0.3-13-0.4V60.3c2.7-0.3,9.9-0.6,13-0.6c14.7,0,21.9,4.7,21.9,15.7V76.7z"/>
	<path class="st1" d="M608.1,42.8h-14.4c-1.6,0-3,1.1-3,2.8v102.6c0,1.6,1.3,3,3,3h14.4c1.6,0,3-1.3,3-3V45.7
		C611.1,44,609.8,42.8,608.1,42.8z"/>
	<path class="st1" d="M680.1,41.8c-10.3,0-24.3,1-28.7,1.7c-2.5,0.4-3.8,1.7-3.8,4.5v98.1c0,3,1.3,4.1,3.8,4.5
		c4.4,0.7,18.4,1.7,28.7,1.7c29.2,0,45.9-15.8,45.9-44.6V86.4C725.9,57.4,709.2,41.8,680.1,41.8z M705.8,107.9
		c0,21.9-11.2,27.5-25.7,27.5c-5.4,0-9.2-0.3-12.3-0.4V59.3c3.1-0.1,6.9-0.4,12.3-0.4c14.5,0,25.7,5.6,25.7,27.5V107.9z"/>
</g>
</svg>
