<?xml version="1.0" encoding="utf-8"?>
<!-- Generator: Adobe Illustrator 15.1.0, SVG Export Plug-In . SVG Version: 6.00 Build 0)  -->
<!DOCTYPE svg PUBLIC "-//W3C//DTD SVG 1.1//EN" "http://www.w3.org/Graphics/SVG/1.1/DTD/svg11.dtd">
<svg version="1.1" id="Layer_1" xmlns="http://www.w3.org/2000/svg" xmlns:xlink="http://www.w3.org/1999/xlink" x="0px" y="0px"
	 width="55.973px" height="100px" viewBox="0 0 55.973 100" enable-background="new 0 0 55.973 100" xml:space="preserve">
<path d="M27.986,0C12.531,0,0,12.53,0,27.986c0,5.089,1.43,9.82,3.731,13.973c6.873,12.382,8.693,19.335,9.814,26.064
	c0.941,5.641,2.243,6.951,6.504,6.951c1.812,0,4.779,0,7.937,0s6.125,0,7.936,0c4.263,0,5.564-1.312,6.505-6.951
	c1.121-6.729,2.942-13.683,9.815-26.064c2.302-4.152,3.73-8.884,3.73-13.973C55.973,12.53,43.442,0,27.986,0z" style="fill: #333333" />
<path d="M37.986,77h-20c-0.828,0-1.5,0.671-1.5,1.5v1c0,0.829,0.672,1.5,1.5,1.5h20c0.828,0,1.5-0.671,1.5-1.5v-1
	C39.486,77.671,38.814,77,37.986,77z" style="fill: #333333"/>
<path d="M37.986,83h-20c-0.828,0-1.5,0.671-1.5,1.5v1c0,0.829,0.672,1.5,1.5,1.5h20c0.828,0,1.5-0.671,1.5-1.5v-1
	C39.486,83.671,38.814,83,37.986,83z" style="fill: #333333"/>
<path d="M37.986,89h-20c-0.828,0-1.5,0.671-1.5,1.5v1c0,0.829,0.672,1.5,1.5,1.5h20c0.828,0,1.5-0.671,1.5-1.5v-1
	C39.486,89.671,38.814,89,37.986,89z" style="fill: #333333"/>
<path d="M20.486,95h15c0,3-4,5-7.5,5S20.486,98,20.486,95z" style="fill: #333333"/>
</svg>
