<svg xmlns="http://www.w3.org/2000/svg" xmlns:xlink="http://www.w3.org/1999/xlink" version="1.1" id="Calque_1" x="0px" y="0px" width="39.4673123487px" height="100px" viewBox="0 0 163.129 413.55" enable-background="new 0 0 163.129 413.55" xml:space="preserve">
<g>
	<path d="M0,331.989c0-27.82,14.081-52.186,35.254-66.821l0,0V46.283C35.272,20.715,55.987,0.012,81.543,0l0,0   c25.556,0.012,46.271,20.715,46.276,46.283l0,0v218.872c21.204,14.637,35.31,39.002,35.31,66.834l0,0   c-0.019,45.044-36.542,81.543-81.586,81.562l0,0C36.487,413.532,0.013,377.033,0,331.989L0,331.989z M54.022,46.283v229.285   l-4.565,2.734c-18.384,11.053-30.694,30.828-30.694,53.687l0,0c0.055,34.687,28.094,62.744,62.78,62.812l0,0   c34.681-0.067,62.763-28.125,62.817-62.812l0,0c0-22.876-12.323-42.646-30.731-53.687l0,0l4.815-8.051h9.375h-9.375l-4.815,8.051   l-4.56-2.734V46.283c-0.018-15.197-12.328-27.49-27.526-27.521l0,0C66.345,18.792,54.034,31.085,54.022,46.283L54.022,46.283z" style="fill: #333333"/>
</g>
<path d="M95.532,293.866V140.827H68.97v153.039c-15.899,5.512-27.344,20.581-27.344,38.367c0,22.437,18.194,40.625,40.625,40.625  c22.442,0,40.625-18.188,40.625-40.625C122.876,314.447,111.444,299.377,95.532,293.866z" style="fill: #333333"/>
</svg>