<?xml version="1.0" encoding="utf-8"?>
<!-- Generator: Adobe Illustrator 16.0.0, SVG Export Plug-In . SVG Version: 6.00 Build 0)  -->
<!DOCTYPE svg PUBLIC "-//W3C//DTD SVG 1.1//EN" "http://www.w3.org/Graphics/SVG/1.1/DTD/svg11.dtd">
<svg version="1.1" id="Calque_1" xmlns="http://www.w3.org/2000/svg" xmlns:xlink="http://www.w3.org/1999/xlink" x="0px" y="0px"
	 width="100px" height="100px" viewBox="0 0 100 100" enable-background="new 0 0 100 100" xml:space="preserve">
<g id="Your_Icon">
	<g>
		<path d="M23.019,37.571c0,11.567,0,23.134,0,34.701c0,3.386,5.25,3.386,5.25,0c0-11.566,0-23.133,0-34.701
			C28.269,34.186,23.019,34.186,23.019,37.571L23.019,37.571z"/>
	</g>
	<g>
		<path d="M72.252,37.571c0,11.567,0,23.134,0,34.701c0,3.386,5.25,3.386,5.25,0c0-11.566,0-23.133,0-34.701
			C77.502,34.186,72.252,34.186,72.252,37.571L72.252,37.571z"/>
	</g>
	<g>
		<path d="M25.117,53.164c6.832-12.627,13.665-25.254,20.499-37.883c1.603-2.962-2.862-5.727-4.479-2.739
			C34.305,25.17,27.471,37.797,20.638,50.425C19.033,53.387,23.5,56.152,25.117,53.164L25.117,53.164z"/>
	</g>
	<g>
		<path d="M60.16,12.543c-1.617-2.988-6.084-0.223-4.479,2.739C62.514,27.91,69.348,40.537,76.18,53.165
			c1.617,2.987,6.082,0.223,4.479-2.739C73.825,37.797,66.992,25.17,60.16,12.543L60.16,12.543z"/>
	</g>
</g>
</svg>
