<?xml version="1.0" encoding="utf-8"?>
<!-- Generator: Adobe Illustrator 16.0.0, SVG Export Plug-In . SVG Version: 6.00 Build 0)  -->
<!DOCTYPE svg PUBLIC "-//W3C//DTD SVG 1.1//EN" "http://www.w3.org/Graphics/SVG/1.1/DTD/svg11.dtd">
<svg version="1.1" id="Calque_1" xmlns="http://www.w3.org/2000/svg" xmlns:xlink="http://www.w3.org/1999/xlink" x="0px" y="0px"
	 width="100px" height="100px" viewBox="0 0 100 100" enable-background="new 0 0 100 100" xml:space="preserve">
<g id="Your_Icon">
	<g>
		<path d="M23.019,37.571c0,11.567,0,23.134,0,34.701c0,3.386,5.25,3.386,5.25,0c0-11.566,0-23.133,0-34.701
			C28.269,34.186,23.019,34.186,23.019,37.571L23.019,37.571z"/>
	</g>
	<g>
		<path d="M72.252,37.571c0,11.567,0,23.134,0,34.701c0,3.386,5.25,3.386,5.25,0c0-11.566,0-23.133,0-34.701
			C77.502,34.186,72.252,34.186,72.252,37.571L72.252,37.571z"/>
	</g>
	<g>
		<path d="M80.848,47.736c-11.994-7.893-23.988-15.785-35.981-23.678c-2.838-1.867-5.465,2.681-2.65,4.533
			C54.21,36.484,66.204,44.376,78.198,52.27C81.035,54.137,83.662,49.588,80.848,47.736L80.848,47.736z"/>
	</g>
	<g>
		<path d="M22.325,52.27c11.993-7.893,23.987-15.785,35.981-23.678c2.813-1.852,0.188-6.4-2.65-4.533
			c-11.993,7.893-23.987,15.785-35.981,23.678C16.86,49.588,19.487,54.137,22.325,52.27L22.325,52.27z"/>
	</g>
</g>
</svg>
