<?xml version="1.0" encoding="utf-8"?>
<!-- Generator: Adobe Illustrator 16.0.4, SVG Export Plug-In . SVG Version: 6.00 Build 0)  -->
<!DOCTYPE svg PUBLIC "-//W3C//DTD SVG 1.1//EN" "http://www.w3.org/Graphics/SVG/1.1/DTD/svg11.dtd">
<svg version="1.1" id="Logo-OpenADx" xmlns="http://www.w3.org/2000/svg" xmlns:xlink="http://www.w3.org/1999/xlink" x="0px"
	 y="0px" width="1000px" height="1000px" viewBox="0 0 1000 1000" enable-background="new 0 0 1000 1000" xml:space="preserve">
<g id="OpenADx">
	<path fill="#FFFFFF" d="M625.951,546.947c-1.091-1.542-2.478-2.721-4.152-3.539c-1.684-0.813-3.837-1.221-6.47-1.221
		c-2.724,0-4.949,0.407-6.674,1.221c-1.723,0.818-3.086,1.997-4.082,3.539l-55.826,84.646c-0.637,1.088-0.954,2.087-0.954,2.993
		c0,1.088,0.292,2.064,0.884,2.924c0.589,0.865,1.363,1.635,2.316,2.316c0.952,0.68,2.018,1.203,3.199,1.562
		c1.178,0.361,2.314,0.547,3.404,0.547c1.179,0,2.291-0.205,3.334-0.615c1.044-0.406,1.885-1.109,2.521-2.109l15.113-23.404h75.706
		l16.065,23.404c0.729,1,1.59,1.703,2.59,2.109c0.996,0.41,2.131,0.615,3.404,0.615c1.178,0,2.361-0.186,3.539-0.547
		c1.182-0.359,2.246-0.861,3.199-1.498c0.953-0.631,1.725-1.402,2.316-2.312c0.59-0.905,0.883-1.858,0.883-2.857
		c0-1.088-0.316-2.132-0.953-3.128L625.951,546.947z M587.961,601.109l27.368-42.322l28.865,42.322H587.961z M777.769,542.595
		h-77.205c-4.174,0-6.262,2.087-6.262,6.259v86.004c0,4.268,2.088,6.396,6.262,6.396h77.205c26.871,0,40.309-8.438,40.309-25.312
		v-48.037C818.077,551.031,804.64,542.595,777.769,542.595z M800.235,615.941c0,2.906-1.836,5.4-5.514,7.484
		c-3.676,2.088-9.51,3.131-17.496,3.131h-64.812v-69.268h64.812c7.986,0,13.82,1.021,17.496,3.062
		c3.678,2.043,5.514,4.56,5.514,7.553V615.941z"/>
	<path fill="#FFFFFF" d="M935.446,634.992c-0.547-0.631-1.588-1.585-3.131-2.857l-38.4-29.121l37.988-29.527
		c1.543-1.273,2.59-2.221,3.135-2.857c0.543-0.637,0.814-1.408,0.814-2.314c0-1.995-0.883-3.243-2.654-3.745
		c-1.77-0.494-4.062-0.746-6.875-0.746c-2.906,0-4.949,0.135-6.127,0.409c-1.184,0.271-2.27,0.77-3.271,1.498l-35.266,27.895
		l-35.945-27.895c-1-0.729-2.109-1.227-3.336-1.498c-1.227-0.274-3.064-0.409-5.516-0.409c-3.18,0-5.561,0.27-7.146,0.815
		c-1.59,0.545-2.387,1.723-2.387,3.538c0,0.819,0.252,1.59,0.75,2.312c0.498,0.729,1.52,1.725,3.066,2.998l37.58,28.574
		l-38.807,30.074c-1.543,1.272-2.566,2.227-3.064,2.857c-0.498,0.637-0.748,1.408-0.748,2.314c0,2.09,0.887,3.359,2.654,3.811
		c1.77,0.454,4.152,0.681,7.148,0.681c2.361,0,4.174-0.114,5.447-0.339c1.268-0.225,2.451-0.75,3.543-1.568l36.08-28.44
		l36.764,28.44c1,0.729,2.133,1.227,3.404,1.498c1.273,0.274,3.223,0.409,5.854,0.409c2.998,0,5.289-0.252,6.877-0.751
		c1.59-0.494,2.387-1.697,2.387-3.603C936.265,636.448,935.993,635.629,935.446,634.992z"/>
	<path fill="#FFFFFF" d="M414.557,570.217c-6.036-3.897-15.862-5.85-29.478-5.85h-31.455c-25.692,0-38.535,7.895-38.535,23.68
		v29.527c0,15.785,12.843,23.68,38.535,23.68h16.204c2.087,0,3.425-0.588,4.014-1.77c0.593-1.179,0.888-2.902,0.888-5.171
		c0-2.267-0.294-3.968-0.888-5.103c-0.589-1.134-1.927-1.701-4.014-1.701H354.17c-7.625,0-13.164-0.976-16.611-2.928
		c-3.452-1.949-5.175-4.284-5.175-7.008v-6.938h83.06c3.448,0,5.669-0.5,6.669-1.498c1-0.996,1.499-2.812,1.499-5.443v-15.648
		C423.612,580.063,420.594,574.119,414.557,570.217z M406.32,597.162h-73.936v-9.115c0-2.811,1.723-5.17,5.175-7.077
		c3.447-1.905,8.986-2.858,16.611-2.858h30.364c7.713,0,13.277,0.863,16.681,2.586c3.404,1.723,5.105,4.174,5.105,7.35V597.162z
		 M540.302,588.047V635.4c0,2.633-0.727,4.355-2.179,5.172c-1.45,0.816-3.628,1.226-6.534,1.226s-5.061-0.409-6.469-1.226
		s-2.109-2.539-2.109-5.172v-47.354c0-2.811-1.723-5.17-5.174-7.077c-3.453-1.905-8.985-2.858-16.612-2.858h-28.593
		c-7.625,0-13.164,0.953-16.611,2.858c-3.451,1.907-5.175,4.267-5.175,7.077V635.4c0,2.633-0.727,4.355-2.178,5.172
		c-1.455,0.816-3.632,1.226-6.538,1.226c-2.905,0-5.062-0.409-6.465-1.226c-1.411-0.816-2.112-2.539-2.112-5.172v-47.354
		c0-15.785,12.843-23.68,38.535-23.68h29.685C527.458,564.367,540.302,572.262,540.302,588.047z M143.663,542.595h-39.626
		c-26.87,0-40.302,8.437-40.302,25.31v48.037c0,16.874,13.433,25.312,40.302,25.312h39.626c26.867,0,40.303-8.438,40.303-25.312
		v-48.037C183.966,551.031,170.53,542.595,143.663,542.595z M165.991,615.941c0,2.906-1.814,5.4-5.444,7.484
		c-3.633,2.088-9.443,3.131-17.429,3.131h-38.536c-7.99,0-13.8-1.043-17.43-3.131c-3.629-2.084-5.444-4.578-5.444-7.484v-48.037
		c0-2.993,1.815-5.51,5.444-7.553c3.629-2.041,9.44-3.062,17.43-3.062h38.536c7.985,0,13.796,1.021,17.429,3.062
		c3.63,2.043,5.444,4.56,5.444,7.553V615.941z M266.208,564.367h-32.677c-25.691,0-38.536,7.895-38.536,23.68v69.674
		c0,2.629,0.701,4.353,2.108,5.172c1.408,0.813,3.564,1.221,6.47,1.221c2.905,0,5.083-0.407,6.534-1.221
		c1.451-0.819,2.178-2.543,2.178-5.172v-16.467h53.922c25.688,0,38.535-7.895,38.535-23.68v-29.527
		C304.743,572.262,291.896,564.367,266.208,564.367z M287.452,617.574c0,2.815-1.728,5.17-5.174,7.077
		c-3.451,1.905-8.99,2.858-16.615,2.858h-53.376v-39.463c0-2.724,1.724-5.059,5.174-7.011c3.452-1.95,8.99-2.925,16.612-2.925h31.59
		c7.625,0,13.165,0.975,16.615,2.925c3.447,1.952,5.174,4.287,5.174,7.011V617.574z"/>
</g>
<g id="ICON">
	<path fill="#FFFFFF" d="M665.476,489.389l-25.521-7.273c-79.263,17.946-192.041,17.95-271.89,0l-25.306,7.281
		C436.841,511.277,572.099,511.27,665.476,489.389z"/>
	<path fill="#FFFFFF" d="M390,475.807c67.453,14.561,160.873,14.571,227.846,0.008l-26.542-7.564
		c-52.174,10.557-122.527,10.561-175.045,0.004L390,475.807z"/>
	<path fill="#FFFFFF" d="M540.942,453.901c-23.391,3.368-51.238,3.363-74.748-0.01l-24.284,6.985
		c37.786,6.756,85.948,6.749,123.505-0.004L540.942,453.901z"/>
	<path fill="#FFFFFF" d="M608.605,377.096l0.126,0.386c10.256,1.618,20.173,3.48,29.613,5.604l25.311-7.28
		c-19.48-4.531-40.74-8.105-63.01-10.76L608.605,377.096z"/>
	<path fill="#FFFFFF" d="M388.742,378.66l8.48-12.833c-19.866,2.564-38.812,5.892-56.285,9.986l25.518,7.273
		C373.625,381.463,381.072,379.991,388.742,378.66z"/>
	<path fill="#FFFFFF" d="M676.784,471.523l25.521,7.273c75.99-26.837,75.391-65.561-1.48-92.398l-25.307,7.28
		C738.579,416.457,739.101,448.745,676.784,471.523z"/>
	<path fill="#FFFFFF" d="M378.28,407.544l-26.546-7.564c-50.546,19.241-50.084,45.99,1.091,65.234l26.258-7.556
		C341.959,442.672,341.649,422.53,378.28,407.544z"/>
	<path fill="#FFFFFF" d="M329.624,393.678l-25.517-7.273c-75.994,26.836-75.395,65.562,1.477,92.395l25.306-7.277
		C267.83,448.745,267.314,416.457,329.624,393.678z"/>
	<path fill="#FFFFFF" d="M653.584,399.987l-26.259,7.553c37.125,14.989,37.436,35.132,0.809,50.117l26.541,7.564
		C705.222,445.981,704.761,419.232,653.584,399.987z"/>
	<path fill="#FFFFFF" d="M413.561,355.492c0,0-7.135,9.945-11.892,16.803c-4.757,6.855-4.757,16.8-4.757,16.8v50.405v2.4v7.2
		c0,5.302,4.259,9.604,9.513,9.604h14.273c5.254,0,9.513-4.302,9.513-9.604v-7.2h68.98h69.447v7.2c0,5.302,4.293,9.604,9.583,9.604
		h14.367c5.291,0,9.579-4.302,9.579-9.604v-7.2v-2.4v-50.405c0,0,0-9.945-4.789-16.8c-4.79-6.858-11.975-16.803-11.975-16.803
		h21.557c0,0,3.764-6.514,0-9.601c-3.764-3.087-4.793-4.8-4.793-4.8h-11.971c0,0-4.105,1.713-4.793,7.2c-2.735,0-4.789,0-4.789,0
		l-14.369-28.804c0,0-3.42-4.8-9.578-4.8c-6.16,0-57.477,0-57.477,0s-50.972,0-57.089,0c-6.113,0-9.513,4.8-9.513,4.8l-14.27,28.804
		c0,0-2.04,0-4.76,0c-0.68-5.487-4.757-7.2-4.757-7.2h-11.892c0,0-1.021,1.713-4.759,4.8c-3.735,3.087,0,9.601,0,9.601H413.561z
		 M417.128,427.501c-4.596,0-8.324-3.76-8.324-8.4s3.728-8.404,8.324-8.404c4.6,0,8.328,3.764,8.328,8.404
		S421.728,427.501,417.128,427.501z M532.72,420.301c-15.27,2.098-33.527,4.8-33.527,4.8s-18.139-2.703-33.303-4.8
		c-15.16-2.102-14.27-14.404-14.27-14.404v-14.4h47.572h47.896v14.4C547.089,405.896,547.986,418.199,532.72,420.301z
		 M581.815,427.501c-4.629,0-8.381-3.76-8.381-8.4s3.752-8.404,8.381-8.404c4.63,0,8.383,3.764,8.383,8.404
		S586.445,427.501,581.815,427.501z M592.59,381.896v12.001c0,0,1.427,3.688-7.185,4.8c-9.281,1.2-26.344,2.4-26.344,2.4v-14.4
		L592.59,381.896z M439.725,326.687c2.677-3.898,7.139-2.399,7.139-2.4h52.329h52.686c0,0,4.49-1.498,7.184,2.4
		c2.696,3.902,14.373,28.805,14.373,28.805s-34.129-3.601-74.242-2.401c-39.842-1.2-73.737,2.401-73.737,2.401
		S437.052,330.589,439.725,326.687z M439.725,386.696v14.4c0,0-16.946-1.2-26.164-2.4c-8.549-1.113-7.135-4.8-7.135-4.8v-12.001
		L439.725,386.696z"/>
</g>
</svg>
