<?xml version="1.0" encoding="UTF-8" standalone="no"?>
<!-- Generator: Adobe Illustrator 24.1.0, SVG Export Plug-In . SVG Version: 6.00 Build 0)  -->

<svg
   xmlns:dc="http://purl.org/dc/elements/1.1/"
   xmlns:cc="http://creativecommons.org/ns#"
   xmlns:rdf="http://www.w3.org/1999/02/22-rdf-syntax-ns#"
   xmlns:svg="http://www.w3.org/2000/svg"
   xmlns="http://www.w3.org/2000/svg"
   xmlns:sodipodi="http://sodipodi.sourceforge.net/DTD/sodipodi-0.dtd"
   xmlns:inkscape="http://www.inkscape.org/namespaces/inkscape"
   version="1.1"
   id="Layer_1"
   x="0px"
   y="0px"
   viewBox="0 0 841.9 530"
   style="enable-background:new 0 0 841.9 530;"
   xml:space="preserve"
   sodipodi:docname="logo-swir-white.svg"
   inkscape:version="0.92.4 (5da689c313, 2019-01-14)"><metadata
   id="metadata62"><rdf:RDF><cc:Work
       rdf:about=""><dc:format>image/svg+xml</dc:format><dc:type
         rdf:resource="http://purl.org/dc/dcmitype/StillImage" /></cc:Work></rdf:RDF></metadata><defs
   id="defs60" /><sodipodi:namedview
   pagecolor="#ffffff"
   bordercolor="#666666"
   borderopacity="1"
   objecttolerance="10"
   gridtolerance="10"
   guidetolerance="10"
   inkscape:pageopacity="0"
   inkscape:pageshadow="2"
   inkscape:window-width="1920"
   inkscape:window-height="1016"
   id="namedview58"
   showgrid="false"
   inkscape:zoom="1.2544588"
   inkscape:cx="285.93493"
   inkscape:cy="150.84817"
   inkscape:window-x="0"
   inkscape:window-y="27"
   inkscape:window-maximized="1"
   inkscape:current-layer="Layer_1" />
<style
   type="text/css"
   id="style2">
	.Arched_x0020_Green{fill:url(#SVGID_1_);stroke:#FFFFFF;stroke-width:0.25;stroke-miterlimit:1;}
</style>
<linearGradient
   id="SVGID_1_"
   gradientUnits="userSpaceOnUse"
   x1="0"
   y1="595.2803"
   x2="0.7071"
   y2="594.5732">
	<stop
   offset="0"
   style="stop-color:#1EAB4B"
   id="stop4" />
	<stop
   offset="0.9831"
   style="stop-color:#19361A"
   id="stop6" />
</linearGradient>
<g
   id="g23"
   style="fill:#ffffff">
	<path
   d="m 664,96.8 c 3.8,0 7,3.3 7.4,7.5 0,0.5 0,4.9 0.1,5.8 0.3,4.3 2.7,8 6.3,10.1 1.8,1.1 3.9,1.7 6,1.7 0.3,0 0.6,0 0.9,0 0.4,0 4,-0.1 4,-0.1 3.9,0.1 7,3.3 7.4,7.6 0,0 0.4,5.7 0.5,5.9 0.6,6.9 6.4,12.2 12.9,11.6 3,-0.3 5.8,-1.7 7.8,-4 2.2,-2.6 3.3,-6 3,-9.5 -0.5,-6.2 -5.3,-11.2 -11.3,-11.6 l -5.6,-0.2 c -4,-0.1 -7.3,-3.3 -7.6,-7.3 -0.1,-0.5 -0.3,-5.2 -0.3,-5.9 -0.3,-3.4 -1.8,-6.5 -4.3,-8.6 -1.9,-1.7 -4.1,-2.8 -6.5,-3.1 -0.8,-0.1 -1.6,-0.1 -2.5,-0.1 -0.8,0 -3.6,0 -3.6,0 v 0 c -4,-0.1 -7.2,-3.3 -7.5,-7.4 l -0.6,-6 c -0.4,-5.9 -4.9,-10.8 -10.4,-11.5 -0.8,-0.1 -1.7,-0.2 -2.5,-0.1 -5.9,0.4 -10.5,5.5 -10.8,11.8 l -0.1,6 c 0,4.3 -2.9,7.7 -6.4,8 -0.5,0 -4.9,0.2 -5.5,0.2 -3.2,0.2 -6.2,1.9 -8.1,4.5 -1.5,1.9 -2.5,4.3 -2.7,6.7 -0.1,0.9 -0.1,1.8 0,2.6 0,0.4 0,4 0,4 0,4.3 -2.9,7.7 -6.5,8 l -5.5,0.5 c -5.5,0.4 -9.8,4.5 -10.6,10 -0.1,0.8 -0.2,2.6 -0.2,3.1 l -0.1,5.3 c 0,4.2 -2.9,7.6 -6.7,8 -0.3,0 -1.5,-0.1 -2.7,-0.1 -1.3,0 -2.2,0.1 -2.8,0.1 -4.2,0.6 -7.6,3 -9.3,6.6 -1.2,2.2 -1.7,4.7 -1.5,7.2 0,0.4 0.1,4.3 0.1,4.3 0.1,4.2 -2.8,7.6 -6.7,7.9 -3.1,0.1 -9.7,0.3 -9.7,0.3 -3.9,0 -7.1,-3.3 -7.4,-7.5 l -0.1,-1.9 c 0,-0.4 0,-1.1 0,-1.7 0,-0.8 0,-1.5 0,-2.1 -0.3,-4.3 -2.7,-8.1 -6.3,-10.1 -2.1,-1.3 -4.6,-1.9 -6.9,-1.7 h -0.4 c -0.3,0 -0.8,0 -1,0.1 h -2.6 c -3.9,0 -7,-3.3 -7.4,-7.6 l -0.4,-5.4 v -0.5 c -0.6,-6.8 -6.4,-12.1 -12.9,-11.6 -3,0.2 -5.8,1.7 -7.8,4 -2.2,2.6 -3.3,6 -3,9.5 0.5,6.2 5.4,11.2 11.3,11.6 l 5.6,0.2 c 3.9,0.1 7.2,3.3 7.5,7.2 l 0.2,4.5 c 0,0.5 0,1 0.1,1.4 0.3,3.4 1.8,6.5 4.3,8.6 1.8,1.7 4,2.7 6.3,3.1 0.9,0.1 1.6,0.2 2.6,0.1 h 3.6 c 4,0.1 7.2,3.3 7.5,7.3 l 0.5,6 c 0.5,6 4.9,10.8 10.5,11.6 0.6,0.1 1.2,0.1 1.7,0.1 0.2,0 0.5,0 0.8,0 5.9,-0.4 10.5,-5.5 10.7,-11.8 l 0.1,-6 c 0,-4.3 2.8,-7.8 6.5,-8.1 0,0 4.9,-0.2 5.5,-0.2 3.2,-0.2 6.1,-1.9 8.1,-4.5 1.5,-1.9 2.5,-4.2 2.7,-6.7 0.1,-0.9 0.1,-1.8 0,-2.6 0,-0.3 0,-4 0,-4 0,-4.3 2.9,-7.8 6.5,-8.1 l 5.5,-0.4 c 5.4,-0.4 9.8,-4.5 10.7,-9.9 0.1,-0.1 0.1,-0.2 0.2,-2.7 V 131 c -0.1,-4.2 2.8,-7.6 6.7,-7.9 l 1.1,-0.1 h 0.2 c 0.4,0 0.9,0 1.4,0 1,0 2,0.1 2.5,0 4.1,-0.3 7.6,-2.8 9.4,-6.6 1,-2 1.6,-4.4 1.5,-7.2 0,-1.6 -0.1,-4.4 -0.1,-4.4 0,-4.2 2.9,-7.6 6.7,-7.9 0.3,0.2 7.9,-0.1 10,-0.1"
   id="path9"
   inkscape:connector-curvature="0"
   style="fill:#ffffff" />
	<path
   d="m 591.6,103.8 c 3.8,-0.4 6.6,-3.8 6.5,-8.2 0,0 0,-4 -0.1,-4.4 -0.2,-2.6 0.3,-5.1 1.4,-7.4 1.8,-3.9 5.4,-6.5 9.4,-6.8 0.2,0 0.7,-0.1 4.1,-0.1 h 1.1 c 3.7,-0.4 6.6,-3.8 6.5,-8.1 l 0.1,-6 c 0,-6.7 4.6,-12.1 10.6,-12.5 6.4,-0.5 12.2,4.9 12.7,11.9 0.1,0.9 0.1,1.8 0,2.6 -0.5,6.1 -5,10.9 -10.6,11.3 l -5.5,0.4 c -3.6,0.3 -6.3,3.8 -6.4,8.3 0,0 0,3.7 0.1,4.1 0.1,0.9 0,1.8 -0.1,2.7 -0.2,2.5 -1.1,4.9 -2.7,6.8 -2,2.7 -4.9,4.4 -8.1,4.6 -0.6,0.1 -4.9,0.2 -5.4,0.3 -3.6,0.2 -6.2,3.8 -6.3,8.2 l -0.1,6.2 c -0.3,6.5 -4.8,11.7 -10.6,12.2 -0.3,0 -0.5,0 -0.8,0 -0.5,0 -1.1,0 -1.7,-0.1 -5.5,-0.8 -9.9,-5.7 -10.3,-11.9 l -0.5,-6.2 c -0.3,-4.1 -3.5,-7.4 -7.4,-7.5 l -3.3,-0.1 c -0.4,0 -1.1,0 -1.5,0 -0.6,0 -1,0 -1.3,-0.1 -2.3,-0.3 -4.5,-1.4 -6.3,-3.2 -2.4,-2.2 -3.9,-5.4 -4.2,-8.9 -0.1,-0.7 -0.3,-5.5 -0.3,-6 -0.4,-4.1 -3.7,-7.7 -7.6,-7.9 l -5.5,-0.3 c -5.8,-0.4 -10.6,-5.5 -11.1,-11.9 -0.3,-3.6 0.8,-7.2 3,-9.8 2,-2.3 4.7,-3.8 7.6,-4 0.3,0 0.6,0 0.9,0 6.1,0 11.3,5.3 11.8,12 0,0.3 0.5,6 0.5,6 0.4,4.4 3.7,8.2 7.4,8.2 0,0 3.5,0 3.9,-0.1 0.2,0 0.5,0 0.8,0 2.1,0 4.2,0.6 6,1.9 3.5,2 5.8,5.9 6.2,10.3 0.1,0.9 0.1,5.4 0.2,6 0.3,4.3 3.5,7.6 7.2,7.6 0.2,0.1 6.2,0.1 9.7,-0.1"
   id="path11"
   inkscape:connector-curvature="0"
   style="fill:#ffffff" />
	<path
   d="m 520.5,102 c 3.8,0.1 7.8,4.5 8.2,8.7 0,0.5 0.1,5 0.1,5.9 0.4,4.4 2.7,8.2 6.3,10.3 1.8,1.2 3.9,1.8 6,1.8 0.3,0 0.6,0 0.8,0 0.4,0 3.9,-0.1 3.9,-0.1 3.8,0.1 6.9,3.4 7.3,7.8 0,0 0.4,5.6 0.4,6 0.6,7 6.3,12.5 12.8,11.9 6.5,-0.5 11.3,-6.8 10.7,-13.9 -0.5,-6.4 -5.3,-11.5 -11.2,-11.9 l -5.6,-0.3 c -3.8,-0.1 -7,-3.4 -7.4,-7.5 0,-0.6 -0.2,-5.4 -0.3,-6 -0.3,-3.5 -1.8,-6.6 -4.2,-8.9 -1.8,-1.7 -4,-2.8 -6.3,-3.2 -0.8,-0.1 -1.8,-0.2 -2.5,-0.1 h -0.3 c -1,0 -3.3,0 -3.3,0 h -0.1 c -3.9,-0.1 -7.9,-4.5 -8.3,-8.6 L 527,88 C 526.5,81.9 522.1,76.9 516.6,76.1 516,76 515.5,76 515,76 c -0.3,0 -0.6,0 -0.9,0 -5.8,0.5 -10.4,5.7 -10.6,12.1 l -0.2,6.2 c 0,4.4 -2.7,7.9 -6.3,8.2 -0.4,0 -4.8,0.1 -5.4,0.2 -3.3,0.3 -6.1,1.9 -8.1,4.7 -1.5,2 -2.4,4.4 -2.6,6.9 -0.1,0.9 -0.1,1.8 0,2.7 0.5,7 6.3,12.5 12.8,11.9 4,-0.3 7.6,-2.9 9.4,-6.8 1.1,-2.3 1.6,-4.8 1.4,-7.4 0,-0.4 -0.1,-4.4 -0.1,-4.4 -0.1,-4.3 2.8,-7.8 6.6,-8.1 -0.1,0 5.5,-0.3 9.5,-0.2"
   id="path13"
   inkscape:connector-curvature="0"
   style="fill:#ffffff" />
	<path
   d="m 643.2,169.6 c 3.8,0 6.9,3.4 7.3,7.6 0,0.5 0.1,5 0.1,6 0.4,4.4 2.7,8.3 6.2,10.3 1.8,1.2 3.9,1.8 6,1.8 0.3,0 0.6,0 0.8,0 0.4,0 3.9,0 3.9,0 3.8,0 7.4,3.7 7.8,8.1 0,0 0.4,5.8 0.5,6 0.5,6.7 5.7,12 11.8,12 0.3,0 0.6,0 0.9,-0.1 2.9,-0.2 5.6,-1.7 7.6,-4 2.2,-2.7 3.3,-6.2 3,-9.9 -0.5,-6.4 -5.4,-11.5 -11.2,-11.9 l -5.5,-0.3 c -3.8,-0.2 -7.5,-3.7 -7.8,-7.8 0,-0.5 -0.3,-5.3 -0.3,-6 -0.3,-3.4 -1.8,-6.6 -4.2,-8.8 -1.8,-1.8 -4,-2.8 -6.3,-3.2 -0.3,0 -0.8,-0.1 -1.4,-0.1 -0.4,0 -1.1,0.1 -1.5,0.1 l -3.2,-0.1 c -3.9,-0.1 -7.1,-3.4 -7.4,-7.6 l -0.5,-6.1 c -0.5,-6.1 -4.9,-11.1 -10.3,-11.9 -0.6,-0.1 -1.1,-0.2 -1.6,-0.2 -0.3,0 -0.6,0 -0.9,0 -5.8,0.5 -10.3,5.7 -10.6,12.2 l -0.1,6.2 c 0,4.4 -2.8,8 -6.3,8.2 -0.5,0 -4.8,0.2 -5.4,0.2 -3.2,0.3 -6.1,1.9 -8,4.7 -1.6,1.9 -2.5,4.3 -2.7,6.8 -0.1,0.9 -0.1,1.9 -0.1,2.7 0,0.4 0,4.2 0,4.2 0,4.4 -2.8,7.9 -6.3,8.2 l -5.5,0.4 c -5.6,0.5 -10.1,5.3 -10.6,11.4 -0.1,0.9 -0.1,1.8 0,2.7 0.6,7 6.3,12.5 12.7,11.9 6,-0.5 10.5,-5.9 10.6,-12.5 v -6 c 0,-4.3 2.8,-7.8 6.5,-8.2 h 1.1 c 3.4,0 4,0 4.2,0 4,-0.3 7.5,-2.9 9.3,-6.8 1.2,-2.3 1.6,-4.8 1.5,-7.4 0,-0.4 -0.1,-4.4 -0.1,-4.4 -0.1,-4.3 2.8,-7.8 6.6,-8.2 0,0 3,-0.3 9.4,-0.2"
   id="path15"
   inkscape:connector-curvature="0"
   style="fill:#ffffff" />
	<path
   d="m 714,171.7 c 3.8,-0.3 6.6,-3.8 6.5,-8.1 0,0 -0.1,-4 -0.1,-4.4 -0.2,-2.5 0.3,-5.1 1.4,-7.4 1.8,-3.8 5.3,-6.4 9.3,-6.7 6.4,-0.5 12.1,4.9 12.6,11.9 0.1,0.9 0.1,1.8 0,2.6 -0.2,2.5 -1.1,4.9 -2.6,6.8 -2,2.7 -4.9,4.3 -8,4.6 -0.7,0.1 -4.9,0.2 -5.4,0.2 -3.5,0.3 -6.2,3.8 -6.2,8.2 l -0.1,6.1 c -0.2,6.4 -4.8,11.6 -10.5,12.1 -0.3,0 -0.6,0 -0.8,0 -0.6,0 -1.1,0 -1.6,-0.1 -5.4,-0.7 -9.8,-5.7 -10.4,-11.8 l -0.4,-6.1 c -0.3,-4.1 -4.4,-8.5 -8.2,-8.6 0,0 -2.3,0 -3.3,0 h -0.3 c -0.7,0.1 -1.6,0 -2.4,-0.1 -2.3,-0.3 -4.5,-1.4 -6.3,-3.1 -2.4,-2.2 -3.9,-5.4 -4.2,-8.8 0,-0.7 -0.3,-5.5 -0.3,-6 -0.3,-4.1 -3.4,-7.3 -7.3,-7.4 l -5.5,-0.3 c -5.8,-0.4 -10.5,-5.5 -11.1,-11.8 -0.6,-7 4.2,-13.3 10.5,-13.8 6.5,-0.5 12.1,4.9 12.7,11.9 0,0.4 0.4,6 0.4,6 0.4,4.4 3.5,7.7 7.2,7.7 0,0 3.5,0 3.9,0 0.2,0 0.6,0 0.8,0 2.1,0 4.1,0.6 6,1.8 3.5,2.1 5.8,5.9 6.1,10.3 0.1,0.9 0.2,5.4 0.2,5.9 0.3,4.2 4.4,8.6 8.1,8.7 -0.2,0 6.7,-0.2 9.3,-0.3"
   id="path17"
   inkscape:connector-curvature="0"
   style="fill:#ffffff" />
	<path
   d="m 455.4,148 c 0.6,6.8 6.3,12.1 12.9,11.6 3.2,-0.3 6.1,-1.8 8.1,-4.4 2,-2.5 3,-5.7 2.6,-9 -0.5,-6.5 -5.8,-11.6 -12,-11.6 -0.3,0 -0.6,0 -0.9,0 -6.4,0.5 -11.3,6.5 -10.7,13.4"
   id="path19"
   inkscape:connector-curvature="0"
   style="fill:#ffffff" />
	<path
   d="m 746.1,128.1 c 0.6,6.9 6.3,12.1 12.9,11.6 3.2,-0.2 6.1,-1.8 8.2,-4.4 1.9,-2.6 2.9,-5.7 2.6,-9.1 -0.5,-6.5 -5.8,-11.6 -12,-11.6 -0.3,0 -0.6,0.1 -0.9,0.1 -6.5,0.4 -11.4,6.5 -10.8,13.4"
   id="path21"
   inkscape:connector-curvature="0"
   style="fill:#ffffff" />
</g>
<g
   id="g55"
   style="fill:#ffffff">
	<polygon
   points="182.1,376 173.5,376 159.3,421.3 159.1,421.3 143.8,376 134,376 119.1,421.3 118.9,421.3 104.6,376 95.6,376 114,431.7 123.1,431.7 138.5,385.5 138.7,385.5 154.2,431.7 163.2,431.7 "
   id="polygon25"
   style="fill:#ffffff" />
	<rect
   x="207"
   y="376"
   width="8.3000002"
   height="55.799999"
   id="rect27"
   style="fill:#ffffff" />
	<path
   d="m 247.1,376 h 34.5 c 11.2,0 15.2,7.7 15.2,14.8 0,6.8 -3.3,11.8 -9.4,13.7 v 0.2 c 4.9,0.7 7.8,5.3 8.1,11.9 0.5,10.4 0.8,13 2.7,15.2 h -8.8 c -1.3,-1.6 -1.3,-3.9 -1.7,-10.6 -0.5,-10 -3.9,-13 -10.8,-13 h -21.7 v 23.7 h -8.3 V 376 Z m 31.4,24.9 c 8.1,0 10.1,-4.9 10.1,-8.8 0,-5.3 -3.2,-8.9 -9.8,-8.9 h -23.4 v 17.7 z"
   id="path29"
   inkscape:connector-curvature="0"
   style="fill:#ffffff" />
	<polygon
   points="370.5,424.5 333.1,424.5 333.1,406.5 368.6,406.5 368.6,399.3 333.1,399.3 333.1,383.2 369.7,383.2 369.7,376 324.9,376 324.9,431.7 370.5,431.7 "
   id="polygon31"
   style="fill:#ffffff" />
	<polygon
   points="441.1,424.5 407.2,424.5 407.2,376 398.9,376 398.9,431.7 441.1,431.7 "
   id="polygon33"
   style="fill:#ffffff" />
	<polygon
   points="512.2,424.5 474.8,424.5 474.8,406.5 510.3,406.5 510.3,399.3 474.8,399.3 474.8,383.2 511.4,383.2 511.4,376 466.6,376 466.6,431.7 512.2,431.7 "
   id="polygon35"
   style="fill:#ffffff" />
	<path
   d="m 543.8,413.4 c 0.2,10 9.6,12.6 18,12.6 8.8,0 15.1,-3.3 15.1,-9.4 0,-5.1 -4,-7.2 -10.4,-8.3 l -12.7,-2.1 c -6.7,-1.1 -16.6,-3.7 -16.6,-14.6 0,-10.1 8.1,-16.9 22.4,-16.9 11.2,0 23,4 23.7,17.5 H 575 c -0.7,-4.4 -3.2,-10.3 -16.6,-10.3 -6.1,0 -13,2.6 -13,9.1 0,3.4 2.3,6.2 9.1,7.4 l 13.7,2.3 c 4.4,0.8 16.8,2.9 16.8,14.3 0,14.2 -12.7,18.3 -24,18.3 -12.6,0 -25.6,-4.4 -25.6,-19.8 h 8.4 z"
   id="path37"
   inkscape:connector-curvature="0"
   style="fill:#ffffff" />
	<path
   d="m 614.7,413.4 c 0.2,10 9.5,12.6 18,12.6 8.8,0 15.1,-3.3 15.1,-9.4 0,-5.1 -4,-7.2 -10.4,-8.3 l -12.6,-2.1 c -6.6,-1.1 -16.6,-3.7 -16.6,-14.6 0,-10.1 8.1,-16.9 22.4,-16.9 11.2,0 23,4 23.8,17.5 h -8.3 c -0.7,-4.4 -3.2,-10.3 -16.6,-10.3 -6.1,0 -13,2.6 -13,9.1 0,3.4 2.2,6.2 9.1,7.4 l 13.7,2.3 c 4.4,0.8 16.8,2.9 16.8,14.3 0,14.2 -12.7,18.3 -24,18.3 -12.6,0 -25.6,-4.4 -25.6,-19.8 h 8.2 z"
   id="path39"
   inkscape:connector-curvature="0"
   style="fill:#ffffff" />
	<path
   d="m 112.8,253.4 c 13.5,0 40.6,2.4 42.9,27.9 h -19.9 c -0.6,-6.8 -6.8,-14.1 -22.1,-14.1 -12.3,0 -20.4,3.8 -20.4,12 0,20.7 65.4,0.9 65.4,38.4 0,22.6 -23.5,28.5 -42.2,28.5 -31.6,0 -44.3,-12.4 -44.5,-30.9 h 19.9 c 0.5,11.5 10.1,17.1 25.2,17.1 11.2,0 21.6,-3.3 21.6,-12.9 0,-21.8 -64.7,-2.8 -64.7,-38.8 0.1,-19.5 17.4,-27.2 38.8,-27.2"
   id="path41"
   inkscape:connector-curvature="0"
   style="fill:#ffffff" />
	<path
   d="m 209.8,255.9 c 0,0 0,79.8 0,79.8 0,5.1 -4.1,9.2 -9.2,9.2 -5.1,0 -9.2,-4.1 -9.2,-9.2 0,-0.1 0,-79.8 0,-79.8 z"
   id="path43"
   inkscape:connector-curvature="0"
   style="fill:#ffffff" />
	<path
   d="m 313.4,291.8 c 3.8,0 6.9,3 6.9,6.8 0,3.8 -3.1,6.9 -6.9,6.9 h -46.8 v 24.3 h 58.8 v 13.7 h -77.2 v -87.8 h 76.2 v 13.8 h -57.8 v 22.1 z"
   id="path45"
   inkscape:connector-curvature="0"
   style="fill:#ffffff" />
	<path
   d="M 648.4,255.9 H 627 l -33.5,75.4 c -0.6,1.5 -1.1,2.8 -1.1,4.4 0,5.2 3.8,9.4 8.9,9.4 4.2,0 7.4,-2.9 8.9,-6.5 l 0.3,-0.7 6.8,-15.9 h 41.3 l 9.1,21.8 h 19.9 z m -25.7,52.3 15,-37 15.2,37 z"
   id="path47"
   inkscape:connector-curvature="0"
   style="fill:#ffffff" />
	<path
   d="m 564.6,324.9 c 0,-12.4 -2.3,-21.5 -12.8,-23.7 v -0.3 c 8.2,-2.6 14.5,-9.7 14.5,-21.1 0,-13.6 -7.3,-23.9 -29.6,-23.9 h -55.6 c 0,0 0,79.8 0,79.9 0,5.1 4.1,9.2 9.2,9.2 5.1,0 9.2,-4.1 9.2,-9.2 0,-0.1 0,-26.7 0,-26.7 h 31.4 c 13.5,0 15.2,8.8 15.2,21.4 0,6.4 0.9,10.8 2.2,13.3 h 19.9 c -3.5,-4.9 -3.6,-14.8 -3.6,-18.9 m -33.2,-29.7 h -31.8 v -25.6 h 31.8 c 9.7,0 15.7,3.6 15.7,12.7 0,9.9 -5.5,12.9 -15.7,12.9"
   id="path49"
   inkscape:connector-curvature="0"
   style="fill:#ffffff" />
	<path
   d="m 443.7,324.9 c 0,-12.4 -2.3,-21.5 -12.8,-23.7 v -0.3 c 8.2,-2.6 14.5,-9.7 14.5,-21.1 0,-13.6 -7.2,-23.9 -29.6,-23.9 h -55.6 c 0,0 0,79.8 0,79.9 0,5.1 4.1,9.2 9.2,9.2 5.1,0 9.2,-4.1 9.2,-9.2 0,-0.1 0,-26.7 0,-26.7 H 410 c 13.5,0 15.2,8.8 15.2,21.4 0,6.4 0.9,10.8 2.2,13.3 h 19.9 c -3.5,-4.9 -3.6,-14.8 -3.6,-18.9 m -33.2,-29.7 h -31.8 v -25.6 h 31.8 c 9.7,0 15.7,3.6 15.7,12.7 0,9.9 -5.5,12.9 -15.7,12.9"
   id="path51"
   inkscape:connector-curvature="0"
   style="fill:#ffffff" />
	<path
   d="m 678.9,383.2 c 0,4.4 -3.5,7.8 -7.9,7.8 -4.4,0 -8,-3.4 -8,-7.8 0,-4.3 3.5,-7.7 8,-7.7 4.4,-0.1 7.9,3.4 7.9,7.7 m -14,0 c 0,3.5 2.5,6.2 6,6.2 3.4,0 5.9,-2.7 5.9,-6.1 0,-3.5 -2.5,-6.2 -5.9,-6.2 -3.4,-0.1 -6,2.7 -6,6.1 m 4.8,4 h -1.8 v -7.8 c 0.7,-0.1 1.7,-0.2 3,-0.2 1.5,0 2.1,0.2 2.7,0.6 0.4,0.3 0.8,0.9 0.8,1.7 0,0.8 -0.7,1.5 -1.6,1.8 v 0.1 c 0.7,0.3 1.2,0.9 1.4,1.9 0.2,1.2 0.4,1.7 0.6,1.9 h -1.9 c -0.3,-0.3 -0.4,-1 -0.6,-1.9 -0.1,-0.8 -0.6,-1.2 -1.6,-1.2 h -0.9 v 3.1 z m 0,-4.4 h 0.9 c 1,0 1.8,-0.3 1.8,-1.1 0,-0.7 -0.5,-1.2 -1.7,-1.2 -0.5,0 -0.8,0 -1,0.1 z"
   id="path53"
   inkscape:connector-curvature="0"
   style="fill:#ffffff" />
</g>
</svg>