<?xml version="1.0" encoding="UTF-8" standalone="no"?>
<!-- Created with Inkscape (http://www.inkscape.org/) -->

<svg
   xmlns:dc="http://purl.org/dc/elements/1.1/"
   xmlns:cc="http://creativecommons.org/ns#"
   xmlns:rdf="http://www.w3.org/1999/02/22-rdf-syntax-ns#"
   xmlns:svg="http://www.w3.org/2000/svg"
   xmlns="http://www.w3.org/2000/svg"
   xmlns:xlink="http://www.w3.org/1999/xlink"
   xmlns:sodipodi="http://sodipodi.sourceforge.net/DTD/sodipodi-0.dtd"
   xmlns:inkscape="http://www.inkscape.org/namespaces/inkscape"
   width="197.52414"
   height="52.367218"
   id="svg5437"
   version="1.1"
   inkscape:version="0.48.3.1 r9886"
   inkscape:export-filename="/home/nick/Ubuntu One/EclipseSource/EclipseSource Website/CORPORATE/Images/es-logo.png"
   inkscape:export-xdpi="90"
   inkscape:export-ydpi="90"
   sodipodi:docname="es-logo.svg">
  <defs
     id="defs5439">
    <filter
       inkscape:label="Drop Shadow"
       id="filter5656"
       color-interpolation-filters="sRGB">
      <feFlood
         result="flood"
         flood-color="rgb(0,0,0)"
         flood-opacity="0.8"
         id="feFlood5658" />
      <feComposite
         result="composite1"
         operator="in"
         in="flood"
         in2="SourceGraphic"
         id="feComposite5660" />
      <feGaussianBlur
         result="blur"
         stdDeviation="2"
         id="feGaussianBlur5662" />
      <feOffset
         result="offset"
         dy="0"
         dx="0"
         id="feOffset5664" />
      <feComposite
         result="composite2"
         operator="over"
         in="SourceGraphic"
         in2="offset"
         id="feComposite5666" />
    </filter>
    <linearGradient
       y2="6.9496999"
       x2="23.8564"
       y1="75.9692"
       x1="23.8564"
       gradientUnits="userSpaceOnUse"
       id="SVGID_4_">
      <stop
         id="stop4558"
         style="stop-color:#F2F2F2"
         offset="0" />
      <stop
         id="stop4560"
         style="stop-color:#F6F6F6"
         offset="0.2413" />
      <stop
         id="stop4562"
         style="stop-color:#FFFFFF"
         offset="1" />
    </linearGradient>
    <linearGradient
       y2="2.2837"
       x2="39.4697"
       y1="76.283699"
       x1="39.4697"
       gradientUnits="userSpaceOnUse"
       id="SVGID_1_">
      <stop
         id="stop4523"
         style="stop-color:#B62C25"
         offset="0" />
      <stop
         id="stop4525"
         style="stop-color:#E74824"
         offset="1" />
    </linearGradient>
    <clipPath
       id="clipPath20-6">
      <path
         d="M 357.722,249.334 0,249.334 0,0 l 357.722,0 0,249.334 z"
         id="path22-9"
         inkscape:connector-curvature="0" />
    </clipPath>
    <linearGradient
       y2="6.5625"
       x2="29.732555"
       y1="27.21875"
       x1="29.732555"
       gradientTransform="translate(16.730645,29.229714)"
       gradientUnits="userSpaceOnUse"
       id="linearGradient3611-7"
       xlink:href="#linearGradient4054-4-89"
       inkscape:collect="always" />
    <linearGradient
       id="linearGradient4054-4-89">
      <stop
         style="stop-color:#c43a23;stop-opacity:1;"
         offset="0"
         id="stop4056-9-2" />
      <stop
         style="stop-color:#ffaa4c;stop-opacity:1;"
         offset="1"
         id="stop4058-31-63" />
    </linearGradient>
    <linearGradient
       y2="6.5625"
       x2="29.732555"
       y1="27.21875"
       x1="29.732555"
       gradientTransform="translate(16.730645,29.229714)"
       gradientUnits="userSpaceOnUse"
       id="linearGradient3682"
       xlink:href="#linearGradient4054-4-89"
       inkscape:collect="always" />
    <linearGradient
       inkscape:collect="always"
       xlink:href="#linearGradient4054-4-89"
       id="linearGradient4529"
       gradientUnits="userSpaceOnUse"
       gradientTransform="translate(16.393631,31.847019)"
       x1="29.732555"
       y1="27.21875"
       x2="29.732555"
       y2="6.5625" />
    <linearGradient
       inkscape:collect="always"
       xlink:href="#linearGradient4054-4-89"
       id="linearGradient3640"
       gradientUnits="userSpaceOnUse"
       gradientTransform="translate(16.393631,31.847019)"
       x1="29.732555"
       y1="27.21875"
       x2="29.732555"
       y2="6.5625" />
    <linearGradient
       y2="6.5625"
       x2="29.732555"
       y1="27.21875"
       x1="29.732555"
       gradientTransform="translate(16.730645,29.229714)"
       gradientUnits="userSpaceOnUse"
       id="linearGradient4860"
       xlink:href="#linearGradient4054-4"
       inkscape:collect="always" />
    <linearGradient
       id="linearGradient4054-4">
      <stop
         style="stop-color:#c43a23;stop-opacity:1;"
         offset="0"
         id="stop4056-9" />
      <stop
         style="stop-color:#ffaa4c;stop-opacity:1;"
         offset="1"
         id="stop4058-31" />
    </linearGradient>
    <linearGradient
       y2="6.5625"
       x2="29.732555"
       y1="27.21875"
       x1="29.732555"
       gradientTransform="translate(16.730645,29.229714)"
       gradientUnits="userSpaceOnUse"
       id="linearGradient3661"
       xlink:href="#linearGradient4054-4"
       inkscape:collect="always" />
  </defs>
  <sodipodi:namedview
     id="base"
     pagecolor="#ffffff"
     bordercolor="#666666"
     borderopacity="1.0"
     inkscape:pageopacity="0.0"
     inkscape:pageshadow="2"
     inkscape:zoom="4"
     inkscape:cx="129.20491"
     inkscape:cy="-13.025553"
     inkscape:document-units="px"
     inkscape:current-layer="layer1"
     showgrid="false"
     fit-margin-top="0"
     fit-margin-left="0"
     fit-margin-right="0"
     fit-margin-bottom="0"
     inkscape:snap-page="false"
     inkscape:snap-global="true"
     inkscape:window-width="1551"
     inkscape:window-height="876"
     inkscape:window-x="49"
     inkscape:window-y="24"
     inkscape:window-maximized="1"
     inkscape:object-paths="true"
     inkscape:snap-intersection-paths="true" />
  <metadata
     id="metadata5442">
    <rdf:RDF>
      <cc:Work
         rdf:about="">
        <dc:format>image/svg+xml</dc:format>
        <dc:type
           rdf:resource="http://purl.org/dc/dcmitype/StillImage" />
        <dc:title></dc:title>
      </cc:Work>
    </rdf:RDF>
  </metadata>
  <g
     inkscape:label="Ebene 1"
     inkscape:groupmode="layer"
     id="layer1"
     transform="translate(-776.61828,-309.96582)">
    <text
       sodipodi:linespacing="125%"
       id="text3086"
       y="-33.852112"
       x="3983.4287"
       style="font-size:40px;font-style:normal;font-variant:normal;font-weight:normal;font-stretch:normal;line-height:125%;letter-spacing:0px;word-spacing:0px;fill:#000000;fill-opacity:1;stroke:none;font-family:Open Sans;-inkscape-font-specification:Open Sans"
       xml:space="preserve"><tspan
         y="-33.852112"
         x="3983.4287"
         id="tspan3088"
         sodipodi:role="line" /></text>
    <flowRoot
       style="font-size:40px;font-style:normal;font-variant:normal;font-weight:normal;font-stretch:normal;line-height:125%;letter-spacing:0px;word-spacing:0px;fill:#000000;fill-opacity:1;stroke:none;font-family:Open Sans;-inkscape-font-specification:Open Sans"
       id="flowRoot4181"
       xml:space="preserve"
       transform="translate(4017.4286,954.28571)"><flowRegion
         id="flowRegion4183"><rect
           y="208.19142"
           x="763.67535"
           height="156.97771"
           width="149.19952"
           id="rect4185" /></flowRegion><flowPara
         id="flowPara4187" /></flowRoot>    <g
       id="g7291">
      <g
         style="fill:#000000;fill-opacity:1"
         id="g4748-8-9-2-0-4-80-5"
         transform="matrix(0.82148541,0,0,0.82148541,251.70465,482.99841)">
        <g
           style="fill:#004d91;fill-opacity:1"
           id="g6136">
          <path
             id="path3805-0-2-3-1-4-2-1-3"
             style="fill:#004d91;fill-opacity:1;fill-rule:nonzero;stroke:none"
             d="m 674.44212,-162.11567 c -8.21508,-2.76777 -14.12997,-9.60017 -17.19573,-17.43393 -6.63836,-16.95711 -18.26532,-16.59075 -18.26532,-16.59075 l 0,35.34297 c 0,2.00226 1.63501,3.63636 3.63545,3.63636 l 31.8256,-0.003 4.52047,0 c 1.9999,0 3.63599,-1.63142 3.63599,-3.63368 -2.92499,0 -5.64689,-0.46957 -8.15646,-1.31829"
             inkscape:connector-curvature="0" />
          <path
             id="path3819-7-9-9-9-4-8-4-3"
             style="fill:#004d91;fill-opacity:1;fill-rule:nonzero;stroke:none"
             d="m 797.06575,-157.17128 c -6.75058,0 -7.62328,-4.65601 -7.62328,-10.71236 l 0,-1.04761 3.20112,0 0,0.87256 c 0,4.54047 0.23054,8.3212 4.42216,8.3212 3.37806,0 4.19486,-2.73188 4.19486,-6.28434 0,-2.79212 -1.10739,-5.47073 -2.73682,-8.26562 l -6.63555,-11.11804 c -1.10692,-1.9203 -2.15518,-4.65615 -2.15518,-6.86885 0,-4.71607 2.03691,-8.38333 7.33269,-8.38333 6.28951,0 7.2195,4.94882 7.2195,10.3618 l 0,0.69913 -3.14245,0 0,-0.5239 c 0,-4.65684 -0.52297,-7.97392 -4.13249,-7.97392 -2.73728,0 -4.07474,2.03644 -4.07474,5.82022 0,1.86223 0.86993,3.90094 2.38617,6.40271 l 6.11073,10.13058 c 1.86181,3.08359 3.02741,6.22636 3.02741,9.77753 0,5.00754 -1.62897,8.79224 -7.39413,8.79224"
             inkscape:connector-curvature="0" />
          <path
             id="path3821-7-5-9-2-4-6-6-4"
             style="fill:#004d91;fill-opacity:1;fill-rule:nonzero;stroke:none"
             d="m 813.79113,-185.46342 c -3.49079,0 -3.60998,4.71446 -3.60998,13.38668 0,7.92185 0.11919,12.46071 3.60998,12.46071 3.60905,0 3.55223,-4.53886 3.55223,-12.46071 0,-8.73016 0.0568,-13.38668 -3.55223,-13.38668 z m 0,28.11742 c -6.51866,0 -6.6374,-6.63873 -6.6374,-14.73074 0,-9.42836 0.11874,-15.65726 6.6374,-15.65726 6.52004,0 6.57964,5.93761 6.57964,15.65726 0,7.86013 0.0582,14.73074 -6.57964,14.73074"
             inkscape:connector-curvature="0" />
          <path
             id="path3823-3-5-7-0-3-8-3-0"
             style="fill:#004d91;fill-opacity:1;fill-rule:nonzero;stroke:none"
             d="m 833.87424,-157.87295 -0.11458,-2.7322 c -0.75904,1.74235 -2.03921,3.19779 -4.53996,3.19779 -3.78646,0 -4.66008,-2.78944 -4.66008,-5.99356 l 0,-23.80882 2.97059,0 0,23.05485 c 0,2.38447 0.40655,4.30551 2.85278,4.30551 1.92002,0 3.31708,-1.80467 3.31708,-5.18384 l 0,-22.17652 2.97012,0 0,23.45997 c 0,1.80518 0,3.20145 0.1155,5.87682 l -2.91145,0"
             inkscape:connector-curvature="0" />
          <path
             id="path3825-7-7-8-3-8-3-7-0"
             style="fill:#004d91;fill-opacity:1;fill-rule:nonzero;stroke:none"
             d="m 848.37052,-184.70853 c -3.08701,0 -3.84421,1.98096 -3.84421,5.94016 l 0,20.89542 -2.96874,0 0,-23.39991 c 0,-0.58234 -0.0568,-3.37469 -0.17555,-5.93688 l 2.9133,0 0.11642,2.91016 c 0.7572,-1.97916 2.32703,-3.16444 3.8978,-3.16444 0.58118,0 1.3661,0.0976 1.94959,0.4127 l -0.86022,2.56856 c -0.4024,-0.18461 -0.87594,-0.22577 -1.02839,-0.22577"
             inkscape:connector-curvature="0" />
          <path
             id="path3827-0-3-0-4-6-8-9-5"
             style="fill:#004d91;fill-opacity:1;fill-rule:nonzero;stroke:none"
             d="m 857.30954,-157.346 c -6.22992,0 -6.45999,-6.28647 -6.45999,-14.84532 0,-11.06033 1.16329,-15.54268 6.51727,-15.54268 5.00704,0 6.05483,3.66759 6.05483,8.61535 l 0,0.46577 -2.96967,0 0,-0.40839 c 0,-3.89928 -0.46429,-6.40215 -3.08516,-6.40215 -2.90914,0 -3.48986,3.0847 -3.48986,13.32893 0,8.32753 0.28967,12.51846 3.43258,12.51846 2.50213,0 3.14244,-2.21126 3.14244,-6.46299 l 0,-0.40872 3.02742,0 0,0.58289 c 0,4.31183 -0.81495,8.55885 -6.16986,8.55885"
             inkscape:connector-curvature="0" />
          <path
             id="path3829-91-9-1-7-0-3-74-6"
             style="fill:#004d91;fill-opacity:1;fill-rule:nonzero;stroke:none"
             d="m 872.85315,-185.46342 c -3.60952,0 -3.60952,5.29591 -3.60952,11.52611 l 7.15851,0 c 0,-6.11128 0.0582,-11.52611 -3.54899,-11.52611 z m -3.60952,13.79452 c 0,0.41057 0,1.92321 0,1.92321 0,6.05423 0.29244,10.12966 3.60952,10.12966 2.85093,0 3.37621,-3.02783 3.4335,-6.46299 l 3.02649,0 c -0.23285,4.01985 -1.04779,8.73302 -6.45999,8.73302 -6.52236,0.0577 -6.63739,-6.80889 -6.63739,-14.84532 0,-9.02305 0.11503,-15.54268 6.63739,-15.54268 6.75196,0 6.57502,6.28665 6.57502,16.0651 l -10.18454,0"
             inkscape:connector-curvature="0" />
        </g>
        <g
           style="fill:#4e9ad9;fill-opacity:1"
           id="g6126">
          <path
             id="path3803-4-3-3-9-03-1-8-9"
             style="fill:#4e9ad9;fill-opacity:1;fill-rule:nonzero;stroke:none"
             d="m 678.96259,-200.77918 -36.34607,0 c -2.00044,0 -3.63545,1.63498 -3.63545,3.63447 2.91973,0 5.6413,0.47631 8.15572,1.29819 7.71664,2.5183 13.48268,8.30688 16.99088,13.71593 4.02545,6.21033 9.87575,10.40126 18.47091,10.40126 l 0,-25.41538 c 0,-1.99949 -1.63609,-3.63447 -3.63599,-3.63447"
             inkscape:connector-curvature="0" />
          <path
             id="path3807-3-9-6-6-9-8-0-1"
             style="fill:#4e9ad9;fill-opacity:1;fill-rule:nonzero;stroke:none"
             d="m 714.78972,-157.346 c -6.22807,0 -6.45999,-6.28647 -6.45999,-14.84532 0,-11.06033 1.16421,-15.54268 6.51959,-15.54268 5.00518,0 6.05343,3.66759 6.05343,8.61535 l 0,0.46577 -2.96966,0 0,-0.40839 c 0,-3.89928 -0.46522,-6.40215 -3.08377,-6.40215 -2.91053,0 -3.49264,3.0847 -3.49264,13.32893 0,8.32753 0.29105,12.51846 3.43304,12.51846 2.50398,0 3.14337,-2.21126 3.14337,-6.46299 l 0,-0.40872 3.02834,0 0,0.58289 c 0,4.31183 -0.81541,8.55885 -6.17171,8.55885"
             inkscape:connector-curvature="0" />
          <path
             id="path3809-4-5-4-3-2-8-2-1"
             style="fill:#4e9ad9;fill-opacity:1;fill-rule:nonzero;stroke:none"
             d="m 724.89295,-157.87295 2.90403,0 0,-42.08574 -2.90403,0 0,42.08574 z"
             inkscape:connector-curvature="0" />
          <path
             id="path3811-2-4-9-8-74-9-2-3"
             style="fill:#4e9ad9;fill-opacity:1;fill-rule:nonzero;stroke:none"
             d="m 732.68578,-157.87295 0,-29.33679 2.96966,0 0,29.33679 -2.96966,0 z m 0,-37.9745 0,-3.58734 2.96966,0 0,3.58734"
             inkscape:connector-curvature="0" />
          <path
             id="path3813-8-3-8-2-2-2-9-1"
             style="fill:#4e9ad9;fill-opacity:1;fill-rule:nonzero;stroke:none"
             d="m 747.12292,-185.28856 c -3.43442,0 -3.60905,4.77258 -3.60905,10.59363 l 0,3.49435 c 0,6.9289 0.11596,11.58455 3.66726,11.58455 3.49218,0 3.60906,-4.30698 3.60906,-12.98318 0,-8.38255 -0.17417,-12.68935 -3.66727,-12.68935 z m 0.69899,27.8812 c -2.15333,0 -3.66819,-1.10387 -4.30804,-3.02454 l 0,13.54509 -2.9692,0 0,-35.43329 c 0,-0.5244 -0.17464,-4.30804 -0.17464,-4.88964 l 2.96921,0 0.0582,2.85149 c 0.81448,-2.03709 2.212,-3.31676 4.48267,-3.31676 5.06386,0 5.93794,4.01589 5.93794,15.0758 0,10.07445 -0.75858,15.19185 -5.99615,15.19185"
             inkscape:connector-curvature="0" />
          <path
             id="path3815-9-9-4-8-5-8-75-9"
             style="fill:#4e9ad9;fill-opacity:1;fill-rule:nonzero;stroke:none"
             d="m 763.48056,-157.28825 c -5.53139,0 -6.52005,-3.66773 -6.52005,-8.03463 l 0,-0.98949 3.02741,0 0,0.98949 c 0,3.55246 0.58118,5.7628 3.49264,5.7628 2.32796,0 3.31661,-1.68788 3.31661,-4.77115 0,-2.56403 -0.98865,-3.90251 -2.61855,-5.59043 l -3.0847,-3.14314 c -2.32888,-2.32764 -3.90103,-4.48147 -3.90103,-7.97489 0,-3.7836 2.03783,-6.69431 6.34495,-6.69431 4.94836,0 6.1694,3.20126 6.1694,7.85847 l 0,0.69913 -3.0251,0 0,-0.75614 c 0,-2.79503 -0.11688,-5.53088 -3.1443,-5.53088 -2.38755,0 -3.31754,1.8626 -3.31754,4.36598 0,2.61961 1.39706,4.19185 3.26026,6.1116 l 2.91145,3.02695 c 2.67722,2.73474 3.49263,4.30804 3.49263,7.56941 0,4.3073 -2.1561,7.10123 -6.40408,7.10123"
             inkscape:connector-curvature="0" />
          <path
             id="path3817-2-4-6-5-2-8-6-9"
             style="fill:#4e9ad9;fill-opacity:1;fill-rule:nonzero;stroke:none"
             d="m 779.72038,-185.46342 c -3.60859,0 -3.60859,5.29591 -3.60859,11.52611 l 7.15944,0 c 0,-6.11128 0.0587,-11.52611 -3.55085,-11.52611 z m -3.60859,13.79452 c 0,0.41057 0,1.92321 0,1.92321 0,6.05423 0.29013,10.12966 3.60859,10.12966 2.85186,0 3.37806,-3.02783 3.43443,-6.46299 l 3.02833,0 c -0.23469,4.01985 -1.04963,8.73302 -6.46276,8.73302 -6.52004,0.0577 -6.63462,-6.80889 -6.63462,-14.84532 0,-9.02305 0.11458,-15.54268 6.63462,-15.54268 6.75382,0 6.5778,6.28665 6.5778,16.0651 l -10.18639,0"
             inkscape:connector-curvature="0" />
          <path
             id="path3831-1-0-4-7-8-3-9-3"
             style="fill:#4e9ad9;fill-opacity:1;fill-rule:nonzero;stroke:none"
             d="m 692.42069,-159.84813 c 0.002,1.31759 0.6611,1.97661 1.9787,1.97846 l 12.2755,-0.003 0,-2.7322 -10.25245,0 c -0.51096,0 -0.85838,-0.34741 -0.85838,-0.85847 l 0,-17.01421 9.79739,0 0,-2.67805 -9.79739,0 0,-15.209 c 0,-0.51049 0.34742,-0.85745 0.85838,-0.85745 l 10.6918,0 0,-2.73636 c 0,0 -11.8708,-0.001 -12.71485,0 -1.3176,0.002 -1.97685,0.66111 -1.9787,1.97824 l 0,38.13232"
             inkscape:connector-curvature="0" />
        </g>
      </g>
      <rect
         transform="translate(776.61828,318.06124)"
         y="35.246841"
         x="77.5"
         height="9.0249548"
         width="7.5"
         id="rect7271"
         style="fill:#4e9ad9;fill-opacity:0;stroke:none" />
      <rect
         y="309.96582"
         x="821.1131"
         height="9.0249548"
         width="7.5"
         id="rect7271-9"
         style="fill:#4e9ad9;fill-opacity:0;stroke:none" />
    </g>
  </g>
</svg>
