<?xml version="1.0" encoding="UTF-8"?>
<svg width="238px" height="84px" viewBox="0 0 238 84" version="1.1" xmlns="http://www.w3.org/2000/svg" xmlns:xlink="http://www.w3.org/1999/xlink">
    <title>Group 3</title>
    <g id="Page-1" stroke="none" stroke-width="1" fill="none" fill-rule="evenodd">
        <g id="Artboard" transform="translate(-194.000000, -125.000000)" fill="#FFFFFF" fill-rule="nonzero">
            <g id="Group-3" transform="translate(194.000000, 125.000000)">
                <path d="M107.633776,77.8597978 L109.220275,72.2517081 L117.281904,72.2517081 L118.849955,77.8597978 L124.310463,77.8597978 L115.676957,51 L110.972803,51 L102.173267,77.8597978 L107.633776,77.8597978 Z M116.064358,67.8427166 L110.493163,67.8427166 L113.315656,57.9547691 L116.064358,67.8427166 Z M143.422242,77.8597978 L143.422242,73.6906259 L138.183106,73.6906259 L138.183106,55.1876196 L143.422242,55.1876196 L143.422242,51 L127.88931,51 L127.88931,55.1876196 L132.999313,55.1876196 L132.999313,73.6906259 L127.88931,73.6906259 L127.88931,77.8597978 L143.422242,77.8597978 Z M177.255257,77.8597978 L177.255257,69.9457502 L180.096197,66.8280951 L186.737356,77.8597978 L192.898875,77.8597978 L183.527462,62.8802952 L192.566817,51 L186.220821,51 L179.690348,60.0209074 L177.255257,63.3045914 L177.255257,51 L172.053016,51 L172.053016,77.8597978 L177.255257,77.8597978 Z M211.438777,77.8597978 L211.438777,73.6906259 L206.199641,73.6906259 L206.199641,55.1876196 L211.438777,55.1876196 L211.438777,51 L195.905845,51 L195.905845,55.1876196 L201.015847,55.1876196 L201.015847,73.6906259 L195.905845,73.6906259 L195.905845,77.8597978 L211.438777,77.8597978 Z M228.890267,77.8597978 L228.890267,55.2245149 L237.173267,55.2245149 L237.173267,51 L215.515711,51 L215.515711,55.2245149 L223.688025,55.2245149 L223.688025,77.8597978 L228.890267,77.8597978 Z" id="AIKIT"></path>
                <g id="Group" transform="translate(102.173267, 0.000000)">
                    <path d="M12.00654,29.64 C9.145968,29.64 6.862752,29.2599007 5.156892,28.4986692 C3.4510632,27.7374377 2.1651136,26.2945063 1.2990692,24.1688422 C0.4330248,22.0431781 -2.77111667e-13,18.9466081 -2.77111667e-13,14.8791323 C-2.77111667e-13,10.8116565 0.4330248,7.71508651 1.2990692,5.5894224 C2.191358,3.43793633 3.4904272,1.96815012 5.196256,1.18109665 C6.902116,0.393526737 9.172228,0 12.00654,0 C14.867112,0 17.137224,0.393526737 18.816824,1.18109665 C20.522684,1.96815012 21.808644,3.43793633 22.674652,5.5894224 C23.540712,7.71508651 23.973716,10.8116565 23.973716,14.8791323 C23.973716,18.9466081 23.540712,22.0431781 22.674652,24.1688422 C21.808644,26.2945063 20.522684,27.7374377 18.816824,28.4986692 C17.137224,29.2599007 14.867112,29.64 12.00654,29.64 Z M12.00654,24.4048549 C13.659932,24.4048549 14.906476,24.1688422 15.746276,23.6963002 C16.612336,23.1979363 17.229056,22.2791908 17.596488,20.9410966 C17.96392,19.5766641 18.147584,17.5558371 18.147584,14.8791323 C18.147584,12.0975903 17.96392,10.037514 17.596488,8.69941979 C17.229056,7.33447075 16.612336,6.4162417 15.746276,5.94369975 C14.906476,5.47167425 13.659932,5.23514505 12.00654,5.23514505 C10.379408,5.23514505 9.132864,5.47167425 8.266804,5.94369975 C7.427004,6.4162417 6.810284,7.33447075 6.416592,8.69941979 C6.022952,10.0638524 5.826132,12.1239287 5.826132,14.8791323 C5.826132,17.5821755 6.009848,19.602486 6.377228,20.9410966 C6.74466,22.2791908 7.348276,23.1979363 8.188076,23.6963002 C9.054136,24.1688422 10.32694,24.4048549 12.00654,24.4048549 Z" id="Shape"></path>
                    <path d="M25.810668,8.11930743 L30.692012,8.11930743 L31.6368,10.1539762 C33.605104,8.58465875 35.560252,7.8 37.502296,7.8 C40.047956,7.8 41.924376,8.75792229 43.131608,10.67272 C44.365048,12.5880411 44.981768,15.3141937 44.981768,18.8517012 C44.981768,22.5221663 44.417516,25.2750151 43.289064,27.1107711 C42.18682,28.9193074 40.25788,29.8238373 37.502296,29.8238373 C36.50504,29.8238373 35.481524,29.7039662 34.431748,29.4647473 C33.408232,29.225005 32.4766,28.8795249 31.6368,28.4272599 L31.6368,39 L25.810668,39 L25.810668,8.11930743 Z M35.61272,24.9562311 C36.688704,24.9562311 37.54166,24.5170525 38.171484,23.6392188 C38.82762,22.7352124 39.155636,21.1391987 39.155636,18.8517012 C39.155636,16.5642037 38.840724,14.9420173 38.210848,13.984095 C37.581024,13.0266962 36.714964,12.5477351 35.61272,12.5477351 C34.300552,12.5477351 32.975228,12.9471311 31.6368,13.7448762 L31.6368,23.9187437 C32.135428,24.2380511 32.739044,24.4908798 33.447596,24.6767063 C34.18246,24.8630562 34.904168,24.9562311 35.61272,24.9562311 Z" id="Shape"></path>
                    <path d="M56.277,29.64 C53.88864,29.64 52.01196,29.3222022 50.647428,28.6871277 C49.282792,28.0515322 48.285484,26.9533065 47.65566,25.3914086 C47.052044,23.8295107 46.750236,21.6320174 46.750236,18.7994494 C46.750236,15.8876926 47.03894,13.6506047 47.616296,12.0887069 C48.193652,10.500239 49.13844,9.38846783 50.450608,8.75339329 C51.78888,8.11779776 53.66556,7.8 56.07992,7.8 C58.23168,7.8 59.9248,8.01203883 61.15824,8.43559552 C62.39168,8.85915221 63.284,9.60050667 63.8352,10.6591379 C64.4124,11.7182901 64.701,13.2140235 64.701,15.1463381 C64.701,17.2109816 64.11028,18.680145 62.92936,19.5538284 C61.77496,20.4275117 60.08236,20.8646139 57.85156,20.8646139 L52.53716,20.8646139 C52.58968,22.0029551 52.76024,22.8896629 53.04884,23.5247375 C53.33744,24.133763 53.84912,24.5838897 54.58388,24.8751175 C55.31864,25.1397753 56.39504,25.2721042 57.81204,25.2721042 L63.99224,25.2721042 L63.99224,28.7267222 C62.60176,29.01795 61.3418,29.2430133 60.2134,29.4019122 C59.085,29.560811 57.77252,29.64 56.277,29.64 Z M57.26084,17.3698805 C58.07464,17.3698805 58.65184,17.2109816 58.99296,16.8937048 C59.3606,16.5493371 59.54416,15.980427 59.54416,15.1859326 C59.54416,14.0210214 59.28156,13.2140235 58.75688,12.7638969 C58.23168,12.2872002 57.33988,12.0491124 56.07992,12.0491124 C55.1616,12.0491124 54.43984,12.2080113 53.91464,12.525288 C53.41596,12.8165158 53.04884,13.3463524 52.81276,14.1137559 C52.57616,14.8816803 52.45812,15.9668815 52.45812,17.3698805 L57.26084,17.3698805 Z" id="Shape"></path>
                    <path d="M66.33692,8.16001153 L71.13964,8.16001153 L72.163,10.3599654 C73.0288,9.63994233 74.06568,9.04009804 75.2726,8.55990773 C76.48004,8.05347751 77.66096,7.8 78.81588,7.8 C81.20372,7.8 82.89684,8.49325836 83.89368,9.88029988 C84.89104,11.2668166 85.38972,13.1335236 85.38972,15.4798962 L85.38972,29.64 L79.56364,29.64 L79.56364,16.2398039 C79.56364,15.2269435 79.28804,14.453391 78.73684,13.9201961 C78.21216,13.3864764 77.4774,13.1198789 76.53256,13.1198789 C75.08904,13.1198789 73.63252,13.6535986 72.163,14.7199885 L72.163,29.64 L66.33692,29.64 L66.33692,8.16001153 Z" id="Path"></path>
                    <path d="M98.3684,29.64 C95.92752,29.64 93.95932,29.2599007 92.46328,28.4986692 C90.96776,27.7116157 89.81284,26.2418295 88.99904,24.089827 C88.21176,21.9120025 87.81812,18.8025216 87.81812,14.7608677 C87.81812,10.8772443 88.22528,7.85917307 89.03856,5.707687 C89.87836,3.55568449 91.05928,2.0729873 92.58132,1.25959542 C94.10388,0.41986514 96.05908,0 98.44692,0 C100.23156,0 101.91116,0.144086561 103.48572,0.432776123 C105.06028,0.69564372 107.1408,1.01015525 108.26972,1.37786002 L107.54068,5.90445037 C106.7534,5.72059798 105.638,5.563084 104.19448,5.43190842 C102.75096,5.30073284 101.24192,5.23514505 99.66736,5.23514505 C98.0928,5.23514505 96.88536,5.48458523 96.04556,5.98294914 C95.20576,6.45549109 94.58904,7.37372014 94.1954,8.73866918 C93.82828,10.0767634 93.6442,12.0975903 93.6442,14.8006335 C93.6442,17.4768219 93.81476,19.4847379 94.1564,20.8228321 C94.49752,22.1614427 95.08772,23.0925827 95.92752,23.6178015 C96.76732,24.1425038 98.01376,24.4048549 99.66736,24.4048549 C102.869,24.4048549 105.49344,24.2736794 107.54068,24.0113282 L107.54068,28.4986692 C105.20484,29.2599007 102.14724,29.64 98.3684,29.64 Z" id="Path"></path>
                    <polygon id="Path" points="110.51092 0.78 116.53408 0.78 122.61496 22.5854731 128.69636 0.78 134.68 0.78 126.27628 28.86 118.91464 28.86"></polygon>
                </g>
                <g id="Group-2" transform="translate(0.173267, 0.000000)">
                    <path d="M34.8619918,40.7102382 C30.6606805,38.2894494 27.3855811,34.5424639 25.5525846,30.0596664 C23.7195536,25.5769035 23.4327784,20.6129557 24.7373703,15.9496101 C26.0419967,11.2862992 28.863842,7.18855331 32.7585361,4.30182407 C36.6532994,1.41510519 41.3994696,-0.0966087726 46.2496891,0.00478757052 C51.0999086,0.106183706 55.7783257,1.81492769 59.5486446,4.86189289 C63.3186178,7.90887884 65.9661718,12.1209407 67.0740725,16.8346862 C68.1819731,21.5484662 67.686961,26.4960635 65.6675053,30.8983178 C63.6480497,35.3003647 60.2185701,38.9071775 55.9193627,41.1502873 L50.5478595,30.8960709 C50.3034646,30.4294045 50.18144,30.1960713 50.1686498,29.9946442 C50.1558597,29.7945653 50.1855881,29.6596814 50.2813411,29.4833853 C50.3774398,29.3058446 50.6263286,29.1149262 51.1234147,28.7330548 C52.2451425,27.8719343 53.1466729,26.7469917 53.7422775,25.4492443 C54.5497832,23.6883218 54.7478571,21.709276 54.3046969,19.8237709 C53.8615367,17.9382658 52.8027224,16.2534618 51.2945257,15.0346674 C49.7866747,13.8158731 47.9151696,13.1323969 45.9748744,13.0918142 C44.0349249,13.0512661 42.1364568,13.655962 40.5784824,14.810633 C39.0205079,15.9653385 37.8918666,17.6044092 37.3702373,19.4697612 C36.8482622,21.3350787 36.9630276,23.3206578 37.6962124,25.113763 C38.2365084,26.4352931 39.0903351,27.5969122 40.1747295,28.5041809 C40.6555688,28.9064819 40.8958155,29.1076324 40.984655,29.2890101 C41.0728031,29.4691779 41.0966549,29.6051679 41.0759142,29.8045554 C41.0548278,30.0052911 40.9227785,30.2333009 40.6590255,30.6893204 L34.8619918,40.7102382 Z" id="Path"></path>
                    <path d="M42.2208024,62.332794 C42.7420861,62.332794 43.0027279,62.332794 43.2118636,62.4430655 C43.3871228,62.5357074 43.5457894,62.7026703 43.6294436,62.8824233 C43.7289991,63.0963985 43.7158633,63.3394107 43.6902831,63.8250894 C43.4669746,68.0454821 41.9667285,71.7791591 39.3634213,75.2521941 C36.4576452,79.1289821 32.3418549,81.9310546 27.6647513,83.2166341 C22.9876478,84.5025593 18.0148852,84.1987076 13.5296679,82.3538198 C9.04445068,80.5089319 5.30161328,77.2270572 2.89064525,73.0256769 C0.479687588,68.8242965 -0.46239781,63.9419289 0.212770305,59.1473637 C0.887937729,54.3527985 3.14198832,49.9184306 6.61992859,46.5428769 C10.0978377,43.1676689 14.6020328,41.0427812 19.423077,40.5028309 C24.2441212,39.9632263 29.1080641,41.0393244 33.2488816,43.5620885 L27.208317,53.438478 C26.9334332,53.8878604 26.7959568,54.1125517 26.6294779,54.227317 C26.4641051,54.3410454 26.3329546,54.3849466 26.1323226,54.3942799 C25.9302733,54.4032676 25.6382093,54.2888479 25.0541158,54.0600085 C23.7369066,53.5442557 22.3063148,53.3520583 20.885091,53.5114162 C18.9566871,53.7271198 17.1550091,54.577144 15.7638247,55.9273655 C14.3726403,57.2775869 13.4710408,59.051265 13.2009619,60.969091 C12.9308831,62.8869171 13.3077421,64.8396568 14.2721169,66.5203472 C15.2364917,68.2010376 16.7336266,69.5135801 18.5277343,70.2516044 C20.3218073,70.9896286 22.3109124,71.1109619 24.1817607,70.5965918 C26.052609,70.0825674 27.6988698,68.961531 28.861284,67.4108158 C29.7011453,66.2904708 30.2539548,65.1490393 30.4832782,63.8714104 C30.5975596,63.23467 30.6547003,62.9162998 30.767841,62.7496826 C30.8817767,62.5816827 30.9835791,62.4966457 31.1692086,62.4143742 C31.3535937,62.332794 31.6193862,62.332794 32.1509711,62.332794 L42.2208024,62.332794 Z" id="Path"></path>
                    <path d="M78.0317453,43.6647551 C78.2923871,43.2050022 78.4227081,42.9751258 78.6245845,42.847916 C78.7943128,42.7407556 79.0207324,42.686484 79.2205348,42.704805 C79.4587075,42.7269284 79.6650777,42.8634716 80.0785096,43.1362122 C83.6815199,45.5151738 86.5074443,48.9135423 88.1832952,52.9120091 C90.0554917,57.3785252 90.3856149,62.3397076 89.1218132,67.0143222 C87.8580114,71.6889369 85.0721858,75.8111568 81.2030028,78.7314515 C77.3334741,81.6520918 72.6007854,83.2052267 67.7498745,83.1461156 C62.8989637,83.0866589 58.2056824,81.4187586 54.4087462,78.404785 C50.6121558,75.3908113 47.9279597,71.2018754 46.7789233,66.4982237 C45.6302326,61.7942264 46.0816892,56.8423773 48.0624288,52.4228736 C50.0435141,48.0030242 52.7474138,45.0592234 57.0265719,42.7787803 L62.4876059,52.9859844 C62.7295811,53.4381323 62.8505686,53.6642063 62.8647415,53.8660827 C62.8789143,54.065885 62.850223,54.2020825 62.7558527,54.37907 C62.6604453,54.5574403 62.4129393,54.7499834 61.9182729,55.1347239 C61.0834585,55.7835631 60.5905205,56.5285009 60.0350147,57.7677595 C59.2427188,59.535561 59.0622745,61.5163006 59.5216816,63.3978304 C59.9814345,65.2793602 61.0551129,66.9548655 62.5736799,68.1605932 C64.092247,69.3663209 65.9696286,70.033481 67.9099238,70.0569872 C69.8505647,70.080839 71.7435019,69.4596542 73.291106,68.2912598 C74.8390557,67.123211 75.9535243,65.4743231 76.4589067,63.6045464 C76.9642891,61.7347696 76.8322398,59.7502275 76.0834995,57.9634137 C75.5314504,56.6467231 74.6675991,55.4925015 73.5755997,54.5947736 C73.090958,54.1965516 72.8489828,53.9974406 72.7587606,53.8169963 C72.6688841,53.637589 72.6436496,53.5017372 72.6630076,53.3022805 C72.6823656,53.1014411 72.8119952,52.8722561 73.0719456,52.413886 L78.0317453,43.6647551 Z" id="Path"></path>
                </g>
            </g>
        </g>
    </g>
</svg>