<?xml version="1.0" encoding="utf-8"?>
<!-- Generator: Adobe Illustrator 23.0.6, SVG Export Plug-In . SVG Version: 6.00 Build 0)  -->
<svg version="1.1" id="Livello_1" xmlns="http://www.w3.org/2000/svg" xmlns:xlink="http://www.w3.org/1999/xlink" x="0px" y="0px"
	 viewBox="0 0 898.58 651.97" style="enable-background:new 0 0 898.58 651.97;" xml:space="preserve">
<style type="text/css">
	.st0{fill:#FFFFFF;}
</style>
<g>
	<polygon class="st0" points="367.67,308.52 346.99,308.52 346.99,320.25 364.13,320.25 364.13,328.57 346.99,328.57 346.99,340.93 
		368.87,340.93 368.87,349.25 337.16,349.25 337.16,300.2 367.67,300.2 	"/>
	<path class="st0" d="M408.01,300.2v33.92c0,10.08-6.93,15.88-17.27,15.88c-10.34,0-17.27-5.8-17.27-15.88V300.2h9.84v30.77
		c0,8.19,2.46,10.71,7.44,10.71c4.98,0,7.44-2.52,7.44-10.71V300.2H408.01z"/>
	<path class="st0" d="M429.89,320.57c4.29,0,10.85,0.25,10.85-5.87c0-6.75-6.62-6.18-11.47-6.18h-3.67v12.04H429.89z M435.12,300.2
		c11.29,0,15.7,8.07,15.7,14.31c0,5.36-3.35,10.34-8.33,12.35l9.77,22.38h-10.34l-8.83-20.36h-7.51v20.36h-9.83V300.2H435.12z"/>
	<path class="st0" d="M463.94,324.73c0,6.31,1.7,17.52,10.14,17.52c8.45,0,10.15-11.21,10.15-17.52c0-6.31-1.7-17.53-10.15-17.53
		C465.63,307.2,463.94,318.42,463.94,324.73 M494.32,324.73c0,12.36-6.24,25.27-20.24,25.27c-13.99,0-20.23-12.91-20.23-25.27
		c0-12.36,6.24-25.29,20.23-25.29C488.08,299.44,494.32,312.37,494.32,324.73"/>
	<polygon class="st0" points="528.74,308.52 516.01,308.52 516.01,349.25 506.17,349.25 506.17,308.52 493.43,308.52 493.43,300.2 
		528.74,300.2 	"/>
	<polygon class="st0" points="564.36,308.52 543.68,308.52 543.68,320.25 560.83,320.25 560.83,328.57 543.68,328.57 543.68,340.93 
		565.56,340.93 565.56,349.25 533.85,349.25 533.85,300.2 564.36,300.2 	"/>
	<path class="st0" d="M605.66,333.8c-1.52,10.09-8.26,16.21-18.48,16.21c-13.99,0-20.23-12.91-20.23-25.27
		c0-12.36,6.24-25.29,20.23-25.29c10.1,0,16.84,5.8,18.48,16.2l-9.33,1.27c-0.95-5.12-3.22-9.71-9.15-9.71
		c-8.45,0-10.15,11.22-10.15,17.53c0,6.3,1.7,17.52,10.15,17.52c5.87,0,8.2-4.59,9.15-9.64L605.66,333.8z"/>
	<polygon class="st0" points="637.55,319.37 637.55,300.2 647.38,300.2 647.38,349.25 637.55,349.25 637.55,327.69 621.35,327.69 
		621.35,349.25 611.51,349.25 611.51,300.2 621.35,300.2 621.35,319.37 	"/>
	<polygon class="st0" points="274.23,309.18 274.23,312.03 284.89,312.03 287.59,314.78 297.93,314.78 297.93,306.39 287.59,306.39 
		284.89,309.18 	"/>
	<polygon class="st0" points="274.23,336.35 274.23,339.2 284.89,339.2 287.59,341.95 297.93,341.95 297.93,333.55 287.59,333.55 
		284.89,336.35 	"/>
	<polygon class="st0" points="274.23,322.79 274.23,325.64 284.89,325.64 287.59,328.39 297.93,328.39 297.93,320 287.59,320 
		284.89,322.79 	"/>
	<path class="st0" d="M286.3,289.28c-19.25,0-34.92,15.66-34.92,34.93c0,19.25,15.67,34.92,34.92,34.92
		c19.25,0,34.91-15.67,34.91-34.92C321.22,304.95,305.56,289.28,286.3,289.28 M318.35,324.21c0,17.67-14.37,32.04-32.04,32.04
		c-17.67,0-32.05-14.38-32.05-32.04c0-17.67,14.38-32.06,32.05-32.06C303.98,292.15,318.35,306.53,318.35,324.21"/>
</g>
</svg>
