<?xml version="1.0" encoding="UTF-8" standalone="no"?>
<svg
   xmlns:dc="http://purl.org/dc/elements/1.1/"
   xmlns:cc="http://creativecommons.org/ns#"
   xmlns:rdf="http://www.w3.org/1999/02/22-rdf-syntax-ns#"
   xmlns:svg="http://www.w3.org/2000/svg"
   xmlns="http://www.w3.org/2000/svg"
   xmlns:sodipodi="http://sodipodi.sourceforge.net/DTD/sodipodi-0.dtd"
   xmlns:inkscape="http://www.inkscape.org/namespaces/inkscape"
   id="Layer_1"
   data-name="Layer 1"
   viewBox="0 0 508.83 241.98"
   version="1.1"
   sodipodi:docname="missionLogoBlue_edited-to-shirt-blue.svg"
   inkscape:version="0.92.3 (2405546, 2018-03-11)">
  <metadata
     id="metadata191">
    <rdf:RDF>
      <cc:Work
         rdf:about="">
        <dc:format>image/svg+xml</dc:format>
        <dc:type
           rdf:resource="http://purl.org/dc/dcmitype/StillImage" />
        <dc:title>missionLogoBlue</dc:title>
      </cc:Work>
    </rdf:RDF>
  </metadata>
  <sodipodi:namedview
     pagecolor="#ffffff"
     bordercolor="#666666"
     borderopacity="1"
     objecttolerance="10"
     gridtolerance="10"
     guidetolerance="10"
     inkscape:pageopacity="0"
     inkscape:pageshadow="2"
     inkscape:window-width="1827"
     inkscape:window-height="1172"
     id="namedview189"
     showgrid="false"
     inkscape:zoom="2"
     inkscape:cx="233.41499"
     inkscape:cy="120.99"
     inkscape:window-x="3105"
     inkscape:window-y="92"
     inkscape:window-maximized="0"
     inkscape:current-layer="Layer_1" />
  <defs
     id="defs152">
    <style
       id="style150">.cls-1{fill:#0557ce;}</style>
  </defs>
  <title
     id="title154">missionLogoBlue</title>
  <path
     class="cls-1"
     d="M369.36,329h10.86l12,19.36,12-19.36h10.86v45.79h-10v-29.9L392.25,364.5H392l-12.76-19.36v29.7h-9.88V329Z"
     transform="translate(-140.67 -184.34)"
     id="path156"
     style="fill:#0f4c75;fill-opacity:1" />
  <path
     class="cls-1"
     d="M426.6,329h10.08v45.79H426.6V329Z"
     transform="translate(-140.67 -184.34)"
     id="path158"
     style="fill:#0f4c75;fill-opacity:1" />
  <path
     class="cls-1"
     d="M445,368.16l6-7.13c4.12,3.4,8.44,5.56,13.67,5.56,4.12,0,6.61-1.64,6.61-4.32v-0.13c0-2.55-1.57-3.86-9.22-5.82-9.22-2.36-15.18-4.91-15.18-14v-0.13c0-8.31,6.67-13.8,16-13.8a26.51,26.51,0,0,1,17,5.82l-5.23,7.59c-4.06-2.81-8-4.51-11.91-4.51s-5.89,1.77-5.89,4v0.13c0,3,2,4,9.88,6,9.29,2.42,14.52,5.76,14.52,13.74v0.13c0,9.09-6.94,14.2-16.81,14.2A29.14,29.14,0,0,1,445,368.16Z"
     transform="translate(-140.67 -184.34)"
     id="path160"
     style="fill:#0f4c75;fill-opacity:1" />
  <path
     class="cls-1"
     d="M486.21,368.16l6-7.13c4.12,3.4,8.44,5.56,13.67,5.56,4.12,0,6.61-1.64,6.61-4.32v-0.13c0-2.55-1.57-3.86-9.22-5.82C494,354,488,351.41,488,342.32v-0.13c0-8.31,6.67-13.8,16-13.8a26.51,26.51,0,0,1,17,5.82l-5.23,7.59c-4.06-2.81-8-4.51-11.91-4.51s-5.89,1.77-5.89,4v0.13c0,3,2,4,9.88,6,9.29,2.42,14.52,5.76,14.52,13.74v0.13c0,9.09-6.94,14.2-16.81,14.2A29.14,29.14,0,0,1,486.21,368.16Z"
     id="path162"
     transform="translate(-140.67 -184.34)"
     style="fill:#0f4c75;fill-opacity:1" />
  <path
     class="cls-1"
     d="M531.68,329h10.08v45.79H531.68V329Z"
     transform="translate(-140.67 -184.34)"
     id="path164"
     style="fill:#0f4c75;fill-opacity:1" />
  <path
     class="cls-1"
     d="M551.17,352.07v-0.13c0-13,10.27-23.68,24.4-23.68s24.27,10.53,24.27,23.55v0.13c0,13-10.27,23.68-24.4,23.68S551.17,365.09,551.17,352.07Zm38.14,0v-0.13c0-7.85-5.76-14.39-13.87-14.39s-13.74,6.41-13.74,14.26v0.13c0,7.85,5.76,14.39,13.87,14.39S589.31,359.92,589.31,352.07Z"
     transform="translate(-140.67 -184.34)"
     id="path166"
     style="fill:#0f4c75;fill-opacity:1" />
  <path
     class="cls-1"
     d="M608.81,329h9.29l21.46,28.2V329h9.94v45.79h-8.57l-22.18-29.11v29.11h-9.94V329Z"
     transform="translate(-140.67 -184.34)"
     id="path168"
     style="fill:#0f4c75;fill-opacity:1" />
  <path
     class="cls-1"
     d="M368.61,388.9h16.82c4.68,0,8.3,1.31,10.72,3.73A11.55,11.55,0,0,1,399.3,401v0.1a11.43,11.43,0,0,1-7.88,11.41l9,13.14h-9.46l-7.88-11.77h-6.36v11.77h-8.09V388.9Zm16.29,17.87c3.94,0,6.2-2.1,6.2-5.2v-0.11c0-3.47-2.42-5.25-6.36-5.25h-8v10.56h8.2Z"
     transform="translate(-140.67 -184.34)"
     id="path170"
     style="fill:#0f4c75;fill-opacity:1" />
  <path
     class="cls-1"
     d="M405,407.4v-0.11c0-10.46,8.25-19,19.6-19s19.5,8.46,19.5,18.92v0.1c0,10.46-8.25,19-19.6,19S405,417.85,405,407.4Zm30.64,0v-0.11c0-6.31-4.62-11.56-11.14-11.56s-11,5.15-11,11.46v0.1c0,6.31,4.63,11.56,11.14,11.56S435.61,413.7,435.61,407.4Z"
     transform="translate(-140.67 -184.34)"
     id="path172"
     style="fill:#0f4c75;fill-opacity:1" />
  <path
     class="cls-1"
     d="M451.27,388.9h17.08c4.2,0,7.52,1.16,9.62,3.26a8.43,8.43,0,0,1,2.52,6.25v0.11a8.56,8.56,0,0,1-4.84,7.94c4.26,1.63,6.88,4.1,6.88,9v0.11c0,6.73-5.46,10.09-13.77,10.09h-17.5V388.9Zm15.34,14.87c3.57,0,5.83-1.16,5.83-3.89v-0.11c0-2.42-1.89-3.78-5.31-3.78h-8v7.78h7.46Zm2.15,14.82c3.57,0,5.73-1.26,5.73-4v-0.1c0-2.47-1.84-4-6-4h-9.36v8.09h9.62Z"
     transform="translate(-140.67 -184.34)"
     id="path174"
     style="fill:#0f4c75;fill-opacity:1" />
  <path
     class="cls-1"
     d="M487.58,407.4v-0.11c0-10.46,8.25-19,19.6-19s19.5,8.46,19.5,18.92v0.1c0,10.46-8.25,19-19.6,19S487.58,417.85,487.58,407.4Zm30.64,0v-0.11c0-6.31-4.63-11.56-11.14-11.56s-11,5.15-11,11.46v0.1c0,6.31,4.62,11.56,11.14,11.56S518.22,413.7,518.22,407.4Z"
     transform="translate(-140.67 -184.34)"
     id="path176"
     style="fill:#0f4c75;fill-opacity:1" />
  <path
     class="cls-1"
     d="M540.87,396.36H529.67V388.9h30.48v7.46H549v29.33h-8.09V396.36Z"
     transform="translate(-140.67 -184.34)"
     id="path178"
     style="fill:#0f4c75;fill-opacity:1" />
  <path
     class="cls-1"
     d="M566.72,388.9h8.09v36.79h-8.09V388.9Z"
     transform="translate(-140.67 -184.34)"
     id="path180"
     style="fill:#0f4c75;fill-opacity:1" />
  <path
     class="cls-1"
     d="M582.38,407.4v-0.11a18.7,18.7,0,0,1,19.18-19c6.94,0,11.09,2.31,14.51,5.68l-5.15,5.94c-2.84-2.58-5.73-4.15-9.41-4.15-6.2,0-10.67,5.15-10.67,11.46v0.1c0,6.31,4.36,11.56,10.67,11.56,4.21,0,6.78-1.68,9.67-4.31l5.15,5.2a18.8,18.8,0,0,1-15.08,6.57A18.57,18.57,0,0,1,582.38,407.4Z"
     transform="translate(-140.67 -184.34)"
     id="path182"
     style="fill:#0f4c75;fill-opacity:1" />
  <path
     class="cls-1"
     d="M620.27,420.32l4.78-5.73c3.31,2.73,6.78,4.47,11,4.47,3.31,0,5.31-1.31,5.31-3.47v-0.11c0-2-1.26-3.1-7.41-4.68-7.41-1.89-12.19-3.94-12.19-11.25v-0.11c0-6.67,5.36-11.09,12.88-11.09A21.3,21.3,0,0,1,648.28,393l-4.21,6.1c-3.26-2.26-6.46-3.63-9.56-3.63s-4.73,1.42-4.73,3.21v0.11c0,2.42,1.58,3.21,7.94,4.84,7.46,1.94,11.67,4.62,11.67,11v0.11c0,7.3-5.57,11.4-13.51,11.4A23.42,23.42,0,0,1,620.27,420.32Z"
     transform="translate(-140.67 -184.34)"
     id="path184"
     style="fill:#0f4c75;fill-opacity:1" />
  <path
     class="cls-1"
     d="M140.67,304.67h22.52a7.28,7.28,0,0,1,6.56,5.43c4.84,18.35,15.72,48.69,34.73,48.69,14.15,0,23.79-16.81,29.79-33,9.68,20.93,26.71,47.08,51.45,47.08,32.63,0,51.86-45.48,58.47-64.49a4.69,4.69,0,0,1,4.43-3.15H522.19a3.89,3.89,0,0,0,1.2-7.6L506,292c-41.34-13.35-58.52-36.46-60.8-53.63-1.52-11.39,3.08-21.2,13-27.63h0a23.76,23.76,0,0,1,4.74-2.32l5.34-2a3.72,3.72,0,0,0,.91-6.48l-4.59-3.36c-11.16-8.17-22.93-12.32-35-12.32-54.23,0-84.88,82.65-92.52,106.24-14.95-6.25-30.08-17.48-32.79-32.64-1.45-8.14,1.38-15.32,7.78-19.7h0a12.46,12.46,0,0,1,2.54-1.3l3.12-1.21a3.72,3.72,0,0,0,.93-6.41l-2.31-1.78c-7.8-6-16.14-9.06-24.79-9.06-18.49,0-35,13.56-48.95,40.3a206.49,206.49,0,0,0-12.29,29.14,5.57,5.57,0,0,1-5.28,3.81H140.67v13Zm150.87-74.78a21.75,21.75,0,0,1,8.83,1.93c-8,7-11.42,16.93-9.48,27.82,2.17,12.14,10.43,23.33,23.16,32.08h-71C250.31,270,268.4,229.89,291.54,229.89ZM204.48,345.26c-8.09,0-17-20.93-22-40h43.69l0.16,0.48C221.37,324.67,212.53,345.26,204.48,345.26Zm81.25,14.1c-21.57,0-38-33.66-45.27-54.1H331C323.78,325.7,307.34,359.36,285.73,359.36Zm156.49-67.64H351a282.68,282.68,0,0,1,19-43.66c12.6-22.89,33.17-50.19,59.57-50.19A41.31,41.31,0,0,1,447.24,202c-11.87,9.34-17.46,23.05-15.44,38.22,2.94,22.12,20,39.51,40.44,51.51h-30Z"
     transform="translate(-140.67 -184.34)"
     id="path186"
     style="fill:#0f4c75;fill-opacity:1" />
  <path
     style="opacity:1;fill:#0f4c75;fill-opacity:0;stroke-width:0.5"
     d="m 136.30528,187.10163 c -14.43532,-3.78473 -28.48031,-17.93003 -39.585982,-39.86868 -1.569865,-3.10119 -2.971495,-5.63952 -3.114725,-5.64074 -0.14323,-0.001 -1.321555,2.52904 -2.6185,5.62279 -5.74746,13.71006 -13.286845,22.8938 -21.24957,25.88413 -6.08973,2.28694 -13.63638,0.50598 -19.340855,-4.56431 -7.221606,-6.41876 -14.250794,-19.8011 -19.347061,-36.83342 -2.416766,-8.07711 -2.983475,-9.17428 -5.456636,-10.56427 C 23.847075,120.15645 22.979549,120.09 11.921916,120.09 H 0.11499329 v -6.25 -6.25 H 42.631053 c 46.976655,0 45.27855,0.1126 46.71152,-3.09736 0.405765,-0.90895 2.003955,-5.027642 3.551525,-9.152642 3.319445,-8.84787 10.451862,-23.651985 14.453582,-30 10.62601,-16.856249 22.50056,-27.027429 35.10779,-30.071668 4.47454,-1.080457 12.35312,-1.0538 16.90952,0.05721 7.21503,1.759283 18.8226,8.637472 19.56442,11.5931 0.55631,2.216505 -0.69629,3.731689 -4.18685,5.064564 -4.21511,1.60955 -7.67061,4.805405 -9.73728,9.00563 -1.54832,3.146735 -1.6385,3.628515 -1.60844,8.59241 0.0355,5.864265 1.06818,9.44397 4.27956,14.834955 2.37066,3.97964 9.40858,10.933935 14.43859,14.267025 4.72413,3.130396 13.27634,7.564656 14.07577,7.298186 0.28355,-0.0945 1.80749,-3.765 3.38654,-8.156636 11.71056,-32.569245 27.38424,-59.711243 44.03011,-76.246639 20.73663,-20.59899359 44.16891,-26.5232381 66.75758,-16.8779191 7.30055,3.1173175 18.54796,10.6606801 19.08482,12.7997171 0.65872,2.624539 -0.28451,3.652061 -5.12652,5.584653 -6.32399,2.524093 -8.98606,4.183595 -12.48443,7.782623 -13.04132,13.416559 -9.2895,34.72386 9.2149,52.333195 12.3331,11.736545 26.01339,18.895216 51.81123,27.111936 6.94153,2.21091 10.79654,3.69068 11.375,4.36637 1.22171,1.42705 1.09887,3.52666 -0.28222,4.82413 l -1.15723,1.08716 h -87.8676 c -94.97438,0 -89.80413,-0.1464 -91.20108,2.58234 -0.32878,0.64221 -1.25599,2.96766 -2.06047,5.16766 -6.78998,18.56834 -16.62182,35.26996 -26.8064,45.53677 -7.29607,7.35498 -14.31534,11.67959 -21.83418,13.45212 -4.40759,1.03907 -12.30491,0.93176 -16.72553,-0.22726 z m 15.44369,-13.01216 c 12.6592,-3.91002 25.96137,-20.97186 36.18713,-46.41491 1.47339,-3.66599 2.67889,-6.75974 2.67889,-6.875 0,-0.11526 -20.475,-0.20956 -45.5,-0.20956 -25.025,0 -45.499997,0.13597 -45.499997,0.30216 0,1.05776 5.598617,14.19827 8.493167,19.93429 7.32586,14.51741 16.39077,25.86539 24.50683,30.67906 5.97879,3.54605 12.96469,4.48946 19.13398,2.58396 z M 66.566943,160.36485 c 3.033205,-1.56854 6.52413,-6.24161 10.06822,-13.47767 3.33989,-6.81913 8.087395,-19.91692 8.772765,-24.20299 L 85.742803,120.59 H 63.678898 c -12.13515,0 -22.063905,0.14847 -22.063905,0.32995 0,1.09335 3.927395,13.28736 5.845059,18.14808 2.918856,7.39844 4.142021,9.82764 7.528151,14.95085 4.074915,6.16534 7.887385,8.25484 11.57874,6.34597 z M 173.33999,107.17969 c -0.26125,-0.22567 -1.9375,-1.5532 -3.725,-2.95006 -12.53994,-9.799472 -19.5105,-22.258972 -19.49406,-34.844612 0.01,-7.49065 2.27043,-13.61524 6.96703,-18.87515 1.38987,-1.55657 2.52703,-2.944737 2.52703,-3.084815 0,-0.140079 -1.11221,-0.624106 -2.47158,-1.075616 -5.18365,-1.721731 -12.87629,-0.729557 -17.95396,2.315649 -12.63981,7.580397 -25.24416,26.721522 -35.14428,53.370544 -1.0616,2.8576 -1.93018,5.27635 -1.93018,5.375 0,0.0987 16.1325,0.17937 35.85,0.17937 19.7175,0 35.63625,-0.18464 35.375,-0.41031 z m 158.275,0.19651 c 0,-0.11759 -1.38176,-1.05317 -3.07057,-2.07907 -9.46405,-5.749107 -20.5856,-15.736247 -26.39997,-23.707132 -3.80217,-5.21238 -7.57194,-12.758235 -9.36716,-18.75 -1.21151,-4.043565 -1.35151,-5.311435 -1.38028,-12.5 -0.0282,-7.045589 0.10775,-8.447381 1.1395,-11.75 2.29124,-7.334223 7.58746,-15.599949 12.29744,-19.192422 0.97957,-0.747158 1.78104,-1.543605 1.78104,-1.769881 0,-0.766427 -9.33903,-3.513636 -13.55697,-3.987976 -26.79061,-3.012816 -53.61907,23.050727 -74.83388,72.700279 -2.757,6.452265 -8.10915,20.286532 -8.10915,20.960552 0,0.1592 27.3375,0.28945 60.75,0.28945 33.4125,0 60.75,-0.0962 60.75,-0.2138 z"
     id="path4707"
     inkscape:connector-curvature="0" />
  <path
     style="opacity:1;fill:#0f4c75;fill-opacity:0;stroke-width:0.5"
     d="m 136.30528,187.10163 c -14.43532,-3.78473 -28.48031,-17.93003 -39.585982,-39.86868 -1.569865,-3.10119 -2.971495,-5.63952 -3.114725,-5.64074 -0.14323,-0.001 -1.321555,2.52904 -2.6185,5.62279 -5.74746,13.71006 -13.286845,22.8938 -21.24957,25.88413 -6.08973,2.28694 -13.63638,0.50598 -19.340855,-4.56431 -7.221606,-6.41876 -14.250794,-19.8011 -19.347061,-36.83342 -2.416766,-8.07711 -2.983475,-9.17428 -5.456636,-10.56427 C 23.847075,120.15645 22.979549,120.09 11.921916,120.09 H 0.11499329 v -6.25 -6.25 H 42.631053 c 46.976655,0 45.27855,0.1126 46.71152,-3.09736 0.405765,-0.90895 2.003955,-5.027642 3.551525,-9.152642 3.319445,-8.84787 10.451862,-23.651985 14.453582,-30 10.62601,-16.856249 22.50056,-27.027429 35.10779,-30.071668 4.47454,-1.080457 12.35312,-1.0538 16.90952,0.05721 7.21503,1.759283 18.8226,8.637472 19.56442,11.5931 0.55631,2.216505 -0.69629,3.731689 -4.18685,5.064564 -4.21511,1.60955 -7.67061,4.805405 -9.73728,9.00563 -1.54832,3.146735 -1.6385,3.628515 -1.60844,8.59241 0.0355,5.864265 1.06818,9.44397 4.27956,14.834955 2.37066,3.97964 9.40858,10.933935 14.43859,14.267025 4.72413,3.130396 13.27634,7.564656 14.07577,7.298186 0.28355,-0.0945 1.80749,-3.765 3.38654,-8.156636 11.71056,-32.569245 27.38424,-59.711243 44.03011,-76.246639 20.73663,-20.59899359 44.16891,-26.5232381 66.75758,-16.8779191 7.30055,3.1173175 18.54796,10.6606801 19.08482,12.7997171 0.65872,2.624539 -0.28451,3.652061 -5.12652,5.584653 -6.32399,2.524093 -8.98606,4.183595 -12.48443,7.782623 -13.04132,13.416559 -9.2895,34.72386 9.2149,52.333195 12.3331,11.736545 26.01339,18.895216 51.81123,27.111936 6.94153,2.21091 10.79654,3.69068 11.375,4.36637 1.22171,1.42705 1.09887,3.52666 -0.28222,4.82413 l -1.15723,1.08716 h -87.8676 c -94.97438,0 -89.80413,-0.1464 -91.20108,2.58234 -0.32878,0.64221 -1.25599,2.96766 -2.06047,5.16766 -6.78998,18.56834 -16.62182,35.26996 -26.8064,45.53677 -7.29607,7.35498 -14.31534,11.67959 -21.83418,13.45212 -4.40759,1.03907 -12.30491,0.93176 -16.72553,-0.22726 z m 15.44369,-13.01216 c 12.6592,-3.91002 25.96137,-20.97186 36.18713,-46.41491 1.47339,-3.66599 2.67889,-6.75974 2.67889,-6.875 0,-0.11526 -20.475,-0.20956 -45.5,-0.20956 -25.025,0 -45.499997,0.13597 -45.499997,0.30216 0,1.05776 5.598617,14.19827 8.493167,19.93429 7.32586,14.51741 16.39077,25.86539 24.50683,30.67906 5.97879,3.54605 12.96469,4.48946 19.13398,2.58396 z M 66.566943,160.36485 c 3.033205,-1.56854 6.52413,-6.24161 10.06822,-13.47767 3.33989,-6.81913 8.087395,-19.91692 8.772765,-24.20299 L 85.742803,120.59 H 63.678898 c -12.13515,0 -22.063905,0.14847 -22.063905,0.32995 0,1.09335 3.927395,13.28736 5.845059,18.14808 2.918856,7.39844 4.142021,9.82764 7.528151,14.95085 4.074915,6.16534 7.887385,8.25484 11.57874,6.34597 z M 173.33999,107.17969 c -0.26125,-0.22567 -1.9375,-1.5532 -3.725,-2.95006 -12.53994,-9.799472 -19.5105,-22.258972 -19.49406,-34.844612 0.01,-7.49065 2.27043,-13.61524 6.96703,-18.87515 1.38987,-1.55657 2.52703,-2.944737 2.52703,-3.084815 0,-0.140079 -1.11221,-0.624106 -2.47158,-1.075616 -5.18365,-1.721731 -12.87629,-0.729557 -17.95396,2.315649 -12.63981,7.580397 -25.24416,26.721522 -35.14428,53.370544 -1.0616,2.8576 -1.93018,5.27635 -1.93018,5.375 0,0.0987 16.1325,0.17937 35.85,0.17937 19.7175,0 35.63625,-0.18464 35.375,-0.41031 z m 158.275,0.19651 c 0,-0.11759 -1.38176,-1.05317 -3.07057,-2.07907 -9.46405,-5.749107 -20.5856,-15.736247 -26.39997,-23.707132 -3.80217,-5.21238 -7.57194,-12.758235 -9.36716,-18.75 -1.21151,-4.043565 -1.35151,-5.311435 -1.38028,-12.5 -0.0282,-7.045589 0.10775,-8.447381 1.1395,-11.75 2.29124,-7.334223 7.58746,-15.599949 12.29744,-19.192422 0.97957,-0.747158 1.78104,-1.543605 1.78104,-1.769881 0,-0.766427 -9.33903,-3.513636 -13.55697,-3.987976 -26.79061,-3.012816 -53.61907,23.050727 -74.83388,72.700279 -2.757,6.452265 -8.10915,20.286532 -8.10915,20.960552 0,0.1592 27.3375,0.28945 60.75,0.28945 33.4125,0 60.75,-0.0962 60.75,-0.2138 z"
     id="path4709"
     inkscape:connector-curvature="0" />
  <path
     style="opacity:1;fill:#0f4c75;fill-opacity:0;stroke-width:0.5"
     d="m 136.30528,187.10163 c -14.43532,-3.78473 -28.48031,-17.93003 -39.585982,-39.86868 -1.569865,-3.10119 -2.971495,-5.63952 -3.114725,-5.64074 -0.14323,-0.001 -1.321555,2.52904 -2.6185,5.62279 -5.74746,13.71006 -13.286845,22.8938 -21.24957,25.88413 -6.08973,2.28694 -13.63638,0.50598 -19.340855,-4.56431 -7.221606,-6.41876 -14.250794,-19.8011 -19.347061,-36.83342 -2.416766,-8.07711 -2.983475,-9.17428 -5.456636,-10.56427 C 23.847075,120.15645 22.979549,120.09 11.921916,120.09 H 0.11499329 v -6.25 -6.25 H 42.631053 c 46.976655,0 45.27855,0.1126 46.71152,-3.09736 0.405765,-0.90895 2.003955,-5.027642 3.551525,-9.152642 3.319445,-8.84787 10.451862,-23.651985 14.453582,-30 10.62601,-16.856249 22.50056,-27.027429 35.10779,-30.071668 4.47454,-1.080457 12.35312,-1.0538 16.90952,0.05721 7.21503,1.759283 18.8226,8.637472 19.56442,11.5931 0.55631,2.216505 -0.69629,3.731689 -4.18685,5.064564 -4.21511,1.60955 -7.67061,4.805405 -9.73728,9.00563 -1.54832,3.146735 -1.6385,3.628515 -1.60844,8.59241 0.0355,5.864265 1.06818,9.44397 4.27956,14.834955 2.37066,3.97964 9.40858,10.933935 14.43859,14.267025 4.72413,3.130396 13.27634,7.564656 14.07577,7.298186 0.28355,-0.0945 1.80749,-3.765 3.38654,-8.156636 11.71056,-32.569245 27.38424,-59.711243 44.03011,-76.246639 20.73663,-20.59899359 44.16891,-26.5232381 66.75758,-16.8779191 7.30055,3.1173175 18.54796,10.6606801 19.08482,12.7997171 0.65872,2.624539 -0.28451,3.652061 -5.12652,5.584653 -6.32399,2.524093 -8.98606,4.183595 -12.48443,7.782623 -13.04132,13.416559 -9.2895,34.72386 9.2149,52.333195 12.3331,11.736545 26.01339,18.895216 51.81123,27.111936 6.94153,2.21091 10.79654,3.69068 11.375,4.36637 1.22171,1.42705 1.09887,3.52666 -0.28222,4.82413 l -1.15723,1.08716 h -87.8676 c -94.97438,0 -89.80413,-0.1464 -91.20108,2.58234 -0.32878,0.64221 -1.25599,2.96766 -2.06047,5.16766 -6.78998,18.56834 -16.62182,35.26996 -26.8064,45.53677 -7.29607,7.35498 -14.31534,11.67959 -21.83418,13.45212 -4.40759,1.03907 -12.30491,0.93176 -16.72553,-0.22726 z m 15.44369,-13.01216 c 12.6592,-3.91002 25.96137,-20.97186 36.18713,-46.41491 1.47339,-3.66599 2.67889,-6.75974 2.67889,-6.875 0,-0.11526 -20.475,-0.20956 -45.5,-0.20956 -25.025,0 -45.499997,0.13597 -45.499997,0.30216 0,1.05776 5.598617,14.19827 8.493167,19.93429 7.32586,14.51741 16.39077,25.86539 24.50683,30.67906 5.97879,3.54605 12.96469,4.48946 19.13398,2.58396 z M 66.566943,160.36485 c 3.033205,-1.56854 6.52413,-6.24161 10.06822,-13.47767 3.33989,-6.81913 8.087395,-19.91692 8.772765,-24.20299 L 85.742803,120.59 H 63.678898 c -12.13515,0 -22.063905,0.14847 -22.063905,0.32995 0,1.09335 3.927395,13.28736 5.845059,18.14808 2.918856,7.39844 4.142021,9.82764 7.528151,14.95085 4.074915,6.16534 7.887385,8.25484 11.57874,6.34597 z M 173.33999,107.17969 c -0.26125,-0.22567 -1.9375,-1.5532 -3.725,-2.95006 -12.53994,-9.799472 -19.5105,-22.258972 -19.49406,-34.844612 0.01,-7.49065 2.27043,-13.61524 6.96703,-18.87515 1.38987,-1.55657 2.52703,-2.944737 2.52703,-3.084815 0,-0.140079 -1.11221,-0.624106 -2.47158,-1.075616 -5.18365,-1.721731 -12.87629,-0.729557 -17.95396,2.315649 -12.63981,7.580397 -25.24416,26.721522 -35.14428,53.370544 -1.0616,2.8576 -1.93018,5.27635 -1.93018,5.375 0,0.0987 16.1325,0.17937 35.85,0.17937 19.7175,0 35.63625,-0.18464 35.375,-0.41031 z m 158.275,0.19651 c 0,-0.11759 -1.38176,-1.05317 -3.07057,-2.07907 -9.46405,-5.749107 -20.5856,-15.736247 -26.39997,-23.707132 -3.80217,-5.21238 -7.57194,-12.758235 -9.36716,-18.75 -1.21151,-4.043565 -1.35151,-5.311435 -1.38028,-12.5 -0.0282,-7.045589 0.10775,-8.447381 1.1395,-11.75 2.29124,-7.334223 7.58746,-15.599949 12.29744,-19.192422 0.97957,-0.747158 1.78104,-1.543605 1.78104,-1.769881 0,-0.766427 -9.33903,-3.513636 -13.55697,-3.987976 -26.79061,-3.012816 -53.61907,23.050727 -74.83388,72.700279 -2.757,6.452265 -8.10915,20.286532 -8.10915,20.960552 0,0.1592 27.3375,0.28945 60.75,0.28945 33.4125,0 60.75,-0.0962 60.75,-0.2138 z"
     id="path4711"
     inkscape:connector-curvature="0" />
  <path
     style="opacity:1;fill:#0f4c75;fill-opacity:0;stroke-width:0.5"
     d="m 136.30528,187.10163 c -14.43532,-3.78473 -28.48031,-17.93003 -39.585982,-39.86868 -1.569865,-3.10119 -2.971495,-5.63952 -3.114725,-5.64074 -0.14323,-0.001 -1.321555,2.52904 -2.6185,5.62279 -5.74746,13.71006 -13.286845,22.8938 -21.24957,25.88413 -6.08973,2.28694 -13.63638,0.50598 -19.340855,-4.56431 -7.221606,-6.41876 -14.250794,-19.8011 -19.347061,-36.83342 -2.416766,-8.07711 -2.983475,-9.17428 -5.456636,-10.56427 C 23.847075,120.15645 22.979549,120.09 11.921916,120.09 H 0.11499329 v -6.25 -6.25 H 42.631053 c 46.976655,0 45.27855,0.1126 46.71152,-3.09736 0.405765,-0.90895 2.003955,-5.027642 3.551525,-9.152642 3.319445,-8.84787 10.451862,-23.651985 14.453582,-30 10.62601,-16.856249 22.50056,-27.027429 35.10779,-30.071668 4.47454,-1.080457 12.35312,-1.0538 16.90952,0.05721 7.21503,1.759283 18.8226,8.637472 19.56442,11.5931 0.55631,2.216505 -0.69629,3.731689 -4.18685,5.064564 -4.21511,1.60955 -7.67061,4.805405 -9.73728,9.00563 -1.54832,3.146735 -1.6385,3.628515 -1.60844,8.59241 0.0355,5.864265 1.06818,9.44397 4.27956,14.834955 2.37066,3.97964 9.40858,10.933935 14.43859,14.267025 4.72413,3.130396 13.27634,7.564656 14.07577,7.298186 0.28355,-0.0945 1.80749,-3.765 3.38654,-8.156636 11.71056,-32.569245 27.38424,-59.711243 44.03011,-76.246639 20.73663,-20.59899359 44.16891,-26.5232381 66.75758,-16.8779191 7.30055,3.1173175 18.54796,10.6606801 19.08482,12.7997171 0.65872,2.624539 -0.28451,3.652061 -5.12652,5.584653 -6.32399,2.524093 -8.98606,4.183595 -12.48443,7.782623 -13.04132,13.416559 -9.2895,34.72386 9.2149,52.333195 12.3331,11.736545 26.01339,18.895216 51.81123,27.111936 6.94153,2.21091 10.79654,3.69068 11.375,4.36637 1.22171,1.42705 1.09887,3.52666 -0.28222,4.82413 l -1.15723,1.08716 h -87.8676 c -94.97438,0 -89.80413,-0.1464 -91.20108,2.58234 -0.32878,0.64221 -1.25599,2.96766 -2.06047,5.16766 -6.78998,18.56834 -16.62182,35.26996 -26.8064,45.53677 -7.29607,7.35498 -14.31534,11.67959 -21.83418,13.45212 -4.40759,1.03907 -12.30491,0.93176 -16.72553,-0.22726 z m 15.44369,-13.01216 c 12.6592,-3.91002 25.96137,-20.97186 36.18713,-46.41491 1.47339,-3.66599 2.67889,-6.75974 2.67889,-6.875 0,-0.11526 -20.475,-0.20956 -45.5,-0.20956 -25.025,0 -45.499997,0.13597 -45.499997,0.30216 0,1.05776 5.598617,14.19827 8.493167,19.93429 7.32586,14.51741 16.39077,25.86539 24.50683,30.67906 5.97879,3.54605 12.96469,4.48946 19.13398,2.58396 z M 66.566943,160.36485 c 3.033205,-1.56854 6.52413,-6.24161 10.06822,-13.47767 3.33989,-6.81913 8.087395,-19.91692 8.772765,-24.20299 L 85.742803,120.59 H 63.678898 c -12.13515,0 -22.063905,0.14847 -22.063905,0.32995 0,1.09335 3.927395,13.28736 5.845059,18.14808 2.918856,7.39844 4.142021,9.82764 7.528151,14.95085 4.074915,6.16534 7.887385,8.25484 11.57874,6.34597 z M 173.33999,107.17969 c -0.26125,-0.22567 -1.9375,-1.5532 -3.725,-2.95006 -12.53994,-9.799472 -19.5105,-22.258972 -19.49406,-34.844612 0.01,-7.49065 2.27043,-13.61524 6.96703,-18.87515 1.38987,-1.55657 2.52703,-2.944737 2.52703,-3.084815 0,-0.140079 -1.11221,-0.624106 -2.47158,-1.075616 -5.18365,-1.721731 -12.87629,-0.729557 -17.95396,2.315649 -12.63981,7.580397 -25.24416,26.721522 -35.14428,53.370544 -1.0616,2.8576 -1.93018,5.27635 -1.93018,5.375 0,0.0987 16.1325,0.17937 35.85,0.17937 19.7175,0 35.63625,-0.18464 35.375,-0.41031 z m 158.275,0.19651 c 0,-0.11759 -1.38176,-1.05317 -3.07057,-2.07907 -9.46405,-5.749107 -20.5856,-15.736247 -26.39997,-23.707132 -3.80217,-5.21238 -7.57194,-12.758235 -9.36716,-18.75 -1.21151,-4.043565 -1.35151,-5.311435 -1.38028,-12.5 -0.0282,-7.045589 0.10775,-8.447381 1.1395,-11.75 2.29124,-7.334223 7.58746,-15.599949 12.29744,-19.192422 0.97957,-0.747158 1.78104,-1.543605 1.78104,-1.769881 0,-0.766427 -9.33903,-3.513636 -13.55697,-3.987976 -26.79061,-3.012816 -53.61907,23.050727 -74.83388,72.700279 -2.757,6.452265 -8.10915,20.286532 -8.10915,20.960552 0,0.1592 27.3375,0.28945 60.75,0.28945 33.4125,0 60.75,-0.0962 60.75,-0.2138 z"
     id="path4713"
     inkscape:connector-curvature="0" />
  <path
     style="opacity:1;fill:#0f4c75;fill-opacity:0;stroke-width:0.5"
     d="m 136.30528,187.10163 c -14.43532,-3.78473 -28.48031,-17.93003 -39.585982,-39.86868 -1.569865,-3.10119 -2.971495,-5.63952 -3.114725,-5.64074 -0.14323,-0.001 -1.321555,2.52904 -2.6185,5.62279 -5.74746,13.71006 -13.286845,22.8938 -21.24957,25.88413 -6.08973,2.28694 -13.63638,0.50598 -19.340855,-4.56431 -7.221606,-6.41876 -14.250794,-19.8011 -19.347061,-36.83342 -2.416766,-8.07711 -2.983475,-9.17428 -5.456636,-10.56427 C 23.847075,120.15645 22.979549,120.09 11.921916,120.09 H 0.11499329 v -6.25 -6.25 H 42.631053 c 46.976655,0 45.27855,0.1126 46.71152,-3.09736 0.405765,-0.90895 2.003955,-5.027642 3.551525,-9.152642 3.319445,-8.84787 10.451862,-23.651985 14.453582,-30 10.62601,-16.856249 22.50056,-27.027429 35.10779,-30.071668 4.47454,-1.080457 12.35312,-1.0538 16.90952,0.05721 7.21503,1.759283 18.8226,8.637472 19.56442,11.5931 0.55631,2.216505 -0.69629,3.731689 -4.18685,5.064564 -4.21511,1.60955 -7.67061,4.805405 -9.73728,9.00563 -1.54832,3.146735 -1.6385,3.628515 -1.60844,8.59241 0.0355,5.864265 1.06818,9.44397 4.27956,14.834955 2.37066,3.97964 9.40858,10.933935 14.43859,14.267025 4.72413,3.130396 13.27634,7.564656 14.07577,7.298186 0.28355,-0.0945 1.80749,-3.765 3.38654,-8.156636 11.71056,-32.569245 27.38424,-59.711243 44.03011,-76.246639 20.73663,-20.59899359 44.16891,-26.5232381 66.75758,-16.8779191 7.30055,3.1173175 18.54796,10.6606801 19.08482,12.7997171 0.65872,2.624539 -0.28451,3.652061 -5.12652,5.584653 -6.32399,2.524093 -8.98606,4.183595 -12.48443,7.782623 -13.04132,13.416559 -9.2895,34.72386 9.2149,52.333195 12.3331,11.736545 26.01339,18.895216 51.81123,27.111936 6.94153,2.21091 10.79654,3.69068 11.375,4.36637 1.22171,1.42705 1.09887,3.52666 -0.28222,4.82413 l -1.15723,1.08716 h -87.8676 c -94.97438,0 -89.80413,-0.1464 -91.20108,2.58234 -0.32878,0.64221 -1.25599,2.96766 -2.06047,5.16766 -6.78998,18.56834 -16.62182,35.26996 -26.8064,45.53677 -7.29607,7.35498 -14.31534,11.67959 -21.83418,13.45212 -4.40759,1.03907 -12.30491,0.93176 -16.72553,-0.22726 z m 15.44369,-13.01216 c 12.6592,-3.91002 25.96137,-20.97186 36.18713,-46.41491 1.47339,-3.66599 2.67889,-6.75974 2.67889,-6.875 0,-0.11526 -20.475,-0.20956 -45.5,-0.20956 -25.025,0 -45.499997,0.13597 -45.499997,0.30216 0,1.05776 5.598617,14.19827 8.493167,19.93429 7.32586,14.51741 16.39077,25.86539 24.50683,30.67906 5.97879,3.54605 12.96469,4.48946 19.13398,2.58396 z M 66.566943,160.36485 c 3.033205,-1.56854 6.52413,-6.24161 10.06822,-13.47767 3.33989,-6.81913 8.087395,-19.91692 8.772765,-24.20299 L 85.742803,120.59 H 63.678898 c -12.13515,0 -22.063905,0.14847 -22.063905,0.32995 0,1.09335 3.927395,13.28736 5.845059,18.14808 2.918856,7.39844 4.142021,9.82764 7.528151,14.95085 4.074915,6.16534 7.887385,8.25484 11.57874,6.34597 z M 173.33999,107.17969 c -0.26125,-0.22567 -1.9375,-1.5532 -3.725,-2.95006 -12.53994,-9.799472 -19.5105,-22.258972 -19.49406,-34.844612 0.01,-7.49065 2.27043,-13.61524 6.96703,-18.87515 1.38987,-1.55657 2.52703,-2.944737 2.52703,-3.084815 0,-0.140079 -1.11221,-0.624106 -2.47158,-1.075616 -5.18365,-1.721731 -12.87629,-0.729557 -17.95396,2.315649 -12.63981,7.580397 -25.24416,26.721522 -35.14428,53.370544 -1.0616,2.8576 -1.93018,5.27635 -1.93018,5.375 0,0.0987 16.1325,0.17937 35.85,0.17937 19.7175,0 35.63625,-0.18464 35.375,-0.41031 z m 158.275,0.19651 c 0,-0.11759 -1.38176,-1.05317 -3.07057,-2.07907 -9.46405,-5.749107 -20.5856,-15.736247 -26.39997,-23.707132 -3.80217,-5.21238 -7.57194,-12.758235 -9.36716,-18.75 -1.21151,-4.043565 -1.35151,-5.311435 -1.38028,-12.5 -0.0282,-7.045589 0.10775,-8.447381 1.1395,-11.75 2.29124,-7.334223 7.58746,-15.599949 12.29744,-19.192422 0.97957,-0.747158 1.78104,-1.543605 1.78104,-1.769881 0,-0.766427 -9.33903,-3.513636 -13.55697,-3.987976 -26.79061,-3.012816 -53.61907,23.050727 -74.83388,72.700279 -2.757,6.452265 -8.10915,20.286532 -8.10915,20.960552 0,0.1592 27.3375,0.28945 60.75,0.28945 33.4125,0 60.75,-0.0962 60.75,-0.2138 z"
     id="path4715"
     inkscape:connector-curvature="0" />
  <path
     style="opacity:1;fill:#0f4c75;fill-opacity:0;stroke-width:0.5"
     d="m 136.30528,187.10163 c -14.43532,-3.78473 -28.48031,-17.93003 -39.585982,-39.86868 -1.569865,-3.10119 -2.971495,-5.63952 -3.114725,-5.64074 -0.14323,-0.001 -1.321555,2.52904 -2.6185,5.62279 -5.74746,13.71006 -13.286845,22.8938 -21.24957,25.88413 -6.08973,2.28694 -13.63638,0.50598 -19.340855,-4.56431 -7.221606,-6.41876 -14.250794,-19.8011 -19.347061,-36.83342 -2.416766,-8.07711 -2.983475,-9.17428 -5.456636,-10.56427 C 23.847075,120.15645 22.979549,120.09 11.921916,120.09 H 0.11499329 v -6.25 -6.25 H 42.631053 c 46.976655,0 45.27855,0.1126 46.71152,-3.09736 0.405765,-0.90895 2.003955,-5.027642 3.551525,-9.152642 3.319445,-8.84787 10.451862,-23.651985 14.453582,-30 10.62601,-16.856249 22.50056,-27.027429 35.10779,-30.071668 4.47454,-1.080457 12.35312,-1.0538 16.90952,0.05721 7.21503,1.759283 18.8226,8.637472 19.56442,11.5931 0.55631,2.216505 -0.69629,3.731689 -4.18685,5.064564 -4.21511,1.60955 -7.67061,4.805405 -9.73728,9.00563 -1.54832,3.146735 -1.6385,3.628515 -1.60844,8.59241 0.0355,5.864265 1.06818,9.44397 4.27956,14.834955 2.37066,3.97964 9.40858,10.933935 14.43859,14.267025 4.72413,3.130396 13.27634,7.564656 14.07577,7.298186 0.28355,-0.0945 1.80749,-3.765 3.38654,-8.156636 11.71056,-32.569245 27.38424,-59.711243 44.03011,-76.246639 20.73663,-20.59899359 44.16891,-26.5232381 66.75758,-16.8779191 7.30055,3.1173175 18.54796,10.6606801 19.08482,12.7997171 0.65872,2.624539 -0.28451,3.652061 -5.12652,5.584653 -6.32399,2.524093 -8.98606,4.183595 -12.48443,7.782623 -13.04132,13.416559 -9.2895,34.72386 9.2149,52.333195 12.3331,11.736545 26.01339,18.895216 51.81123,27.111936 6.94153,2.21091 10.79654,3.69068 11.375,4.36637 1.22171,1.42705 1.09887,3.52666 -0.28222,4.82413 l -1.15723,1.08716 h -87.8676 c -94.97438,0 -89.80413,-0.1464 -91.20108,2.58234 -0.32878,0.64221 -1.25599,2.96766 -2.06047,5.16766 -6.78998,18.56834 -16.62182,35.26996 -26.8064,45.53677 -7.29607,7.35498 -14.31534,11.67959 -21.83418,13.45212 -4.40759,1.03907 -12.30491,0.93176 -16.72553,-0.22726 z m 15.44369,-13.01216 c 12.6592,-3.91002 25.96137,-20.97186 36.18713,-46.41491 1.47339,-3.66599 2.67889,-6.75974 2.67889,-6.875 0,-0.11526 -20.475,-0.20956 -45.5,-0.20956 -25.025,0 -45.499997,0.13597 -45.499997,0.30216 0,1.05776 5.598617,14.19827 8.493167,19.93429 7.32586,14.51741 16.39077,25.86539 24.50683,30.67906 5.97879,3.54605 12.96469,4.48946 19.13398,2.58396 z M 66.566943,160.36485 c 3.033205,-1.56854 6.52413,-6.24161 10.06822,-13.47767 3.33989,-6.81913 8.087395,-19.91692 8.772765,-24.20299 L 85.742803,120.59 H 63.678898 c -12.13515,0 -22.063905,0.14847 -22.063905,0.32995 0,1.09335 3.927395,13.28736 5.845059,18.14808 2.918856,7.39844 4.142021,9.82764 7.528151,14.95085 4.074915,6.16534 7.887385,8.25484 11.57874,6.34597 z M 173.33999,107.17969 c -0.26125,-0.22567 -1.9375,-1.5532 -3.725,-2.95006 -12.53994,-9.799472 -19.5105,-22.258972 -19.49406,-34.844612 0.01,-7.49065 2.27043,-13.61524 6.96703,-18.87515 1.38987,-1.55657 2.52703,-2.944737 2.52703,-3.084815 0,-0.140079 -1.11221,-0.624106 -2.47158,-1.075616 -5.18365,-1.721731 -12.87629,-0.729557 -17.95396,2.315649 -12.63981,7.580397 -25.24416,26.721522 -35.14428,53.370544 -1.0616,2.8576 -1.93018,5.27635 -1.93018,5.375 0,0.0987 16.1325,0.17937 35.85,0.17937 19.7175,0 35.63625,-0.18464 35.375,-0.41031 z m 158.275,0.19651 c 0,-0.11759 -1.38176,-1.05317 -3.07057,-2.07907 -9.46405,-5.749107 -20.5856,-15.736247 -26.39997,-23.707132 -3.80217,-5.21238 -7.57194,-12.758235 -9.36716,-18.75 -1.21151,-4.043565 -1.35151,-5.311435 -1.38028,-12.5 -0.0282,-7.045589 0.10775,-8.447381 1.1395,-11.75 2.29124,-7.334223 7.58746,-15.599949 12.29744,-19.192422 0.97957,-0.747158 1.78104,-1.543605 1.78104,-1.769881 0,-0.766427 -9.33903,-3.513636 -13.55697,-3.987976 -26.79061,-3.012816 -53.61907,23.050727 -74.83388,72.700279 -2.757,6.452265 -8.10915,20.286532 -8.10915,20.960552 0,0.1592 27.3375,0.28945 60.75,0.28945 33.4125,0 60.75,-0.0962 60.75,-0.2138 z"
     id="path4717"
     inkscape:connector-curvature="0" />
  <path
     style="opacity:1;fill:#0f4c75;fill-opacity:0;stroke-width:0.5"
     d="m 136.30528,187.10163 c -14.43532,-3.78473 -28.48031,-17.93003 -39.585982,-39.86868 -1.569865,-3.10119 -2.971495,-5.63952 -3.114725,-5.64074 -0.14323,-0.001 -1.321555,2.52904 -2.6185,5.62279 -5.74746,13.71006 -13.286845,22.8938 -21.24957,25.88413 -6.08973,2.28694 -13.63638,0.50598 -19.340855,-4.56431 -7.221606,-6.41876 -14.250794,-19.8011 -19.347061,-36.83342 -2.416766,-8.07711 -2.983475,-9.17428 -5.456636,-10.56427 C 23.847075,120.15645 22.979549,120.09 11.921916,120.09 H 0.11499329 v -6.25 -6.25 H 42.631053 c 46.976655,0 45.27855,0.1126 46.71152,-3.09736 0.405765,-0.90895 2.003955,-5.027642 3.551525,-9.152642 3.319445,-8.84787 10.451862,-23.651985 14.453582,-30 10.62601,-16.856249 22.50056,-27.027429 35.10779,-30.071668 4.47454,-1.080457 12.35312,-1.0538 16.90952,0.05721 7.21503,1.759283 18.8226,8.637472 19.56442,11.5931 0.55631,2.216505 -0.69629,3.731689 -4.18685,5.064564 -4.21511,1.60955 -7.67061,4.805405 -9.73728,9.00563 -1.54832,3.146735 -1.6385,3.628515 -1.60844,8.59241 0.0355,5.864265 1.06818,9.44397 4.27956,14.834955 2.37066,3.97964 9.40858,10.933935 14.43859,14.267025 4.72413,3.130396 13.27634,7.564656 14.07577,7.298186 0.28355,-0.0945 1.80749,-3.765 3.38654,-8.156636 11.71056,-32.569245 27.38424,-59.711243 44.03011,-76.246639 20.73663,-20.59899359 44.16891,-26.5232381 66.75758,-16.8779191 7.30055,3.1173175 18.54796,10.6606801 19.08482,12.7997171 0.65872,2.624539 -0.28451,3.652061 -5.12652,5.584653 -6.32399,2.524093 -8.98606,4.183595 -12.48443,7.782623 -13.04132,13.416559 -9.2895,34.72386 9.2149,52.333195 12.3331,11.736545 26.01339,18.895216 51.81123,27.111936 6.94153,2.21091 10.79654,3.69068 11.375,4.36637 1.22171,1.42705 1.09887,3.52666 -0.28222,4.82413 l -1.15723,1.08716 h -87.8676 c -94.97438,0 -89.80413,-0.1464 -91.20108,2.58234 -0.32878,0.64221 -1.25599,2.96766 -2.06047,5.16766 -6.78998,18.56834 -16.62182,35.26996 -26.8064,45.53677 -7.29607,7.35498 -14.31534,11.67959 -21.83418,13.45212 -4.40759,1.03907 -12.30491,0.93176 -16.72553,-0.22726 z m 15.44369,-13.01216 c 12.6592,-3.91002 25.96137,-20.97186 36.18713,-46.41491 1.47339,-3.66599 2.67889,-6.75974 2.67889,-6.875 0,-0.11526 -20.475,-0.20956 -45.5,-0.20956 -25.025,0 -45.499997,0.13597 -45.499997,0.30216 0,1.05776 5.598617,14.19827 8.493167,19.93429 7.32586,14.51741 16.39077,25.86539 24.50683,30.67906 5.97879,3.54605 12.96469,4.48946 19.13398,2.58396 z M 66.566943,160.36485 c 3.033205,-1.56854 6.52413,-6.24161 10.06822,-13.47767 3.33989,-6.81913 8.087395,-19.91692 8.772765,-24.20299 L 85.742803,120.59 H 63.678898 c -12.13515,0 -22.063905,0.14847 -22.063905,0.32995 0,1.09335 3.927395,13.28736 5.845059,18.14808 2.918856,7.39844 4.142021,9.82764 7.528151,14.95085 4.074915,6.16534 7.887385,8.25484 11.57874,6.34597 z M 173.33999,107.17969 c -0.26125,-0.22567 -1.9375,-1.5532 -3.725,-2.95006 -12.53994,-9.799472 -19.5105,-22.258972 -19.49406,-34.844612 0.01,-7.49065 2.27043,-13.61524 6.96703,-18.87515 1.38987,-1.55657 2.52703,-2.944737 2.52703,-3.084815 0,-0.140079 -1.11221,-0.624106 -2.47158,-1.075616 -5.18365,-1.721731 -12.87629,-0.729557 -17.95396,2.315649 -12.63981,7.580397 -25.24416,26.721522 -35.14428,53.370544 -1.0616,2.8576 -1.93018,5.27635 -1.93018,5.375 0,0.0987 16.1325,0.17937 35.85,0.17937 19.7175,0 35.63625,-0.18464 35.375,-0.41031 z m 158.275,0.19651 c 0,-0.11759 -1.38176,-1.05317 -3.07057,-2.07907 -9.46405,-5.749107 -20.5856,-15.736247 -26.39997,-23.707132 -3.80217,-5.21238 -7.57194,-12.758235 -9.36716,-18.75 -1.21151,-4.043565 -1.35151,-5.311435 -1.38028,-12.5 -0.0282,-7.045589 0.10775,-8.447381 1.1395,-11.75 2.29124,-7.334223 7.58746,-15.599949 12.29744,-19.192422 0.97957,-0.747158 1.78104,-1.543605 1.78104,-1.769881 0,-0.766427 -9.33903,-3.513636 -13.55697,-3.987976 -26.79061,-3.012816 -53.61907,23.050727 -74.83388,72.700279 -2.757,6.452265 -8.10915,20.286532 -8.10915,20.960552 0,0.1592 27.3375,0.28945 60.75,0.28945 33.4125,0 60.75,-0.0962 60.75,-0.2138 z"
     id="path4719"
     inkscape:connector-curvature="0" />
  <path
     style="opacity:1;fill:#0f4c75;fill-opacity:0;stroke-width:0.5"
     d="m 136.30528,187.10163 c -14.43532,-3.78473 -28.48031,-17.93003 -39.585982,-39.86868 -1.569865,-3.10119 -2.971495,-5.63952 -3.114725,-5.64074 -0.14323,-0.001 -1.321555,2.52904 -2.6185,5.62279 -5.74746,13.71006 -13.286845,22.8938 -21.24957,25.88413 -6.08973,2.28694 -13.63638,0.50598 -19.340855,-4.56431 -7.221606,-6.41876 -14.250794,-19.8011 -19.347061,-36.83342 -2.416766,-8.07711 -2.983475,-9.17428 -5.456636,-10.56427 C 23.847075,120.15645 22.979549,120.09 11.921916,120.09 H 0.11499329 v -6.25 -6.25 H 42.631053 c 46.976655,0 45.27855,0.1126 46.71152,-3.09736 0.405765,-0.90895 2.003955,-5.027642 3.551525,-9.152642 3.319445,-8.84787 10.451862,-23.651985 14.453582,-30 10.62601,-16.856249 22.50056,-27.027429 35.10779,-30.071668 4.47454,-1.080457 12.35312,-1.0538 16.90952,0.05721 7.21503,1.759283 18.8226,8.637472 19.56442,11.5931 0.55631,2.216505 -0.69629,3.731689 -4.18685,5.064564 -4.21511,1.60955 -7.67061,4.805405 -9.73728,9.00563 -1.54832,3.146735 -1.6385,3.628515 -1.60844,8.59241 0.0355,5.864265 1.06818,9.44397 4.27956,14.834955 2.37066,3.97964 9.40858,10.933935 14.43859,14.267025 4.72413,3.130396 13.27634,7.564656 14.07577,7.298186 0.28355,-0.0945 1.80749,-3.765 3.38654,-8.156636 11.71056,-32.569245 27.38424,-59.711243 44.03011,-76.246639 20.73663,-20.59899359 44.16891,-26.5232381 66.75758,-16.8779191 7.30055,3.1173175 18.54796,10.6606801 19.08482,12.7997171 0.65872,2.624539 -0.28451,3.652061 -5.12652,5.584653 -6.32399,2.524093 -8.98606,4.183595 -12.48443,7.782623 -13.04132,13.416559 -9.2895,34.72386 9.2149,52.333195 12.3331,11.736545 26.01339,18.895216 51.81123,27.111936 6.94153,2.21091 10.79654,3.69068 11.375,4.36637 1.22171,1.42705 1.09887,3.52666 -0.28222,4.82413 l -1.15723,1.08716 h -87.8676 c -94.97438,0 -89.80413,-0.1464 -91.20108,2.58234 -0.32878,0.64221 -1.25599,2.96766 -2.06047,5.16766 -6.78998,18.56834 -16.62182,35.26996 -26.8064,45.53677 -7.29607,7.35498 -14.31534,11.67959 -21.83418,13.45212 -4.40759,1.03907 -12.30491,0.93176 -16.72553,-0.22726 z m 15.44369,-13.01216 c 12.6592,-3.91002 25.96137,-20.97186 36.18713,-46.41491 1.47339,-3.66599 2.67889,-6.75974 2.67889,-6.875 0,-0.11526 -20.475,-0.20956 -45.5,-0.20956 -25.025,0 -45.499997,0.13597 -45.499997,0.30216 0,1.05776 5.598617,14.19827 8.493167,19.93429 7.32586,14.51741 16.39077,25.86539 24.50683,30.67906 5.97879,3.54605 12.96469,4.48946 19.13398,2.58396 z M 66.566943,160.36485 c 3.033205,-1.56854 6.52413,-6.24161 10.06822,-13.47767 3.33989,-6.81913 8.087395,-19.91692 8.772765,-24.20299 L 85.742803,120.59 H 63.678898 c -12.13515,0 -22.063905,0.14847 -22.063905,0.32995 0,1.09335 3.927395,13.28736 5.845059,18.14808 2.918856,7.39844 4.142021,9.82764 7.528151,14.95085 4.074915,6.16534 7.887385,8.25484 11.57874,6.34597 z M 173.33999,107.17969 c -0.26125,-0.22567 -1.9375,-1.5532 -3.725,-2.95006 -12.53994,-9.799472 -19.5105,-22.258972 -19.49406,-34.844612 0.01,-7.49065 2.27043,-13.61524 6.96703,-18.87515 1.38987,-1.55657 2.52703,-2.944737 2.52703,-3.084815 0,-0.140079 -1.11221,-0.624106 -2.47158,-1.075616 -5.18365,-1.721731 -12.87629,-0.729557 -17.95396,2.315649 -12.63981,7.580397 -25.24416,26.721522 -35.14428,53.370544 -1.0616,2.8576 -1.93018,5.27635 -1.93018,5.375 0,0.0987 16.1325,0.17937 35.85,0.17937 19.7175,0 35.63625,-0.18464 35.375,-0.41031 z m 158.275,0.19651 c 0,-0.11759 -1.38176,-1.05317 -3.07057,-2.07907 -9.46405,-5.749107 -20.5856,-15.736247 -26.39997,-23.707132 -3.80217,-5.21238 -7.57194,-12.758235 -9.36716,-18.75 -1.21151,-4.043565 -1.35151,-5.311435 -1.38028,-12.5 -0.0282,-7.045589 0.10775,-8.447381 1.1395,-11.75 2.29124,-7.334223 7.58746,-15.599949 12.29744,-19.192422 0.97957,-0.747158 1.78104,-1.543605 1.78104,-1.769881 0,-0.766427 -9.33903,-3.513636 -13.55697,-3.987976 -26.79061,-3.012816 -53.61907,23.050727 -74.83388,72.700279 -2.757,6.452265 -8.10915,20.286532 -8.10915,20.960552 0,0.1592 27.3375,0.28945 60.75,0.28945 33.4125,0 60.75,-0.0962 60.75,-0.2138 z"
     id="path4721"
     inkscape:connector-curvature="0" />
  <path
     style="opacity:1;fill:#0f4c75;fill-opacity:0;stroke-width:0.5"
     d="m 136.30528,187.10163 c -14.43532,-3.78473 -28.48031,-17.93003 -39.585982,-39.86868 -1.569865,-3.10119 -2.971495,-5.63952 -3.114725,-5.64074 -0.14323,-0.001 -1.321555,2.52904 -2.6185,5.62279 -5.74746,13.71006 -13.286845,22.8938 -21.24957,25.88413 -6.08973,2.28694 -13.63638,0.50598 -19.340855,-4.56431 -7.221606,-6.41876 -14.250794,-19.8011 -19.347061,-36.83342 -2.416766,-8.07711 -2.983475,-9.17428 -5.456636,-10.56427 C 23.847075,120.15645 22.979549,120.09 11.921916,120.09 H 0.11499329 v -6.25 -6.25 H 42.631053 c 46.976655,0 45.27855,0.1126 46.71152,-3.09736 0.405765,-0.90895 2.003955,-5.027642 3.551525,-9.152642 3.319445,-8.84787 10.451862,-23.651985 14.453582,-30 10.62601,-16.856249 22.50056,-27.027429 35.10779,-30.071668 4.47454,-1.080457 12.35312,-1.0538 16.90952,0.05721 7.21503,1.759283 18.8226,8.637472 19.56442,11.5931 0.55631,2.216505 -0.69629,3.731689 -4.18685,5.064564 -4.21511,1.60955 -7.67061,4.805405 -9.73728,9.00563 -1.54832,3.146735 -1.6385,3.628515 -1.60844,8.59241 0.0355,5.864265 1.06818,9.44397 4.27956,14.834955 2.37066,3.97964 9.40858,10.933935 14.43859,14.267025 4.72413,3.130396 13.27634,7.564656 14.07577,7.298186 0.28355,-0.0945 1.80749,-3.765 3.38654,-8.156636 11.71056,-32.569245 27.38424,-59.711243 44.03011,-76.246639 20.73663,-20.59899359 44.16891,-26.5232381 66.75758,-16.8779191 7.30055,3.1173175 18.54796,10.6606801 19.08482,12.7997171 0.65872,2.624539 -0.28451,3.652061 -5.12652,5.584653 -6.32399,2.524093 -8.98606,4.183595 -12.48443,7.782623 -13.04132,13.416559 -9.2895,34.72386 9.2149,52.333195 12.3331,11.736545 26.01339,18.895216 51.81123,27.111936 6.94153,2.21091 10.79654,3.69068 11.375,4.36637 1.22171,1.42705 1.09887,3.52666 -0.28222,4.82413 l -1.15723,1.08716 h -87.8676 c -94.97438,0 -89.80413,-0.1464 -91.20108,2.58234 -0.32878,0.64221 -1.25599,2.96766 -2.06047,5.16766 -6.78998,18.56834 -16.62182,35.26996 -26.8064,45.53677 -7.29607,7.35498 -14.31534,11.67959 -21.83418,13.45212 -4.40759,1.03907 -12.30491,0.93176 -16.72553,-0.22726 z m 15.44369,-13.01216 c 12.6592,-3.91002 25.96137,-20.97186 36.18713,-46.41491 1.47339,-3.66599 2.67889,-6.75974 2.67889,-6.875 0,-0.11526 -20.475,-0.20956 -45.5,-0.20956 -25.025,0 -45.499997,0.13597 -45.499997,0.30216 0,1.05776 5.598617,14.19827 8.493167,19.93429 7.32586,14.51741 16.39077,25.86539 24.50683,30.67906 5.97879,3.54605 12.96469,4.48946 19.13398,2.58396 z M 66.566943,160.36485 c 3.033205,-1.56854 6.52413,-6.24161 10.06822,-13.47767 3.33989,-6.81913 8.087395,-19.91692 8.772765,-24.20299 L 85.742803,120.59 H 63.678898 c -12.13515,0 -22.063905,0.14847 -22.063905,0.32995 0,1.09335 3.927395,13.28736 5.845059,18.14808 2.918856,7.39844 4.142021,9.82764 7.528151,14.95085 4.074915,6.16534 7.887385,8.25484 11.57874,6.34597 z M 173.33999,107.17969 c -0.26125,-0.22567 -1.9375,-1.5532 -3.725,-2.95006 -12.53994,-9.799472 -19.5105,-22.258972 -19.49406,-34.844612 0.01,-7.49065 2.27043,-13.61524 6.96703,-18.87515 1.38987,-1.55657 2.52703,-2.944737 2.52703,-3.084815 0,-0.140079 -1.11221,-0.624106 -2.47158,-1.075616 -5.18365,-1.721731 -12.87629,-0.729557 -17.95396,2.315649 -12.63981,7.580397 -25.24416,26.721522 -35.14428,53.370544 -1.0616,2.8576 -1.93018,5.27635 -1.93018,5.375 0,0.0987 16.1325,0.17937 35.85,0.17937 19.7175,0 35.63625,-0.18464 35.375,-0.41031 z m 158.275,0.19651 c 0,-0.11759 -1.38176,-1.05317 -3.07057,-2.07907 -9.46405,-5.749107 -20.5856,-15.736247 -26.39997,-23.707132 -3.80217,-5.21238 -7.57194,-12.758235 -9.36716,-18.75 -1.21151,-4.043565 -1.35151,-5.311435 -1.38028,-12.5 -0.0282,-7.045589 0.10775,-8.447381 1.1395,-11.75 2.29124,-7.334223 7.58746,-15.599949 12.29744,-19.192422 0.97957,-0.747158 1.78104,-1.543605 1.78104,-1.769881 0,-0.766427 -9.33903,-3.513636 -13.55697,-3.987976 -26.79061,-3.012816 -53.61907,23.050727 -74.83388,72.700279 -2.757,6.452265 -8.10915,20.286532 -8.10915,20.960552 0,0.1592 27.3375,0.28945 60.75,0.28945 33.4125,0 60.75,-0.0962 60.75,-0.2138 z"
     id="path4723"
     inkscape:connector-curvature="0" />
  <path
     style="opacity:1;fill:#0f4c75;fill-opacity:0;stroke-width:0.5"
     d="m 229.11499,167.59 v -22.5 h 5.2128 5.2128 l 5.90286,9.5 c 3.24656,5.225 6.01955,9.4961 6.1622,9.49135 0.14264,-0.005 2.8525,-4.22351 6.02192,-9.375 l 5.76258,-9.36635 5.36242,-0.14192 5.36242,-0.14191 V 167.57308 190.09 h -4.74256 -4.74256 l -0.13244,-14.875 -0.13244,-14.875 -6.40221,9.69778 c -3.61265,5.47229 -6.58645,9.50268 -6.82506,9.25 -0.23256,-0.24628 -3.11904,-4.54281 -6.4144,-9.54784 -3.29535,-5.00503 -6.13033,-8.96128 -6.29994,-8.79166 -0.16961,0.16961 -0.30839,6.79588 -0.30839,14.72505 V 190.09 h -4.5 -4.5 z"
     id="path4725"
     inkscape:connector-curvature="0" />
  <path
     style="opacity:1;fill:#0f4c75;fill-opacity:0;stroke-width:0.5"
     d="m 286.11499,167.59 v -22.5 h 4.75 4.75 v 22.5 22.5 h -4.75 -4.75 z"
     id="path4727"
     inkscape:connector-curvature="0" />
  <path
     style="opacity:1;fill:#0f4c75;fill-opacity:0;stroke-width:0.5"
     d="m 286.11499,167.59 v -22.5 h 4.75 4.75 v 22.5 22.5 h -4.75 -4.75 z"
     id="path4729"
     inkscape:connector-curvature="0" />
  <path
     style="opacity:1;fill:#0f4c75;fill-opacity:0;stroke-width:0.5"
     d="m 286.11499,167.59 v -22.5 h 4.75 4.75 v 22.5 22.5 h -4.75 -4.75 z"
     id="path4731"
     inkscape:connector-curvature="0" />
  <path
     style="opacity:1;fill:#0f4c75;fill-opacity:0;stroke-width:0.5"
     d="m 318.28092,190.34945 c -3.69051,-0.66962 -9.88788,-3.38986 -12.25971,-5.38123 l -1.34379,-1.12822 2.79098,-3.38805 c 2.67393,-3.24596 2.83514,-3.35549 3.84379,-2.61162 2.44083,1.80008 7.97101,4.15546 10.49782,4.47116 4.95645,0.61927 8.80498,-1.20801 8.80498,-4.1806 0,-3.24088 -1.21057,-4.05331 -9.74373,-6.53907 -8.63536,-2.51553 -11.77009,-4.51797 -13.47974,-8.61076 -0.92938,-2.22486 -1.00874,-6.73911 -0.16847,-9.58305 0.88714,-3.00258 4.95412,-6.91147 8.40795,-8.08111 3.92691,-1.32986 10.70528,-1.21897 14.96491,0.24481 3.29111,1.13096 7.27313,3.22581 7.82299,4.11551 0.16739,0.27085 -0.767,2.04631 -2.07644,3.94545 l -2.38079,3.453 -2.58994,-1.48182 c -7.46917,-4.27342 -15.25674,-3.50974 -15.25674,1.49615 0,2.56318 1.42978,3.65179 6.95269,5.29365 10.60666,3.15318 14.19729,5.13471 15.98096,8.81928 1.21567,2.51123 1.43743,7.2825 0.48607,10.45785 -1.29191,4.31203 -5.89322,7.81906 -11.65665,8.88449 -3.60279,0.66601 -5.00491,0.6374 -9.59714,-0.19582 z"
     id="path4733"
     inkscape:connector-curvature="0" />
</svg>
