<?xml version="1.0" encoding="UTF-8" standalone="no"?>
<svg
   xmlns:dc="http://purl.org/dc/elements/1.1/"
   xmlns:cc="http://creativecommons.org/ns#"
   xmlns:rdf="http://www.w3.org/1999/02/22-rdf-syntax-ns#"
   xmlns:svg="http://www.w3.org/2000/svg"
   xmlns="http://www.w3.org/2000/svg"
   xmlns:sodipodi="http://sodipodi.sourceforge.net/DTD/sodipodi-0.dtd"
   xmlns:inkscape="http://www.inkscape.org/namespaces/inkscape"
   version="1.1"
   id="svg28"
   xml:space="preserve"
   width="880.06036"
   height="177.93742"
   viewBox="0 0 880.0604 177.93743"
   sodipodi:docname="MaplessAI-edited-bw.svg"
   inkscape:version="1.0beta2 (2b71d25, 2019-12-03)"><metadata
     id="metadata34"><rdf:RDF><cc:Work
         rdf:about=""><dc:format>image/svg+xml</dc:format><dc:type
           rdf:resource="http://purl.org/dc/dcmitype/StillImage" /><dc:title></dc:title></cc:Work></rdf:RDF></metadata><defs
     id="defs32"><clipPath
       clipPathUnits="userSpaceOnUse"
       id="clipPath44"><path
         d="M 0,1000 H 1000 V 0 H 0 Z"
         id="path42"
         inkscape:connector-curvature="0" /></clipPath></defs><sodipodi:namedview
     inkscape:pagecheckerboard="false"
     pagecolor="#000000"
     bordercolor="#666666"
     inkscape:document-rotation="0"
     borderopacity="1"
     objecttolerance="10"
     gridtolerance="10"
     guidetolerance="10"
     inkscape:pageopacity="0"
     inkscape:pageshadow="2"
     inkscape:window-width="1206"
     inkscape:window-height="959"
     id="namedview30"
     showgrid="false"
     fit-margin-top="0"
     fit-margin-left="0"
     fit-margin-right="0"
     fit-margin-bottom="0"
     inkscape:zoom="0.50400003"
     inkscape:cx="442.72703"
     inkscape:cy="88.089262"
     inkscape:window-x="0"
     inkscape:window-y="0"
     inkscape:window-maximized="0"
     inkscape:current-layer="g36" /><g
     id="g36"
     inkscape:groupmode="layer"
     inkscape:label="MaplessAI"
     transform="matrix(1.3333333,0,0,-1.3333333,-223.93959,754.75594)"><g
       style="fill:#ffffff;fill-opacity:1"
       id="g38"><g
         style="fill:#ffffff;fill-opacity:1"
         id="g40"
         clip-path="url(#clipPath44)"><g
           style="fill:#ffffff;fill-opacity:1"
           id="g46"
           transform="translate(323.6167,472.4619)"><path
             d="m 0,0 c 0,-10.609 -5.66,-20.413 -14.849,-25.717 l -15.411,-8.897 c -0.887,-0.514 -1.94,-0.488 -2.811,0.065 -0.766,0.487 -1.244,1.424 -1.244,2.444 V 2.11 c 0,3.621 -1.849,6.899 -4.836,8.782 -0.53,0.333 -0.699,1.02 -0.32,1.518 l 21.45,28.227 c 0.824,1.059 12.329,15.93 16.513,21.339 C -1.015,62.613 0,62.26 0,61.455 Z M -42.818,16.043 C -45.397,12.624 -48.063,9.086 -50.973,6.021 -61.651,-5.224 -79.862,-7.454 -93.332,0.837 c -6.361,3.914 -11.011,10.297 -15.509,16.47 -1.069,1.467 -2.175,2.981 -3.279,4.435 l -4.366,5.634 v -0.019 l -6.803,8.88 c -4.174,5.448 -10.832,7.952 -17.809,6.696 -3.193,-0.572 -6.139,-1.913 -8.577,-3.869 -0.453,-0.364 -1.126,-0.023 -1.126,0.559 v 21.411 c 0,5.476 2.946,10.582 7.686,13.324 l 21.446,12.382 c 6.553,3.785 14.913,2.066 19.439,-4 l 22.997,-30.803 c 11.73,-15.708 31.7,-22.152 50.071,-16.688 0.39,0.115 0.698,-0.317 0.452,-0.64 z m -68.738,-5.094 c -3.042,-1.871 -4.93,-5.178 -4.93,-8.839 v -34.215 c 0,-1.02 -0.477,-1.957 -1.245,-2.444 -0.873,-0.553 -1.922,-0.579 -2.811,-0.065 l -3.111,1.796 c -1.138,0.657 -1.838,1.87 -1.838,3.183 v 18.05 c 0,1.116 0.499,2.18 1.378,2.867 1.155,0.901 1.897,2.303 1.897,3.88 0,3.028 -2.729,5.418 -5.863,4.845 -1.999,-0.366 -3.614,-2.029 -3.933,-4.037 -0.301,-1.898 0.482,-3.63 1.825,-4.683 0.88,-0.689 1.385,-1.74 1.385,-2.858 v -16.574 c 0,-0.756 -0.82,-1.222 -1.473,-0.841 l -4.624,2.697 c -1.305,0.761 -2.107,2.157 -2.107,3.668 V 4.692 c 0,1.117 0.498,2.18 1.378,2.868 1.154,0.9 1.896,2.302 1.896,3.879 0,3.029 -2.73,5.419 -5.864,4.845 -1.926,-0.353 -3.511,-1.909 -3.895,-3.829 -0.394,-1.978 0.396,-3.8 1.789,-4.891 0.879,-0.689 1.385,-1.749 1.385,-2.866 v -25.941 c 0,-0.53 -0.642,-0.822 -1.029,-0.461 -5.94,5.553 -9.455,13.403 -9.455,21.705 l -0.019,26.062 c 0,11.233 17.088,15.156 23.672,7.217 2.964,-3.576 14.377,-18.836 14.377,-18.836 0.489,-0.672 0.98,-1.344 1.475,-2.017 0.355,-0.482 0.25,-1.164 -0.26,-1.478 m 38.774,41.804 c 1.568,0.521 2.951,1.512 3.978,2.886 l 20.233,27.102 c 4.241,5.684 11.851,7.552 18.189,4.644 0.262,-0.119 1.14,-0.605 1.773,-0.958 0.366,-0.205 0.467,-0.683 0.218,-1.021 L -44.295,63.754 c -0.692,-0.941 -1.774,-1.503 -2.941,-1.558 -1.74,-0.082 -3.416,-1.079 -4.256,-2.88 -0.828,-1.774 -0.471,-3.966 0.871,-5.391 2.185,-2.319 5.802,-2.008 7.595,0.432 0.95,1.295 1.173,2.897 0.747,4.326 -0.319,1.068 0.004,2.228 0.664,3.127 l 15.576,21.205 c 0.57,0.775 1.631,0.997 2.463,0.517 l 3.863,-2.23 c 0.973,-0.562 1.242,-1.845 0.577,-2.75 l -6.242,-8.497 c -0.691,-0.941 -1.774,-1.503 -2.941,-1.558 -1.739,-0.082 -3.416,-1.079 -4.256,-2.88 -0.828,-1.775 -0.471,-3.966 0.872,-5.391 2.185,-2.318 5.801,-2.008 7.594,0.433 0.951,1.294 1.173,2.897 0.747,4.325 -0.319,1.068 0.004,2.228 0.664,3.127 l 7.245,9.863 c 0.255,0.347 0.73,0.446 1.102,0.232 l 6.655,-3.843 c 2.062,-1.19 3.848,-2.885 5.165,-4.902 0.184,-0.281 0.161,-0.653 -0.045,-0.919 L -21.042,44.668 c -5.211,-6.487 -34.663,-12.517 -51.955,7.361 -0.213,0.246 -0.094,0.621 0.215,0.724 M -5.265,78.575 -26.703,90.95 c -8.689,5.02 -19.763,2.739 -25.765,-5.301 L -72.594,58.691 c -0.659,-0.881 -1.637,-1.44 -2.617,-1.491 -1.13,-0.074 -2.205,0.43 -2.888,1.347 l -20.234,27.102 c -6.001,8.038 -17.08,10.314 -25.766,5.301 l -21.448,-12.382 c -6.239,-3.608 -10.115,-10.326 -10.115,-17.534 V 0.001 c 0,-12.308 6.62,-23.773 17.277,-29.928 l 15.412,-8.896 c 2.316,-1.343 5.241,-1.338 7.556,-0.007 2.34,1.347 3.793,3.953 3.793,6.802 V 2.11 c 0,2.359 1.503,4.46 3.741,5.229 0.228,0.074 0.476,0.008 0.629,-0.18 3.866,-4.742 7.481,-8.066 11.373,-10.463 6.061,-3.728 13.13,-5.699 20.444,-5.699 10.74,0 20.941,4.256 27.989,11.676 1.232,1.299 2.51,2.765 3.905,4.486 0.152,0.188 0.399,0.254 0.628,0.179 2.236,-0.769 3.738,-2.87 3.738,-5.228 v -34.138 c 0,-2.851 1.454,-5.457 3.793,-6.802 1.156,-0.665 2.461,-1.018 3.773,-1.018 1.315,0 2.624,0.353 3.783,1.025 l 15.412,8.896 c 10.657,6.155 17.277,17.62 17.277,29.928 v 61.033 c 0,7.213 -3.881,13.934 -10.126,17.541"
             style="fill:#ffffff;fill-opacity:1;fill-rule:nonzero;stroke:none"
             id="path48"
             inkscape:connector-curvature="0" /></g><g
           style="fill:#ffffff;fill-opacity:1"
           id="g50"
           transform="translate(390.7935,488.627)"><path
             d="m 0,0 -16.965,23.82 v -41.623 h -15.633 v 67.071 h 13.71 L 1.973,20.763 23.08,49.268 H 36.741 V -17.803 H 21.157 V 23.672 L 3.896,0 Z"
             style="fill:#ffffff;fill-opacity:1;fill-rule:nonzero;stroke:none"
             id="path52"
             inkscape:connector-curvature="0" /></g><g
           style="fill:#ffffff;fill-opacity:1"
           id="g54"
           transform="translate(463.9819,482.2656)"><path
             d="m 0,0 c 7.545,0 13.611,5.572 13.611,14.154 0,8.384 -6.115,14.055 -13.66,14.055 -7.644,0 -13.612,-5.622 -13.612,-14.055 C -13.661,5.622 -7.545,0 0,0 m -1.479,41.327 c 6.756,0 12.23,-2.564 15.978,-5.573 L 15.14,39.7 H 28.11 V -11.441 H 15.14 l -0.69,3.896 c -3.798,-3.009 -9.272,-5.523 -15.929,-5.523 -16.719,0 -27.42,12.18 -27.42,27.172 0,14.943 10.603,27.223 27.42,27.223"
             style="fill:#ffffff;fill-opacity:1;fill-rule:nonzero;stroke:none"
             id="path56"
             inkscape:connector-curvature="0" /></g><g
           style="fill:#ffffff;fill-opacity:1"
           id="g58"
           transform="translate(531.3008,510.5732)"><path
             d="m 0,0 c -7.594,0 -13.611,-5.622 -13.611,-14.203 0,-8.384 6.115,-14.056 13.661,-14.056 7.643,0 13.561,5.573 13.561,14.056 C 13.611,-5.671 7.546,0 0,0 m 1.775,-41.376 c -6.115,0 -10.997,1.873 -14.646,4.537 v -20.368 h -15.238 v 68.599 h 12.279 l 0.986,-4.34 c 3.797,3.156 9.42,5.968 16.373,5.968 16.669,0 27.371,-12.182 27.371,-27.173 0,-14.944 -10.307,-27.223 -27.125,-27.223"
             style="fill:#ffffff;fill-opacity:1;fill-rule:nonzero;stroke:none"
             id="path60"
             inkscape:connector-curvature="0" /></g><path
           d="m 568.094,540.311 h 15.239 v -69.487 h -15.239 z"
           style="fill:#ffffff;fill-opacity:1;fill-rule:nonzero;stroke:none"
           id="path62"
           inkscape:connector-curvature="0" /><g
           style="fill:#ffffff;fill-opacity:1"
           id="g64"
           transform="translate(607.7949,502.7319)"><path
             d="M 0,0 H 24.066 C 21.946,4.932 17.359,8.088 12.033,8.088 6.658,8.088 2.072,4.932 0,0 m 11.936,20.861 c 16.915,0 28.603,-12.231 28.603,-27.223 0,-2.071 -0.197,-3.057 -0.394,-4.241 H -0.739 c 1.628,-6.411 6.904,-10.455 12.772,-10.455 4.784,0 8.483,2.318 10.308,5.425 h 16.472 c -2.959,-8.976 -12.527,-17.902 -26.877,-17.902 -16.719,0 -28.358,12.28 -28.407,27.173 0,14.943 11.639,27.223 28.407,27.223"
             style="fill:#ffffff;fill-opacity:1;fill-rule:nonzero;stroke:none"
             id="path66"
             inkscape:connector-curvature="0" /></g><g
           style="fill:#ffffff;fill-opacity:1"
           id="g68"
           transform="translate(667.0273,486.8027)"><path
             d="m 0,0 c 0.246,-3.058 3.501,-5.178 7.939,-5.178 5.721,0 8.187,1.627 8.187,4.34 0,3.304 -4.784,3.748 -13.562,5.671 -6.017,1.184 -15.781,3.403 -15.781,15.189 0,10.456 7.446,16.768 23.08,16.768 12.823,0 20.565,-6.954 20.565,-17.014 L 15.14,19.825 c -0.198,2.515 -2.466,4.587 -6.363,4.587 -4.634,0 -6.854,-2.022 -6.804,-4.242 0,-2.663 2.959,-3.304 9.912,-4.29 10.801,-1.874 20.17,-4.439 20.17,-15.683 0,-12.279 -10.258,-17.902 -24.707,-17.902 -15.733,0 -22.34,9.321 -22.34,17.754 z"
             style="fill:#ffffff;fill-opacity:1;fill-rule:nonzero;stroke:none"
             id="path70"
             inkscape:connector-curvature="0" /></g><g
           style="fill:#ffffff;fill-opacity:1"
           id="g72"
           transform="translate(716.2461,486.8027)"><path
             d="m 0,0 c 0.247,-3.058 3.502,-5.178 7.94,-5.178 5.721,0 8.187,1.627 8.187,4.34 0,3.304 -4.783,3.748 -13.563,5.671 -6.015,1.184 -15.781,3.403 -15.781,15.189 0,10.456 7.447,16.768 23.08,16.768 12.823,0 20.566,-6.954 20.566,-17.014 l -15.288,0.049 c -0.198,2.515 -2.466,4.587 -6.362,4.587 -4.636,0 -6.855,-2.022 -6.806,-4.242 0,-2.663 2.959,-3.304 9.913,-4.29 10.8,-1.874 20.171,-4.439 20.171,-15.683 0,-12.279 -10.258,-17.902 -24.708,-17.902 -15.732,0 -22.341,9.321 -22.341,17.754 z"
             style="fill:#ffffff;fill-opacity:1;fill-rule:nonzero;stroke:none"
             id="path74"
             inkscape:connector-curvature="0" /></g><path
           d="M 821.387,470.72 H 828 v 66.892 h -6.613 z"
           style="fill:#ffffff;fill-opacity:1;fill-rule:nonzero;stroke:none"
           id="path76"
           inkscape:connector-curvature="0" /><g
           style="fill:#ffffff;fill-opacity:1"
           id="g78"
           transform="translate(815.5361,470.7197)"><path
             d="m 0,0 -29.195,66.893 h -5.742 L -64.132,0 h 7.163 L -32.066,57.029 -7.162,0 Z"
             style="fill:#ffffff;fill-opacity:1;fill-rule:nonzero;stroke:none"
             id="path80"
             inkscape:connector-curvature="0" /></g><g
           style="fill:#ffffff;fill-opacity:1"
           id="g82"
           transform="translate(798.9238,492.3613)"><path
             d="m 0,0 h -8.239 c -1.066,0 -2.061,0.479 -2.775,1.271 -1.268,1.41 -3.196,2.213 -5.3,1.918 -2.644,-0.369 -4.775,-2.558 -5.081,-5.21 -0.417,-3.623 2.404,-6.694 5.942,-6.694 1.744,0 3.311,0.748 4.404,1.94 0.734,0.8 1.729,1.31 2.815,1.31 h 10.62 z"
             style="fill:#ffffff;fill-opacity:1;fill-rule:nonzero;stroke:none"
             id="path84"
             inkscape:connector-curvature="0" /></g></g></g></g></svg>
