<?xml version="1.0" encoding="UTF-8" standalone="no"?>
<!-- Created with Inkscape (http://www.inkscape.org/) -->

<svg
   xmlns:dc="http://purl.org/dc/elements/1.1/"
   xmlns:cc="http://creativecommons.org/ns#"
   xmlns:rdf="http://www.w3.org/1999/02/22-rdf-syntax-ns#"
   xmlns:svg="http://www.w3.org/2000/svg"
   xmlns="http://www.w3.org/2000/svg"
   xmlns:sodipodi="http://sodipodi.sourceforge.net/DTD/sodipodi-0.dtd"
   xmlns:inkscape="http://www.inkscape.org/namespaces/inkscape"
   id="svg2"
   version="1.1"
   inkscape:version="0.91 r13725"
   xml:space="preserve"
   width="1102.5"
   height="1102.5"
   viewBox="0 0 1102.5 1102.5"
   sodipodi:docname="brisa_logo_copy.ai.svg"><metadata
     id="metadata8"><rdf:RDF><cc:Work
         rdf:about=""><dc:format>image/svg+xml</dc:format><dc:type
           rdf:resource="http://purl.org/dc/dcmitype/StillImage" /><dc:title></dc:title></cc:Work></rdf:RDF></metadata><defs
     id="defs6"><clipPath
       clipPathUnits="userSpaceOnUse"
       id="clipPath16"><path
         d="M 0,882 882,882 882,0 0,0 0,882 Z"
         id="path18"
         inkscape:connector-curvature="0" /></clipPath></defs><sodipodi:namedview
     pagecolor="#ffffff"
     bordercolor="#666666"
     borderopacity="1"
     objecttolerance="10"
     gridtolerance="10"
     guidetolerance="10"
     inkscape:pageopacity="0"
     inkscape:pageshadow="2"
     inkscape:window-width="640"
     inkscape:window-height="480"
     id="namedview4"
     showgrid="false"
     inkscape:zoom="0.21405896"
     inkscape:cx="551.25"
     inkscape:cy="551.25"
     inkscape:window-x="4578"
     inkscape:window-y="118"
     inkscape:window-maximized="0"
     inkscape:current-layer="g10" /><g
     id="g10"
     inkscape:groupmode="layer"
     inkscape:label="brisa_logo"
     transform="matrix(1.25,0,0,-1.25,0,1102.5)"><g
       id="g12"><g
         id="g14"
         clip-path="url(#clipPath16)"><g
           id="g20"
           transform="translate(353.9547,420.6053)"><path
             d="m 0,0 c -6.253,0 -11.321,5.069 -11.321,11.322 0,6.252 5.068,11.322 11.321,11.322 6.253,0 11.321,-5.07 11.321,-11.322 C 11.321,5.069 6.253,0 0,0 m -7.992,64.137 c -4.954,0 -8.97,4.016 -8.97,8.97 0,4.954 4.016,8.97 8.97,8.97 4.954,0 8.97,-4.016 8.97,-8.97 0,-4.954 -4.016,-8.97 -8.97,-8.97 M 80.933,89.474 5.93,81.016 c -2.816,5.023 -8.127,8.458 -14.295,8.458 -9.086,0 -16.452,-7.366 -16.452,-16.452 0,-9.085 7.366,-16.451 16.452,-16.451 8.386,0 15.229,6.299 16.245,14.41 L 54.052,76.19 9,29.258 c -2.671,1.342 -5.677,2.115 -8.87,2.115 -10.942,0 -19.813,-8.871 -19.813,-19.813 0,-10.943 8.871,-19.814 19.813,-19.814 10.943,0 19.814,8.871 19.814,19.814 0,4.048 -1.22,7.808 -3.303,10.945 l 64.292,66.969 z"
             style="fill:#2dace1;fill-opacity:1;fill-rule:nonzero;stroke:none"
             id="path22"
             inkscape:connector-curvature="0" /></g><g
           id="g24"
           transform="translate(310.3538,518.7443)"><path
             d="m 0,0 c -6.253,0 -11.322,5.069 -11.322,11.322 0,6.253 5.069,11.322 11.322,11.322 6.252,0 11.321,-5.069 11.321,-11.322 C 11.321,5.069 6.252,0 0,0 m 38.211,49.148 c -4.954,0 -8.971,4.016 -8.971,8.97 0,4.954 4.017,8.97 8.971,8.97 4.954,0 8.97,-4.016 8.97,-8.97 0,-4.954 -4.016,-8.97 -8.97,-8.97 M 115.468,6.203 53.227,51.37 c 0.771,1.904 1.216,3.974 1.216,6.154 0,9.086 -7.366,16.451 -16.451,16.451 -9.086,0 -16.452,-7.365 -16.452,-16.451 0,-9.086 7.366,-16.451 16.452,-16.451 3.176,0 6.115,0.942 8.63,2.501 l 37.455,-27.181 -64.845,0 C 16.93,24.786 9.267,30.962 0.143,30.962 c -10.944,0 -19.814,-8.871 -19.814,-19.813 0,-10.943 8.87,-19.814 19.814,-19.814 9.231,0 16.966,6.323 19.166,14.868 l 96.159,0 z"
             style="fill:#666767;fill-opacity:1;fill-rule:nonzero;stroke:none"
             id="path26"
             inkscape:connector-curvature="0" /></g><g
           id="g28"
           transform="translate(542.3843,643.9831)"><path
             d="m 0,0 c 6.253,0 11.322,-5.069 11.322,-11.322 0,-6.253 -5.069,-11.322 -11.322,-11.322 -6.252,0 -11.321,5.069 -11.321,11.322 C -11.321,-5.069 -6.252,0 0,0 m 6.568,-63.978 c 4.954,0 8.97,-4.016 8.97,-8.97 0,-4.954 -4.016,-8.97 -8.97,-8.97 -4.954,0 -8.97,4.016 -8.97,8.97 0,4.954 4.016,8.97 8.97,8.97 m -84.282,-23.343 70.398,6.048 c 2.864,-4.838 8.081,-8.117 14.11,-8.117 9.086,0 16.451,7.366 16.451,16.451 0,9.086 -7.365,16.452 -16.451,16.452 -8.501,0 -15.415,-6.473 -16.28,-14.746 l -42.589,-3.66 42.797,45.607 c 2.799,-1.513 6.003,-2.374 9.408,-2.374 10.943,0 19.814,8.871 19.814,19.814 0,10.942 -8.871,19.813 -19.814,19.813 -10.942,0 -19.813,-8.871 -19.813,-19.813 0,-3.838 1.109,-7.408 2.998,-10.443 l -61.029,-65.032 z"
             style="fill:#666767;fill-opacity:1;fill-rule:nonzero;stroke:none"
             id="path30"
             inkscape:connector-curvature="0" /></g><g
           id="g32"
           transform="translate(445.0694,681.2281)"><path
             d="m 0,0 c 6.253,0 11.322,-5.069 11.322,-11.322 0,-6.252 -5.069,-11.321 -11.322,-11.321 -6.252,0 -11.321,5.069 -11.321,11.321 C -11.321,-5.069 -6.252,0 0,0 m 47.783,-40.575 c 4.953,0 8.969,-4.016 8.969,-8.97 0,-4.954 -4.016,-8.97 -8.969,-8.97 -4.955,0 -8.971,4.016 -8.971,8.97 0,4.954 4.016,8.97 8.971,8.97 m -53.855,9.742 0,-91.426 49.468,56.371 c 1.377,-0.374 2.798,-0.637 4.293,-0.637 9.086,0 16.451,7.365 16.451,16.451 0,9.086 -7.365,16.452 -16.451,16.452 -9.086,0 -16.452,-7.366 -16.452,-16.452 0,-3.844 1.374,-7.335 3.584,-10.135 L 4.117,-95.2 l 0,64.076 c 8.757,2.051 15.284,9.891 15.284,19.273 0,10.943 -8.87,19.814 -19.813,19.814 -10.943,0 -19.814,-8.871 -19.814,-19.814 0,-8.974 5.971,-16.545 14.154,-18.982"
             style="fill:#666767;fill-opacity:1;fill-rule:nonzero;stroke:none"
             id="path34"
             inkscape:connector-curvature="0" /></g><g
           id="g36"
           transform="translate(348.5647,637.9225)"><path
             d="m 0,0 c 6.252,0 11.321,-5.069 11.321,-11.322 0,-6.252 -5.069,-11.321 -11.321,-11.321 -6.253,0 -11.322,5.069 -11.322,11.321 C -11.322,-5.069 -6.253,0 0,0 m 61.137,-12.369 c -4.954,0 -8.97,4.016 -8.97,8.97 0,4.954 4.016,8.97 8.97,8.97 4.954,0 8.97,-4.016 8.97,-8.97 0,-4.954 -4.016,-8.97 -8.97,-8.97 M -0.219,-31.947 c 3.684,0 7.121,1.023 10.075,2.775 l 65.531,-66.874 -7.463,76.956 c 5.505,2.66 9.334,8.247 9.334,14.772 0,9.085 -7.366,16.451 -16.452,16.451 -9.086,0 -16.451,-7.366 -16.451,-16.451 0,-8.063 5.809,-14.742 13.464,-16.151 l 4.638,-47.824 -45.454,46.385 c 1.641,2.886 2.592,6.217 2.592,9.774 0,10.943 -8.871,19.814 -19.814,19.814 -10.943,0 -19.814,-8.871 -19.814,-19.814 0,-10.942 8.871,-19.813 19.814,-19.813"
             style="fill:#666767;fill-opacity:1;fill-rule:nonzero;stroke:none"
             id="path38"
             inkscape:connector-curvature="0" /></g><g
           id="g40"
           transform="translate(451.6568,384.2387)"><path
             d="m 0,0 c -6.253,0 -11.322,5.069 -11.322,11.322 0,6.253 5.069,11.322 11.322,11.322 6.252,0 11.321,-5.069 11.321,-11.322 C 11.321,5.069 6.252,0 0,0 m -47.551,38.718 c -4.954,0 -8.97,4.016 -8.97,8.97 0,4.954 4.016,8.97 8.97,8.97 4.954,0 8.969,-4.016 8.969,-8.97 0,-4.954 -4.015,-8.97 -8.969,-8.97 m 51.874,-8.282 0,88.469 -47.081,-55.387 c -1.588,0.511 -3.25,0.86 -5.008,0.86 -9.086,0 -16.452,-7.366 -16.452,-16.452 0,-9.086 7.366,-16.451 16.452,-16.451 9.085,0 16.451,7.365 16.451,16.451 0,3.601 -1.19,6.904 -3.152,9.614 l 28.6,33.645 0,-60.898 c -8.322,-2.349 -14.428,-9.98 -14.428,-19.053 0,-10.943 8.87,-19.814 19.813,-19.814 10.943,0 19.814,8.871 19.814,19.814 0,9.282 -6.393,17.051 -15.009,19.202"
             style="fill:#666767;fill-opacity:1;fill-rule:nonzero;stroke:none"
             id="path42"
             inkscape:connector-curvature="0" /></g><g
           id="g44"
           transform="translate(546.824,425.7816)"><path
             d="m 0,0 c -6.253,0 -11.322,5.069 -11.322,11.322 0,6.252 5.069,11.322 11.322,11.322 6.252,0 11.321,-5.07 11.321,-11.322 C 11.321,5.069 6.252,0 0,0 m -59.799,13.648 c 4.954,0 8.97,-4.016 8.97,-8.97 0,-4.954 -4.016,-8.97 -8.97,-8.97 -4.955,0 -8.971,4.016 -8.971,8.97 0,4.954 4.016,8.97 8.971,8.97 m 59.175,17.841 c -3.742,0 -7.229,-1.057 -10.214,-2.86 l -64.997,64.998 7.498,-74.405 c -5.033,-2.813 -8.477,-8.13 -8.477,-14.306 0,-9.086 7.366,-16.451 16.451,-16.451 9.086,0 16.452,7.365 16.452,16.451 0,8.377 -6.284,15.214 -14.381,16.243 l -4.541,45.053 44.903,-44.901 c -1.592,-2.853 -2.507,-6.136 -2.507,-9.636 0,-10.942 8.871,-19.813 19.813,-19.813 10.943,0 19.814,8.871 19.814,19.813 0,10.943 -8.871,19.814 -19.814,19.814"
             style="fill:#666767;fill-opacity:1;fill-rule:nonzero;stroke:none"
             id="path46"
             inkscape:connector-curvature="0" /></g><g
           id="g48"
           transform="translate(584.481,524.4743)"><path
             d="m 0,0 c -6.253,0 -11.321,5.069 -11.321,11.322 0,6.252 5.068,11.321 11.321,11.321 6.253,0 11.321,-5.069 11.321,-11.321 C 11.321,5.069 6.253,0 0,0 m -37.657,-27.324 c 4.954,0 8.97,-4.016 8.97,-8.97 0,-4.954 -4.016,-8.97 -8.97,-8.97 -4.955,0 -8.971,4.016 -8.971,8.97 0,4.954 4.016,8.97 8.971,8.97 m 37.581,58.113 c -9.291,0 -17.066,-6.404 -19.208,-15.032 l -89.452,0 55.223,-47.97 c -0.428,-1.467 -0.73,-2.986 -0.73,-4.591 0,-9.086 7.366,-16.451 16.452,-16.451 9.085,0 16.451,7.365 16.451,16.451 0,9.086 -7.366,16.451 -16.451,16.451 -3.744,0 -7.156,-1.299 -9.92,-3.405 l -33.76,29.326 62.348,0 c 2.356,-8.311 9.982,-14.406 19.047,-14.406 10.943,0 19.814,8.871 19.814,19.813 0,10.943 -8.871,19.814 -19.814,19.814"
             style="fill:#666767;fill-opacity:1;fill-rule:nonzero;stroke:none"
             id="path50"
             inkscape:connector-curvature="0" /></g><g
           id="g52"
           transform="translate(234.465,211.5858)"><path
             d="m 0,0 c 5.971,3.53 10.655,8.344 14.06,14.443 3.399,6.096 5.102,12.932 5.102,20.509 0,7.575 -1.703,14.411 -5.102,20.509 C 10.655,61.558 5.971,66.343 0,69.808 c -5.969,3.467 -12.612,5.2 -19.931,5.2 -10.144,0 -18.777,-3.209 -25.903,-9.628 -7.123,-6.422 -11.33,-14.636 -12.612,-24.65 0,-0.385 -0.066,-0.707 -0.193,-0.963 -0.129,-1.029 -0.192,-2.633 -0.192,-4.815 0,-7.577 1.7,-14.413 5.102,-20.509 C -50.328,8.344 -45.673,3.53 -39.767,0 c 5.903,-3.533 12.519,-5.297 19.836,-5.297 7.319,0 13.962,1.764 19.931,5.297 m 8.088,81.459 c 7.897,-4.687 14.123,-11.106 18.681,-19.257 4.556,-8.155 6.837,-17.236 6.837,-27.25 0,-10.014 -2.344,-19.13 -7.03,-27.346 C 21.889,-0.611 15.47,-7.063 7.319,-11.747 c -8.155,-4.689 -17.236,-7.03 -27.25,-7.03 -10.015,0 -19.099,2.341 -27.25,7.03 -8.155,4.684 -14.572,11.136 -19.258,19.353 -4.687,8.216 -7.028,17.332 -7.028,27.346 l 0,45.255 c 0,0.772 0.063,1.348 0.192,1.735 l 0,43.136 c 0,2.182 0.674,3.979 2.021,5.393 1.348,1.411 3.112,2.117 5.298,2.117 2.18,0 3.977,-0.706 5.391,-2.117 1.412,-1.414 2.119,-3.211 2.119,-5.393 l 0,-56.424 c 4.493,6.162 10.206,11.007 17.138,14.54 6.934,3.528 14.57,5.295 22.918,5.295 9.755,0 18.583,-2.344 26.478,-7.03"
             style="fill:#2dace1;fill-opacity:1;fill-rule:nonzero;stroke:none"
             id="path54"
             inkscape:connector-curvature="0" /></g><g
           id="g56"
           transform="translate(376.2007,298.1492)"><path
             d="m 0,0 c 3.143,-1.414 4.717,-3.404 4.717,-5.969 0,-0.772 -0.066,-1.35 -0.191,-1.735 -0.516,-1.798 -1.318,-3.017 -2.409,-3.658 -1.091,-0.644 -2.599,-0.963 -4.525,-0.963 -1.155,0 -3.147,0.127 -5.97,0.385 -1.029,0.127 -2.57,0.193 -4.621,0.193 -9.63,0 -17.495,-2.57 -23.592,-7.704 -6.099,-5.137 -9.147,-11.813 -9.147,-20.027 l 0,-57.582 c 0,-2.311 -0.644,-4.11 -1.926,-5.391 -1.285,-1.285 -3.08,-1.926 -5.391,-1.926 -2.312,0 -4.111,0.641 -5.393,1.926 -1.285,1.281 -1.926,3.08 -1.926,5.391 l 0,90.704 c 0,2.311 0.641,4.108 1.926,5.393 1.282,1.282 3.081,1.926 5.393,1.926 2.311,0 4.106,-0.644 5.391,-1.926 1.282,-1.285 1.926,-3.082 1.926,-5.393 l 0,-8.473 c 3.723,5.393 8.474,9.563 14.251,12.518 5.778,2.952 12.003,4.428 18.68,4.428 C -7.415,2.117 -3.148,1.41 0,0"
             style="fill:#666767;fill-opacity:1;fill-rule:nonzero;stroke:none"
             id="path58"
             inkscape:connector-curvature="0" /></g><g
           id="g60"
           transform="translate(427.9043,195.8912)"><path
             d="m 0,0 c -1.414,1.41 -2.117,3.208 -2.117,5.391 l 0,90.32 c 0,2.181 0.703,3.977 2.117,5.391 1.412,1.412 3.208,2.119 5.393,2.119 2.182,0 3.947,-0.707 5.295,-2.119 1.348,-1.414 2.022,-3.21 2.022,-5.391 l 0,-90.32 C 12.71,3.208 12.036,1.41 10.688,0 9.34,-1.416 7.575,-2.119 5.393,-2.119 3.208,-2.119 1.412,-1.416 0,0"
             style="fill:#666767;fill-opacity:1;fill-rule:nonzero;stroke:none"
             id="path62"
             inkscape:connector-curvature="0" /></g><g
           id="g64"
           transform="translate(510.9032,196.8524)"><path
             d="m 0,0 c -7.319,2.697 -13.225,6.483 -17.718,11.362 -1.283,1.541 -1.924,3.016 -1.924,4.43 0,2.182 1.025,4.108 3.08,5.778 1.541,1.154 3.145,1.733 4.815,1.733 2.182,0 4.043,-0.901 5.584,-2.696 3.081,-3.596 7.156,-6.356 12.23,-8.282 5.069,-1.926 10.686,-2.889 16.849,-2.889 8.985,0 15.726,1.541 20.222,4.624 4.491,3.08 6.803,7.125 6.932,12.131 0,4.622 -2.248,8.474 -6.74,11.556 -4.497,3.08 -11.62,5.391 -21.377,6.932 -12.583,2.051 -21.986,5.614 -28.211,10.688 -6.229,5.069 -9.341,11.199 -9.341,18.391 0,9.37 3.626,16.624 10.88,21.761 7.253,5.133 16.337,7.704 27.25,7.704 8.473,0 15.855,-1.446 22.146,-4.335 6.29,-2.887 11.363,-6.902 15.214,-12.036 1.026,-1.67 1.541,-3.146 1.541,-4.428 0,-2.185 -1.029,-3.918 -3.082,-5.199 -0.898,-0.645 -2.117,-0.963 -3.658,-0.963 -2.696,0 -4.944,0.963 -6.741,2.888 -6.291,7.189 -14.894,10.785 -25.805,10.785 -7.063,0 -12.71,-1.446 -16.946,-4.333 -4.237,-2.889 -6.356,-6.518 -6.356,-10.881 0,-4.622 1.99,-8.314 5.971,-11.074 3.977,-2.761 11.04,-4.976 21.183,-6.643 13.736,-2.311 23.557,-6.067 29.463,-11.266 5.905,-5.2 8.86,-11.651 8.86,-19.353 0,-5.907 -1.767,-11.171 -5.297,-15.792 C 55.493,5.971 50.582,2.375 44.293,-0.192 38.001,-2.762 30.876,-4.043 22.916,-4.043 14.955,-4.043 7.317,-2.696 0,0"
             style="fill:#666767;fill-opacity:1;fill-rule:nonzero;stroke:none"
             id="path66"
             inkscape:connector-curvature="0" /></g><g
           id="g68"
           transform="translate(687.3018,211.4883)"><path
             d="m 0,0 c 5.903,3.467 10.558,8.249 13.962,14.349 3.399,6.094 5.102,12.932 5.102,20.509 0,7.573 -1.703,14.409 -5.102,20.509 C 10.558,61.464 5.903,66.277 0,69.81 c -5.907,3.53 -12.518,5.295 -19.836,5.295 -7.318,0 -13.961,-1.765 -19.933,-5.295 -5.969,-3.533 -10.656,-8.346 -14.057,-14.443 -3.403,-6.1 -5.102,-12.936 -5.102,-20.509 0,-7.577 1.699,-14.415 5.102,-20.509 3.401,-6.1 8.088,-10.882 14.057,-14.349 5.972,-3.465 12.615,-5.2 19.933,-5.2 7.318,0 13.929,1.735 19.836,5.2 M 7.413,81.557 C 15.566,76.869 21.983,70.418 26.672,62.204 31.356,53.987 33.7,44.871 33.7,34.858 l 0,-45.257 c 0,-2.055 -0.707,-3.788 -2.117,-5.198 -1.414,-1.416 -3.211,-2.119 -5.393,-2.119 -2.184,0 -3.981,0.674 -5.392,2.021 -1.415,1.348 -2.119,3.112 -2.119,5.296 l 0,11.555 c -4.496,-6.162 -10.206,-11.01 -17.14,-14.54 -6.932,-3.531 -14.571,-5.295 -22.916,-5.295 -9.758,0 -18.583,2.34 -26.478,7.029 -7.897,4.685 -14.126,11.103 -18.681,19.258 -4.559,8.151 -6.837,17.236 -6.837,27.25 0,10.013 2.341,19.129 7.03,27.346 4.684,8.214 11.103,14.665 19.257,19.353 8.152,4.686 17.236,7.03 27.25,7.03 10.013,0 19.096,-2.344 27.249,-7.03"
             style="fill:#666767;fill-opacity:1;fill-rule:nonzero;stroke:none"
             id="path70"
             inkscape:connector-curvature="0" /></g><g
           id="g72"
           transform="translate(425.9513,321.3131)"><path
             d="m 0,0 c -1.99,2.051 -2.985,4.555 -2.985,7.51 0,3.081 1.028,5.585 3.083,7.511 2.051,1.926 4.555,2.889 7.51,2.889 2.823,0 5.262,-0.963 7.317,-2.889 2.053,-1.926 3.082,-4.43 3.082,-7.511 C 18.007,4.555 16.978,2.051 14.925,0 12.87,-2.055 10.366,-3.082 7.415,-3.082 4.46,-3.082 1.99,-2.055 0,0"
             style="fill:#666767;fill-opacity:1;fill-rule:nonzero;stroke:none"
             id="path74"
             inkscape:connector-curvature="0" /></g></g></g></g></svg>