<?xml version="1.0" encoding="utf-8"?>
<!-- Generator: Adobe Illustrator 16.0.4, SVG Export Plug-In . SVG Version: 6.00 Build 0)  -->
<!DOCTYPE svg PUBLIC "-//W3C//DTD SVG 1.1//EN" "http://www.w3.org/Graphics/SVG/1.1/DTD/svg11.dtd">
<svg version="1.1"
	 id="svg5437" xmlns:dc="http://purl.org/dc/elements/1.1/" xmlns:cc="http://creativecommons.org/ns#" xmlns:rdf="http://www.w3.org/1999/02/22-rdf-syntax-ns#" xmlns:svg="http://www.w3.org/2000/svg" xmlns:sodipodi="http://sodipodi.sourceforge.net/DTD/sodipodi-0.dtd" xmlns:inkscape="http://www.inkscape.org/namespaces/inkscape" sodipodi:docname="es-logo bw.svg" inkscape:export-ydpi="90" inkscape:version="0.92.3 (2405546, 2018-03-11)" inkscape:export-xdpi="90" inkscape:export-filename="/home/nick/Ubuntu One/EclipseSource/EclipseSource Website/CORPORATE/Images/es-logo.png"
	 xmlns="http://www.w3.org/2000/svg" xmlns:xlink="http://www.w3.org/1999/xlink" x="0px" y="0px" width="197.523px"
	 height="52.367px" viewBox="0 0 197.523 52.367" enable-background="new 0 0 197.523 52.367" xml:space="preserve">
<filter  style="color-interpolation-filters:sRGB;" id="filter67" inkscape:label="Greyscale">
	<feColorMatrix  values="0.21 0.72 0.072 0 0 0.21 0.72 0.072 0 0 0.21 0.72 0.072 0 0 0 0 0 1 0 " id="feColorMatrix65">
		</feColorMatrix>
</filter>
<filter  style="color-interpolation-filters:sRGB;" id="filter63" inkscape:label="Greyscale">
	<feColorMatrix  values="0.21 0.72 0.072 0 0 0.21 0.72 0.072 0 0 0.21 0.72 0.072 0 0 0 0 0 1 0 " id="feColorMatrix61">
		</feColorMatrix>
</filter>
<sodipodi:namedview  fit-margin-left="0" fit-margin-top="0" showgrid="false" inkscape:cy="-13.025553" inkscape:cx="85.82991" inkscape:zoom="4" borderopacity="1.0" bordercolor="#666666" pagecolor="#ffffff" id="base" inkscape:object-paths="true" inkscape:window-maximized="1" inkscape:window-y="0" inkscape:window-x="0" inkscape:window-height="1412" inkscape:window-width="2560" inkscape:snap-global="true" inkscape:snap-page="false" fit-margin-bottom="0" fit-margin-right="0" inkscape:current-layer="g4748-8-9-2-0-4-80-5" inkscape:document-units="px" inkscape:pageshadow="2" inkscape:pageopacity="0.0" inkscape:snap-intersection-paths="true">
	</sodipodi:namedview>
<g id="layer1" transform="translate(-776.61828,-309.96582)" inkscape:label="Ebene 1" inkscape:groupmode="layer">
	<text transform="matrix(1 0 0 1 3983.4292 -33.8525)" fill="#FFFDFD" font-family="'OpenSans'" font-size="40"> </text>
	<g id="flowRoot4181" transform="translate(4017.4286,954.28571)">
	</g>
	<g id="g7291">
		<g id="g4748-8-9-2-0-4-80-5" transform="matrix(0.82148541,0,0,0.82148541,251.70465,482.99841)">
			<g id="g6136" filter="url(#filter67)">
				<path id="path3805-0-2-3-1-4-2-1-3_1_" inkscape:connector-curvature="0" fill="#FFFDFD" d="M674.443-162.115
					c-8.216-2.769-14.13-9.601-17.196-17.435c-6.639-16.957-18.266-16.591-18.266-16.591v35.342c0,2.003,1.635,3.638,3.635,3.638
					l31.826-0.004h4.52c2.001,0,3.636-1.632,3.636-3.634c-2.926,0-5.647-0.47-8.156-1.318"/>
				<path id="path3819-7-9-9-9-4-8-4-3_1_" inkscape:connector-curvature="0" fill="#FFFDFD" d="M797.067-157.171
					c-6.751,0-7.624-4.656-7.624-10.712v-1.049h3.201v0.873c0,4.541,0.231,8.321,4.422,8.321c3.377,0,4.194-2.732,4.194-6.284
					c0-2.792-1.107-5.471-2.737-8.267l-6.636-11.117c-1.107-1.92-2.154-4.656-2.154-6.869c0-4.716,2.036-8.383,7.332-8.383
					c6.29,0,7.219,4.949,7.219,10.362v0.699h-3.143v-0.524c0-4.656-0.523-7.974-4.132-7.974c-2.737,0-4.075,2.036-4.075,5.82
					c0,1.862,0.87,3.901,2.387,6.403l6.11,10.131c1.862,3.084,3.028,6.227,3.028,9.777
					C804.461-160.956,802.831-157.171,797.067-157.171"/>
				<path id="path3821-7-5-9-2-4-6-6-4_1_" inkscape:connector-curvature="0" fill="#FFFDFD" d="M813.792-185.463
					c-3.49,0-3.61,4.714-3.61,13.386c0,7.922,0.12,12.461,3.61,12.461c3.609,0,3.552-4.539,3.552-12.461
					C817.344-180.807,817.401-185.463,813.792-185.463z M813.792-157.346c-6.518,0-6.637-6.639-6.637-14.731
					c0-9.428,0.119-15.657,6.637-15.657c6.52,0,6.58,5.937,6.58,15.657C820.371-164.217,820.43-157.346,813.792-157.346"/>
				<path id="path3823-3-5-7-0-3-8-3-0_1_" inkscape:connector-curvature="0" fill="#FFFDFD" d="M833.875-157.874l-0.114-2.732
					c-0.76,1.743-2.04,3.198-4.54,3.198c-3.786,0-4.66-2.789-4.66-5.994v-23.808h2.971v23.055c0,2.385,0.405,4.306,2.852,4.306
					c1.92,0,3.318-1.805,3.318-5.184v-22.176h2.97v23.46c0,1.806,0,3.201,0.115,5.876H833.875"/>
				<path id="path3825-7-7-8-3-8-3-7-0_1_" inkscape:connector-curvature="0" fill="#FFFDFD" d="M848.371-184.708
					c-3.086,0-3.843,1.981-3.843,5.94v20.895h-2.97v-23.399c0-0.583-0.056-3.375-0.175-5.937h2.913l0.117,2.91
					c0.757-1.979,2.328-3.165,3.898-3.165c0.581,0,1.366,0.097,1.95,0.413l-0.861,2.569
					C848.997-184.667,848.524-184.708,848.371-184.708"/>
				<path id="path3827-0-3-0-4-6-8-9-5_1_" inkscape:connector-curvature="0" fill="#FFFDFD" d="M857.31-157.346
					c-6.23,0-6.46-6.286-6.46-14.845c0-11.06,1.163-15.543,6.517-15.543c5.007,0,6.054,3.667,6.054,8.615v0.466h-2.97v-0.408
					c0-3.899-0.464-6.402-3.085-6.402c-2.909,0-3.49,3.084-3.49,13.329c0,8.327,0.29,12.518,3.433,12.518
					c2.502,0,3.142-2.211,3.142-6.462v-0.409h3.028v0.583C863.48-161.593,862.665-157.346,857.31-157.346"/>
				<path id="path3829-91-9-1-7-0-3-74-6_1_" inkscape:connector-curvature="0" fill="#FFFDFD" d="M872.854-185.463
					c-3.609,0-3.609,5.296-3.609,11.526h7.159C876.403-180.048,876.462-185.463,872.854-185.463z M869.244-171.668
					c0,0.409,0,1.922,0,1.922c0,6.054,0.292,10.13,3.609,10.13c2.851,0,3.376-3.028,3.433-6.462h3.027
					c-0.233,4.019-1.047,8.733-6.46,8.733c-6.522,0.057-6.637-6.809-6.637-14.845c0-9.023,0.115-15.543,6.637-15.543
					c6.752,0,6.575,6.286,6.575,16.066H869.244"/>
			</g>
			<g id="g6126" filter="url(#filter63)">
				<path id="path3803-4-3-3-9-03-1-8-9_1_" inkscape:connector-curvature="0" fill="#FFFDFD" d="M678.963-200.78h-36.346
					c-2.001,0-3.635,1.635-3.635,3.635c2.92,0,5.641,0.476,8.155,1.298c7.718,2.518,13.483,8.307,16.991,13.716
					c4.025,6.21,9.876,10.401,18.471,10.401v-25.415C682.599-199.144,680.964-200.78,678.963-200.78"/>
				<path id="path3807-3-9-6-6-9-8-0-1_1_" inkscape:connector-curvature="0" fill="#FFFDFD" d="M714.79-157.346
					c-6.228,0-6.46-6.286-6.46-14.845c0-11.06,1.164-15.543,6.519-15.543c5.006,0,6.053,3.667,6.053,8.615v0.466h-2.97v-0.408
					c0-3.899-0.465-6.402-3.084-6.402c-2.91,0-3.493,3.084-3.493,13.329c0,8.327,0.291,12.518,3.433,12.518
					c2.504,0,3.143-2.211,3.143-6.462v-0.409h3.029v0.583C720.962-161.593,720.147-157.346,714.79-157.346"/>
				<path id="path3809-4-5-4-3-2-8-2-1_1_" inkscape:connector-curvature="0" fill="#FFFDFD" d="M724.894-157.874h2.904v-42.085
					h-2.904V-157.874z"/>
				<path id="path3811-2-4-9-8-74-9-2-3_1_" inkscape:connector-curvature="0" fill="#FFFDFD" d="M732.686-157.874v-29.336h2.97
					v29.336H732.686z M732.686-195.847v-3.588h2.97v3.588"/>
				<path id="path3813-8-3-8-2-2-2-9-1_1_" inkscape:connector-curvature="0" fill="#FFFDFD" d="M747.124-185.289
					c-3.434,0-3.609,4.772-3.609,10.594v3.494c0,6.929,0.115,11.585,3.667,11.585c3.491,0,3.609-4.307,3.609-12.983
					C750.791-180.982,750.616-185.289,747.124-185.289z M747.823-157.408c-2.154,0-3.669-1.103-4.308-3.024v13.545h-2.97v-35.433
					c0-0.524-0.175-4.308-0.175-4.889h2.97l0.058,2.851c0.814-2.037,2.212-3.317,4.483-3.317c5.064,0,5.938,4.016,5.938,15.076
					C753.819-162.524,753.06-157.408,747.823-157.408"/>
				<path id="path3815-9-9-4-8-5-8-75-9_1_" inkscape:connector-curvature="0" fill="#FFFDFD" d="M763.481-157.289
					c-5.531,0-6.52-3.667-6.52-8.034v-0.99h3.028v0.99c0,3.552,0.581,5.762,3.493,5.762c2.328,0,3.317-1.687,3.317-4.771
					c0-2.564-0.989-3.903-2.619-5.591l-3.085-3.143c-2.329-2.328-3.9-4.482-3.9-7.975c0-3.783,2.038-6.694,6.345-6.694
					c4.949,0,6.17,3.201,6.17,7.858v0.699h-3.025v-0.756c0-2.795-0.117-5.531-3.144-5.531c-2.387,0-3.318,1.862-3.318,4.366
					c0,2.619,1.397,4.192,3.261,6.111l2.911,3.028c2.677,2.734,3.493,4.308,3.493,7.569
					C769.885-160.082,767.729-157.289,763.481-157.289"/>
				<path id="path3817-2-4-6-5-2-8-6-9_1_" inkscape:connector-curvature="0" fill="#FFFDFD" d="M779.721-185.463
					c-3.609,0-3.609,5.296-3.609,11.526h7.16C783.272-180.048,783.33-185.463,779.721-185.463z M776.112-171.668
					c0,0.409,0,1.922,0,1.922c0,6.054,0.29,10.13,3.609,10.13c2.852,0,3.377-3.028,3.434-6.462h3.028
					c-0.234,4.019-1.05,8.733-6.462,8.733c-6.52,0.057-6.635-6.809-6.635-14.845c0-9.023,0.114-15.543,6.635-15.543
					c6.753,0,6.578,6.286,6.578,16.066H776.112"/>
				<path id="path3831-1-0-4-7-8-3-9-3_1_" inkscape:connector-curvature="0" fill="#FFFDFD" d="M692.421-159.848
					c0.002,1.318,0.661,1.977,1.979,1.978l12.275-0.004v-2.732h-10.252c-0.511,0-0.859-0.347-0.859-0.858v-17.014h9.798v-2.678
					h-9.798v-15.209c0-0.51,0.348-0.857,0.859-0.857h10.691v-2.737c0,0-11.87-0.001-12.714,0c-1.318,0.002-1.977,0.662-1.979,1.978
					V-159.848"/>
			</g>
		</g>
		<rect id="rect7271" x="854.119" y="353.308" fill="#FFFDFD" fill-opacity="0" width="7.5" height="9.025"/>
		<rect id="rect7271-9" x="821.113" y="309.966" fill="#FFFDFD" fill-opacity="0" width="7.5" height="9.025"/>
	</g>
</g>
</svg>
