<?xml version="1.0" encoding="UTF-8" standalone="no"?>
<!-- Generator: Adobe Illustrator 22.0.1, SVG Export Plug-In . SVG Version: 6.00 Build 0)  -->

<svg
   xmlns:dc="http://purl.org/dc/elements/1.1/"
   xmlns:cc="http://creativecommons.org/ns#"
   xmlns:rdf="http://www.w3.org/1999/02/22-rdf-syntax-ns#"
   xmlns:svg="http://www.w3.org/2000/svg"
   xmlns="http://www.w3.org/2000/svg"
   xmlns:sodipodi="http://sodipodi.sourceforge.net/DTD/sodipodi-0.dtd"
   xmlns:inkscape="http://www.inkscape.org/namespaces/inkscape"
   version="1.1"
   id="Layer_1"
   x="0px"
   y="0px"
   viewBox="0 0 236.2 211.97624"
   xml:space="preserve"
   sodipodi:docname="logo-ericsson-white.svg"
   inkscape:version="0.92.4 (5da689c313, 2019-01-14)"
   width="236.2"
   height="211.97624"><metadata
   id="metadata45"><rdf:RDF><cc:Work
       rdf:about=""><dc:format>image/svg+xml</dc:format><dc:type
         rdf:resource="http://purl.org/dc/dcmitype/StillImage" /><dc:title></dc:title></cc:Work></rdf:RDF></metadata><defs
   id="defs43" /><sodipodi:namedview
   pagecolor="#ffffff"
   bordercolor="#666666"
   borderopacity="1"
   objecttolerance="10"
   gridtolerance="10"
   guidetolerance="10"
   inkscape:pageopacity="0"
   inkscape:pageshadow="2"
   inkscape:window-width="1920"
   inkscape:window-height="1016"
   id="namedview41"
   showgrid="false"
   inkscape:zoom="0.9825"
   inkscape:cx="-47.361277"
   inkscape:cy="2.3094823"
   inkscape:window-x="0"
   inkscape:window-y="27"
   inkscape:window-maximized="1"
   inkscape:current-layer="Layer_1"
   inkscape:pagecheckerboard="true"
   fit-margin-top="20"
   fit-margin-left="20"
   fit-margin-right="20"
   fit-margin-bottom="20" />
<style
   type="text/css"
   id="style2">
	.st0{fill:#181818;}
</style>

<g
   id="g38"
   style="fill:#ffffff"
   transform="translate(-81.9,-94.023755)">
	<g
   id="g18"
   style="fill:#ffffff">
		<path
   class="st0"
   d="m 232.8,136.8 -58.3,19.4 c -5.1,1.7 -8.2,1.4 -10.8,0.1 -2.6,-1.3 -4.7,-3.6 -5.7,-6.6 v 0 c -1,-3 -0.7,-6.1 0.6,-8.7 1.3,-2.6 3.6,-4.7 8.7,-6.4 l 58.3,-19.4 c 5.1,-1.7 8.2,-1.4 10.8,-0.1 2.6,1.3 4.7,3.6 5.7,6.6 v 0 c 1,3 0.7,6.1 -0.6,8.7 -1.3,2.6 -3.6,4.7 -8.7,6.4 z"
   id="path12"
   inkscape:connector-curvature="0"
   style="fill:#ffffff" />
		<path
   class="st0"
   d="m 232.8,172.8 -58.3,19.4 c -5.1,1.7 -8.2,1.4 -10.8,0.1 -2.6,-1.3 -4.7,-3.6 -5.7,-6.6 v 0 c -1,-3 -0.7,-6.1 0.6,-8.7 1.3,-2.6 3.6,-4.7 8.7,-6.4 l 58.3,-19.4 c 5.1,-1.7 8.2,-1.4 10.8,-0.1 2.6,1.3 4.7,3.6 5.7,6.6 v 0 c 1,3 0.7,6.1 -0.6,8.7 -1.3,2.6 -3.6,4.7 -8.7,6.4 z"
   id="path14"
   inkscape:connector-curvature="0"
   style="fill:#ffffff" />
		<path
   class="st0"
   d="m 232.8,208.8 -58.3,19.4 c -5.1,1.7 -8.2,1.4 -10.8,0.1 -2.6,-1.3 -4.7,-3.6 -5.7,-6.6 v 0 c -1,-3 -0.7,-6.1 0.6,-8.7 1.3,-2.6 3.6,-4.7 8.7,-6.4 l 58.3,-19.4 c 5.1,-1.7 8.2,-1.4 10.8,-0.1 2.6,1.3 4.7,3.6 5.7,6.6 v 0 c 1,3 0.7,6.1 -0.6,8.7 -1.3,2.6 -3.6,4.7 -8.7,6.4 z"
   id="path16"
   inkscape:connector-curvature="0"
   style="fill:#ffffff" />
	</g>
	<g
   id="g36"
   style="fill:#ffffff">
		<polygon
   class="st0"
   points="101.9,285.3 101.9,257.3 123.3,257.3 123.3,263.2 109.5,263.2 109.5,268.2 122.8,268.2 122.8,274.2 109.5,274.2 109.5,279.5 123.5,279.5 123.5,285.3 "
   id="polygon20"
   style="fill:#ffffff" />
		<polygon
   class="st0"
   points="156.5,285.3 156.5,257.3 164.1,257.3 164.1,285.3 "
   id="polygon22"
   style="fill:#ffffff" />
		<path
   class="st0"
   d="m 191.9,258.2 -0.5,6 c -6.1,-3.6 -15.6,-2.4 -15.7,6.9 -0.2,9.3 9.7,10.7 16,7.5 l 0.4,6.1 c -11,3.4 -24.2,-0.1 -24.2,-13.6 0,-13.2 13.3,-16.9 24,-12.9 z"
   id="path24"
   inkscape:connector-curvature="0"
   style="fill:#ffffff" />
		<path
   class="st0"
   d="m 214.3,257.8 -0.5,5.8 c -3.8,-2.1 -11.1,-2.2 -11.1,1.1 0,4.9 13,1.4 13,11.9 0,10.3 -12.3,10.5 -20.4,8.1 l 0.6,-6.2 c 5,2.3 12.1,2.9 12.1,-1.2 0,-4.5 -13,-1.9 -13,-11.9 -0.1,-8.2 10.1,-10.4 19.3,-7.6 z"
   id="path26"
   inkscape:connector-curvature="0"
   style="fill:#ffffff" />
		<path
   class="st0"
   d="m 237.2,257.8 -0.5,5.8 c -3.8,-2.1 -11.1,-2.2 -11.1,1.1 0,4.9 13,1.4 13,11.9 0,10.3 -12.4,10.5 -20.4,8.1 l 0.6,-6.2 c 5,2.3 12.1,2.9 12.1,-1.2 0,-4.5 -13,-1.9 -13,-11.9 0,-8.2 10.1,-10.4 19.3,-7.6 z"
   id="path28"
   inkscape:connector-curvature="0"
   style="fill:#ffffff" />
		<polygon
   class="st0"
   points="291.1,257.3 298.1,257.3 298.1,285.3 289,285.3 279.3,266.9 279.3,285.3 272.2,285.3 272.2,257.3 281.9,257.3 291.1,275.4 "
   id="polygon30"
   style="fill:#ffffff" />
		<path
   class="st0"
   d="m 254.7,256.7 c 7.9,0 13.9,4.6 13.9,14.7 0,9.6 -6.1,14.6 -13.9,14.6 -7.9,0 -13.9,-4.8 -13.9,-14.6 0,-10.1 6,-14.7 13.9,-14.7 z m -6.1,14.7 c 0,4.3 1.8,9.1 6.1,9.1 4.3,0 6.1,-4.8 6.1,-9.1 0,-3.9 -1.8,-9.1 -6.1,-9.1 -4.3,0 -6.1,4.8 -6.1,9.1 z"
   id="path32"
   inkscape:connector-curvature="0"
   style="fill:#ffffff" />
		<path
   class="st0"
   d="m 136.1,269.1 h 4.2 c 1.9,0 3.6,-1.1 3.6,-3.2 0,-1.8 -1.5,-3.1 -3.4,-3.1 h -4.3 v 6.3 z m -7.3,-11.8 h 13.7 c 3.7,0 8.9,1.6 8.9,7.4 0,3.7 -1.7,5.8 -4.9,6.8 0.2,0 1.8,0.7 2.5,2.8 0,0.1 3.9,10.9 4,10.9 h -8 l -2.9,-8.4 c -0.4,-1.3 -1.4,-2.1 -2.8,-2.1 -1.2,0 -3,-0.1 -3,0 v 10.5 h -7.4 v -27.9 z"
   id="path34"
   inkscape:connector-curvature="0"
   style="fill:#ffffff" />
	</g>
</g>
</svg>