<?xml version="1.0" encoding="UTF-8"?> <svg xmlns="http://www.w3.org/2000/svg" width="304" height="51" viewBox="0 0 304 51" fill="none"><path fill-rule="evenodd" clip-rule="evenodd" d="M64.0022 36.5443C59.2802 37.0288 55.326 35.6858 51.5868 32.3261C54.3045 31.0533 56.9705 29.9957 59.658 30.3903L61.7377 30.6956L59.8172 29.8512C53.0248 26.8642 47.0032 31.4676 44.4318 33.4333C42.365 35.0136 40.5958 36.4614 38.8839 37.8618C36.3692 39.9195 33.9942 41.8631 31.1203 43.8521C26.0083 46.9072 20.0683 48.4542 13.461 48.4542C13.3943 48.4542 13.3269 48.4542 13.2602 48.4535C10.696 48.445 8.38482 48.4499 6.03637 48.6603C4.78472 48.7729 2.50365 50.0076 2.19539 50.4411L2.0979 50.6089L2.20113 50.9999L2.47067 50.9411C5.96611 50.1832 8.37551 50.2201 11.1648 50.2618C13.6724 50.2987 16.5155 50.3433 20.6762 49.7915C28.4607 48.7609 33.7153 45.4926 39.7757 41.3262C41.279 40.2928 43.1357 38.8173 44.9307 37.39C46.6247 36.0442 48.3731 34.6551 49.8025 33.6543C52.3639 36.6434 54.6328 37.8186 58.3705 38.1189C59.9835 38.2542 62.5448 37.6861 64.1334 37.0904L66.1908 36.3197L64.0022 36.5443Z" fill="#FEFEFE"></path><mask id="mask0" maskUnits="userSpaceOnUse" x="71" y="0" width="36" height="27"><path fill-rule="evenodd" clip-rule="evenodd" d="M71.9543 0.554625H106.55V26.7125H71.9543V0.554625Z" fill="white"></path></mask><g mask="url(#mask0)"><path fill-rule="evenodd" clip-rule="evenodd" d="M104.436 1.29816C100.076 2.83241 86.8093 7.50033 80.0922 12.8185C76.905 15.3409 72.9888 24.3247 72.9501 24.4153L71.9543 26.7125L73.829 24.1731C78.1524 18.3123 80.1259 15.6377 87.9512 11.2085C89.4172 10.3783 91.6832 9.12595 94.0876 7.79783C98.5537 5.33 103.616 2.5335 104.729 1.78691L106.55 0.554413L104.436 1.29816Z" fill="#FEFEFE"></path></g><path fill-rule="evenodd" clip-rule="evenodd" d="M76.0767 38.7662C75.334 37.608 73.9246 36.6915 72.916 36.3847C71.3998 35.9201 69.9238 35.8039 68.2707 36.0157C67.2248 36.1489 66.5187 36.0327 66.1137 35.6552C65.6871 35.2599 65.5351 34.5247 65.6212 33.2723C65.6592 32.6979 65.7158 32.2254 66.0527 31.8096L66.6886 31.0241L65.7309 31.3662C64.7502 31.7161 64.0455 32.5158 63.7458 33.618C63.4168 34.83 63.6491 36.2183 64.31 36.9946C64.9968 37.8028 66.3882 38.094 68.3352 37.8375C70.6156 37.5379 72.6049 37.4451 75.6939 39.1642L76.6874 39.7182L76.0767 38.7662Z" fill="#FEFEFE"></path><path fill-rule="evenodd" clip-rule="evenodd" d="M39.1537 18.9079C38.2096 17.2554 35.6661 16.2934 32.5033 16.3876C29.405 16.4854 25.7289 17.7066 24.5009 20.2169L24.1619 20.9089L24.8744 20.5994C31.965 17.5217 34.117 18.0855 38.8304 19.3209L39.4885 19.4937L39.1537 18.9079Z" fill="#FEFEFE"></path><path fill-rule="evenodd" clip-rule="evenodd" d="M78.0864 30.0462C77.9172 29.2642 77.2885 27.817 74.9781 26.921C74.5458 26.7538 74.1781 26.6313 73.8476 26.5215C72.7221 26.1475 72.102 25.9414 70.8289 24.575L70.446 24.1649L70.3364 24.7124C69.9514 26.6327 70.9787 27.8404 73.4777 28.4057C74.9895 28.7471 76.2649 29.3322 77.5789 31.0768L77.7782 31.3424L78.0133 31.1058C78.2549 30.8622 78.1043 30.129 78.0864 30.0462Z" fill="#FEFEFE"></path><path fill-rule="evenodd" clip-rule="evenodd" d="M49.9369 16.5681C49.6875 14.0883 48.534 12.3054 46.6888 11.5489C44.7232 10.7428 42.2894 11.2202 40.3388 12.7955L39.3345 13.6059L40.5911 13.2893C44.5382 12.294 47.5032 13.4543 49.4029 16.7367L50.0703 17.8899L49.9369 16.5681Z" fill="#FEFEFE"></path><path fill-rule="evenodd" clip-rule="evenodd" d="M64.1608 18.0425C62.4862 17.206 60.8188 17.3484 59.3413 18.4548C59.099 18.6361 58.8689 18.8196 58.6474 18.9959C57.1384 20.1959 56.2287 20.9191 54.3412 19.3034L53.5017 18.5851L53.8845 19.615C54.4229 21.0671 55.3584 21.5821 56.048 21.7591C56.2961 21.8222 56.5548 21.8534 56.8208 21.8534C57.8409 21.8534 58.9621 21.3958 59.9485 20.5543C61.0267 19.6349 62.4647 18.5787 64.0318 18.5787H65.2354L64.1608 18.0425Z" fill="#FEFEFE"></path><path fill-rule="evenodd" clip-rule="evenodd" d="M11.9317 43.7183C5.89354 42.0579 2.56154 46.6366 1.40882 48.683L0.491943 50.3114L1.85686 49.0258C4.76662 46.2867 8.04844 44.7326 11.8887 44.2729L13.3224 44.1015L11.9317 43.7183Z" fill="#FEFEFE"></path><path fill-rule="evenodd" clip-rule="evenodd" d="M43.2586 16.6684C42.8471 14.8062 41.4277 13.5057 39.3646 13.1006C36.7674 12.5891 33.8411 13.578 32.5608 15.3977L32.0325 16.1485L32.8977 15.8248C37.1559 14.2289 40.8929 15.4338 42.7984 16.9496L43.4321 17.4533L43.2586 16.6684Z" fill="#FEFEFE"></path><path fill-rule="evenodd" clip-rule="evenodd" d="M80.8961 31.8108C79.9592 31.3149 78.6265 31.3128 77.5799 31.8044L76.896 32.126L77.6236 32.3328C78.7369 32.6494 79.3928 32.9724 79.8875 33.447C81.3291 34.8268 81.6424 36.8328 80.8187 39.4105L80.5671 40.1995L81.2553 39.7292C82.4675 38.9005 83.2159 37.1863 83.117 35.4636C83.0231 33.8394 82.2137 32.5078 80.8961 31.8108Z" fill="#FEFEFE"></path><path fill-rule="evenodd" clip-rule="evenodd" d="M6.04763 41.0654C4.32858 41.0654 2.68122 41.7801 1.5285 43.0261C0.408035 44.2366 -0.125314 45.8162 0.0252283 47.4737L0.114837 48.4618L0.566463 47.575C1.91561 44.928 3.38949 43.3611 6.20175 41.5875L7.02974 41.0654H6.04763Z" fill="#FEFEFE"></path><path fill-rule="evenodd" clip-rule="evenodd" d="M40.7981 29.0885C40.3874 27.4416 39.3687 26.1071 37.8518 25.2295C35.8568 24.0749 32.9915 23.7597 30.5534 24.4248L29.1663 24.8031L30.595 24.9787C35.0439 25.5263 38.5787 27.1115 40.292 29.3279L41.1279 30.4095L40.7981 29.0885Z" fill="#FEFEFE"></path><path fill-rule="evenodd" clip-rule="evenodd" d="M79.5495 35.6035C78.3086 34.422 76.1394 35.3039 76.0476 35.3421L74.7773 35.8691L76.1552 35.8869C76.1702 35.8869 77.6807 35.9166 78.566 36.8481C79.4126 37.7363 79.7789 38.8335 79.7825 38.8441L80.1101 39.8415L80.3352 38.8172C80.3539 38.7344 80.7704 36.7659 79.5495 35.6035Z" fill="#FEFEFE"></path><path fill-rule="evenodd" clip-rule="evenodd" d="M78.0753 32.8968C78.0574 32.8805 77.6194 32.4789 77.0323 32.5589C76.5892 32.6163 76.1964 32.9152 75.8652 33.4464L75.3577 34.2596L76.2315 33.8516C77.2251 33.3869 77.8294 33.3898 77.8732 33.3862L78.6194 33.4046L78.0753 32.8968Z" fill="#FEFEFE"></path><path fill-rule="evenodd" clip-rule="evenodd" d="M74.3365 30.5729C74.305 30.3689 74.1867 30.0863 73.7981 29.8979C73.4712 29.7392 73.2117 29.7739 73.0519 29.8306C72.7107 29.9503 72.5465 30.2556 72.5042 30.3463C72.3522 30.6756 72.3644 31.1715 72.8985 31.4881C73.0469 31.5759 73.2325 31.6503 73.4376 31.6503C73.6404 31.6503 73.8627 31.5766 74.0849 31.3698C74.2433 31.2211 74.3853 30.8917 74.3365 30.5729Z" fill="#FEFEFE"></path><path fill-rule="evenodd" clip-rule="evenodd" d="M75.0393 30.9924C74.9218 30.5405 74.4049 29.6778 73.2866 29.6494C72.1833 29.6218 71.9217 29.5644 71.9181 29.5637L71.26 29.3824L71.5898 29.9738C71.607 30.0036 72.0156 30.714 73.1024 30.8083C74.1081 30.8954 74.4106 31.105 74.5504 31.2552L75.3211 32.0797L75.0393 30.9924Z" fill="#FEFEFE"></path><path fill-rule="evenodd" clip-rule="evenodd" d="M109.626 17.7191C109.626 17.2753 109.781 16.8955 110.092 16.5792C110.402 16.2629 110.775 16.1048 111.211 16.1048C111.647 16.1048 112.021 16.2629 112.332 16.5792C112.642 16.8955 112.797 17.2753 112.797 17.7191V19.0302C114.779 17.0807 117.157 16.1048 119.933 16.1048C122.773 16.1048 125.202 17.131 127.217 19.1818C129.232 21.2342 130.239 23.7056 130.239 26.5982V37.0917C130.239 37.5355 130.084 37.9153 129.774 38.2316C129.463 38.5479 129.09 38.7053 128.654 38.7053C128.218 38.7053 127.845 38.5479 127.534 38.2316C127.224 37.9153 127.069 37.5355 127.069 37.0917V26.5982C127.069 24.5933 126.371 22.8813 124.977 21.4623C123.583 20.0433 121.901 19.3334 119.933 19.3334C117.963 19.3334 116.282 20.0433 114.889 21.4623C113.494 22.8813 112.797 24.5933 112.797 26.5982V37.0917C112.797 37.5355 112.642 37.9153 112.332 38.2316C112.021 38.5479 111.647 38.7053 111.211 38.7053C110.775 38.7053 110.402 38.5479 110.092 38.2316C109.781 37.9153 109.626 37.5355 109.626 37.0917V17.7191Z" fill="#FEFEFE"></path><path fill-rule="evenodd" clip-rule="evenodd" d="M152.3 25.7905C152.01 24.244 151.283 22.8782 150.12 21.6946C148.574 20.1203 146.704 19.3339 144.511 19.3339C142.317 19.3339 140.448 20.1203 138.901 21.6946C137.739 22.8782 137.011 24.244 136.721 25.7905H152.3ZM150.615 33.2164C151.052 33.2164 151.425 33.3753 151.735 33.6908C152.046 34.0071 152.201 34.3876 152.201 34.8307C152.201 35.2753 152.049 35.6586 151.745 35.9808C149.697 37.7977 147.286 38.7058 144.511 38.7058C141.445 38.7058 138.828 37.6024 136.661 35.3963C134.494 33.1894 133.411 30.5263 133.411 27.4055C133.411 24.2848 134.494 21.6202 136.661 19.4141C138.828 17.208 141.445 16.1046 144.511 16.1046C147.576 16.1046 150.193 17.208 152.36 19.4141C154.527 21.6202 155.61 24.2848 155.61 27.4055C155.61 27.8487 155.455 28.2298 155.144 28.5454C154.834 28.8617 154.461 29.0199 154.025 29.0199H136.721C137.011 30.5671 137.739 31.9322 138.901 33.1158C140.448 34.69 142.317 35.4772 144.511 35.4772C146.493 35.4772 148.198 34.838 149.624 33.5596C149.915 33.3315 150.245 33.2164 150.615 33.2164Z" fill="#FEFEFE"></path><path fill-rule="evenodd" clip-rule="evenodd" d="M170.081 16.569C170.386 16.2599 170.755 16.1047 171.192 16.1047C171.628 16.1047 172.004 16.2599 172.321 16.569C172.52 16.784 172.659 17.0332 172.737 17.3153L177.534 31.9863L182.43 17.0332C182.509 16.8714 182.621 16.7169 182.767 16.569C183.071 16.2599 183.441 16.1047 183.877 16.1047C184.313 16.1047 184.686 16.2629 184.996 16.5792C185.307 16.8955 185.463 17.2752 185.463 17.719C185.463 17.9348 185.423 18.1432 185.344 18.3444L179.02 37.6761C178.941 37.8787 178.822 38.0733 178.664 38.2614C178.347 38.5573 177.97 38.7059 177.534 38.7059C177.098 38.7059 176.728 38.5573 176.424 38.2614C176.252 38.0733 176.127 37.8787 176.047 37.6761L171.192 22.8244L166.335 37.6761C166.256 37.8787 166.137 38.0733 165.979 38.2614C165.662 38.5573 165.285 38.7059 164.848 38.7059C164.413 38.7059 164.042 38.5573 163.739 38.2614C163.567 38.0733 163.442 37.8787 163.362 37.6761L157.04 18.3444C156.96 18.1432 156.92 17.9348 156.92 17.719C156.92 17.2752 157.076 16.8955 157.386 16.5792C157.697 16.2629 158.07 16.1047 158.507 16.1047C158.942 16.1047 159.319 16.2599 159.636 16.569C159.768 16.7169 159.874 16.8714 159.953 17.0332L164.848 31.9863L169.645 17.3153C169.738 17.0332 169.883 16.784 170.081 16.569Z" fill="#FEFEFE"></path><path fill-rule="evenodd" clip-rule="evenodd" d="M215.61 25.7905C215.319 24.244 214.592 22.8782 213.43 21.6946C211.883 20.1203 210.013 19.3339 207.82 19.3339C205.627 19.3339 203.757 20.1203 202.211 21.6946C201.048 22.8782 200.321 24.244 200.031 25.7905H215.61ZM213.925 33.2164C214.361 33.2164 214.734 33.3753 215.045 33.6908C215.356 34.0071 215.511 34.3876 215.511 34.8307C215.511 35.2753 215.359 35.6586 215.055 35.9808C213.006 37.7977 210.595 38.7058 207.82 38.7058C204.754 38.7058 202.138 37.6024 199.971 35.3963C197.804 33.1894 196.72 30.5263 196.72 27.4055C196.72 24.2848 197.804 21.6202 199.971 19.4141C202.138 17.208 204.754 16.1046 207.82 16.1046C210.885 16.1046 213.502 17.208 215.669 19.4141C217.836 21.6202 218.92 24.2848 218.92 27.4055C218.92 27.8487 218.765 28.2298 218.455 28.5454C218.144 28.8617 217.771 29.0199 217.335 29.0199H200.031C200.321 30.5671 201.048 31.9322 202.211 33.1158C203.757 34.69 205.627 35.4772 207.82 35.4772C209.802 35.4772 211.507 34.838 212.934 33.5596C213.224 33.3315 213.555 33.2164 213.925 33.2164Z" fill="#FEFEFE"></path><path fill-rule="evenodd" clip-rule="evenodd" d="M232.404 19.3337C230.21 19.3337 228.34 20.1201 226.794 21.6943C225.249 23.2679 224.475 25.1722 224.475 27.4053C224.475 29.6384 225.249 31.5421 226.794 33.1156C228.34 34.6898 230.21 35.4769 232.404 35.4769C234.596 35.4769 236.467 34.6898 238.013 33.1156C239.559 31.5421 240.332 29.6384 240.332 27.4053C240.332 25.1722 239.559 23.2679 238.013 21.6943C236.467 20.1201 234.596 19.3337 232.404 19.3337ZM240.332 35.3159C238.112 37.5752 235.469 38.7056 232.404 38.7056C229.338 38.7056 226.722 37.6022 224.554 35.396C222.387 33.1899 221.303 30.5261 221.303 27.4053C221.303 24.2845 222.387 21.6207 224.554 19.4139C226.722 17.2078 229.338 16.1051 232.404 16.1051C235.469 16.1051 238.086 17.2078 240.252 19.4139C242.419 21.6207 243.503 24.2845 243.503 27.4053V37.0913C243.503 37.5358 243.348 37.9155 243.037 38.2319C242.727 38.5474 242.354 38.7056 241.918 38.7056C241.482 38.7056 241.108 38.5474 240.798 38.2319C240.487 37.9155 240.332 37.5358 240.332 37.0913V35.3159Z" fill="#FEFEFE"></path><path fill-rule="evenodd" clip-rule="evenodd" d="M257.774 19.3337C255.581 19.3337 253.711 20.1201 252.165 21.6943C250.619 23.2679 249.846 25.1722 249.846 27.4053C249.846 29.6384 250.619 31.5421 252.165 33.1156C253.711 34.6898 255.581 35.4769 257.774 35.4769C259.967 35.4769 261.838 34.6898 263.384 33.1156C264.929 31.5421 265.703 29.6384 265.703 27.4053C265.703 25.1722 264.929 23.2679 263.384 21.6943C261.838 20.1201 259.967 19.3337 257.774 19.3337ZM265.703 35.3159C265.676 35.3428 265.65 35.3698 265.623 35.396C263.456 37.6022 260.84 38.7056 257.774 38.7056C254.708 38.7056 252.092 37.6022 249.925 35.396C247.758 33.1899 246.674 30.5261 246.674 27.4053C246.674 24.2845 247.758 21.6207 249.925 19.4139C252.092 17.2078 254.708 16.1051 257.774 16.1051C260.84 16.1051 263.456 17.2078 265.623 19.4139C267.79 21.6207 268.874 24.2845 268.874 27.4053V38.7056C268.874 41.0596 268.041 43.1047 266.377 44.84C264.051 47.2079 261.243 48.3915 257.953 48.3915C254.662 48.3915 251.861 47.2079 249.549 44.84C248.69 43.9785 247.989 43.0442 247.447 42.0348C247.289 41.7928 247.21 41.5108 247.21 41.1872C247.21 40.7441 247.365 40.3629 247.676 40.0473C247.986 39.731 248.359 39.5736 248.795 39.5736C249.231 39.5736 249.608 39.7274 249.925 40.0371C250.057 40.1851 250.17 40.3469 250.262 40.5218C250.659 41.2477 251.168 41.9277 251.788 42.5595C253.493 44.2956 255.548 45.1629 257.953 45.1629C260.357 45.1629 262.412 44.2956 264.117 42.5595C265.174 41.2688 265.703 39.9839 265.703 38.7056V35.3159Z" fill="#FEFEFE"></path><path fill-rule="evenodd" clip-rule="evenodd" d="M272.833 8.03317C272.833 7.58932 272.988 7.20888 273.299 6.89331C273.609 6.577 273.982 6.41885 274.419 6.41885C274.854 6.41885 275.228 6.577 275.538 6.89331C275.848 7.20888 276.005 7.58932 276.005 8.03317V35.4774H277.59C278.026 35.4774 278.399 35.6355 278.71 35.9511C279.02 36.2674 279.175 36.6471 279.175 37.0917C279.175 37.5355 279.02 37.9153 278.71 38.2316C278.399 38.5479 278.026 38.7053 277.59 38.7053H274.419C273.982 38.7053 273.609 38.5479 273.299 38.2316C272.988 37.9153 272.833 37.5355 272.833 37.0917V8.03317Z" fill="#FEFEFE"></path><mask id="mask1" maskUnits="userSpaceOnUse" x="280" y="16" width="23" height="23"><path fill-rule="evenodd" clip-rule="evenodd" d="M280.271 16.1046H302.47V38.7058H280.271V16.1046Z" fill="white"></path></mask><g mask="url(#mask1)"><path fill-rule="evenodd" clip-rule="evenodd" d="M299.16 25.7905C298.87 24.244 298.142 22.8782 296.98 21.6946C295.434 20.1203 293.564 19.3339 291.37 19.3339C289.177 19.3339 287.307 20.1203 285.761 21.6946C284.598 22.8782 283.872 24.244 283.581 25.7905H299.16ZM297.475 33.2164C297.912 33.2164 298.284 33.3753 298.596 33.6908C298.906 34.0071 299.061 34.3876 299.061 34.8307C299.061 35.2753 298.909 35.6586 298.606 35.9808C296.557 37.7977 294.146 38.7058 291.37 38.7058C288.305 38.7058 285.688 37.6024 283.522 35.3963C281.355 33.1894 280.271 30.5263 280.271 27.4055C280.271 24.2848 281.355 21.6202 283.522 19.4141C285.688 17.208 288.305 16.1046 291.37 16.1046C294.436 16.1046 297.053 17.208 299.22 19.4141C301.387 21.6202 302.471 24.2848 302.471 27.4055C302.471 27.8487 302.314 28.2298 302.004 28.5454C301.694 28.8617 301.321 29.0199 300.884 29.0199H283.581C283.872 30.5671 284.598 31.9322 285.761 33.1158C287.307 34.69 289.177 35.4772 291.37 35.4772C293.353 35.4772 295.058 34.838 296.484 33.5596C296.775 33.3315 297.105 33.2164 297.475 33.2164Z" fill="#FEFEFE"></path></g></svg> 