<svg xmlns:dc="http://purl.org/dc/elements/1.1/" xmlns:cc="http://creativecommons.org/ns#" xmlns:rdf="http://www.w3.org/1999/02/22-rdf-syntax-ns#" xmlns:svg="http://www.w3.org/2000/svg" xmlns="http://www.w3.org/2000/svg" xmlns:sodipodi="http://sodipodi.sourceforge.net/DTD/sodipodi-0.dtd" xmlns:inkscape="http://www.inkscape.org/namespaces/inkscape" id="svg8" version="1.1" viewBox="0 0 50.815161 10.266385" height="38.802086" width="192.0573" sodipodi:docname="othermo_white.svg" inkscape:version="0.92.4 (unknown)">
   <sodipodi:namedview pagecolor="#ffffff" bordercolor="#666666" borderopacity="1" objecttolerance="10" gridtolerance="10" guidetolerance="10" inkscape:pageopacity="0" inkscape:pageshadow="2" inkscape:window-width="1920" inkscape:window-height="1019" id="namedview10" showgrid="false" inkscape:zoom="1.6974101" inkscape:cx="96.028648" inkscape:cy="19.401043" inkscape:window-x="0" inkscape:window-y="360" inkscape:window-maximized="1" inkscape:current-layer="svg8" />
   <defs id="defs2" />
   <metadata id="metadata5">
      <rdf:RDF>
         <cc:Work rdf:about="">
            <dc:format>image/svg+xml</dc:format>
            <dc:type rdf:resource="http://purl.org/dc/dcmitype/StillImage" />
            <dc:title />
         </cc:Work>
      </rdf:RDF>
   </metadata>
   <g transform="translate(-35.242121,-40.317918)" id="layer1">
      <g aria-label="othermo" transform="scale(0.26458333)" style="font-style:normal;font-variant:normal;font-weight:normal;font-stretch:normal;font-size:53.33333588px;line-height:1.25;font-family:Arial;-inkscape-font-specification:'Arial, Normal';font-variant-ligatures:normal;font-variant-caps:normal;font-variant-numeric:normal;font-feature-settings:normal;text-align:start;letter-spacing:0px;word-spacing:0px;writing-mode:lr-tb;text-anchor:start;fill:#000000;fill-opacity:1;stroke:none" id="flowRoot10">
         <path d="m 158.84961,176.44519 q 0,7.39583 -3.25521,11.01562 -3.25521,3.61979 -9.45312,3.61979 -6.17188,0 -9.32292,-3.75 -3.15104,-3.77604 -3.15104,-10.88541 0,-14.58334 12.63021,-14.58334 6.45833,0 9.50521,3.56771 3.04687,3.54167 3.04687,11.01563 z m -4.92187,0 q 0,-5.83334 -1.7448,-8.46355 -1.71875,-2.65625 -5.80729,-2.65625 -4.11458,0 -5.96354,2.70834 -1.82292,2.68229 -1.82292,8.41146 0,5.57291 1.79688,8.38541 1.82291,2.78646 5.70312,2.78646 4.21875,0 6.01563,-2.70833 1.82292,-2.70834 1.82292,-8.46354 z" style="font-style:normal;font-variant:normal;font-weight:normal;font-stretch:normal;font-size:53.33333588px;font-family:Arial;-inkscape-font-specification:'Arial, Normal';font-variant-ligatures:normal;font-variant-caps:normal;font-variant-numeric:normal;font-feature-settings:normal;text-align:start;writing-mode:lr-tb;text-anchor:start;fill:#ffffff" id="path12" />
         <path d="m 175.54232,190.35144 q -2.31771,0.625 -4.73958,0.625 -5.625,0 -5.625,-6.38021 v -18.80209 h -3.25521 v -3.41146 h 3.4375 l 1.38021,-6.30208 h 3.125 v 6.30208 h 5.20833 v 3.41146 h -5.20833 v 17.78646 q 0,2.03125 0.65104,2.86459 0.67708,0.80729 2.31771,0.80729 0.9375,0 2.70833,-0.36459 z" style="font-style:normal;font-variant:normal;font-weight:normal;font-stretch:normal;font-size:53.33333588px;font-family:Arial;-inkscape-font-specification:'Arial, Normal';font-variant-ligatures:normal;font-variant-caps:normal;font-variant-numeric:normal;font-feature-settings:normal;text-align:start;writing-mode:lr-tb;text-anchor:start;fill:#ffffff" id="path14" />
         <path d="m 184.16211,167.20039 q 1.51042,-2.76041 3.61979,-4.03646 2.13542,-1.30208 5.39063,-1.30208 4.58333,0 6.74479,2.29167 2.1875,2.26562 2.1875,7.63021 v 18.77604 h -4.71354 v -17.86458 q 0,-2.96875 -0.54688,-4.40105 -0.54687,-1.45833 -1.79687,-2.13541 -1.25,-0.67709 -3.46354,-0.67709 -3.3073,0 -5.3125,2.29167 -1.97917,2.29167 -1.97917,6.17188 v 16.61458 h -4.6875 v -38.64584 h 4.6875 v 10.05209 q 0,1.58854 -0.10417,3.28125 -0.0781,1.69271 -0.10416,1.95312 z" style="font-style:normal;font-variant:normal;font-weight:normal;font-stretch:normal;font-size:53.33333588px;font-family:Arial;-inkscape-font-specification:'Arial, Normal';font-variant-ligatures:normal;font-variant-caps:normal;font-variant-numeric:normal;font-feature-settings:normal;text-align:start;writing-mode:lr-tb;text-anchor:start;fill:#ffffff" id="path16" />
         <path d="m 212.78191,177.46081 q 0,4.84375 2.0052,7.47396 2.00521,2.63021 5.85938,2.63021 3.04688,0 4.86979,-1.22396 1.84896,-1.22396 2.5,-3.09896 l 4.11459,1.17188 q -2.52605,6.66666 -11.48438,6.66666 -6.25,0 -9.53125,-3.72396 -3.25521,-3.72395 -3.25521,-11.0677 0,-6.97917 3.25521,-10.70313 3.28125,-3.72396 9.34896,-3.72396 12.42187,0 12.42187,14.97396 v 0.625 z m 15.26041,-3.59375 q -0.39062,-4.45312 -2.26562,-6.48438 -1.875,-2.05729 -5.39063,-2.05729 -3.41145,0 -5.41666,2.29167 -1.97917,2.26563 -2.13542,6.25 z" style="font-style:normal;font-variant:normal;font-weight:normal;font-stretch:normal;font-size:53.33333588px;font-family:Arial;-inkscape-font-specification:'Arial, Normal';font-variant-ligatures:normal;font-variant-caps:normal;font-variant-numeric:normal;font-feature-settings:normal;text-align:start;writing-mode:lr-tb;text-anchor:start;fill:#ffffff" id="path18" />
         <path d="m 238.97982,190.55977 v -21.61458 q 0,-2.96876 -0.15625,-6.56251 h 4.42709 q 0.20833,4.79167 0.20833,5.75521 h 0.10417 q 1.11979,-3.61979 2.57812,-4.94791 1.45834,-1.32813 4.11459,-1.32813 0.9375,0 1.90104,0.26042 v 4.29687 q -0.9375,-0.26041 -2.5,-0.26041 -2.91667,0 -4.45313,2.52604 -1.53646,2.5 -1.53646,7.1875 v 14.6875 z" style="font-style:normal;font-variant:normal;font-weight:normal;font-stretch:normal;font-size:53.33333588px;font-family:Arial;-inkscape-font-specification:'Arial, Normal';font-variant-ligatures:normal;font-variant-caps:normal;font-variant-numeric:normal;font-feature-settings:normal;text-align:start;writing-mode:lr-tb;text-anchor:start;fill:#ffffff" id="path20" />
         <path d="m 273.09441,190.55977 v -17.86458 q 0,-4.08855 -1.11979,-5.65105 -1.1198,-1.5625 -4.03646,-1.5625 -2.99479,0 -4.73959,2.29167 -1.74479,2.29167 -1.74479,6.45833 v 16.32813 h -4.66146 v -22.16146 q 0,-4.92188 -0.15625,-6.01563 h 4.42709 q 0.026,0.13021 0.0521,0.70313 0.026,0.57292 0.0521,1.32812 0.0521,0.72917 0.10417,2.78646 h 0.0781 q 1.51042,-2.99479 3.46355,-4.16666 1.95312,-1.17188 4.76562,-1.17188 3.20313,0 5.05209,1.27604 1.875,1.27604 2.60416,4.0625 h 0.0781 q 1.45833,-2.83854 3.51562,-4.08854 2.08334,-1.25 5.02604,-1.25 4.27084,0 6.19792,2.31771 1.95313,2.31771 1.95313,7.60417 v 18.77604 h -4.63542 v -17.86458 q 0,-4.08855 -1.11979,-5.65105 -1.11979,-1.5625 -4.03646,-1.5625 -3.07292,0 -4.79167,2.29167 -1.69271,2.26563 -1.69271,6.45833 v 16.32813 z" style="font-style:normal;font-variant:normal;font-weight:normal;font-stretch:normal;font-size:53.33333588px;font-family:Arial;-inkscape-font-specification:'Arial, Normal';font-variant-ligatures:normal;font-variant-caps:normal;font-variant-numeric:normal;font-feature-settings:normal;text-align:start;writing-mode:lr-tb;text-anchor:start;fill:#ffffff" id="path22" />
         <path d="m 324.99545,176.44519 q 0,7.39583 -3.2552,11.01562 -3.25521,3.61979 -9.45313,3.61979 -6.17188,0 -9.32292,-3.75 -3.15104,-3.77604 -3.15104,-10.88541 0,-14.58334 12.63021,-14.58334 6.45833,0 9.50521,3.56771 3.04687,3.54167 3.04687,11.01563 z m -4.92187,0 q 0,-5.83334 -1.74479,-8.46355 -1.71875,-2.65625 -5.80729,-2.65625 -4.11459,0 -5.96355,2.70834 -1.82291,2.68229 -1.82291,8.41146 0,5.57291 1.79687,8.38541 1.82292,2.78646 5.70313,2.78646 4.21875,0 6.01562,-2.70833 1.82292,-2.70834 1.82292,-8.46354 z" style="font-style:normal;font-variant:normal;font-weight:normal;font-stretch:normal;font-size:53.33333588px;font-family:Arial;-inkscape-font-specification:'Arial, Normal';font-variant-ligatures:normal;font-variant-caps:normal;font-variant-numeric:normal;font-feature-settings:normal;text-align:start;writing-mode:lr-tb;text-anchor:start;fill:#ffffff" id="path24" />
      </g>
   </g>
</svg>