<svg id="Layer_1" data-name="Layer 1" xmlns="http://www.w3.org/2000/svg" viewBox="0 0 343.38 151.26"><defs><style>.cls-1{fill:#fff;}</style></defs><title>LG CI_2D_Standard_One color</title><path class="cls-1" d="M305.53,271a9.65,9.65,0,1,1-9.66-9.65,9.66,9.66,0,0,1,9.66,9.65m33.14,50.77v7.08H316.43V261.35h7.19v60.38Zm26.53,18.54A63.89,63.89,0,1,1,320,231.21l3.59,0v7.08l-3.59-.05a56.82,56.82,0,1,0,56.68,60.63s0-.1,0-.22H338.67v-7.05h45.24v3.46a63.5,63.5,0,0,1-18.71,45.18M320,219.49a75.63,75.63,0,1,0,75.63,75.62A75.63,75.63,0,0,0,320,219.49" transform="translate(-244.39 -219.49)"/><polygon class="cls-1" points="207.67 26.33 185.08 26.33 185.08 124.11 254.47 124.11 254.47 105.07 207.67 105.07 207.67 26.33"/><path class="cls-1" d="M548.56,306.32H567v17.1A51.72,51.72,0,0,1,550.66,326c-20.34,0-27.12-10.34-27.12-31.31,0-20,6.45-31.79,26.79-31.79,11.3,0,17.75,3.55,23.07,10.33l14.05-12.91c-8.56-12.26-23.57-16-37.61-16-31.62,0-48.25,17.26-48.25,50.18,0,32.76,15,50.51,48.09,50.51,15.17,0,30-3.88,38.08-9.52V288.09h-39.2Z" transform="translate(-244.39 -219.49)"/></svg>