<?xml version="1.0" encoding="utf-8"?>
<!-- Generator: Adobe Illustrator 24.1.0, SVG Export Plug-In . SVG Version: 6.00 Build 0)  -->
<svg version="1.1" id="Layer_1" xmlns="http://www.w3.org/2000/svg" xmlns:xlink="http://www.w3.org/1999/xlink" x="0px" y="0px"
	 viewBox="0 0 841.9 530" style="enable-background:new 0 0 841.9 530;" xml:space="preserve">
<style type="text/css">
	.Arched_x0020_Green{fill:url(#SVGID_1_);stroke:#FFFFFF;stroke-width:0.25;stroke-miterlimit:1;}
	.st0{fill:#E53B30;}
	.st1{fill:#666666;}
</style>
<linearGradient id="SVGID_1_" gradientUnits="userSpaceOnUse" x1="0" y1="595.2803" x2="0.7071" y2="594.5732">
	<stop  offset="0" style="stop-color:#1EAB4B"/>
	<stop  offset="0.9831" style="stop-color:#19361A"/>
</linearGradient>
<g>
	<path class="st0" d="M664,96.8c3.8,0,7,3.3,7.4,7.5c0,0.5,0,4.9,0.1,5.8c0.3,4.3,2.7,8,6.3,10.1c1.8,1.1,3.9,1.7,6,1.7
		c0.3,0,0.6,0,0.9,0c0.4,0,4-0.1,4-0.1c3.9,0.1,7,3.3,7.4,7.6c0,0,0.4,5.7,0.5,5.9c0.6,6.9,6.4,12.2,12.9,11.6c3-0.3,5.8-1.7,7.8-4
		c2.2-2.6,3.3-6,3-9.5c-0.5-6.2-5.3-11.2-11.3-11.6l-5.6-0.2c-4-0.1-7.3-3.3-7.6-7.3c-0.1-0.5-0.3-5.2-0.3-5.9
		c-0.3-3.4-1.8-6.5-4.3-8.6c-1.9-1.7-4.1-2.8-6.5-3.1c-0.8-0.1-1.6-0.1-2.5-0.1c-0.8,0-3.6,0-3.6,0h0c-4-0.1-7.2-3.3-7.5-7.4l-0.6-6
		c-0.4-5.9-4.9-10.8-10.4-11.5c-0.8-0.1-1.7-0.2-2.5-0.1c-5.9,0.4-10.5,5.5-10.8,11.8l-0.1,6c0,4.3-2.9,7.7-6.4,8
		c-0.5,0-4.9,0.2-5.5,0.2c-3.2,0.2-6.2,1.9-8.1,4.5c-1.5,1.9-2.5,4.3-2.7,6.7c-0.1,0.9-0.1,1.8,0,2.6c0,0.4,0,4,0,4
		c0,4.3-2.9,7.7-6.5,8l-5.5,0.5c-5.5,0.4-9.8,4.5-10.6,10c-0.1,0.8-0.2,2.6-0.2,3.1l-0.1,5.3c0,4.2-2.9,7.6-6.7,8
		c-0.3,0-1.5-0.1-2.7-0.1c-1.3,0-2.2,0.1-2.8,0.1c-4.2,0.6-7.6,3-9.3,6.6c-1.2,2.2-1.7,4.7-1.5,7.2c0,0.4,0.1,4.3,0.1,4.3
		c0.1,4.2-2.8,7.6-6.7,7.9c-3.1,0.1-9.7,0.3-9.7,0.3c-3.9,0-7.1-3.3-7.4-7.5l-0.1-1.9c0-0.4,0-1.1,0-1.7c0-0.8,0-1.5,0-2.1
		c-0.3-4.3-2.7-8.1-6.3-10.1c-2.1-1.3-4.6-1.9-6.9-1.7l-0.4,0c-0.3,0-0.8,0-1,0.1l-2.6,0c-3.9,0-7-3.3-7.4-7.6l-0.4-5.4v-0.5
		c-0.6-6.8-6.4-12.1-12.9-11.6c-3,0.2-5.8,1.7-7.8,4c-2.2,2.6-3.3,6-3,9.5c0.5,6.2,5.4,11.2,11.3,11.6l5.6,0.2
		c3.9,0.1,7.2,3.3,7.5,7.2l0.2,4.5c0,0.5,0,1,0.1,1.4c0.3,3.4,1.8,6.5,4.3,8.6c1.8,1.7,4,2.7,6.3,3.1c0.9,0.1,1.6,0.2,2.6,0.1h3.6
		c4,0.1,7.2,3.3,7.5,7.3l0.5,6c0.5,6,4.9,10.8,10.5,11.6c0.6,0.1,1.2,0.1,1.7,0.1c0.2,0,0.5,0,0.8,0c5.9-0.4,10.5-5.5,10.7-11.8
		l0.1-6c0-4.3,2.8-7.8,6.5-8.1c0,0,4.9-0.2,5.5-0.2c3.2-0.2,6.1-1.9,8.1-4.5c1.5-1.9,2.5-4.2,2.7-6.7c0.1-0.9,0.1-1.8,0-2.6
		c0-0.3,0-4,0-4c0-4.3,2.9-7.8,6.5-8.1l5.5-0.4c5.4-0.4,9.8-4.5,10.7-9.9c0.1-0.1,0.1-0.2,0.2-2.7v-5.8c-0.1-4.2,2.8-7.6,6.7-7.9
		l1.1-0.1h0.2c0.4,0,0.9,0,1.4,0c1,0,2,0.1,2.5,0c4.1-0.3,7.6-2.8,9.4-6.6c1-2,1.6-4.4,1.5-7.2c0-1.6-0.1-4.4-0.1-4.4
		c0-4.2,2.9-7.6,6.7-7.9C654.3,97.1,661.9,96.8,664,96.8"/>
	<path class="st0" d="M591.6,103.8c3.8-0.4,6.6-3.8,6.5-8.2c0,0,0-4-0.1-4.4c-0.2-2.6,0.3-5.1,1.4-7.4c1.8-3.9,5.4-6.5,9.4-6.8
		c0.2,0,0.7-0.1,4.1-0.1h1.1c3.7-0.4,6.6-3.8,6.5-8.1l0.1-6c0-6.7,4.6-12.1,10.6-12.5c6.4-0.5,12.2,4.9,12.7,11.9
		c0.1,0.9,0.1,1.8,0,2.6c-0.5,6.1-5,10.9-10.6,11.3l-5.5,0.4c-3.6,0.3-6.3,3.8-6.4,8.3c0,0,0,3.7,0.1,4.1c0.1,0.9,0,1.8-0.1,2.7
		c-0.2,2.5-1.1,4.9-2.7,6.8c-2,2.7-4.9,4.4-8.1,4.6c-0.6,0.1-4.9,0.2-5.4,0.3c-3.6,0.2-6.2,3.8-6.3,8.2l-0.1,6.2
		c-0.3,6.5-4.8,11.7-10.6,12.2c-0.3,0-0.5,0-0.8,0c-0.5,0-1.1,0-1.7-0.1c-5.5-0.8-9.9-5.7-10.3-11.9l-0.5-6.2
		c-0.3-4.1-3.5-7.4-7.4-7.5l-3.3-0.1c-0.4,0-1.1,0-1.5,0c-0.6,0-1,0-1.3-0.1c-2.3-0.3-4.5-1.4-6.3-3.2c-2.4-2.2-3.9-5.4-4.2-8.9
		c-0.1-0.7-0.3-5.5-0.3-6c-0.4-4.1-3.7-7.7-7.6-7.9l-5.5-0.3c-5.8-0.4-10.6-5.5-11.1-11.9c-0.3-3.6,0.8-7.2,3-9.8
		c2-2.3,4.7-3.8,7.6-4c0.3,0,0.6,0,0.9,0c6.1,0,11.3,5.3,11.8,12c0,0.3,0.5,6,0.5,6c0.4,4.4,3.7,8.2,7.4,8.2c0,0,3.5,0,3.9-0.1
		c0.2,0,0.5,0,0.8,0c2.1,0,4.2,0.6,6,1.9c3.5,2,5.8,5.9,6.2,10.3c0.1,0.9,0.1,5.4,0.2,6c0.3,4.3,3.5,7.6,7.2,7.6
		C582.1,104,588.1,104,591.6,103.8"/>
	<path class="st0" d="M520.5,102c3.8,0.1,7.8,4.5,8.2,8.7c0,0.5,0.1,5,0.1,5.9c0.4,4.4,2.7,8.2,6.3,10.3c1.8,1.2,3.9,1.8,6,1.8
		c0.3,0,0.6,0,0.8,0c0.4,0,3.9-0.1,3.9-0.1c3.8,0.1,6.9,3.4,7.3,7.8c0,0,0.4,5.6,0.4,6c0.6,7,6.3,12.5,12.8,11.9
		c6.5-0.5,11.3-6.8,10.7-13.9c-0.5-6.4-5.3-11.5-11.2-11.9l-5.6-0.3c-3.8-0.1-7-3.4-7.4-7.5c0-0.6-0.2-5.4-0.3-6
		c-0.3-3.5-1.8-6.6-4.2-8.9c-1.8-1.7-4-2.8-6.3-3.2c-0.8-0.1-1.8-0.2-2.5-0.1h-0.3c-1,0-3.3,0-3.3,0h-0.1c-3.9-0.1-7.9-4.5-8.3-8.6
		L527,88c-0.5-6.1-4.9-11.1-10.4-11.9c-0.6-0.1-1.1-0.1-1.6-0.1c-0.3,0-0.6,0-0.9,0c-5.8,0.5-10.4,5.7-10.6,12.1l-0.2,6.2
		c0,4.4-2.7,7.9-6.3,8.2c-0.4,0-4.8,0.1-5.4,0.2c-3.3,0.3-6.1,1.9-8.1,4.7c-1.5,2-2.4,4.4-2.6,6.9c-0.1,0.9-0.1,1.8,0,2.7
		c0.5,7,6.3,12.5,12.8,11.9c4-0.3,7.6-2.9,9.4-6.8c1.1-2.3,1.6-4.8,1.4-7.4c0-0.4-0.1-4.4-0.1-4.4c-0.1-4.3,2.8-7.8,6.6-8.1
		C510.9,102.2,516.5,101.9,520.5,102"/>
	<path class="st0" d="M643.2,169.6c3.8,0,6.9,3.4,7.3,7.6c0,0.5,0.1,5,0.1,6c0.4,4.4,2.7,8.3,6.2,10.3c1.8,1.2,3.9,1.8,6,1.8
		c0.3,0,0.6,0,0.8,0c0.4,0,3.9,0,3.9,0c3.8,0,7.4,3.7,7.8,8.1c0,0,0.4,5.8,0.5,6c0.5,6.7,5.7,12,11.8,12c0.3,0,0.6,0,0.9-0.1
		c2.9-0.2,5.6-1.7,7.6-4c2.2-2.7,3.3-6.2,3-9.9c-0.5-6.4-5.4-11.5-11.2-11.9l-5.5-0.3c-3.8-0.2-7.5-3.7-7.8-7.8c0-0.5-0.3-5.3-0.3-6
		c-0.3-3.4-1.8-6.6-4.2-8.8c-1.8-1.8-4-2.8-6.3-3.2c-0.3,0-0.8-0.1-1.4-0.1c-0.4,0-1.1,0.1-1.5,0.1l-3.2-0.1
		c-3.9-0.1-7.1-3.4-7.4-7.6l-0.5-6.1c-0.5-6.1-4.9-11.1-10.3-11.9c-0.6-0.1-1.1-0.2-1.6-0.2c-0.3,0-0.6,0-0.9,0
		c-5.8,0.5-10.3,5.7-10.6,12.2l-0.1,6.2c0,4.4-2.8,8-6.3,8.2c-0.5,0-4.8,0.2-5.4,0.2c-3.2,0.3-6.1,1.9-8,4.7
		c-1.6,1.9-2.5,4.3-2.7,6.8c-0.1,0.9-0.1,1.9-0.1,2.7c0,0.4,0,4.2,0,4.2c0,4.4-2.8,7.9-6.3,8.2l-5.5,0.4
		c-5.6,0.5-10.1,5.3-10.6,11.4c-0.1,0.9-0.1,1.8,0,2.7c0.6,7,6.3,12.5,12.7,11.9c6-0.5,10.5-5.9,10.6-12.5l0-6
		c0-4.3,2.8-7.8,6.5-8.2h1.1c3.4,0,4,0,4.2,0c4-0.3,7.5-2.9,9.3-6.8c1.2-2.3,1.6-4.8,1.5-7.4c0-0.4-0.1-4.4-0.1-4.4
		c-0.1-4.3,2.8-7.8,6.6-8.2C633.8,169.8,636.8,169.5,643.2,169.6"/>
	<path class="st0" d="M714,171.7c3.8-0.3,6.6-3.8,6.5-8.1c0,0-0.1-4-0.1-4.4c-0.2-2.5,0.3-5.1,1.4-7.4c1.8-3.8,5.3-6.4,9.3-6.7
		c6.4-0.5,12.1,4.9,12.6,11.9c0.1,0.9,0.1,1.8,0,2.6c-0.2,2.5-1.1,4.9-2.6,6.8c-2,2.7-4.9,4.3-8,4.6c-0.7,0.1-4.9,0.2-5.4,0.2
		c-3.5,0.3-6.2,3.8-6.2,8.2l-0.1,6.1c-0.2,6.4-4.8,11.6-10.5,12.1c-0.3,0-0.6,0-0.8,0c-0.6,0-1.1,0-1.6-0.1
		c-5.4-0.7-9.8-5.7-10.4-11.8l-0.4-6.1c-0.3-4.1-4.4-8.5-8.2-8.6c0,0-2.3,0-3.3,0h-0.3c-0.7,0.1-1.6,0-2.4-0.1
		c-2.3-0.3-4.5-1.4-6.3-3.1c-2.4-2.2-3.9-5.4-4.2-8.8c0-0.7-0.3-5.5-0.3-6c-0.3-4.1-3.4-7.3-7.3-7.4l-5.5-0.3
		c-5.8-0.4-10.5-5.5-11.1-11.8c-0.6-7,4.2-13.3,10.5-13.8c6.5-0.5,12.1,4.9,12.7,11.9c0,0.4,0.4,6,0.4,6c0.4,4.4,3.5,7.7,7.2,7.7
		c0,0,3.5,0,3.9,0c0.2,0,0.6,0,0.8,0c2.1,0,4.1,0.6,6,1.8c3.5,2.1,5.8,5.9,6.1,10.3c0.1,0.9,0.2,5.4,0.2,5.9
		c0.3,4.2,4.4,8.6,8.1,8.7C704.5,172,711.4,171.8,714,171.7"/>
	<path class="st0" d="M455.4,148c0.6,6.8,6.3,12.1,12.9,11.6c3.2-0.3,6.1-1.8,8.1-4.4c2-2.5,3-5.7,2.6-9c-0.5-6.5-5.8-11.6-12-11.6
		c-0.3,0-0.6,0-0.9,0C459.7,135.1,454.8,141.1,455.4,148"/>
	<path class="st0" d="M746.1,128.1c0.6,6.9,6.3,12.1,12.9,11.6c3.2-0.2,6.1-1.8,8.2-4.4c1.9-2.6,2.9-5.7,2.6-9.1
		c-0.5-6.5-5.8-11.6-12-11.6c-0.3,0-0.6,0.1-0.9,0.1C750.4,115.1,745.5,121.2,746.1,128.1"/>
</g>
<g>
	<polygon class="st1" points="154.2,431.7 163.2,431.7 182.1,376 173.5,376 159.3,421.3 159.1,421.3 143.8,376 134,376 119.1,421.3 
		118.9,421.3 104.6,376 95.6,376 114,431.7 123.1,431.7 138.5,385.5 138.7,385.5 	"/>
	<rect x="207" y="376" class="st1" width="8.3" height="55.8"/>
	<path class="st1" d="M247.1,376h34.5c11.2,0,15.2,7.7,15.2,14.8c0,6.8-3.3,11.8-9.4,13.7v0.2c4.9,0.7,7.8,5.3,8.1,11.9
		c0.5,10.4,0.8,13,2.7,15.2h-8.8c-1.3-1.6-1.3-3.9-1.7-10.6c-0.5-10-3.9-13-10.8-13h-21.7v23.7h-8.3V376z M278.5,400.9
		c8.1,0,10.1-4.9,10.1-8.8c0-5.3-3.2-8.9-9.8-8.9h-23.4v17.7H278.5z"/>
	<polygon class="st1" points="324.9,431.7 370.5,431.7 370.5,424.5 333.1,424.5 333.1,406.5 368.6,406.5 368.6,399.3 333.1,399.3 
		333.1,383.2 369.7,383.2 369.7,376 324.9,376 	"/>
	<polygon class="st1" points="398.9,431.7 441.1,431.7 441.1,424.5 407.2,424.5 407.2,376 398.9,376 	"/>
	<polygon class="st1" points="466.6,431.7 512.2,431.7 512.2,424.5 474.8,424.5 474.8,406.5 510.3,406.5 510.3,399.3 474.8,399.3 
		474.8,383.2 511.4,383.2 511.4,376 466.6,376 	"/>
	<path class="st1" d="M543.8,413.4c0.2,10,9.6,12.6,18,12.6c8.8,0,15.1-3.3,15.1-9.4c0-5.1-4-7.2-10.4-8.3l-12.7-2.1
		c-6.7-1.1-16.6-3.7-16.6-14.6c0-10.1,8.1-16.9,22.4-16.9c11.2,0,23,4,23.7,17.5h-8.3c-0.7-4.4-3.2-10.3-16.6-10.3
		c-6.1,0-13,2.6-13,9.1c0,3.4,2.3,6.2,9.1,7.4l13.7,2.3c4.4,0.8,16.8,2.9,16.8,14.3c0,14.2-12.7,18.3-24,18.3
		c-12.6,0-25.6-4.4-25.6-19.8H543.8z"/>
	<path class="st1" d="M614.7,413.4c0.2,10,9.5,12.6,18,12.6c8.8,0,15.1-3.3,15.1-9.4c0-5.1-4-7.2-10.4-8.3l-12.6-2.1
		c-6.6-1.1-16.6-3.7-16.6-14.6c0-10.1,8.1-16.9,22.4-16.9c11.2,0,23,4,23.8,17.5h-8.3c-0.7-4.4-3.2-10.3-16.6-10.3
		c-6.1,0-13,2.6-13,9.1c0,3.4,2.2,6.2,9.1,7.4l13.7,2.3c4.4,0.8,16.8,2.9,16.8,14.3c0,14.2-12.7,18.3-24,18.3
		c-12.6,0-25.6-4.4-25.6-19.8H614.7z"/>
	<path class="st1" d="M112.8,253.4c13.5,0,40.6,2.4,42.9,27.9h-19.9c-0.6-6.8-6.8-14.1-22.1-14.1c-12.3,0-20.4,3.8-20.4,12
		c0,20.7,65.4,0.9,65.4,38.4c0,22.6-23.5,28.5-42.2,28.5c-31.6,0-44.3-12.4-44.5-30.9h19.9c0.5,11.5,10.1,17.1,25.2,17.1
		c11.2,0,21.6-3.3,21.6-12.9c0-21.8-64.7-2.8-64.7-38.8C74.1,261.1,91.4,253.4,112.8,253.4"/>
	<path class="st1" d="M209.8,255.9c0,0,0,79.8,0,79.8c0,5.1-4.1,9.2-9.2,9.2c-5.1,0-9.2-4.1-9.2-9.2c0-0.1,0-79.8,0-79.8H209.8z"/>
	<path class="st1" d="M313.4,291.8c3.8,0,6.9,3,6.9,6.8c0,3.8-3.1,6.9-6.9,6.9l-46.8,0v24.3h58.8v13.7h-77.2v-87.8h76.2v13.8h-57.8
		v22.1L313.4,291.8z"/>
	<path class="st1" d="M648.4,255.9H627l-33.5,75.4c-0.6,1.5-1.1,2.8-1.1,4.4c0,5.2,3.8,9.4,8.9,9.4c4.2,0,7.4-2.9,8.9-6.5l0.3-0.7
		l6.8-15.9h41.3l9.1,21.8h19.9L648.4,255.9z M622.7,308.2l15-37l15.2,37H622.7z"/>
	<path class="st1" d="M564.6,324.9c0-12.4-2.3-21.5-12.8-23.7v-0.3c8.2-2.6,14.5-9.7,14.5-21.1c0-13.6-7.3-23.9-29.6-23.9h-55.6
		c0,0,0,79.8,0,79.9c0,5.1,4.1,9.2,9.2,9.2c5.1,0,9.2-4.1,9.2-9.2c0-0.1,0-26.7,0-26.7h31.4c13.5,0,15.2,8.8,15.2,21.4
		c0,6.4,0.9,10.8,2.2,13.3h19.9C564.7,338.9,564.6,329,564.6,324.9 M531.4,295.2h-31.8v-25.6h31.8c9.7,0,15.7,3.6,15.7,12.7
		C547.1,292.2,541.6,295.2,531.4,295.2"/>
	<path class="st1" d="M443.7,324.9c0-12.4-2.3-21.5-12.8-23.7v-0.3c8.2-2.6,14.5-9.7,14.5-21.1c0-13.6-7.2-23.9-29.6-23.9h-55.6
		c0,0,0,79.8,0,79.9c0,5.1,4.1,9.2,9.2,9.2c5.1,0,9.2-4.1,9.2-9.2c0-0.1,0-26.7,0-26.7H410c13.5,0,15.2,8.8,15.2,21.4
		c0,6.4,0.9,10.8,2.2,13.3h19.9C443.8,338.9,443.7,329,443.7,324.9 M410.5,295.2h-31.8v-25.6h31.8c9.7,0,15.7,3.6,15.7,12.7
		C426.2,292.2,420.7,295.2,410.5,295.2"/>
	<path class="st1" d="M678.9,383.2c0,4.4-3.5,7.8-7.9,7.8c-4.4,0-8-3.4-8-7.8c0-4.3,3.5-7.7,8-7.7
		C675.4,375.4,678.9,378.9,678.9,383.2 M664.9,383.2c0,3.5,2.5,6.2,6,6.2c3.4,0,5.9-2.7,5.9-6.1c0-3.5-2.5-6.2-5.9-6.2
		C667.5,377,664.9,379.8,664.9,383.2 M669.7,387.2h-1.8v-7.8c0.7-0.1,1.7-0.2,3-0.2c1.5,0,2.1,0.2,2.7,0.6c0.4,0.3,0.8,0.9,0.8,1.7
		c0,0.8-0.7,1.5-1.6,1.8v0.1c0.7,0.3,1.2,0.9,1.4,1.9c0.2,1.2,0.4,1.7,0.6,1.9h-1.9c-0.3-0.3-0.4-1-0.6-1.9
		c-0.1-0.8-0.6-1.2-1.6-1.2h-0.9V387.2z M669.7,382.8h0.9c1,0,1.8-0.3,1.8-1.1c0-0.7-0.5-1.2-1.7-1.2c-0.5,0-0.8,0-1,0.1V382.8z"/>
</g>
</svg>
