<?xml version="1.0" encoding="UTF-8" standalone="no"?>
<!-- Generator: Adobe Illustrator 15.0.2, SVG Export Plug-In  -->

<svg
   xmlns:dc="http://purl.org/dc/elements/1.1/"
   xmlns:cc="http://creativecommons.org/ns#"
   xmlns:rdf="http://www.w3.org/1999/02/22-rdf-syntax-ns#"
   xmlns:svg="http://www.w3.org/2000/svg"
   xmlns="http://www.w3.org/2000/svg"
   xmlns:sodipodi="http://sodipodi.sourceforge.net/DTD/sodipodi-0.dtd"
   xmlns:inkscape="http://www.inkscape.org/namespaces/inkscape"
   version="1.1"
   x="0px"
   y="0px"
   width="194px"
   height="66px"
   overflow="visible"
   enable-background="new -95.2021484 -45.6098633 482 283"
   xml:space="preserve"
   id="svg34"
   sodipodi:docname="logo-iotlab-white.svg"
   inkscape:version="0.92.4 (5da689c313, 2019-01-14)"><metadata
   id="metadata38"><rdf:RDF><cc:Work
       rdf:about=""><dc:format>image/svg+xml</dc:format><dc:type
         rdf:resource="http://purl.org/dc/dcmitype/StillImage" /><dc:title></dc:title></cc:Work></rdf:RDF></metadata><sodipodi:namedview
   pagecolor="#ffffff"
   bordercolor="#666666"
   borderopacity="1"
   objecttolerance="10"
   gridtolerance="10"
   guidetolerance="10"
   inkscape:pageopacity="0"
   inkscape:pageshadow="2"
   inkscape:window-width="1920"
   inkscape:window-height="1016"
   id="namedview36"
   showgrid="false"
   inkscape:zoom="4.8405964"
   inkscape:cx="99.179081"
   inkscape:cy="36.942447"
   inkscape:window-x="0"
   inkscape:window-y="27"
   inkscape:window-maximized="1"
   inkscape:current-layer="svg34"
   inkscape:pagecheckerboard="true" />
<defs
   id="defs2">
</defs>
<polygon
   fill="#20539D"
   points="54.6777344,20.34375 63.3691406,20.34375 63.3691406,12.7841797 54.6777344,12.7841797   54.6777344,9.1103516 63.3691406,9.1103516 63.3691406,1.6738281 46.5429688,1.6738281 46.5429688,31.8242188   54.6777344,31.8242188 "
   id="polygon4"
   style="fill:#ffffff" />
<rect
   x="83.0498047"
   y="1.6738281"
   fill="#20539D"
   width="8.1337891"
   height="30.1503906"
   id="rect6"
   style="fill:#ffffff" />
<polygon
   fill="#20539D"
   points="127.9882812,1.6738281 108.9082031,1.6738281 108.9082031,9.4375 114.3193359,9.4375   114.3193359,31.8242188 122.4541016,31.8242188 122.4541016,9.4375 127.9882812,9.4375 "
   id="polygon8"
   style="fill:#ffffff" />
<rect
   x="46.5839844"
   y="34.6738281"
   fill="#20539D"
   width="8.1347656"
   height="30.1503906"
   id="rect10"
   style="fill:#ffffff" />
<path
   fill="#20539D"
   d="M73.4716797,34.140625c-4.3120117,0-8.0029297,1.4829102-10.9702148,4.4077148  c-2.9516602,2.9091797-4.5766602,6.777832-4.5766602,10.8930664c0,4.4018555,1.4389648,8.1586914,4.2773438,11.1679688  c2.9814453,3.1503906,6.7592773,4.7480469,11.2285156,4.7480469c4.2519531,0,8.1943359-1.6708984,11.0996094-4.7026367  c2.855957-2.9418945,4.3652344-6.7768555,4.3652344-11.090332c0-4.1157227-1.6542969-8.0136719-4.6586914-10.9750977  C81.3256836,35.7207031,77.5029297,34.140625,73.4716797,34.140625z M80.515625,49.5234375  c0,4.3422852-3.0458984,7.6171875-7.0849609,7.6171875c-3.8847656,0-7.1669922-3.4882812-7.1669922-7.6171875  c0-4.0195312,3.184082-7.1679688,7.2490234-7.1679688C77.3740234,42.3554688,80.515625,45.5708008,80.515625,49.5234375z"
   id="path12"
   style="fill:#ffffff" />
<polygon
   fill="#20539D"
   points="89.3466797,42.4375 94.7578125,42.4375 94.7578125,64.8242188 102.8925781,64.8242188   102.8925781,42.4375 108.4277344,42.4375 108.4277344,34.6738281 89.3466797,34.6738281 "
   id="polygon14"
   style="fill:#ffffff" />
<rect
   x="108.5996094"
   y="49.8847656"
   fill="#20539D"
   width="12.0283203"
   height="6.8623047"
   id="rect16"
   style="fill:#ffffff" />
<path
   fill="#20539D"
   d="M152.6865234,34.6728516l-11.3164062,29.472168v-6.7583008h-8.3232422V34.6738281h-8.0927734v30.1503906  h16.1552734h0.2607422h8.6113281l1.4770508-4.2226562h8.9213867l1.4345703,4.2226562h8.9580078l-11.5761719-30.1513672H152.6865234z   M158.1347656,53.5742188h-4.4257812l2.2294922-7.1552734L158.1347656,53.5742188z"
   id="path18"
   style="fill:#ffffff" />
<path
   fill="#20539D"
   d="M188.5078125,48.4750977c2.0410156-1.3481445,2.9638672-3.2797852,2.9638672-6.1274414  c0-4.9487305-3.3818359-7.6738281-9.5205078-7.6738281h-10.4628906v30.1503906h9.3564453  c3.6474609,0,6.6264648-0.1694336,8.9873047-2.3032227c1.9296875-1.7583008,2.9921875-4.3208008,2.9921875-7.2163086  C192.8242188,51.9370117,191.409668,49.6933594,188.5078125,48.4750977z M180.5986328,45.9892578h-1.2226562v-4.2070312h1.8369141  c1.9746094,0,2.7802734,0.6508789,2.7802734,2.2470703C183.9931641,45.300293,183.4521484,45.9892578,180.5986328,45.9892578z   M184.7724609,55.1816406c0,1.9174805-0.8452148,2.5332031-3.4775391,2.5332031h-1.9189453v-5.1503906h1.7958984  C183.9306641,52.5644531,184.7724609,53.1757812,184.7724609,55.1816406z"
   id="path20"
   style="fill:#ffffff" />
<path
   style="fill:#ffffff"
   d="M 20.976562 0 C 9.3916021 0 0 9.3916021 0 20.976562 C 0 32.561523 9.3916021 41.953125 20.976562 41.953125 C 32.561523 41.953125 41.955078 32.561523 41.955078 20.976562 C 41.955078 9.3916021 32.561523 0 20.976562 0 z M 20.976562 1.1328125 C 31.917969 1.1328125 40.820312 10.03418 40.820312 20.976562 C 40.820312 21.336914 40.809563 21.694336 40.789062 22.046875 L 38.503906 21.916016 C 38.522456 21.607422 38.527344 21.291992 38.527344 20.976562 C 38.527344 11.297852 30.655273 3.4238281 20.976562 3.4238281 C 17.231445 3.4238281 13.655273 4.5869141 10.638672 6.7871094 L 9.2871094 4.9394531 C 12.699218 2.4501953 16.743164 1.1328125 20.976562 1.1328125 z M 20.90625 4.7636719 C 29.846679 4.763672 37.117188 12.431641 37.117188 21.859375 L 35.285156 21.859375 C 35.285156 13.443359 28.83496 6.5957031 20.90625 6.5957031 C 17.845703 6.5957031 14.923828 7.5439453 12.455078 9.3398438 L 11.376953 7.8574219 C 14.160156 5.8330078 17.456054 4.7636719 20.90625 4.7636719 z M 20.904297 8.5488281 C 27.763672 8.5488281 33.345703 14.129882 33.345703 20.990234 C 33.345703 21.252929 33.335923 21.513673 33.320312 21.773438 L 31.947266 21.689453 C 31.960936 21.457031 31.970703 21.225585 31.970703 20.990234 C 31.970703 14.887695 27.00586 9.921875 20.904297 9.921875 C 18.542969 9.921875 16.289063 10.657227 14.384766 12.044922 L 13.576172 10.933594 C 15.715821 9.3730465 18.25 8.5488281 20.904297 8.5488281 z M 23.035156 15.539062 L 26.714844 20.039062 L 24.65625 25.478516 L 18.917969 26.416016 L 15.238281 21.914062 L 17.294922 16.476562 L 23.035156 15.539062 z M 22.662109 16.527344 L 17.964844 17.294922 L 16.283203 21.744141 L 19.292969 25.427734 L 23.986328 24.660156 L 25.669922 20.210938 L 22.662109 16.527344 z M 21.037109 17.777344 C 22.530228 17.837091 23.822998 18.937744 24.074219 20.470703 C 24.359375 22.223633 23.174805 23.875 21.419922 24.160156 C 19.669922 24.447266 18.018555 23.257812 17.730469 21.505859 C 17.445313 19.753906 18.634766 18.102539 20.386719 17.816406 C 20.605713 17.78064 20.823807 17.768808 21.037109 17.777344 z M 1.1347656 20.976562 L 3.4257812 20.976562 C 3.4257812 30.654297 11.298829 38.529297 20.976562 38.529297 C 24.601562 38.529297 28.081055 37.43457 31.041016 35.361328 L 32.355469 37.236328 C 29.00879 39.582031 25.075195 40.820312 20.976562 40.820312 C 10.036133 40.820312 1.1347656 31.916992 1.1347656 20.976562 z M 4.6894531 20.976562 L 6.5214844 20.976562 C 6.5214844 28.907228 12.973633 35.357422 20.904297 35.357422 C 23.88379 35.357422 26.743164 34.454102 29.171875 32.746094 L 30.226562 34.244141 C 27.489258 36.168946 24.264649 37.189453 20.904297 37.191406 C 11.962891 37.191406 4.6894531 29.916992 4.6894531 20.976562 z M 8.4628906 20.990234 L 9.8359375 20.990234 C 9.8359375 27.091796 14.801758 32.056641 20.90625 32.056641 C 23.191406 32.056641 25.384766 31.364259 27.251953 30.054688 L 28.041016 31.179688 C 25.942383 32.652344 23.473633 33.429688 20.90625 33.429688 C 14.044922 33.429688 8.4628906 27.850585 8.4628906 20.990234 z "
   id="path22" />




<g
   id="g856" />
</svg>