<?xml version="1.0" encoding="utf-8"?>
<!-- Generator: Adobe Illustrator 16.0.4, SVG Export Plug-In . SVG Version: 6.00 Build 0)  -->
<!DOCTYPE svg PUBLIC "-//W3C//DTD SVG 1.1//EN" "http://www.w3.org/Graphics/SVG/1.1/DTD/svg11.dtd">
<svg version="1.1" id="Ebene_1" xmlns="http://www.w3.org/2000/svg" xmlns:xlink="http://www.w3.org/1999/xlink" x="0px" y="0px"
	 width="122.96px" height="36.553px" viewBox="0 0 122.96 36.553" enable-background="new 0 0 122.96 36.553" xml:space="preserve">
<g>
	<g>
		<path d="M0,18.814h1.088c0.301,0,0.557-0.029,0.766-0.093c0.209-0.062,0.377-0.147,0.502-0.249
			c0.127-0.104,0.217-0.224,0.273-0.366c0.057-0.142,0.084-0.294,0.084-0.456c0-0.155-0.027-0.304-0.084-0.446
			c-0.057-0.142-0.146-0.264-0.273-0.372c-0.125-0.104-0.293-0.188-0.502-0.246c-0.209-0.061-0.465-0.09-0.766-0.09H0V18.814z
			 M-0.678,15.876h1.936c0.676,0,1.211,0.146,1.602,0.44c0.391,0.293,0.586,0.739,0.586,1.333s-0.195,1.042-0.586,1.337
			c-0.391,0.3-0.926,0.447-1.602,0.447H0v3.09h-0.678V15.876z"/>
		<path d="M7.266,18.814h1.201c0.301,0,0.557-0.029,0.766-0.093c0.209-0.062,0.377-0.146,0.502-0.249
			c0.127-0.104,0.217-0.226,0.271-0.366c0.059-0.142,0.086-0.294,0.086-0.456c0-0.155-0.027-0.304-0.086-0.446
			c-0.055-0.142-0.145-0.264-0.271-0.37c-0.125-0.105-0.293-0.189-0.502-0.248c-0.209-0.061-0.465-0.09-0.766-0.09H7.266V18.814z
			 M7.266,22.524H6.59v-6.647h2.045c0.678,0,1.209,0.146,1.602,0.44c0.393,0.293,0.588,0.739,0.588,1.333
			c0,0.463-0.146,0.854-0.438,1.168c-0.291,0.318-0.713,0.499-1.262,0.549l1.914,3.157h-0.826l-1.82-3.09H7.266V22.524z"/>
		<path d="M14.908,20.159h2.883l-1.438-3.494L14.908,20.159z M13.923,22.524h-0.791l2.893-6.647h0.656l2.893,6.647h-0.789
			l-0.732-1.747h-3.398L13.923,22.524z"/>
		<path d="M27.264,17.097c-0.225-0.24-0.494-0.427-0.809-0.566c-0.312-0.137-0.676-0.204-1.088-0.204
			c-0.426,0-0.809,0.077-1.146,0.234c-0.338,0.158-0.623,0.366-0.859,0.628c-0.234,0.265-0.412,0.57-0.539,0.917
			c-0.127,0.348-0.188,0.712-0.188,1.093c0,0.383,0.061,0.747,0.188,1.094c0.127,0.349,0.305,0.651,0.539,0.916
			c0.236,0.262,0.521,0.473,0.859,0.629s0.721,0.236,1.146,0.236c0.344,0,0.676-0.043,0.99-0.127c0.316-0.086,0.6-0.2,0.85-0.343
			v-2.226h-1.586V18.76h2.264v3.256c-0.375,0.218-0.787,0.385-1.236,0.501c-0.447,0.117-0.873,0.175-1.281,0.175
			c-0.492,0-0.953-0.087-1.377-0.264c-0.422-0.175-0.785-0.417-1.098-0.728c-0.309-0.308-0.553-0.677-0.729-1.104
			c-0.174-0.424-0.262-0.892-0.262-1.398s0.088-0.972,0.262-1.398c0.176-0.427,0.42-0.793,0.729-1.104
			c0.312-0.31,0.676-0.552,1.098-0.727c0.424-0.175,0.885-0.265,1.377-0.265c0.533,0,0.99,0.075,1.377,0.224
			c0.385,0.146,0.727,0.37,1.027,0.67L27.264,17.097z"/>
		<polygon points="34.812,21.284 37.057,15.875 38.088,15.875 38.088,22.524 37.412,22.524 37.412,16.777 37.395,16.777 
			34.99,22.524 34.635,22.524 32.23,16.777 32.211,16.777 32.211,22.524 31.537,22.524 31.537,15.876 32.568,15.876 		"/>
		<path d="M42.635,20.159h2.881l-1.436-3.494L42.635,20.159z M41.648,22.524h-0.789l2.891-6.647h0.656l2.893,6.647H46.51
			l-0.732-1.747h-3.398L41.648,22.524z"/>
		<polygon points="51.57,22.524 50.895,22.524 50.895,16.496 48.668,16.496 48.668,15.876 53.795,15.876 53.795,16.496 
			51.57,16.496 		"/>
		<rect x="56.703" y="15.876" width="0.68" height="6.646"/>
		<path d="M66.543,21.469c-0.111,0.17-0.25,0.33-0.416,0.48c-0.166,0.148-0.355,0.279-0.566,0.389
			c-0.213,0.111-0.441,0.196-0.691,0.259c-0.246,0.063-0.508,0.095-0.785,0.095c-0.494,0-0.952-0.087-1.375-0.264
			c-0.422-0.175-0.787-0.417-1.098-0.728c-0.311-0.308-0.553-0.677-0.727-1.104c-0.178-0.424-0.264-0.892-0.264-1.398
			s0.086-0.972,0.264-1.398c0.174-0.427,0.416-0.793,0.727-1.104c0.311-0.31,0.676-0.552,1.098-0.727
			c0.424-0.176,0.881-0.265,1.375-0.265c0.414,0,0.828,0.082,1.24,0.244c0.414,0.162,0.766,0.434,1.062,0.809l-0.594,0.439
			c-0.068-0.105-0.162-0.211-0.281-0.316c-0.119-0.107-0.254-0.201-0.406-0.281c-0.156-0.084-0.32-0.147-0.494-0.198
			c-0.176-0.05-0.352-0.074-0.527-0.074c-0.426,0-0.807,0.076-1.145,0.233c-0.338,0.155-0.623,0.366-0.857,0.63
			c-0.238,0.263-0.414,0.568-0.541,0.917c-0.125,0.346-0.189,0.71-0.189,1.091c0,0.382,0.064,0.747,0.189,1.096
			c0.127,0.347,0.303,0.652,0.541,0.914c0.234,0.262,0.52,0.473,0.857,0.628c0.338,0.157,0.719,0.237,1.145,0.237
			c0.176,0,0.35-0.017,0.523-0.048c0.17-0.032,0.34-0.084,0.506-0.16s0.322-0.176,0.469-0.307c0.146-0.125,0.285-0.287,0.41-0.482
			L66.543,21.469z"/>
		<polygon points="69.18,15.875 71.395,15.875 72.924,20.211 72.944,20.211 74.487,15.875 76.692,15.875 76.692,22.524 
			75.225,22.524 75.225,17.424 75.206,17.424 73.461,22.524 72.344,22.524 70.663,17.424 70.647,17.424 70.647,22.524 69.18,22.524 
					"/>
		<rect x="79.899" y="15.875" width="1.467" height="6.648"/>
		<polygon points="84.579,15.875 86.565,15.875 89.395,20.493 89.411,20.493 89.411,15.875 90.877,15.875 90.877,22.524 
			88.963,22.524 86.061,17.79 86.042,17.79 86.042,22.524 84.579,22.524 		"/>
		<path d="M95.571,21.17h0.76c0.338,0,0.652-0.035,0.947-0.104c0.289-0.068,0.541-0.184,0.752-0.344
			c0.213-0.158,0.383-0.369,0.504-0.627c0.121-0.26,0.184-0.578,0.184-0.953c0-0.326-0.062-0.609-0.184-0.85
			c-0.121-0.242-0.289-0.439-0.494-0.596c-0.205-0.158-0.449-0.275-0.725-0.352c-0.281-0.08-0.572-0.119-0.881-0.119h-0.863V21.17z
			 M94.108,15.875h2.195c0.531,0,1.039,0.061,1.516,0.178c0.479,0.121,0.898,0.311,1.252,0.578c0.357,0.268,0.643,0.613,0.852,1.037
			s0.318,0.941,0.318,1.549c0,0.539-0.105,1.014-0.311,1.424c-0.201,0.408-0.479,0.754-0.82,1.033
			c-0.344,0.277-0.738,0.488-1.191,0.633c-0.451,0.144-0.922,0.217-1.418,0.217h-2.393V15.875z"/>
		<path d="M106.393,17.499c-0.115-0.15-0.279-0.258-0.48-0.332c-0.203-0.072-0.395-0.109-0.576-0.109
			c-0.109,0-0.219,0.014-0.33,0.039c-0.115,0.025-0.219,0.064-0.32,0.117c-0.1,0.053-0.182,0.123-0.242,0.211
			c-0.062,0.09-0.096,0.193-0.096,0.318c0,0.201,0.076,0.354,0.227,0.461s0.34,0.197,0.566,0.271
			c0.229,0.076,0.473,0.15,0.738,0.227c0.264,0.074,0.508,0.182,0.738,0.318c0.227,0.139,0.414,0.324,0.564,0.553
			c0.15,0.232,0.225,0.543,0.225,0.93c0,0.371-0.064,0.693-0.205,0.967c-0.139,0.277-0.322,0.504-0.561,0.686
			c-0.232,0.18-0.506,0.318-0.816,0.405c-0.307,0.089-0.637,0.13-0.979,0.13c-0.434,0-0.834-0.065-1.203-0.196
			c-0.367-0.13-0.713-0.345-1.033-0.638l1.043-1.145c0.15,0.199,0.342,0.354,0.568,0.465c0.229,0.107,0.465,0.164,0.709,0.164
			c0.119,0,0.238-0.016,0.359-0.045c0.123-0.027,0.232-0.068,0.332-0.127c0.094-0.055,0.172-0.127,0.232-0.213
			c0.061-0.09,0.09-0.193,0.09-0.311c0-0.201-0.078-0.361-0.23-0.475c-0.152-0.117-0.346-0.215-0.576-0.297s-0.482-0.162-0.75-0.244
			c-0.271-0.08-0.521-0.191-0.754-0.328c-0.23-0.139-0.424-0.318-0.578-0.545c-0.15-0.227-0.229-0.523-0.229-0.893
			c0-0.355,0.072-0.668,0.213-0.938s0.324-0.494,0.562-0.676c0.234-0.18,0.506-0.316,0.811-0.41c0.311-0.09,0.625-0.135,0.949-0.135
			c0.377,0,0.74,0.053,1.088,0.16c0.352,0.105,0.666,0.285,0.947,0.535L106.393,17.499z"/>
	</g>
	<g>
		<polygon points="108.625,9.41 103.263,4.846 104.176,8.659 		"/>
		<polygon points="107.283,0.934 103.235,4.045 109.147,9.077 		"/>
		<polygon points="113.988,5.766 115.859,11.654 117.739,0.811 		"/>
		<polygon points="113.228,5.732 107.956,1.223 109.801,9.283 		"/>
		<polygon points="122.96,8.583 118.388,0.521 116.342,12.33 		"/>
		<polygon points="108.211,0.661 113.614,5.284 117.608,0 		"/>
		<polygon points="122.495,9.531 116.314,13.028 117.856,16.934 		"/>
		<polygon points="113.647,6.64 111.632,12.298 115.53,12.57 		"/>
		<polygon points="110.003,9.925 111.157,11.874 112.921,6.899 		"/>
	</g>
</g>
</svg>
