<svg id="logo" xmlns="http://www.w3.org/2000/svg" viewBox="0 0 442.25 77.99"><defs><style>.cls-1{fill:#2a8fce;}</style></defs><title>Eurotech_Logo_Blu</title><path class="cls-1" d="M333,263.27H310v13.1H329.1v9.29H310v13.8h24.43v9.3H299V254H333Z" transform="translate(-203.18 -241.79)"/><path class="cls-1" d="M378.1,254v37.88c0,11.26-7.75,17.74-19.29,17.74s-19.29-6.48-19.29-17.74V254h11v34.36c0,9.15,2.75,12,8.31,12s8.3-2.82,8.3-12V254Z" transform="translate(-203.18 -241.79)"/><path class="cls-1" d="M408.37,254c12.61,0,17.53,9,17.53,16a15,15,0,0,1-9.29,13.8l10.91,25H416L406.12,286h-8.38v22.75h-11V254Zm-5.84,22.74c4.79,0,12.11.28,12.11-6.55,0-7.53-7.39-6.9-12.82-6.9h-4.08v13.45Z" transform="translate(-203.18 -241.79)"/><path class="cls-1" d="M474.49,281.37c0,13.8-7,28.23-22.61,28.23s-22.6-14.43-22.6-28.23,7-28.23,22.6-28.23S474.49,267.57,474.49,281.37Zm-33.94,0c0,7,1.9,19.57,11.33,19.57s11.34-12.53,11.34-19.57-1.9-19.57-11.34-19.57S440.55,274.33,440.55,281.37Z" transform="translate(-203.18 -241.79)"/><path class="cls-1" d="M512.92,263.27H498.7v45.49h-11V263.27H473.5V254h39.42Z" transform="translate(-203.18 -241.79)"/><path class="cls-1" d="M552.71,263.27h-23.1v13.1h19.15v9.29H529.61v13.8H554v9.3H518.63V254h34.08Z" transform="translate(-203.18 -241.79)"/><path class="cls-1" d="M598.82,291.51c-1.69,11.26-9.22,18.09-20.63,18.09-15.63,0-22.6-14.43-22.6-28.23s7-28.23,22.6-28.23c11.27,0,18.8,6.47,20.63,18.09l-10.42,1.41c-1-5.71-3.59-10.84-10.21-10.84-9.43,0-11.33,12.53-11.33,19.57s1.9,19.57,11.33,19.57c6.55,0,9.16-5.14,10.21-10.77Z" transform="translate(-203.18 -241.79)"/><path class="cls-1" d="M634.44,275.38V254h11v54.78h-11V284.68H616.35v24.08h-11V254h11v21.4Z" transform="translate(-203.18 -241.79)"/><polygon class="cls-1" points="25.51 22.22 25.51 25.4 37.41 25.4 40.43 28.47 51.97 28.47 51.97 19.1 40.43 19.1 37.41 22.22 25.51 22.22"/><polygon class="cls-1" points="25.51 52.56 25.51 55.75 37.41 55.75 40.43 58.82 51.97 58.82 51.97 49.44 40.43 49.44 37.41 52.56 25.51 52.56"/><polygon class="cls-1" points="25.51 37.41 25.51 40.6 37.41 40.6 40.43 43.68 51.97 43.68 51.97 34.3 40.43 34.3 37.41 37.41 25.51 37.41"/><path class="cls-1" d="M278,280.79A35.79,35.79,0,1,1,242.18,245,35.83,35.83,0,0,1,278,280.79Zm-35.78-39a39,39,0,1,0,39,39A39,39,0,0,0,242.18,241.79Z" transform="translate(-203.18 -241.79)"/></svg>