<?xml version="1.0" encoding="UTF-8" standalone="no"?>
<svg
   xmlns:dc="http://purl.org/dc/elements/1.1/"
   xmlns:cc="http://creativecommons.org/ns#"
   xmlns:rdf="http://www.w3.org/1999/02/22-rdf-syntax-ns#"
   xmlns:svg="http://www.w3.org/2000/svg"
   xmlns="http://www.w3.org/2000/svg"
   xmlns:sodipodi="http://sodipodi.sourceforge.net/DTD/sodipodi-0.dtd"
   xmlns:inkscape="http://www.inkscape.org/namespaces/inkscape"
   id="Layer_1"
   data-name="Layer 1"
   viewBox="0 0 720 604.52"
   version="1.1"
   sodipodi:docname="logo-ryracing-white.svg"
   inkscape:version="0.92.4 5da689c313, 2019-01-14">
  <metadata
     id="metadata17">
    <rdf:RDF>
      <cc:Work
         rdf:about="">
        <dc:format>image/svg+xml</dc:format>
        <dc:type
           rdf:resource="http://purl.org/dc/dcmitype/StillImage" />
        <dc:title>RYRacing-Logo-Black-CMYK</dc:title>
      </cc:Work>
    </rdf:RDF>
  </metadata>
  <sodipodi:namedview
     pagecolor="#ffffff"
     bordercolor="#666666"
     borderopacity="0.60784314"
     objecttolerance="10"
     gridtolerance="10"
     guidetolerance="10"
     inkscape:pageopacity="0"
     inkscape:pageshadow="2"
     inkscape:window-width="1920"
     inkscape:window-height="1027"
     id="namedview15"
     showgrid="false"
     inkscape:zoom="1.1041964"
     inkscape:cx="571.4542"
     inkscape:cy="264.60496"
     inkscape:window-x="0"
     inkscape:window-y="169"
     inkscape:window-maximized="1"
     inkscape:current-layer="Layer_1"
     inkscape:pagecheckerboard="true" />
  <defs
     id="defs4">
    <style
       id="style2">.cls-1{fill:#fff;}</style>
  </defs>
  <title
     id="title6">RYRacing-Logo-Black-CMYK</title>
  <path
     class="cls-1"
     d="M366.18,129.74c-115.37,0-222.39,93.68-238.56,208.81L72,734.26H497.82c115.36,0,222.39-93.68,238.57-208.82L792,129.74Z"
     transform="translate(-72 -129.74)"
     id="path8"
     style="fill:none" />
  <path
     d="M547.83,310.32l18.85-134.11H366.18C273.09,176.21,186.71,252,173.63,345L125.46,687.78h134.1L307.73,345c2.69-19.14,20.46-34.71,39.6-34.71h200.5ZM354.14,261.89c-45.85,0-88.39,37.3-94.83,83.14L217.94,639.36H180.69L222.06,345c9.33-66.38,70.93-120.39,137.31-120.39H511.45l-5.24,37.25Z"
     transform="translate(-72 -129.74)"
     id="path10"
     style="fill:#ffffff" />
  <path
     d="M604.44,176.21,584,321.62c-4.57,32.49-34.72,58.93-67.22,58.93H473l4.77-34H429.3L417.72,429H510c59.19,0,114.12-48.17,122.44-107.36l13.63-97h37.25L642,519c-9.33,66.39-70.93,120.4-137.32,120.4H350.9l5.24-37.25H509.87c45.84,0,88.38-37.3,94.83-83.15l14.13-100.58c-30.61,29.36-71.52,47.85-114.08,47.85H375.23l16.82-119.64H343.62L320,514.65H497.94a204.93,204.93,0,0,0,60.23-9.21L556.27,519c-2.69,19.15-20.45,34.72-39.6,34.72H314.52l-18.85,134.1H497.82c93.09,0,179.47-75.73,192.55-168.82l48.17-342.75Z"
     transform="translate(-72 -129.74)"
     id="path12"
     style="fill:#ffffff;fill-opacity:1" />
</svg>
