<?xml version="1.0" encoding="UTF-8"?>
<!-- Generator: Adobe Illustrator 15.0.2, SVG Export Plug-In  -->
<!DOCTYPE svg PUBLIC "-//W3C//DTD SVG 1.1//EN" "http://www.w3.org/Graphics/SVG/1.1/DTD/svg11.dtd">
<svg version="1.1" xmlns="http://www.w3.org/2000/svg" xmlns:xlink="http://www.w3.org/1999/xlink" xmlns:a="http://ns.adobe.com/AdobeSVGViewerExtensions/3.0/" x="0px" y="0px" width="194px" height="66px" overflow="visible" enable-background="new -95.2021484 -45.6098633 482 283" xml:space="preserve">
<defs>
</defs>
<polygon fill="#20539D" points="54.6777344,20.34375 63.3691406,20.34375 63.3691406,12.7841797 54.6777344,12.7841797   54.6777344,9.1103516 63.3691406,9.1103516 63.3691406,1.6738281 46.5429688,1.6738281 46.5429688,31.8242188   54.6777344,31.8242188 "/>
<rect x="83.0498047" y="1.6738281" fill="#20539D" width="8.1337891" height="30.1503906"/>
<polygon fill="#20539D" points="127.9882812,1.6738281 108.9082031,1.6738281 108.9082031,9.4375 114.3193359,9.4375   114.3193359,31.8242188 122.4541016,31.8242188 122.4541016,9.4375 127.9882812,9.4375 "/>
<rect x="46.5839844" y="34.6738281" fill="#20539D" width="8.1347656" height="30.1503906"/>
<path fill="#20539D" d="M73.4716797,34.140625c-4.3120117,0-8.0029297,1.4829102-10.9702148,4.4077148  c-2.9516602,2.9091797-4.5766602,6.777832-4.5766602,10.8930664c0,4.4018555,1.4389648,8.1586914,4.2773438,11.1679688  c2.9814453,3.1503906,6.7592773,4.7480469,11.2285156,4.7480469c4.2519531,0,8.1943359-1.6708984,11.0996094-4.7026367  c2.855957-2.9418945,4.3652344-6.7768555,4.3652344-11.090332c0-4.1157227-1.6542969-8.0136719-4.6586914-10.9750977  C81.3256836,35.7207031,77.5029297,34.140625,73.4716797,34.140625z M80.515625,49.5234375  c0,4.3422852-3.0458984,7.6171875-7.0849609,7.6171875c-3.8847656,0-7.1669922-3.4882812-7.1669922-7.6171875  c0-4.0195312,3.184082-7.1679688,7.2490234-7.1679688C77.3740234,42.3554688,80.515625,45.5708008,80.515625,49.5234375z"/>
<polygon fill="#20539D" points="89.3466797,42.4375 94.7578125,42.4375 94.7578125,64.8242188 102.8925781,64.8242188   102.8925781,42.4375 108.4277344,42.4375 108.4277344,34.6738281 89.3466797,34.6738281 "/>
<rect x="108.5996094" y="49.8847656" fill="#20539D" width="12.0283203" height="6.8623047"/>
<path fill="#20539D" d="M152.6865234,34.6728516l-11.3164062,29.472168v-6.7583008h-8.3232422V34.6738281h-8.0927734v30.1503906  h16.1552734h0.2607422h8.6113281l1.4770508-4.2226562h8.9213867l1.4345703,4.2226562h8.9580078l-11.5761719-30.1513672H152.6865234z   M158.1347656,53.5742188h-4.4257812l2.2294922-7.1552734L158.1347656,53.5742188z"/>
<path fill="#20539D" d="M188.5078125,48.4750977c2.0410156-1.3481445,2.9638672-3.2797852,2.9638672-6.1274414  c0-4.9487305-3.3818359-7.6738281-9.5205078-7.6738281h-10.4628906v30.1503906h9.3564453  c3.6474609,0,6.6264648-0.1694336,8.9873047-2.3032227c1.9296875-1.7583008,2.9921875-4.3208008,2.9921875-7.2163086  C192.8242188,51.9370117,191.409668,49.6933594,188.5078125,48.4750977z M180.5986328,45.9892578h-1.2226562v-4.2070312h1.8369141  c1.9746094,0,2.7802734,0.6508789,2.7802734,2.2470703C183.9931641,45.300293,183.4521484,45.9892578,180.5986328,45.9892578z   M184.7724609,55.1816406c0,1.9174805-0.8452148,2.5332031-3.4775391,2.5332031h-1.9189453v-5.1503906h1.7958984  C183.9306641,52.5644531,184.7724609,53.1757812,184.7724609,55.1816406z"/>
<path fill="#20539D" d="M41.9541016,20.9765625C41.9541016,9.3916016,32.5615234,0,20.9765625,0S0,9.3916016,0,20.9765625  S9.3916016,41.953125,20.9765625,41.953125S41.9541016,32.5615234,41.9541016,20.9765625"/>
<path fill="#FFFFFF" d="M24.0751953,20.4707031c0.2851562,1.7529297-0.9003906,3.4042969-2.6552734,3.6894531  c-1.75,0.2871094-3.4003906-0.9023438-3.6884766-2.6542969c-0.2851562-1.7519531,0.9042969-3.4033203,2.65625-3.6894531  S23.7880859,18.71875,24.0751953,20.4707031"/>
<path fill="#FFFFFF" d="M16.2832031,21.7441406l3.0097656,3.6826172l4.6933594-0.7666016l1.6845703-4.4492188l-3.0097656-3.6826172  l-4.6953125,0.7666016L16.2832031,21.7441406z M18.9179688,26.4160156l-3.6796875-4.5019531l2.0576172-5.4384766  l5.7392578-0.9365234l3.6806641,4.5l-2.0605469,5.4404297L18.9179688,26.4160156z"/>
<path fill="#FFFFFF" d="M40.7900391,22.046875l-2.2871094-0.1308594c0.0185547-0.3085938,0.0253906-0.6230469,0.0253906-0.9384766  c0-9.6787109-7.8740234-17.5537109-17.5527344-17.5537109c-3.7451172,0-7.3203125,1.1640625-10.3369141,3.3642578  L9.2880859,4.9384766c3.4121094-2.4892578,7.4541016-3.8056641,11.6875-3.8056641  c10.9414062,0,19.84375,8.9023438,19.84375,19.8447266C40.8193359,21.3378906,40.8105469,21.6943359,40.7900391,22.046875   M20.9755859,40.8203125c-10.9404297,0-19.8408203-8.9023438-19.8408203-19.8427734h2.2910156  c0,9.6777344,7.8720703,17.5517578,17.5498047,17.5517578c3.625,0,7.1064453-1.0957031,10.0664062-3.1689453l1.3144531,1.875  C29.0097656,39.5810547,25.0742188,40.8203125,20.9755859,40.8203125"/>
<path fill="#FFFFFF" d="M33.3212891,21.7734375l-1.3730469-0.0839844c0.0136719-0.2324219,0.0224609-0.4648438,0.0224609-0.7001953  c0-6.1025391-4.9638672-11.0673828-11.0654297-11.0673828c-2.3613281,0-4.6152344,0.734375-6.5195312,2.1220703  l-0.8085938-1.1103516c2.1396484-1.5605469,4.6738281-2.3857422,7.328125-2.3857422  c6.859375,0,12.4404297,5.5810547,12.4404297,12.4414062C33.3457031,21.2519531,33.3369141,21.5136719,33.3212891,21.7734375   M20.9052734,33.4296875c-6.8613281,0-12.4433594-5.5800781-12.4433594-12.4404297h1.3740234  c0,6.1015625,4.9648438,11.0673828,11.0693359,11.0673828c2.2851562,0,4.4785156-0.6923828,6.3457031-2.0019531l0.7890625,1.125  C25.9414062,32.6523438,23.4726562,33.4296875,20.9052734,33.4296875"/>
<path fill="#FFFFFF" d="M37.1181641,21.859375h-1.8330078c0-8.4160156-6.4511719-15.2636719-14.3798828-15.2636719  c-3.0605469,0-5.9824219,0.9482422-8.4511719,2.7441406l-1.078125-1.4824219  c2.7832031-2.0244141,6.0791016-3.09375,9.5292969-3.09375C29.8457031,4.7636719,37.1181641,12.4316406,37.1181641,21.859375   M20.9052734,37.1914062c-8.9414062,0-16.2158203-7.2744141-16.2158203-16.2148438h1.8320312  c0,7.9306641,6.453125,14.3808594,14.3837891,14.3808594c2.9794922,0,5.8378906-0.9033203,8.2666016-2.6113281l1.0537109,1.4990234  C27.4882812,36.1699219,24.265625,37.1894531,20.9052734,37.1914062"/>
</svg>