<?xml version="1.0" encoding="UTF-8" standalone="no"?>
<svg
   xmlns:dc="http://purl.org/dc/elements/1.1/"
   xmlns:cc="http://creativecommons.org/ns#"
   xmlns:rdf="http://www.w3.org/1999/02/22-rdf-syntax-ns#"
   xmlns:svg="http://www.w3.org/2000/svg"
   xmlns="http://www.w3.org/2000/svg"
   id="svg889"
   xml:space="preserve"
   style="enable-background:new 0 0 658.2 146;"
   viewBox="0 0 658.2 146"
   y="0px"
   x="0px"
   version="1.1"><metadata
     id="metadata895"><rdf:RDF><cc:Work
         rdf:about=""><dc:format>image/svg+xml</dc:format><dc:type
           rdf:resource="http://purl.org/dc/dcmitype/StillImage" /><dc:title></dc:title></cc:Work></rdf:RDF></metadata><defs
     id="defs893" /><g
     style="fill:#ffffff"
     id="g887"><polygon
       style="fill:#ffffff"
       id="polygon883"
       points="594.3,47.7 579.7,47.7 601.9,95.3 613.7,95.3 658.2,0 643.7,0 607.8,76.8 " /><path
       style="fill:#ffffff"
       id="path885"
       d="m 489.7,142.6 h 28.9 V 89.7 c 0,-12.1 7,-20.6 17.4,-20.6 10,0 15.2,7 15.2,17.1 v 56.4 h 28.9 V 80.7 c 0,-21 -12.6,-35.8 -33,-35.8 -13,0 -22.1,5.6 -28.9,15.8 h -0.6 v -13 h -28 z M 432.9,45.1 c -30.2,0 -50.4,21.7 -50.4,50.3 0,28.4 20.2,50.3 50.4,50.3 30.2,0 50.4,-21.9 50.4,-50.3 0.1,-28.6 -20.2,-50.3 -50.4,-50.3 z m -0.2,79.2 c -13.7,0 -21,-11.5 -21,-28.9 0,-17.6 7.2,-28.9 21,-28.9 13.7,0 21.3,11.3 21.3,28.9 0.1,17.4 -7.5,28.9 -21.3,28.9 z m -132.6,18.3 h 81.2 v -22.8 h -46 v -0.6 l 44,-49.3 V 47.6 h -79.2 v 22.9 h 44.5 v 0.6 l -44.5,49.7 z m -37.1,0 h 29.1 V 47.7 H 263 Z m -67.5,0 h 29 V 99 c 0,-19.8 11.9,-28.6 30,-26.1 h 0.6 v -25 c -1.5,-0.6 -3.2,-0.7 -5.9,-0.7 -11.3,0 -18.9,5.2 -25.4,16.3 h -0.6 V 47.7 h -27.7 z m -53.2,-18.2 c -12.8,0 -20.6,-8.3 -22.1,-21.1 h 68.4 c 0.2,-20.4 -5.2,-36.7 -16.5,-46.9 -8,-7.4 -18.5,-11.5 -31.9,-11.5 -28.6,0 -48.4,21.7 -48.4,50.1 0,28.6 18.9,50.4 50.3,50.4 11.9,0 21.3,-3.2 29.1,-8.5 8.3,-5.7 14.3,-14.1 15.9,-22.4 h -27.8 c -2.7,6.2 -8.5,9.9 -17,9.9 z m -1.5,-58.8 c 10.2,0 17.2,7.6 18.4,18.7 h -38.8 c 2.3,-11.2 8.4,-18.7 20.4,-18.7 z M 34,142.6 h 30.4 l 33,-94.9 H 68.3 l -18.5,61 H 49.4 L 30.9,47.7 H 1 Z M 263,13.9 h 29.1 V 39.7 H 263 Z" /></g></svg>