<?xml version="1.0" encoding="UTF-8"?>
<svg width="124px" height="23px" viewBox="0 0 124 23" version="1.1" xmlns="http://www.w3.org/2000/svg" xmlns:xlink="http://www.w3.org/1999/xlink" xmlns:sketch="http://www.bohemiancoding.com/sketch/ns">
    <!-- Generator: Sketch 3.3.3 (12072) - http://www.bohemiancoding.com/sketch -->
    <title>logo-pragmatic-minds-white 2</title>
    <desc>Created with Sketch.</desc>
    <defs></defs>
    <g id="Page-1" stroke="none" stroke-width="1" fill="none" fill-rule="evenodd" sketch:type="MSPage">
        <g id="logo-pragmatic-minds-white-2" sketch:type="MSLayerGroup" fill="#FFFFFF">
            <g id="Group" sketch:type="MSShapeGroup">
                <g transform="translate(0.000000, 15.000000)">
                    <path d="M0.8256836,3.9277344 L1.9135742,3.9277344 C2.2143554,3.9277344 2.4702148,3.8984375 2.6791992,3.834961 C2.8881836,3.772461 3.0561523,3.6875001 3.1811523,3.5859376 C3.3081054,3.4814454 3.3979492,3.3623048 3.4545898,3.2197267 C3.5112304,3.0781251 3.5385742,2.9257814 3.5385742,2.763672 C3.5385742,2.6083986 3.5112304,2.4599611 3.4545898,2.3173829 C3.3979492,2.1757813 3.3081054,2.053711 3.1811523,1.9453126 C3.0561523,1.841797 2.8881835,1.7578126 2.6791992,1.6992188 C2.4702148,1.6386719 2.2143554,1.609375 1.9135742,1.609375 L0.8256836,1.609375 L0.8256836,3.9277344 L0.8256836,3.9277344 Z M0.1479492,0.9902344 L2.0834961,0.9902344 C2.7592773,0.9902344 3.2944336,1.1367188 3.6850586,1.4306641 C4.0756836,1.7236329 4.2709961,2.1699219 4.2709961,2.7636719 C4.2709961,3.3574219 4.0756836,3.8056641 3.6850586,4.100586 C3.2944336,4.4003907 2.7592774,4.5478516 2.0834961,4.5478516 L0.8256836,4.5478516 L0.8256836,7.6376954 L0.1479492,7.6376954 L0.1479492,0.9902344 L0.1479492,0.9902344 Z" id="Shape"></path>
                    <path d="M8.0913086,3.9277344 L9.2924805,3.9277344 C9.5932617,3.9277344 9.8491211,3.8984375 10.0581055,3.834961 C10.2670899,3.772461 10.4350586,3.6884766 10.5600586,3.5859376 C10.6870117,3.4814454 10.7768555,3.3603517 10.831543,3.2197267 C10.8901368,3.0781251 10.9174805,2.9257814 10.9174805,2.763672 C10.9174805,2.6083986 10.8901367,2.4599611 10.831543,2.3173829 C10.7768555,2.1757813 10.6870118,2.053711 10.5600586,1.9472657 C10.4350586,1.8417969 10.2670898,1.7578126 10.0581055,1.6992188 C9.8491211,1.6386719 9.5932617,1.609375 9.2924805,1.609375 L8.0913086,1.609375 L8.0913086,3.9277344 L8.0913086,3.9277344 Z M8.0913086,7.6376953 L7.4155274,7.6376953 L7.4155274,0.9902344 L9.4604493,0.9902344 C10.1381837,0.9902344 10.6694337,1.1367188 11.0620118,1.4306641 C11.4545899,1.7236329 11.6499024,2.1699219 11.6499024,2.7636719 C11.6499024,3.2265625 11.503418,3.6171875 11.2124024,3.9316407 C10.9213868,4.2500001 10.4995118,4.4306641 9.9506836,4.4804688 L11.8647461,7.6376954 L11.0385742,7.6376954 L9.2182617,4.5478516 L8.0913086,4.5478516 L8.0913086,7.6376953 L8.0913086,7.6376953 Z" id="Shape"></path>
                    <path d="M15.7333984,5.2724609 L18.6162109,5.2724609 L17.1787109,1.7783203 L15.7333984,5.2724609 L15.7333984,5.2724609 Z M14.7490234,7.6376953 L13.9580078,7.6376953 L16.8505859,0.9902344 L17.5068359,0.9902344 L20.399414,7.6376953 L19.6103515,7.6376953 L18.8779296,5.890625 L15.4794921,5.890625 L14.7490234,7.6376953 L14.7490234,7.6376953 Z" id="Shape"></path>
                    <path d="M28.0893555,2.2109375 C27.8647461,1.9707031 27.5952149,1.7841797 27.2807617,1.6445313 C26.9682617,1.5078125 26.6049805,1.4404297 26.1928711,1.4404297 C25.7670899,1.4404297 25.3842773,1.5175781 25.0463867,1.6748047 C24.7084961,1.8330078 24.4233398,2.0410156 24.1870117,2.3027344 C23.9526367,2.5673828 23.7749023,2.8730469 23.6479492,3.2197266 C23.5209961,3.5673828 23.4604492,3.9316407 23.4604492,4.3125 C23.4604492,4.6953125 23.5209961,5.0595703 23.6479492,5.40625 C23.7749023,5.7548828 23.9526367,6.0576172 24.1870117,6.3222656 C24.4233398,6.5839844 24.7084961,6.7949218 25.0463867,6.9511718 C25.3842773,7.1074218 25.7670898,7.1875 26.1928711,7.1875 C26.5366211,7.1875 26.8686523,7.1445312 27.1831055,7.0605469 C27.4995117,6.9746094 27.7827149,6.8603516 28.0327149,6.7177735 L28.0327149,4.4921876 L26.4467774,4.4921876 L26.4467774,3.8740235 L28.7104493,3.8740235 L28.7104493,7.1298829 C28.3354493,7.3476563 27.9233399,7.5146485 27.4741212,7.6308595 C27.0268556,7.748047 26.6010743,7.8056642 26.1928712,7.8056642 C25.7006837,7.8056642 25.2397462,7.7187501 24.8159181,7.5419923 C24.3940431,7.3671876 24.0307619,7.1250001 23.7182619,6.8144532 C23.4096681,6.506836 23.1655275,6.1376954 22.9897463,5.7109376 C22.8154299,5.2871095 22.7275393,4.819336 22.7275393,4.3125001 C22.7275393,3.8056642 22.8154299,3.3408204 22.9897463,2.9140626 C23.1655275,2.4873048 23.4096682,2.1210938 23.7182619,1.810547 C24.0307619,1.5009767 24.3940431,1.2587892 24.8159181,1.0839845 C25.2397462,0.9091798 25.7006837,0.8193361 26.1928712,0.8193361 C26.7260743,0.8193361 27.1831056,0.8945314 27.5698243,1.0429689 C27.9545899,1.1884767 28.2963868,1.4130861 28.5971681,1.7128908 L28.0893555,2.2109375 L28.0893555,2.2109375 Z" id="Shape"></path>
                    <path d="M35.6381836,6.3974609 L37.8823242,0.9892578 L38.9135742,0.9892578 L38.9135742,7.6376953 L38.237793,7.6376953 L38.237793,1.890625 L38.2202148,1.890625 L35.815918,7.6376953 L35.4604492,7.6376953 L33.0561523,1.890625 L33.0366211,1.890625 L33.0366211,7.6376953 L32.362793,7.6376953 L32.362793,0.9902344 L33.394043,0.9902344 L35.6381836,6.3974609 Z" id="Shape"></path>
                    <path d="M43.4604492,5.2724609 L46.3413086,5.2724609 L44.9057617,1.7783203 L43.4604492,5.2724609 L43.4604492,5.2724609 Z M42.4741211,7.6376953 L41.6850586,7.6376953 L44.5756836,0.9902344 L45.2319336,0.9902344 L48.1245117,7.6376953 L47.3354492,7.6376953 L46.6030273,5.890625 L43.2045898,5.890625 L42.4741211,7.6376953 L42.4741211,7.6376953 Z" id="Shape"></path>
                    <path d="M52.3959961,7.6376953 L51.7202148,7.6376953 L51.7202148,1.609375 L49.4936523,1.609375 L49.4936523,0.9902344 L54.6206055,0.9902344 L54.6206055,1.609375 L52.3959961,1.609375 L52.3959961,7.6376953 Z" id="Shape"></path>
                    <rect id="Rectangle-path" x="57.5288086" y="0.9902344" width="0.6796875" height="6.6455078"></rect>
                    <path d="M67.3691406,6.5830078 C67.2578125,6.7529297 67.1191406,6.9130859 66.953125,7.0634766 C66.7871094,7.2119141 66.5976562,7.3427735 66.3867188,7.4521485 C66.1738282,7.5634766 65.9453126,7.6484376 65.6953126,7.7109376 C65.4492188,7.7744142 65.1875001,7.8056642 64.9101564,7.8056642 C64.4160158,7.8056642 63.9584962,7.7187501 63.5346681,7.5419923 C63.1127931,7.3671876 62.7475587,7.1250001 62.4370119,6.8144532 C62.126465,6.506836 61.8842775,6.1376954 61.7104494,5.7109376 C61.532715,5.2871095 61.4467775,4.819336 61.4467775,4.3125001 C61.4467775,3.8056642 61.532715,3.3408204 61.7104494,2.9140626 C61.8842775,2.4873048 62.126465,2.1210938 62.4370119,1.810547 C62.7475588,1.5009767 63.1127931,1.2587892 63.5346681,1.0839845 C63.9584962,0.9082033 64.4160158,0.8193361 64.9101564,0.8193361 C65.3242189,0.8193361 65.7382814,0.9013673 66.1503908,1.0634767 C66.5644533,1.2255861 66.9160158,1.4970705 67.2128908,1.8720705 L66.6191408,2.3115236 C66.5507814,2.2060548 66.4570314,2.1005861 66.3378908,1.9951174 C66.2187502,1.8876955 66.0839846,1.7939455 65.9316408,1.7138674 C65.7753908,1.629883 65.6113283,1.5664065 65.4375002,1.5156252 C65.261719,1.4658205 65.0859377,1.4414064 64.9101564,1.4414064 C64.4843752,1.4414064 64.1035158,1.5175783 63.7651369,1.6748048 C63.4272463,1.8300782 63.14209,2.0410157 62.907715,2.3046876 C62.6694338,2.5673829 62.4936525,2.873047 62.3666994,3.2216798 C62.2416994,3.5673829 62.1772463,3.9316407 62.1772463,4.3125001 C62.1772463,4.694336 62.2416994,5.0595704 62.3666994,5.4082032 C62.4936525,5.7548829 62.6694338,6.060547 62.907715,6.3222657 C63.14209,6.5839845 63.4272462,6.7949219 63.7651369,6.9501954 C64.1035158,7.107422 64.4843752,7.1875001 64.9101564,7.1875001 C65.0859376,7.1875001 65.2597658,7.1708985 65.4335939,7.1396485 C65.6035158,7.1074219 65.7734377,7.0556641 65.9394533,6.9794923 C66.1054689,6.9033205 66.2617189,6.8037111 66.4082033,6.6728517 C66.5546877,6.5478517 66.6933595,6.3857423 66.8183595,6.1904298 L67.3691406,6.5830078 L67.3691406,6.5830078 Z" id="Shape"></path>
                    <path d="M70.0058594,0.9892578 L72.2207031,0.9892578 L73.75,5.3251953 L73.7695312,5.3251953 L75.3125,0.9892578 L77.5175781,0.9892578 L77.5175781,7.6376953 L76.0507812,7.6376953 L76.0507812,2.5380859 L76.03125,2.5380859 L74.2871094,7.6376953 L73.1699219,7.6376953 L71.4882812,2.5380859 L71.4726562,2.5380859 L71.4726562,7.6376953 L70.0058594,7.6376953 L70.0058594,0.9892578 Z" id="Shape"></path>
                    <rect id="Rectangle-path" x="80.7246094" y="0.9892578" width="1.4667969" height="6.6484375"></rect>
                    <path d="M85.4042969,0.9892578 L87.390625,0.9892578 L90.2207031,5.6064453 L90.2363281,5.6064453 L90.2363281,0.9892578 L91.703125,0.9892578 L91.703125,7.6376953 L89.7890625,7.6376953 L86.8867188,2.9033203 L86.8671875,2.9033203 L86.8671875,7.6376953 L85.4042969,7.6376953 L85.4042969,0.9892578 Z" id="Shape"></path>
                    <path d="M96.3964844,6.2841797 L97.15625,6.2841797 C97.4941406,6.2841797 97.8085938,6.2490235 98.1035156,6.1806641 C98.3925781,6.1123047 98.6445312,5.9970703 98.8554687,5.8369141 C99.0683593,5.678711 99.2382812,5.4677735 99.3593749,5.209961 C99.4804687,4.9501954 99.5429687,4.631836 99.5429687,4.256836 C99.5429687,3.9306641 99.4804687,3.647461 99.3593749,3.4072266 C99.2382811,3.1650391 99.0703124,2.9677735 98.8652343,2.8115235 C98.6601562,2.6533204 98.4160155,2.5361329 98.1406249,2.459961 C97.8593749,2.3798829 97.5683593,2.3408204 97.2597655,2.3408204 L96.3964843,2.3408204 L96.3964843,6.2841797 L96.3964844,6.2841797 Z M94.9335938,0.9892578 L97.1289063,0.9892578 C97.6601563,0.9892578 98.1679688,1.0498047 98.6445313,1.1669922 C99.1230469,1.288086 99.5429688,1.4775391 99.8964844,1.7451172 C100.253906,2.0126953 100.539063,2.3583984 100.748047,2.7822266 C100.957031,3.2060548 101.066406,3.7236328 101.066406,4.3310547 C101.066406,4.8701172 100.960938,5.3447266 100.755859,5.7548828 C100.554688,6.1630859 100.277344,6.508789 99.9355469,6.7880859 C99.5917969,7.0654297 99.1972657,7.2763671 98.7441407,7.4208984 C98.2929688,7.5644531 97.8222657,7.6376953 97.3261719,7.6376953 L94.9335938,7.6376953 L94.9335938,0.9892578 L94.9335938,0.9892578 Z" id="Shape"></path>
                    <path d="M107.21875,2.6123047 C107.103516,2.4619141 106.939453,2.3544922 106.738281,2.2802735 C106.535156,2.2080079 106.34375,2.1708985 106.162109,2.1708985 C106.052734,2.1708985 105.943359,2.1845704 105.832031,2.209961 C105.716797,2.2353516 105.613281,2.2744141 105.511719,2.3271485 C105.412109,2.3798829 105.330078,2.4501954 105.269531,2.538086 C105.207031,2.6279298 105.173828,2.7314454 105.173828,2.8564454 C105.173828,3.0576173 105.25,3.209961 105.400391,3.3173829 C105.550781,3.4248048 105.740234,3.5146485 105.966797,3.5888673 C106.195312,3.6650392 106.439453,3.7392579 106.705078,3.8154298 C106.96875,3.8896486 107.21289,3.9970704 107.443359,4.1337892 C107.669922,4.2724611 107.857422,4.458008 108.007812,4.6865236 C108.158203,4.9189455 108.232422,5.2294924 108.232422,5.6162111 C108.232422,5.9873049 108.167969,6.3095705 108.027344,6.583008 C107.888672,6.8603518 107.705078,7.0869142 107.466797,7.2685549 C107.234375,7.4482424 106.960937,7.5869143 106.65039,7.6738283 C106.34375,7.7626955 106.013672,7.8037111 105.671875,7.8037111 C105.238281,7.8037111 104.83789,7.7382814 104.46875,7.607422 C104.101562,7.4775392 103.755859,7.2626954 103.435547,6.9697267 L104.478516,5.8251955 C104.628906,6.0244143 104.820312,6.1787111 105.046875,6.2900393 C105.275391,6.3974612 105.511719,6.4541018 105.755859,6.4541018 C105.875,6.4541018 105.994141,6.4384768 106.115234,6.4091799 C106.238281,6.3818361 106.347656,6.3408205 106.447266,6.2822268 C106.541016,6.2275393 106.619141,6.1552737 106.679687,6.0693362 C106.740234,5.9794924 106.769531,5.8759768 106.769531,5.7587893 C106.769531,5.5576174 106.691406,5.3974612 106.539062,5.2841799 C106.386719,5.1669924 106.193359,5.0693361 105.962891,4.9873049 C105.732422,4.9052737 105.480469,4.8251955 105.212891,4.7431643 C104.941406,4.6630862 104.691406,4.5517581 104.458984,4.4150393 C104.228516,4.2763674 104.035156,4.0966799 103.880859,3.8701174 C103.730469,3.6435549 103.652344,3.3466799 103.652344,2.9775393 C103.652344,2.6220705 103.724609,2.3095705 103.865234,2.0400393 C104.005859,1.7705081 104.189453,1.5458987 104.427734,1.3642581 C104.662109,1.1845706 104.933594,1.0478519 105.238281,0.9541019 C105.548828,0.8642581 105.863281,0.8193363 106.1875,0.8193363 C106.564453,0.8193363 106.927734,0.8720707 107.275391,0.9794925 C107.626953,1.0849613 107.941406,1.2646487 108.222656,1.5146487 L107.21875,2.6123047 L107.21875,2.6123047 Z" id="Shape"></path>
                </g>
                <g transform="translate(104.000000, 0.000000)" id="Shape">
                    <path d="M5.4511719,9.5239258 L0.0888672,4.9599609 L1.0019531,8.7729492 L5.4511719,9.5239258 Z"></path>
                    <path d="M4.1083984,1.0473633 L0.0605469,4.1591797 L5.9726562,9.190918 L4.1083984,1.0473633 Z"></path>
                    <path d="M10.8134766,5.8798828 L12.6845703,11.7675781 L14.5644531,0.9248047 L10.8134766,5.8798828 Z"></path>
                    <path d="M10.0537109,5.8457031 L4.78125,1.3369141 L6.6269531,9.3964844 L10.0537109,5.8457031 Z"></path>
                    <path d="M19.7861328,8.6967773 L15.2138672,0.6347656 L13.1679688,12.4433594 L19.7861328,8.6967773 Z"></path>
                    <path d="M5.0371094,0.7749023 L10.4394531,5.3974609 L14.4335938,0.1137695 L5.0371094,0.7749023 Z"></path>
                    <path d="M19.3203125,9.6445312 L13.1396484,13.1420898 L14.6816406,17.0478516 L19.3203125,9.6445312 Z"></path>
                    <path d="M10.4726562,6.7539062 L8.4580078,12.4121094 L12.3554688,12.684082 L10.4726562,6.7539062 Z"></path>
                    <path d="M6.8291016,10.0385742 L7.9824219,11.9873047 L9.7470703,7.0126953 L6.8291016,10.0385742 Z"></path>
                </g>
            </g>
        </g>
    </g>
</svg>