<?xml version="1.0" encoding="UTF-8" standalone="no"?>
<!-- Generator: Adobe Illustrator 16.0.4, SVG Export Plug-In . SVG Version: 6.00 Build 0)  -->

<svg
   xmlns:dc="http://purl.org/dc/elements/1.1/"
   xmlns:cc="http://creativecommons.org/ns#"
   xmlns:rdf="http://www.w3.org/1999/02/22-rdf-syntax-ns#"
   xmlns:svg="http://www.w3.org/2000/svg"
   xmlns="http://www.w3.org/2000/svg"
   xmlns:sodipodi="http://sodipodi.sourceforge.net/DTD/sodipodi-0.dtd"
   xmlns:inkscape="http://www.inkscape.org/namespaces/inkscape"
   version="1.1"
   id="Layer_1"
   x="0px"
   y="0px"
   width="52.527988mm"
   height="21.77771mm"
   viewBox="-68.7 -24.47 186.12281 77.165113"
   enable-background="new -68.7 -24.47 350 68.667"
   xml:space="preserve"
   inkscape:version="0.91 r13725"
   sodipodi:docname="openrobotics-logo-stacked2.svg"
   inkscape:export-filename="/home/mikael/Downloads/openrobotics-logo-stacked.svg.png"
   inkscape:export-xdpi="90"
   inkscape:export-ydpi="90"><metadata
     id="metadata67"><rdf:RDF><cc:Work
         rdf:about=""><dc:format>image/svg+xml</dc:format><dc:type
           rdf:resource="http://purl.org/dc/dcmitype/StillImage" /><dc:title></dc:title></cc:Work></rdf:RDF></metadata><defs
     id="defs65" /><sodipodi:namedview
     pagecolor="#ffffff"
     bordercolor="#666666"
     borderopacity="1"
     objecttolerance="10"
     gridtolerance="10"
     guidetolerance="10"
     inkscape:pageopacity="0"
     inkscape:pageshadow="2"
     inkscape:window-width="2495"
     inkscape:window-height="1416"
     id="namedview63"
     showgrid="false"
     inkscape:zoom="6.8114285"
     inkscape:cx="43.67619"
     inkscape:cy="24.67858"
     inkscape:window-x="2625"
     inkscape:window-y="24"
     inkscape:window-maximized="1"
     inkscape:current-layer="Layer_1"
     units="mm"
     fit-margin-top="0.1"
     fit-margin-left="0.1"
     fit-margin-right="0.1"
     fit-margin-bottom="0.1"
     showguides="true"
     inkscape:guide-bbox="true"
     borderlayer="false"
     inkscape:showpageshadow="false" /><g
     id="g3347"
     transform="translate(-2.8481388,1.3877229e-5)"><path
       style="fill:#44497a;stroke:#ffffff;stroke-width:0.87440002;stroke-miterlimit:10;stroke-opacity:0"
       inkscape:connector-curvature="0"
       id="path61"
       d="m -41.905212,9.5189889 0.026,0.019 c -0.911,1.5420001 -1.446,3.3490001 -1.446,5.2890001 0,3.321001 1.536,6.348001 4.074,8.227001 l -7.932,13.22901 -12.017,-21.702011 12.784,-23.0739937 14.442,0 -9.931,18.0119936 z m 21.819,26.7590111 -7.936,-13.22901 c 2.547,-1.879 4.083,-4.905 4.083,-8.227001 0,-5.5730001 -4.352,-10.1059951 -9.694,-10.1059951 -1.203,0 -2.351,0.242 -3.414,0.659 l 7.646,-13.8709986 8.551,0 L -8.0682131,14.577989 -20.086212,36.278 Z"
       stroke-miterlimit="10" /><g
       style="font-style:normal;font-weight:normal;font-size:16.23749924px;line-height:100%;font-family:sans-serif;letter-spacing:0px;word-spacing:0px;fill:#44497a;fill-opacity:1;stroke:none;stroke-width:1px;stroke-linecap:butt;stroke-linejoin:miter;stroke-opacity:1"
       id="text4195"><path
         d="m 4.5971027,-6.8400812 q -2.2583009,0 -3.5705568,1.7700197 -1.31225595,1.7547608 -1.31225595,4.82177759 0,3.06701681 1.29699715,4.83703641 1.3122559,1.7547609 3.5858156,1.7547609 2.2430422,0 3.5552981,-1.7700197 1.312256,-1.7700196 1.312256,-4.82177761 0,-3.03649919 -1.312256,-4.80651889 -1.3122559,-1.7852784 -3.5552981,-1.7852784 z m 0,-2.3803712 q 3.6621096,0 5.7525643,2.3803712 2.090454,2.3803713 2.090454,6.59179729 0,4.19616721 -2.090454,6.59179731 -2.0904547,2.3803712 -5.7525643,2.3803712 -3.67736834,0 -5.7678226,-2.3803712 -2.0751954,-2.3956301 -2.0751954,-6.59179731 0,-4.21142599 2.0751954,-6.59179729 2.09045426,-2.3803712 5.7678226,-2.3803712 z"
         style="font-style:normal;font-variant:normal;font-weight:normal;font-stretch:normal;font-size:31.25000191px;line-height:100%;font-family:Overpass;-inkscape-font-specification:Overpass;letter-spacing:0px;fill:#44497a;fill-opacity:1"
         id="path3455" /><path
         d="m 19.794858,5.717903 0,9.063721 -2.822876,0 0,-23.5900891 2.822876,0 0,2.5939943 q 0.88501,-1.525879 2.227784,-2.2583009 1.358032,-0.7476807 3.234863,-0.7476807 3.112793,0 5.05066,2.471924 1.953125,2.4719239 1.953125,6.50024449 0,4.02832061 -1.953125,6.50024451 -1.937867,2.471924 -5.05066,2.471924 -1.876831,0 -3.234863,-0.7324219 Q 20.679868,7.243782 19.794858,5.717903 Z m 9.552003,-5.96618691 q 0,-3.09753439 -1.281738,-4.85229519 -1.26648,-1.7700197 -3.494263,-1.7700197 -2.227784,0 -3.509522,1.7700197 -1.26648,1.7547608 -1.26648,4.85229519 0,3.09753441 1.26648,4.86755401 1.281738,1.7547609 3.509522,1.7547609 2.227783,0 3.494263,-1.7547609 1.281738,-1.7700196 1.281738,-4.86755401 z"
         style="font-style:normal;font-variant:normal;font-weight:normal;font-stretch:normal;font-size:31.25000191px;line-height:100%;font-family:Overpass;-inkscape-font-specification:Overpass;letter-spacing:0px;fill:#44497a;fill-opacity:1"
         id="path3457" /><path
         d="m 51.533142,-0.96544704 0,1.3732911 -12.908936,0 q 0.183105,2.89917014 1.739502,4.42504914 1.571655,1.5106202 4.364014,1.5106202 1.617432,0 3.128052,-0.3967286 1.525879,-0.3967285 3.02124,-1.1901856 l 0,2.6550295 q -1.51062,0.6408691 -3.097534,0.9765625 -1.586914,0.3356934 -3.219605,0.3356934 -4.089356,0 -6.484986,-2.3803712 -2.380371,-2.3803713 -2.380371,-6.43920941 0,-4.19616729 2.258301,-6.65283239 2.27356,-2.471924 6.118775,-2.471924 3.448486,0 5.447388,2.2277833 2.01416,2.2125246 2.01416,6.02722206 z M 48.725525,-1.7894217 q -0.03052,-2.3040773 -1.296997,-3.6773684 -1.251221,-1.3732911 -3.326417,-1.3732911 -2.349853,0 -3.768921,1.3275147 -1.403808,1.3275148 -1.617431,3.7384036 l 10.009766,-0.015259 z"
         style="font-style:normal;font-variant:normal;font-weight:normal;font-stretch:normal;font-size:31.25000191px;line-height:100%;font-family:Overpass;-inkscape-font-specification:Overpass;letter-spacing:0px;fill:#44497a;fill-opacity:1"
         id="path3459" /><path
         d="m 70.347233,-2.0335623 0,10.314942 -2.807617,0 0,-10.2233893 q 0,-2.4261476 -0.946045,-3.631592 -0.946045,-1.2054444 -2.838135,-1.2054444 -2.27356,0 -3.585816,1.449585 -1.312256,1.4495851 -1.312256,3.9520266 l 0,9.6588141 -2.822876,0 0,-17.0898448 2.822876,0 0,2.6550295 q 1.00708,-1.5411378 2.365112,-2.3040773 1.373292,-0.7629395 3.15857,-0.7629395 2.944946,0 4.455567,1.8310548 1.51062,1.815796 1.51062,5.3558353 z"
         style="font-style:normal;font-variant:normal;font-weight:normal;font-stretch:normal;font-size:31.25000191px;line-height:100%;font-family:Overpass;-inkscape-font-specification:Overpass;letter-spacing:0px;fill:#44497a;fill-opacity:1"
         id="path3461" /></g><g
       style="font-style:normal;font-variant:normal;font-weight:normal;font-stretch:normal;font-size:40px;line-height:125%;font-family:overpass;-inkscape-font-specification:overpass;letter-spacing:0px;word-spacing:0px;fill:#000000;fill-opacity:1;stroke:none;stroke-width:1px;stroke-linecap:butt;stroke-linejoin:miter;stroke-opacity:1"
       id="text3342"><path
         d="M 6.9402426,20.508773 Q 6.4672201,20.234115 5.9026449,20.112044 5.3533284,19.974715 4.6819417,19.974715 q -2.3803713,0 -3.6621096,1.556397 -1.26647959,1.541138 -1.26647959,4.440308 l 0,9.002686 -2.82287611,0 0,-17.089845 2.82287611,0 0,2.65503 q 0.88500982,-1.556397 2.30407729,-2.304078 1.4190675,-0.762939 3.4484865,-0.762939 0.289917,0 0.6408692,0.04578 0.3509522,0.03052 0.7781983,0.106812 l 0.015259,2.883911 z"
         style="font-style:normal;font-variant:normal;font-weight:normal;font-stretch:normal;font-size:31.25000191px;font-family:overpass;-inkscape-font-specification:overpass;letter-spacing:-1.00000012px;fill:#666666"
         id="path3464" /><path
         d="m 14.866635,19.852645 q -2.258301,0 -3.570557,1.77002 -1.3122558,1.75476 -1.3122558,4.821777 0,3.067017 1.2969968,4.837037 1.312256,1.754761 3.585816,1.754761 2.243042,0 3.555298,-1.77002 1.312256,-1.77002 1.312256,-4.821778 0,-3.036499 -1.312256,-4.806519 -1.312256,-1.785278 -3.555298,-1.785278 z m 0,-2.380371 q 3.66211,0 5.752564,2.380371 2.090454,2.380371 2.090454,6.591797 0,4.196167 -2.090454,6.591798 -2.090454,2.380371 -5.752564,2.380371 -3.677368,0 -5.7678227,-2.380371 -2.0751954,-2.395631 -2.0751954,-6.591798 0,-4.211426 2.0751954,-6.591797 2.0904547,-2.380371 5.7678227,-2.380371 z"
         style="font-style:normal;font-variant:normal;font-weight:normal;font-stretch:normal;font-size:31.25000191px;font-family:overpass;-inkscape-font-specification:overpass;letter-spacing:-1.00000012px;fill:#666666"
         id="path3466" /><path
         d="m 38.616392,26.444442 q 0,-3.097534 -1.281738,-4.852295 -1.26648,-1.77002 -3.494263,-1.77002 -2.227783,0 -3.509522,1.77002 -1.266479,1.754761 -1.266479,4.852295 0,3.097535 1.266479,4.867554 1.281739,1.754761 3.509522,1.754761 2.227783,0 3.494263,-1.754761 1.281738,-1.770019 1.281738,-4.867554 z M 29.06439,20.478255 q 0.885009,-1.525879 2.227783,-2.258301 1.358032,-0.74768 3.234863,-0.74768 3.112794,0 5.05066,2.471924 1.953125,2.471924 1.953125,6.500244 0,4.028321 -1.953125,6.500245 -1.937866,2.471924 -5.05066,2.471924 -1.876831,0 -3.234863,-0.732422 -1.342774,-0.747681 -2.227783,-2.27356 l 0,2.563477 -2.822877,0 0,-23.742677 2.822877,0 0,9.246826 z"
         style="font-style:normal;font-variant:normal;font-weight:normal;font-stretch:normal;font-size:31.25000191px;font-family:overpass;-inkscape-font-specification:overpass;letter-spacing:-1.00000012px;fill:#666666"
         id="path3468" /><path
         d="m 51.807068,19.852645 q -2.258301,0 -3.570557,1.77002 -1.312256,1.75476 -1.312256,4.821777 0,3.067017 1.296997,4.837037 1.312256,1.754761 3.585816,1.754761 2.243042,0 3.555298,-1.77002 1.312256,-1.77002 1.312256,-4.821778 0,-3.036499 -1.312256,-4.806519 -1.312256,-1.785278 -3.555298,-1.785278 z m 0,-2.380371 q 3.662109,0 5.752563,2.380371 2.090455,2.380371 2.090455,6.591797 0,4.196167 -2.090455,6.591798 -2.090454,2.380371 -5.752563,2.380371 -3.677369,0 -5.767823,-2.380371 -2.075196,-2.395631 -2.075196,-6.591798 0,-4.211426 2.075196,-6.591797 2.090454,-2.380371 5.767823,-2.380371 z"
         style="font-style:normal;font-variant:normal;font-weight:normal;font-stretch:normal;font-size:31.25000191px;font-family:overpass;-inkscape-font-specification:overpass;letter-spacing:-1.00000012px;fill:#666666"
         id="path3470" /><path
         d="m 66.06586,13.031966 0,4.852295 5.783082,0 0,2.182007 -5.783082,0 0,9.277344 q 0,2.090455 0.564575,2.685547 0.579834,0.595093 2.334595,0.595093 l 2.883912,0 0,2.349854 -2.883912,0 q -3.250122,0 -4.486084,-1.205445 -1.235962,-1.220703 -1.235962,-4.425049 l 0,-9.277344 -2.059937,0 0,-2.182007 2.059937,0 0,-4.852295 2.822876,0 z"
         style="font-style:normal;font-variant:normal;font-weight:normal;font-stretch:normal;font-size:31.25000191px;font-family:overpass;-inkscape-font-specification:overpass;letter-spacing:-1.00000012px;fill:#666666"
         id="path3472" /><path
         d="m 74.556827,17.884261 2.807617,0 0,17.089845 -2.807617,0 0,-17.089845 z m 0,-6.652832 2.807617,0 0,3.555298 -2.807617,0 0,-3.555298 z"
         style="font-style:normal;font-variant:normal;font-weight:normal;font-stretch:normal;font-size:31.25000191px;font-family:overpass;-inkscape-font-specification:overpass;letter-spacing:-1.00000012px;fill:#666666"
         id="path3474" /><path
         d="m 94.522404,18.540389 0,2.624512 q -1.190186,-0.656128 -2.39563,-0.976563 -1.190186,-0.335693 -2.410889,-0.335693 -2.731324,0 -4.241944,1.739502 -1.51062,1.724243 -1.51062,4.852295 0,3.128052 1.51062,4.867554 1.51062,1.724244 4.241944,1.724244 1.220703,0 2.410889,-0.320435 1.205444,-0.335693 2.39563,-0.991821 l 0,2.593994 q -1.174927,0.549316 -2.441407,0.823975 -1.25122,0.274658 -2.670288,0.274658 -3.860474,0 -6.134034,-2.426148 -2.273559,-2.426147 -2.273559,-6.546021 0,-4.180908 2.288818,-6.576538 2.304078,-2.39563 6.301881,-2.39563 1.296997,0 2.532959,0.274658 1.235962,0.259399 2.39563,0.793457 z"
         style="font-style:normal;font-variant:normal;font-weight:normal;font-stretch:normal;font-size:31.25000191px;font-family:overpass;-inkscape-font-specification:overpass;letter-spacing:-1.00000012px;fill:#666666"
         id="path3476" /><path
         d="m 109.33051,18.387801 0,2.65503 q -1.19019,-0.610352 -2.47192,-0.915528 -1.28174,-0.305176 -2.65503,-0.305176 -2.09046,0 -3.14332,0.64087 -1.03759,0.640869 -1.03759,1.922607 0,0.976563 0.74768,1.541138 0.74768,0.549316 3.00598,1.052856 l 0.9613,0.213623 q 2.99073,0.64087 4.24195,1.815796 1.26648,1.159668 1.26648,3.250123 0,2.380371 -1.89209,3.768921 -1.87683,1.38855 -5.17273,1.38855 -1.37329,0 -2.86866,-0.274658 -1.480098,-0.2594 -3.128048,-0.793458 l 0,-2.89917 q 1.556397,0.808716 3.067018,1.220704 1.51062,0.396728 2.99072,0.396728 1.98364,0 3.05176,-0.671387 1.06812,-0.686645 1.06812,-1.922607 0,-1.144409 -0.7782,-1.754761 -0.76294,-0.610352 -3.3722,-1.174927 l -0.97656,-0.228882 q -2.609251,-0.549316 -3.768919,-1.678467 -1.159668,-1.144409 -1.159668,-3.128052 0,-2.410888 1.708984,-3.723144 1.708983,-1.312256 4.852293,-1.312256 1.5564,0 2.92969,0.228882 1.37329,0.228881 2.53296,0.686645 z"
         style="font-style:normal;font-variant:normal;font-weight:normal;font-stretch:normal;font-size:31.25000191px;font-family:overpass;-inkscape-font-specification:overpass;letter-spacing:-1.00000012px;fill:#666666"
         id="path3478" /></g></g><g
     transform="translate(0,1.3877229e-5)"
     style="font-style:normal;font-weight:normal;font-size:40px;line-height:125%;font-family:sans-serif;letter-spacing:0px;word-spacing:0px;fill:#000000;fill-opacity:1;stroke:none;stroke-width:1px;stroke-linecap:butt;stroke-linejoin:miter;stroke-opacity:1"
     id="flowRoot3339" /></svg>