<svg xmlns="http://www.w3.org/2000/svg" xmlns:xlink="http://www.w3.org/1999/xlink" version="1.1" id="Calque_1" x="0px" y="0px" width="100px" height="100px" viewBox="0 0 100 100" enable-background="new 0 0 100 100" xml:space="preserve">
<path fill="#333333" d="M64.889,34.433c-6.933-8.276-13.482-16.092-13.482-25.93c0-0.309-0.25-0.56-0.561-0.56  c-0.309,0-0.56,0.251-0.56,0.56c0,9.838-6.547,17.655-13.479,25.93c-7.382,8.812-15.015,17.924-15.015,30.135  c0,16.055,12.491,28.16,29.054,28.16c16.568,0,29.062-12.105,29.062-28.16C79.908,52.357,72.273,43.245,64.889,34.433z   M53.109,84.434c-6.943,0,16.391-9.517,2.303-40.012c-3.579-6.588,2.35-4.244,4.674-1.854c7.072,7.232,13.201,13.48,13.201,23.254  C73.287,77.314,65.344,84.434,53.109,84.434z"/>
</svg>